<?xml version="1.0" standalone="no"?>
<!DOCTYPE svg PUBLIC "-//W3C//DTD SVG 20010904//EN"
 "http://www.w3.org/TR/2001/REC-SVG-20010904/DTD/svg10.dtd">
<svg version="1.0" xmlns="http://www.w3.org/2000/svg"
 width="290.000000pt" height="232.000000pt" viewBox="0 0 290.000000 232.000000"
 preserveAspectRatio="xMidYMid meet">
<style>
  /* Country outline: light #a1a1aa, dark #52525b (match WorldMapChart) */
  path { fill: #a1a1aa; stroke: none; }
  @media (prefers-color-scheme: dark) { path { fill: #52525b; } }
</style>
<g transform="translate(0.000000,232.000000) scale(0.100000,-0.100000)"
stroke="none">
<path d="M2032 2233 c-24 -27 -48 -58 -53 -70 -8 -21 -15 -22 -134 -25 -70 -2
-129 -1 -131 2 -9 8 -94 7 -94 -2 0 -4 18 -8 40 -8 36 0 41 -4 59 -37 28 -56
66 -93 95 -93 14 0 72 -13 128 -29 263 -76 539 -126 781 -141 93 -7 171 -9
175 -6 12 13 -11 19 -85 22 -193 10 -407 36 -568 70 -73 15 -301 71 -322 79
-18 6 66 168 115 222 31 35 45 43 86 49 47 6 48 6 41 -17 -12 -41 -92 -163
-126 -193 -27 -24 -30 -31 -17 -40 8 -6 20 -20 27 -31 11 -19 12 -18 7 6 l-6
26 318 11 c517 20 477 20 480 -4 2 -12 11 -29 21 -38 17 -15 19 -15 24 -1 4 9
1 15 -7 15 -13 0 -26 20 -26 41 0 5 9 9 20 9 11 0 20 5 20 11 0 8 -56 10 -202
5 -249 -8 -583 -25 -620 -31 -36 -6 -35 1 10 53 l37 42 387 2 c213 1 387 3
385 4 -1 1 -24 3 -52 5 -61 3 -75 7 -75 24 0 9 18 13 61 13 33 0 63 3 67 6 3
4 -163 5 -370 4 l-376 -3 13 25 c7 14 16 35 19 48 7 21 5 22 -50 22 -56 0 -59
-1 -102 -47z m718 -70 c0 -15 -185 -19 -194 -4 -9 14 0 16 98 16 70 0 96 -3
96 -12z m-212 -3 c-2 -7 -74 -13 -206 -17 -186 -5 -217 -2 -196 19 11 12 406
9 402 -2z m-588 -45 c0 -5 -14 -34 -31 -64 -23 -39 -34 -50 -42 -42 -6 6 -22
11 -36 11 -48 0 -71 12 -92 46 -34 56 -25 61 95 60 63 -1 106 -5 106 -11z"/>
<path d="M955 2181 c-247 -6 -311 -10 -362 -25 -35 -10 -63 -22 -63 -27 0 -4
-17 -13 -37 -18 -63 -17 -162 -82 -218 -143 -59 -63 -183 -294 -189 -351 -2
-17 -10 -59 -17 -92 -9 -41 -13 -151 -13 -340 -1 -376 10 -445 100 -617 96
-182 193 -279 326 -325 36 -12 44 -12 51 -1 7 10 34 12 130 6 67 -4 299 -11
515 -17 217 -5 396 -12 399 -15 3 -3 3 -13 -1 -22 -6 -16 -41 -16 -464 -11
-385 4 -465 8 -510 22 -70 21 -91 14 -27 -10 42 -15 98 -19 345 -25 395 -9
635 -6 653 8 8 7 16 10 18 7 3 -2 92 -7 198 -10 l193 -6 47 -48 c48 -49 91
-66 137 -55 31 8 30 17 -6 83 -17 30 -30 56 -30 58 0 1 93 3 206 3 182 0 205
-2 202 -16 -3 -14 -28 -16 -193 -16 -146 0 -174 -2 -120 -8 39 -5 207 -8 375
-7 168 1 274 3 237 5 -58 2 -68 6 -65 20 3 14 13 16 66 13 39 -2 62 1 62 8 0
7 -120 10 -387 11 l-388 0 -23 27 c-13 16 -33 39 -45 52 l-22 24 30 -7 c38 -8
609 -36 738 -36 95 0 127 11 66 24 -17 3 -86 6 -153 6 -142 0 -586 18 -634 26
-18 3 -30 9 -27 15 9 14 -5 11 -21 -5 -19 -19 -18 -44 2 -48 17 -3 134 -182
134 -205 0 -18 -53 -17 -89 2 -40 20 -81 75 -130 172 l-41 82 58 15 c31 9 80
22 107 30 177 51 456 94 672 103 117 5 153 9 153 19 0 9 -9 12 -27 9 -16 -2
-86 -7 -157 -10 -152 -6 -307 -27 -466 -61 -161 -35 -310 -74 -343 -91 -16 -8
-62 -14 -113 -15 l-86 -1 -60 -58 -60 -58 -132 4 c-72 3 -306 10 -519 16 -214
7 -390 16 -393 21 -4 6 44 7 122 4 71 -3 289 -9 485 -12 354 -6 356 -6 400 16
24 13 60 34 81 47 20 14 43 22 50 18 26 -13 -40 41 -69 56 -35 19 -87 83 -81
100 2 6 16 -7 31 -30 15 -23 32 -39 37 -36 6 3 20 -6 33 -21 23 -27 24 -27 78
-14 30 7 108 28 173 46 80 23 132 32 160 29 35 -4 37 -3 11 4 -16 5 -27 9 -23
10 4 0 64 13 135 27 70 14 141 27 157 28 16 1 32 8 34 15 3 10 0 12 -13 7 -15
-5 -16 -4 -5 9 10 12 10 30 1 88 -37 220 -31 959 9 1096 12 42 7 51 -29 51
-43 0 -202 34 -420 91 -108 28 -208 53 -223 56 -16 3 -28 10 -28 15 0 6 7 7
16 4 9 -4 14 -1 12 6 -2 6 -44 36 -93 65 l-90 54 -135 -4 c-255 -8 -705 -27
-765 -31 l-60 -5 1 32 c1 31 3 33 70 52 66 18 102 19 716 18 396 0 645 3 642
9 -3 5 -87 9 -192 8 -103 -1 -261 1 -352 3 -91 3 -300 2 -465 -2z m-425 -86
c0 -5 -117 -122 -151 -152 -8 -6 -41 -43 -73 -82 -38 -46 -62 -67 -67 -60 -9
16 0 39 25 65 12 12 32 33 44 48 13 14 36 32 50 38 14 7 29 24 32 37 3 13 18
29 35 36 24 11 26 14 9 14 -11 1 -28 -7 -37 -16 -39 -43 -65 -70 -92 -95 -74
-66 -90 -93 -86 -140 2 -16 -21 -55 -58 -101 -11 -13 -16 -14 -22 -5 -4 7 -4
17 1 24 6 6 31 53 56 104 67 134 144 209 274 268 49 22 60 25 60 17z m1043
-57 c80 -50 87 -65 46 -109 -53 -57 -110 -198 -138 -344 -29 -147 -29 -635 0
-810 19 -116 54 -219 101 -293 11 -18 18 -35 16 -37 -5 -6 -58 73 -58 85 0 5
-5 12 -11 16 -8 4 -9 0 -4 -15 3 -11 4 -21 1 -21 -25 0 -82 229 -96 390 -13
149 -13 425 0 565 12 125 50 286 85 360 13 28 44 73 69 100 25 27 43 51 41 54
-3 2 -27 -19 -53 -47 -40 -43 -54 -52 -83 -52 -30 0 -336 -50 -674 -110 -141
-25 -516 -104 -595 -125 -59 -16 -70 -13 -52 13 6 9 19 32 28 50 33 66 303
342 334 342 88 0 776 32 780 37 3 3 47 3 98 0 88 -4 95 -6 165 -49z m141 -108
c67 -25 585 -140 602 -133 9 3 10 -6 4 -34 -33 -147 -42 -767 -16 -1038 8 -88
13 -161 11 -163 -2 -2 -57 -14 -122 -27 -114 -22 -507 -120 -523 -130 -14 -8
-61 56 -96 130 -81 168 -113 521 -83 909 16 214 49 337 121 448 32 51 51 58
102 38z m-194 -68 c0 -30 -31 -40 -170 -56 -203 -25 -503 -76 -860 -148 -168
-33 -312 -61 -320 -62 -9 -1 -18 -16 -22 -36 -9 -44 -8 -698 0 -765 7 -50 7
-50 47 -53 22 -1 153 -25 290 -52 415 -81 894 -160 974 -160 31 0 43 -5 51
-21 7 -11 9 -23 6 -26 -16 -16 -1203 200 -1331 242 -11 3 -8 -1 7 -10 55 -31
1183 -245 1297 -245 23 0 42 -12 79 -50 27 -28 57 -50 67 -50 17 0 17 -1 1
-19 -9 -10 -46 -33 -82 -51 l-64 -33 -398 13 c-218 7 -434 14 -479 16 -63 2
-91 7 -116 23 -39 24 -166 151 -204 204 -14 20 -30 37 -35 37 -11 0 26 -55 60
-90 41 -42 57 -72 53 -102 -1 -16 2 -28 9 -28 6 0 8 5 5 10 -4 6 -4 18 -1 27
5 12 17 6 59 -31 28 -26 61 -54 72 -64 18 -15 18 -17 3 -20 -10 -2 -39 6 -65
18 -42 20 -46 23 -28 31 16 8 15 8 -8 4 -15 -3 -27 -1 -27 5 0 5 -7 10 -15 10
-20 0 -85 60 -118 107 -22 34 -24 44 -17 87 7 47 5 52 -36 111 -24 35 -44 73
-44 84 0 13 -4 19 -10 16 -6 -4 -17 -1 -25 5 -23 19 -17 3 7 -20 16 -15 19
-23 11 -31 -19 -19 -40 -3 -41 33 -1 18 -6 56 -12 83 -17 79 -24 473 -11 625
9 111 15 140 33 164 17 23 18 28 5 23 -12 -4 -17 -1 -17 11 0 27 16 45 35 39
9 -4 13 -12 10 -17 -4 -6 -4 -17 -2 -24 4 -11 30 -8 124 15 179 44 532 113
888 173 334 57 365 61 365 48z m-45 -91 c-92 -261 -98 -852 -11 -1150 16 -53
20 -81 12 -81 -60 0 -605 90 -971 161 -143 27 -278 53 -300 57 l-40 7 -7 155
c-4 85 -5 268 -2 407 l6 251 27 5 c14 2 127 25 251 51 250 52 678 127 882 155
187 26 170 28 153 -18z m-1303 -1118 c10 -9 18 -22 18 -28 0 -7 10 -19 23 -28
17 -11 19 -18 10 -27 -7 -8 -8 -22 -2 -42 12 -44 -13 -20 -37 34 -10 24 -26
54 -36 67 -27 36 -10 55 24 24z m1798 -463 c0 -7 -251 -1 -259 6 -5 5 28 73
51 107 17 23 26 27 68 27 27 0 52 5 56 11 6 10 84 -130 84 -151z m-231 102
c-12 -20 -30 -51 -40 -68 -15 -25 -25 -31 -58 -32 -22 -1 -43 3 -46 8 -3 6 19
35 49 65 81 81 137 97 95 27z m1011 -101 c0 -5 -43 -11 -95 -13 -71 -2 -95 0
-95 10 0 9 26 12 95 12 52 0 95 -4 95 -9z"/>
<path d="M250 486 c0 -2 7 -9 15 -16 13 -11 14 -10 9 4 -5 14 -24 23 -24 12z"/>
<path d="M280 445 c1 -15 33 -50 58 -64 18 -10 22 -9 22 3 0 9 -6 13 -14 10
-8 -3 -25 9 -40 28 -14 18 -26 29 -26 23z"/>
<path d="M1748 223 c-44 -11 -9 -18 92 -18 106 0 135 6 88 19 -26 7 -154 6
-180 -1z"/>
<path d="M1640 220 c-12 -8 -9 -10 13 -10 16 0 26 4 22 10 -8 12 -16 12 -35 0z"/>
<path d="M1580 2140 c0 -16 127 -140 143 -140 9 0 39 -12 67 -26 29 -14 70
-29 91 -31 21 -3 37 -9 34 -13 -2 -4 21 -13 53 -20 31 -7 62 -17 68 -21 5 -5
48 -15 95 -24 46 -8 101 -19 121 -24 20 -5 39 -6 42 -3 4 3 6 1 6 -4 0 -5 21
-10 48 -11 26 -2 103 -9 172 -17 69 -8 169 -18 222 -22 96 -7 96 -7 88 -30 -5
-13 -9 -74 -9 -136 0 -62 -1 -122 -2 -133 -1 -11 0 -221 2 -467 l4 -446 -80
-7 c-211 -16 -319 -28 -425 -47 -63 -12 -130 -20 -148 -19 -18 0 -31 -3 -28
-8 9 -13 -113 -44 -148 -37 -18 3 -26 2 -18 -2 9 -6 -1 -13 -30 -21 -24 -7
-57 -19 -73 -26 -17 -7 -45 -16 -62 -19 -18 -4 -36 -12 -39 -18 -5 -7 2 -9 22
-4 16 4 46 9 67 10 39 3 65 16 32 16 -40 0 2 20 47 22 25 2 44 6 42 9 -5 9
105 32 146 31 26 -1 31 1 20 8 -8 5 -10 10 -5 10 6 0 46 7 90 16 190 36 248
44 385 54 226 15 280 21 280 31 0 5 -14 9 -30 9 l-30 0 2 597 3 598 28 -2 c15
-1 27 2 27 7 0 4 -39 11 -87 14 -232 16 -478 46 -608 76 -168 39 -262 63 -279
72 -10 5 -42 16 -71 24 -101 26 -234 114 -251 166 -6 19 -24 25 -24 8z"/>
<path d="M1530 2134 c-14 -3 -898 -28 -947 -27 -12 1 -24 -5 -27 -13 -4 -11 3
-13 32 -9 20 3 147 7 282 9 466 9 704 22 694 37 -5 9 -7 9 -34 3z"/>
<path d="M1750 1960 c0 -5 7 -10 16 -10 8 0 12 5 9 10 -3 6 -10 10 -16 10 -5
0 -9 -4 -9 -10z"/>
<path d="M2733 533 c9 -2 23 -2 30 0 6 3 -1 5 -18 5 -16 0 -22 -2 -12 -5z"/>
<path d="M2588 523 c7 -3 16 -2 19 1 4 3 -2 6 -13 5 -11 0 -14 -3 -6 -6z"/>
<path d="M2413 503 c9 -2 25 -2 35 0 9 3 1 5 -18 5 -19 0 -27 -2 -17 -5z"/>
<path d="M2348 493 c7 -3 16 -2 19 1 4 3 -2 6 -13 5 -11 0 -14 -3 -6 -6z"/>
<path d="M1828 413 c7 -3 16 -2 19 1 4 3 -2 6 -13 5 -11 0 -14 -3 -6 -6z"/>
<path d="M2867 360 c-26 -31 -20 -42 8 -16 14 13 25 26 25 30 0 12 -16 6 -33
-14z"/>
</g>
</svg>
