<?xml version="1.0" standalone="no"?>
<!DOCTYPE svg PUBLIC "-//W3C//DTD SVG 20010904//EN"
 "http://www.w3.org/TR/2001/REC-SVG-20010904/DTD/svg10.dtd">
<svg version="1.0" xmlns="http://www.w3.org/2000/svg"
 width="448.000000pt" height="206.000000pt" viewBox="0 0 448.000000 206.000000"
 preserveAspectRatio="xMidYMid meet">
<style>
  /* Country outline: light #a1a1aa, dark #52525b (match WorldMapChart) */
  path { fill: #a1a1aa; stroke: none; }
  @media (prefers-color-scheme: dark) { path { fill: #52525b; } }
</style>
<g transform="translate(0.000000,206.000000) scale(0.100000,-0.100000)"
stroke="none">
<path d="M2360 1989 c-300 -12 -435 -35 -592 -103 -129 -57 -319 -181 -496
-325 -141 -115 -144 -116 -223 -130 -144 -25 -424 -93 -521 -127 -274 -95
-329 -138 -427 -329 -33 -64 -43 -97 -51 -164 -5 -46 -14 -88 -19 -95 -7 -8 1
-47 21 -120 31 -105 31 -108 14 -137 -11 -18 -15 -40 -12 -54 9 -35 79 -65
152 -65 80 0 118 -13 163 -53 104 -94 332 -114 457 -42 l41 24 114 -15 c76
-10 233 -17 467 -21 295 -5 355 -8 365 -20 94 -118 138 -145 257 -161 127 -17
215 -15 263 6 73 33 151 134 186 244 10 31 17 38 39 38 15 0 115 18 222 40
107 21 292 58 410 80 118 23 293 57 389 76 95 19 177 34 181 34 4 0 10 -12 13
-27 10 -47 62 -118 100 -136 47 -23 244 -24 286 -2 63 32 115 124 135 237 l11
68 55 27 c77 39 94 76 99 213 2 58 -2 134 -7 170 -6 36 -16 98 -22 139 -13 91
-70 262 -90 272 -8 4 -57 20 -109 35 -70 21 -108 39 -145 68 -274 217 -396
282 -599 321 -185 35 -708 51 -1127 34z m926 -37 c313 -20 449 -73 726 -289
111 -86 178 -119 286 -139 26 -5 37 -14 48 -40 8 -18 14 -38 14 -44 0 -6 -33
-10 -82 -11 -46 0 -117 -4 -158 -8 -82 -9 -95 -3 -142 62 l-21 29 29 -2 c100
-7 98 12 -19 125 -190 185 -316 247 -562 274 -103 12 -288 1 -355 -21 -59 -19
-139 -77 -167 -121 -14 -23 -39 -58 -55 -77 -33 -41 -35 -50 -7 -45 11 2 19 1
17 -3 -16 -37 -54 -108 -59 -110 -10 -5 3 -137 15 -144 18 -12 -12 -10 -35 2
-13 8 -25 7 -40 0 -11 -7 -22 -10 -25 -8 -7 7 17 78 26 78 6 0 10 9 10 19 0
11 11 33 25 49 13 16 22 32 19 35 -3 3 4 10 15 17 12 6 21 16 21 22 0 6 -5 7
-13 2 -7 -5 -5 -2 5 8 22 20 23 27 1 24 -15 -3 -132 -216 -133 -243 0 -8 -14
-13 -35 -13 -32 0 -35 2 -25 19 5 11 10 23 10 28 -1 4 -8 -4 -16 -19 -20 -37
-39 -36 -20 1 8 15 17 41 20 56 3 15 8 30 12 34 4 3 4 -2 1 -11 -4 -10 -2 -18
5 -18 6 0 5 -7 -3 -17 -13 -16 -12 -17 3 -5 9 8 15 19 12 26 -7 19 39 98 87
151 16 17 28 35 28 40 1 22 153 216 181 230 16 8 65 24 107 35 l78 20 -60 -5
c-121 -11 -197 -67 -315 -230 -64 -89 -190 -293 -190 -308 0 -11 -193 -7 -755
17 -192 9 -413 16 -490 16 -112 1 -136 4 -121 13 10 7 42 31 70 55 83 69 244
192 252 192 4 0 22 11 39 25 38 28 117 74 193 111 51 25 56 26 350 31 176 3
388 1 521 -6 139 -7 228 -8 233 -3 32 32 -884 47 -1010 17 -14 -4 -21 -2 -18
4 15 23 221 66 394 80 124 11 867 6 1078 -7z m169 -73 c205 -27 338 -97 475
-249 40 -44 84 -83 97 -86 12 -4 20 -10 17 -15 -7 -12 -44 -11 -44 1 0 5 -9 6
-22 1 -47 -17 -65 -3 -124 103 -32 55 -62 104 -68 108 -24 17 -26 6 -3 -24 14
-18 44 -69 68 -113 23 -44 48 -84 53 -88 6 -5 -2 -6 -19 -2 -16 4 -31 7 -32 8
-1 1 -12 31 -25 67 -25 67 -113 210 -129 210 -5 0 8 -26 29 -57 49 -72 69
-112 92 -178 l18 -52 -74 3 c-41 1 -74 -2 -74 -6 0 -5 -42 -10 -92 -13 -51 -2
-102 -7 -113 -11 -18 -6 -21 -1 -32 56 -14 71 -105 350 -99 303 2 -16 22 -92
45 -168 22 -76 42 -152 43 -168 4 -58 5 -58 347 -22 l154 16 33 -39 c18 -22
33 -42 34 -45 0 -3 -96 -13 -212 -23 -256 -21 -298 -26 -298 -38 0 -4 10 -6
23 -4 27 6 348 34 440 39 79 4 75 15 53 -159 -14 -100 -32 -162 -97 -329 -10
-28 -19 -56 -19 -62 0 -7 -8 -16 -17 -22 -10 -5 -14 -13 -10 -17 11 -11 -34
-54 -57 -54 -12 -1 -86 -16 -166 -35 -79 -18 -147 -32 -150 -30 -3 2 -6 16 -5
32 0 28 0 28 145 60 80 17 162 32 183 32 20 1 37 5 37 9 0 16 -274 -27 -342
-53 -22 -9 -22 -8 -6 230 14 222 1 314 -61 437 -21 42 -42 96 -46 120 -4 24
-13 62 -20 84 -8 23 -19 71 -25 107 -8 44 -17 68 -28 72 -12 4 -13 8 -5 13 7
4 10 18 6 30 -3 12 -9 19 -14 16 -5 -3 -9 0 -9 5 0 6 -5 11 -11 11 -8 0 -7 -6
2 -17 8 -9 13 -25 11 -35 -2 -11 1 -25 6 -31 5 -7 12 -25 15 -42 6 -32 16 -72
41 -170 8 -33 15 -72 16 -87 0 -18 5 -28 15 -28 8 0 15 -3 15 -8 0 -4 -13 -7
-29 -7 -16 -1 -29 2 -28 5 2 12 -17 105 -54 256 -21 89 -39 164 -39 167 0 6
71 1 185 -14z m-183 -64 c26 -102 76 -349 72 -354 -3 -3 -10 1 -16 7 -15 15
-58 15 -78 1 -11 -8 -5 -9 25 -5 31 4 36 3 22 -5 -10 -6 -35 -8 -59 -4 -32 6
-39 4 -34 -6 4 -8 0 -5 -8 6 -47 58 -71 76 -133 95 -78 24 -105 25 -143 5 -59
-30 -106 -128 -98 -206 3 -30 7 -34 34 -37 22 -2 40 5 62 22 24 21 40 26 88
26 81 1 144 17 174 44 20 19 41 25 100 30 41 4 91 10 110 12 33 6 36 4 50 -33
8 -21 16 -41 18 -44 1 -3 -46 -11 -105 -18 -60 -7 -200 -25 -313 -41 -113 -15
-229 -31 -258 -34 l-52 -5 -20 40 c-12 22 -18 44 -15 49 3 6 30 10 60 10 l54
0 -5 53 c-3 28 -7 61 -9 71 -7 36 92 209 157 275 60 60 115 90 195 106 104 21
104 21 125 -60z m-236 46 c-6 -9 -46 -22 -46 -15 0 3 10 9 23 14 29 11 29 11
23 1z m-101 -83 c-62 -69 -101 -96 -50 -35 21 26 43 47 48 47 4 0 5 5 2 10 -5
8 21 25 43 29 2 1 -17 -23 -43 -51z m-74 -106 c-10 -17 -41 -25 -41 -11 0 5 7
9 16 9 8 0 13 4 10 8 -3 5 1 9 9 9 10 0 11 -5 6 -15z m161 -133 c92 -20 154
-64 142 -102 -12 -41 -28 -48 -138 -56 -84 -7 -113 -13 -129 -28 -12 -11 -30
-18 -39 -16 -27 6 -22 23 6 23 14 0 28 5 32 11 5 8 -1 10 -18 6 -25 -7 -25 -6
-21 41 6 57 24 87 66 112 38 23 32 23 99 9z m-1167 -140 c181 -5 331 -11 333
-14 4 -4 -45 -13 -233 -45 -335 -56 -636 -158 -834 -281 -108 -68 -111 -72
-95 -126 8 -26 12 -49 9 -51 -3 -3 -5 0 -5 7 0 7 -5 9 -10 6 -8 -5 -7 -12 1
-22 18 -21 19 -141 2 -159 -8 -7 -12 -17 -11 -21 4 -11 -87 -16 -139 -8 -35 5
-43 10 -43 27 0 20 4 21 90 15 49 -3 92 -2 95 3 8 13 -33 16 -150 13 -121 -3
-569 31 -625 47 -48 14 -50 13 -48 -15 2 -26 12 -32 23 -15 6 9 75 15 75 6 0
-2 3 -12 7 -22 6 -15 1 -16 -46 -10 -41 5 -52 4 -49 -6 3 -7 22 -15 44 -18 28
-4 40 -10 42 -24 4 -17 0 -18 -38 -12 -54 8 -51 -14 3 -27 26 -6 37 -14 37
-27 0 -14 -5 -17 -22 -12 -13 3 -28 13 -35 21 -11 14 -12 14 -13 -1 0 -10 6
-23 13 -29 7 -7 11 -30 10 -53 l-3 -41 13 40 c11 33 17 40 37 37 13 -1 28 -8
33 -15 6 -8 10 -9 13 -1 3 6 16 9 29 6 14 -2 23 -8 20 -12 -2 -4 7 -5 22 -2
25 5 26 3 20 -31 -3 -20 -1 -39 4 -42 5 -4 9 12 9 34 0 41 0 41 39 41 43 0 51
-10 44 -57 -5 -31 -8 -33 -47 -33 -22 0 -64 3 -92 6 -47 6 -50 8 -46 30 2 13
9 24 16 24 6 0 4 4 -4 9 -21 14 -32 2 -25 -26 6 -24 4 -25 -35 -21 -28 2 -40
0 -40 -9 0 -9 15 -13 46 -13 25 0 53 -4 62 -9 9 -5 60 -12 112 -15 173 -11
285 -22 295 -28 6 -4 48 -8 94 -9 96 -4 100 -1 121 85 12 51 15 54 33 44 13
-6 45 -8 86 -4 62 7 64 6 49 -11 -9 -10 -23 -43 -30 -73 l-14 -55 -60 -8 c-79
-10 -154 -9 -266 3 -51 6 -124 13 -163 16 -38 3 -72 7 -75 9 -3 2 -7 -8 -8
-23 -1 -14 -5 -29 -10 -33 -13 -12 -77 15 -80 34 -3 16 0 18 20 11 35 -11 50
-10 55 2 4 12 -49 24 -109 24 -27 0 -38 -4 -38 -15 0 -11 7 -14 25 -9 21 5 25
3 25 -15 0 -13 -6 -21 -17 -21 -25 1 -53 24 -53 44 0 9 -4 16 -10 16 -5 0 -10
-7 -10 -15 0 -9 -10 -20 -22 -25 -22 -8 -21 -9 7 -11 17 -1 34 -1 39 0 5 1 6
-5 2 -14 -5 -13 2 -16 37 -14 23 1 78 -3 122 -10 44 -6 114 -12 156 -14 42 -2
80 -6 85 -9 5 -3 71 -9 148 -12 78 -4 148 -12 160 -19 31 -18 603 -17 714 2
45 7 82 17 82 22 0 13 -47 11 -73 -3 -14 -7 -127 -12 -343 -15 l-321 -4 -66
30 c-37 17 -67 35 -67 40 0 4 23 11 52 13 43 5 58 2 81 -16 28 -20 40 -21 352
-24 l324 -3 -3 45 c-2 29 -17 74 -42 123 l-39 78 -185 -3 c-102 -2 -223 -7
-270 -12 -90 -10 -145 -12 -120 -3 8 2 24 9 35 14 30 13 200 37 390 55 165 15
202 20 194 29 -15 14 -683 -63 -736 -85 -25 -10 -32 7 -12 27 11 11 32 80 53
175 11 46 11 63 0 95 -8 21 -14 48 -14 61 0 12 -6 22 -12 23 -7 0 -3 5 10 11
20 10 27 6 71 -43 l48 -54 97 -3 c84 -3 97 -6 94 -20 -2 -13 -15 -17 -48 -17
-169 -2 -230 -6 -230 -16 0 -21 577 8 643 32 34 12 79 72 130 173 22 42 32 52
69 63 101 31 351 94 453 114 124 24 348 59 352 55 20 -19 30 -368 17 -567 l-7
-97 -41 -13 c-23 -8 -43 -14 -45 -14 -3 0 -4 29 -2 65 4 119 -38 257 -106 348
-31 41 -115 90 -170 98 -96 14 -227 -43 -287 -126 -32 -43 -85 -143 -120 -223
-9 -21 -23 -71 -31 -113 -9 -41 -19 -82 -22 -90 -3 -7 -1 -14 4 -14 5 0 17 35
27 78 22 95 48 172 58 172 5 0 8 11 8 24 0 14 4 27 9 30 5 3 18 25 29 49 29
61 102 138 157 166 31 15 72 26 116 29 60 4 75 1 123 -22 119 -58 187 -207
186 -406 -1 -151 -2 -146 12 -132 7 7 27 12 45 12 18 0 33 5 33 11 0 7 -12 9
-35 5 -46 -9 -49 17 -4 33 52 18 57 15 57 -33 l0 -44 -46 -8 c-26 -4 -52 -8
-59 -9 -6 0 -15 -4 -19 -8 -18 -18 -21 2 -16 137 6 185 -11 252 -87 337 -79
88 -161 110 -273 73 -86 -28 -174 -136 -225 -274 -27 -73 -63 -239 -74 -335
-6 -54 -15 -108 -21 -118 -10 -19 -23 -20 -422 -14 -226 3 -438 10 -471 16
-33 6 -152 19 -265 30 -299 29 -391 41 -429 53 -19 6 -67 10 -109 10 -93 -1
-157 25 -146 61 13 42 25 50 48 28 14 -13 27 -16 41 -11 11 4 23 6 27 3 5 -2
8 1 8 6 0 6 -12 11 -26 11 -32 0 -66 18 -58 31 3 6 10 6 17 1 18 -14 80 -23
96 -13 11 7 10 11 -7 20 -17 9 -20 18 -15 45 3 18 0 43 -7 56 -10 18 -9 24 1
31 8 5 9 9 3 9 -6 0 -9 13 -6 31 3 17 0 34 -6 38 -5 3 -11 31 -12 61 -3 71 -2
74 13 62 34 -28 579 -75 672 -58 66 13 35 21 -72 19 -60 0 -137 3 -173 7 -36
5 -137 16 -225 25 -88 9 -167 19 -175 22 -8 3 -24 5 -35 4 l-20 -2 20 18 c11
10 21 26 22 36 1 17 -1 17 -21 -2 -29 -28 -48 -27 -44 2 2 14 11 23 26 25 14
2 20 8 15 15 -3 7 3 3 15 -7 12 -11 22 -27 22 -37 0 -13 13 -20 53 -28 76 -15
200 -30 292 -35 44 -3 113 -8 153 -12 51 -5 72 -4 72 5 0 10 -79 17 -132 12
-10 -1 -18 2 -18 6 0 5 -33 10 -72 11 -149 5 -328 32 -328 50 0 4 5 14 10 22
7 12 15 13 40 3 17 -6 32 -7 36 -2 3 5 -1 9 -9 9 -21 0 -38 25 -31 43 5 14 28
16 177 12 203 -4 458 -22 507 -34 34 -9 34 -9 -15 -9 -120 -1 -289 -13 -299
-21 -7 -6 -33 -11 -58 -13 -26 -2 -44 -6 -40 -10 4 -3 32 -2 62 4 86 15 372
16 377 1 3 -7 9 -13 14 -13 6 0 5 8 -1 20 -6 11 -9 24 -6 29 21 33 -150 52
-584 66 l-134 4 -39 41 c-22 22 -37 47 -34 54 9 23 85 70 186 115 90 41 290
97 556 156 66 15 125 29 130 31 11 4 270 -1 770 -17z m2526 -6 c15 -39 9 -51
-7 -14 -8 18 -18 31 -21 27 -3 -3 6 -29 20 -57 24 -44 47 -140 47 -191 0 -15
-77 -66 -84 -56 -1 2 -13 20 -25 41 -27 44 -95 87 -140 87 -40 0 -86 -22 -130
-64 -25 -23 -31 -26 -22 -10 13 27 34 200 26 224 -5 16 5 19 92 25 54 3 107 7
118 9 11 2 42 3 68 3 42 0 50 -4 58 -24z m-1736 -26 c14 0 27 -14 46 -52 l26
-53 -91 -12 c-202 -27 -530 -100 -711 -159 -33 -11 -96 -22 -140 -26 -256 -21
-505 -50 -614 -70 -133 -26 -147 -19 -64 31 249 151 490 233 898 305 99 17
187 35 195 41 9 5 98 6 225 2 116 -4 219 -7 230 -7z m842 -77 c15 -55 13 -226
-6 -455 l-6 -80 -70 -17 c-80 -20 -573 -133 -623 -143 -31 -6 -32 -5 -27 17 3
12 9 88 15 168 10 147 -1 394 -20 453 -8 25 -7 27 20 27 16 0 129 14 252 31
367 51 412 57 432 55 14 -1 23 -15 33 -56z m758 -100 c18 -11 41 -32 50 -47
19 -29 45 -124 44 -163 -1 -24 -1 -24 -14 5 -8 17 -14 44 -15 61 0 43 -60 110
-111 125 -33 10 -45 9 -78 -6 -41 -18 -86 -73 -107 -129 -6 -17 -24 -64 -39
-105 l-27 -74 10 -142 c12 -152 29 -216 75 -276 l26 -34 -77 6 c-107 8 -141
30 -181 119 l-20 44 44 11 c58 15 71 27 94 89 19 52 25 146 9 146 -4 0 -8 -9
-8 -21 0 -11 -4 -17 -10 -14 -5 3 -10 1 -10 -4 0 -6 5 -11 10 -11 17 0 11 -37
-14 -93 -24 -56 -34 -63 -101 -77 -244 -49 -425 -84 -545 -105 -229 -39 -305
-53 -377 -70 -190 -45 -307 -65 -317 -55 -7 7 -11 61 -12 133 0 67 -4 140 -9
162 -18 89 -95 200 -159 230 -30 14 -82 28 -156 44 l-35 7 35 19 c53 29 163
27 213 -4 52 -32 104 -104 124 -170 18 -61 24 -226 11 -341 -6 -52 -5 -61 4
-42 8 17 17 22 32 18 12 -3 39 1 61 8 35 12 127 33 290 66 279 56 743 153 792
166 56 14 67 22 108 71 24 30 42 59 39 64 -3 5 4 21 15 35 12 15 21 34 21 43
0 10 4 21 9 26 5 6 23 53 42 105 37 107 59 142 109 176 44 31 110 32 155 4z
m-6 -72 c35 -36 43 -55 70 -173 24 -102 24 -105 12 -105 -4 0 -18 30 -30 68
-11 37 -30 81 -40 98 -25 41 -79 82 -118 90 -26 5 -33 2 -51 -28 -22 -35 -62
-77 -62 -64 0 12 53 86 61 86 5 0 8 3 8 8 -4 21 4 31 31 44 41 20 84 11 119
-24z m195 -29 c3 -17 6 -53 6 -80 0 -40 -5 -55 -31 -84 -63 -72 -67 -68 -66
54 l1 109 31 16 c44 22 52 20 59 -15z m-4184 -71 c0 -11 -81 -68 -96 -68 -20
0 -52 -52 -36 -58 7 -2 10 -8 6 -13 -3 -5 -2 -9 3 -8 28 5 33 -4 33 -53 0 -50
8 -95 24 -145 12 -38 -14 -27 -66 27 -42 44 -48 56 -48 93 0 58 18 118 43 145
12 13 21 27 21 30 -2 11 16 55 38 91 l21 34 28 -34 c16 -19 29 -37 29 -41z
m3930 29 c38 -25 63 -63 90 -136 31 -86 12 -298 -36 -392 -50 -101 -127 -128
-182 -65 -51 59 -67 123 -66 271 0 111 4 139 24 190 29 75 54 112 94 136 39
24 36 24 76 -4z m-2340 -9 c0 -18 -97 -168 -112 -173 -18 -6 -342 -33 -347
-28 -2 1 1 14 7 27 l11 25 -103 -6 -102 -6 -37 33 c-46 40 -47 56 -4 64 53 10
344 44 467 56 63 5 131 12 150 13 19 2 43 5 53 5 9 1 17 -4 17 -10z m-1560
-46 c0 -17 -58 -64 -65 -52 -8 13 14 42 26 34 5 -3 9 2 9 10 0 9 7 16 15 16 8
0 15 -4 15 -8z m4148 -124 c-4 -33 -13 -68 -20 -75 -14 -17 -84 -54 -90 -48
-2 2 -2 23 0 45 3 33 10 45 34 60 17 10 38 32 49 49 28 47 37 38 27 -31z
m-2168 45 c0 -1 -20 -14 -45 -29 -67 -39 -120 -106 -154 -193 -53 -139 -61
-269 -24 -416 18 -72 42 -115 97 -173 l41 -44 -50 7 c-149 19 -188 36 -256
113 l-41 47 46 3 c63 4 73 23 92 173 26 218 87 398 162 481 32 35 38 38 83 36
27 -1 49 -3 49 -5z m1727 -15 c-3 -8 -6 -5 -6 6 -1 11 2 17 5 13 3 -3 4 -12 1
-19z m-1622 -27 c160 -72 214 -397 105 -626 -85 -178 -216 -230 -322 -128 -97
94 -135 309 -88 495 34 136 88 214 175 254 60 29 78 29 130 5z m-2008 -57 c-3
-3 -12 -4 -19 -1 -8 3 -5 6 6 6 11 1 17 -2 13 -5z m183 -84 c85 -6 181 -13
213 -16 l57 -6 0 -75 0 -75 -42 5 c-24 4 -90 9 -148 12 -98 6 -180 13 -240 20
-14 2 -35 4 -47 4 -22 1 -23 5 -23 69 0 38 3 71 6 75 3 3 20 4 37 1 18 -2 102
-8 187 -14z m2938 -56 l-3 -48 -110 -23 c-244 -50 -605 -123 -609 -123 -2 0
-2 8 0 18 4 14 32 22 137 41 135 23 541 107 566 116 8 3 11 8 8 11 -3 4 -57
-5 -119 -20 -164 -38 -506 -105 -553 -108 -34 -3 -40 0 -40 17 0 12 8 21 20
23 11 2 90 19 175 38 357 79 503 113 508 119 13 13 23 -16 20 -61z m342 47
c-5 -11 -14 -22 -18 -25 -13 -8 -305 -66 -310 -61 -17 16 18 34 109 54 57 13
129 29 159 36 30 7 59 13 63 14 4 0 3 -8 -3 -18z m-3695 -53 c4 -10 17 -21 30
-24 17 -4 22 -12 20 -30 -1 -14 2 -27 6 -30 19 -11 8 -40 -21 -57 -29 -18 -30
-18 -57 7 -25 23 -25 25 -5 19 12 -3 22 -9 22 -14 0 -5 9 -9 20 -9 21 0 27 15
10 25 -8 5 -7 11 1 21 9 11 8 14 -2 15 -10 0 -11 2 -1 6 22 9 13 20 -43 58
-30 20 -55 38 -55 40 0 2 3 10 6 19 5 14 10 13 35 -7 15 -12 31 -30 34 -39z
m-22 -42 c20 -18 37 -38 37 -44 0 -9 -30 -26 -35 -20 -17 26 -52 98 -46 98 4
0 24 -15 44 -34z m895 14 c-3 -12 -21 -16 -86 -18 -78 -3 -82 -2 -82 18 0 20
4 21 85 19 71 -3 85 -6 83 -19z m-70 -50 c46 0 53 -3 50 -17 -2 -10 -9 -18
-16 -17 -6 1 -39 2 -72 3 -54 1 -60 3 -60 22 0 17 4 20 23 15 12 -3 46 -6 75
-6z m-266 -42 l89 -12 -3 -40 -3 -41 -47 -3 c-35 -2 -48 1 -48 10 0 25 21 38
41 25 15 -9 22 -8 36 7 17 17 15 17 -69 11 -64 -5 -88 -4 -88 4 0 6 10 16 23
21 22 10 22 10 -3 7 -19 -1 -26 -8 -28 -31 -3 -28 -2 -28 37 -24 35 3 41 1 41
-16 0 -16 -5 -18 -37 -12 -21 3 -44 6 -50 6 -9 0 -13 17 -13 50 0 58 -8 55
122 38z m416 -5 c-10 -2 -28 -2 -40 0 -13 2 -5 4 17 4 22 1 32 -1 23 -4z m666
-59 c14 -30 22 -62 19 -71 -4 -10 -2 -14 4 -10 6 4 13 -5 15 -23 3 -22 0 -30
-10 -30 -9 0 -13 7 -9 20 3 11 1 20 -5 20 -6 0 -8 9 -5 21 6 23 -1 51 -12 45
-4 -3 -8 4 -8 15 -1 10 -11 33 -23 49 -16 22 -17 28 -6 24 9 -3 27 -30 40 -60z
m-890 29 c-3 -16 -7 -33 -9 -40 -5 -16 9 -25 29 -17 20 8 21 24 1 24 -8 0 -15
5 -15 10 0 6 7 13 15 16 8 4 15 12 15 20 0 9 11 13 35 12 36 -1 42 -12 27 -50
-5 -13 -11 -15 -22 -8 -13 9 -13 11 0 20 10 6 11 10 3 10 -7 0 -16 1 -20 3 -3
1 -7 -10 -7 -26 -1 -17 3 -26 10 -23 12 5 34 -12 34 -26 0 -4 -47 -6 -104 -5
-57 1 -100 5 -94 8 5 3 10 27 10 53 l0 46 49 0 c49 0 49 0 43 -27z m714 -13
l10 -40 -168 0 -169 0 9 30 c5 16 11 34 15 40 4 6 62 10 149 10 l144 0 10 -40z
m143 -30 c15 -36 29 -78 33 -93 7 -28 6 -28 -31 -25 l-38 3 -29 88 c-16 48
-32 87 -37 87 -4 0 -3 -15 3 -32 5 -18 10 -41 10 -51 -1 -10 8 -33 19 -50 23
-39 24 -49 3 -45 -19 3 -53 95 -54 141 0 15 -4 27 -10 27 -5 0 -10 4 -10 9 0
5 26 8 57 7 l57 -1 27 -65z m-476 33 c-8 -36 -12 -39 -58 -46 -38 -6 -39 -6
-32 21 10 39 20 48 61 50 35 3 36 2 29 -25z m-1035 -3 c0 -5 -10 -10 -22 -10
-19 0 -20 2 -8 10 19 13 30 13 30 0z m1219 -64 c154 -1 166 -2 169 -20 3 -14
0 -17 -13 -12 -9 3 -91 6 -181 6 -159 0 -164 1 -164 21 0 13 4 18 12 13 6 -4
86 -8 177 -8z m-209 -16 c0 -22 -28 -27 -61 -9 -27 14 -14 29 27 29 27 0 34
-4 34 -20z m-602 -31 c16 0 22 -5 22 -19 0 -17 -7 -20 -44 -20 -41 0 -43 1
-38 26 3 19 9 23 21 18 9 -4 26 -6 39 -5z m579 -5 c15 6 18 -20 3 -29 -20 -13
-69 5 -67 25 1 15 5 16 26 9 13 -6 30 -8 38 -5z m-450 -8 c2 -2 1 -11 -3 -20
-7 -19 -30 -21 -37 -3 -4 10 -7 10 -18 0 -7 -7 -17 -13 -21 -13 -9 0 -11 34
-2 43 6 6 74 0 81 -7z m873 -6 c6 -11 7 -20 3 -20 -221 -3 -395 -1 -400 3 -3
4 -3 13 0 22 6 13 34 15 196 15 180 0 191 -1 201 -20z m-789 0 c18 0 33 -37
19 -45 -14 -9 -40 6 -41 24 -1 14 -2 14 -6 -1 -5 -18 -43 -26 -43 -9 0 27 14
42 34 37 11 -3 28 -6 37 -6z m143 -17 c9 4 16 2 16 -3 0 -6 -9 -10 -19 -10
-11 0 -22 -4 -25 -8 -8 -13 -76 -1 -76 13 0 16 71 25 81 11 4 -5 14 -6 23 -3z
m-424 -58 c69 -7 160 -15 202 -17 43 -2 78 -6 78 -10 0 -24 -157 -53 -236 -44
-70 8 -158 42 -192 73 l-27 25 25 -7 c14 -3 81 -12 150 -20z"/>
<path d="M1447 1644 c-26 -20 -47 -39 -47 -41 0 -6 88 56 95 67 11 17 0 11
-48 -26z"/>
<path d="M2705 1599 c-4 -6 -5 -12 -2 -15 2 -3 7 2 10 11 7 17 1 20 -8 4z"/>
<path d="M2733 1446 c-21 -42 -21 -44 -3 -39 11 3 19 8 18 12 -1 3 2 19 7 34
12 44 1 41 -22 -7z"/>
<path d="M3924 1361 c3 -5 -5 -11 -17 -15 -32 -8 -51 -50 -32 -70 29 -28 55
-29 96 -2 21 15 39 32 39 39 0 7 -21 23 -46 35 -25 12 -43 18 -40 13z m70 -53
c-8 -12 -84 -30 -102 -23 -13 5 -11 11 14 33 28 26 31 26 61 13 18 -8 30 -18
27 -23z"/>
<path d="M3920 1310 c-8 -5 -10 -10 -5 -10 6 0 17 5 25 10 8 5 11 10 5 10 -5
0 -17 -5 -25 -10z"/>
<path d="M3078 1475 c-2 -2 -36 -5 -76 -6 -62 -3 -70 -5 -58 -18 9 -8 21 -11
33 -6 25 11 56 11 72 0 10 -5 12 -4 7 3 -5 8 1 12 16 12 13 0 29 -9 35 -20 12
-19 10 -19 -77 -14 -50 4 -90 2 -90 -3 0 -5 -12 -10 -27 -11 -14 -1 -23 1 -19
5 7 8 11 9 37 12 5 0 8 5 5 10 -7 10 -55 2 -57 -10 -5 -29 -1 -33 34 -34 20 0
37 3 37 8 0 5 6 5 13 -1 13 -12 161 -1 174 12 4 3 -1 14 -10 24 -10 10 -15 21
-12 24 3 3 -3 8 -14 11 -11 2 -21 3 -23 2z"/>
<path d="M2880 1458 c0 -11 28 -10 35 1 3 6 -4 9 -15 8 -11 -1 -20 -5 -20 -9z"/>
<path d="M3130 1450 c0 -5 5 -10 10 -10 6 0 10 5 10 10 0 6 -4 10 -10 10 -5 0
-10 -4 -10 -10z"/>
<path d="M503 1250 c-78 -36 -144 -96 -184 -167 -44 -76 -30 -76 19 1 53 81
99 121 187 162 38 18 63 33 55 33 -8 0 -43 -13 -77 -29z"/>
<path d="M330 970 c8 -5 20 -10 25 -10 6 0 3 5 -5 10 -8 5 -19 10 -25 10 -5 0
-3 -5 5 -10z"/>
<path d="M478 973 c7 -3 16 -2 19 1 4 3 -2 6 -13 5 -11 0 -14 -3 -6 -6z"/>
<path d="M588 973 c7 -3 16 -2 19 1 4 3 -2 6 -13 5 -11 0 -14 -3 -6 -6z"/>
<path d="M630 970 c-11 -8 -7 -9 15 -4 37 8 45 14 19 14 -10 0 -26 -5 -34 -10z"/>
<path d="M375 961 c-6 -11 13 -26 22 -17 4 3 1 6 -6 6 -7 0 -9 5 -6 10 3 6 4
10 1 10 -3 0 -7 -4 -11 -9z"/>
<path d="M340 934 c0 -8 5 -12 10 -9 6 3 10 10 10 16 0 5 -4 9 -10 9 -5 0 -10
-7 -10 -16z"/>
<path d="M395 910 c3 -5 8 -10 11 -10 2 0 4 5 4 10 0 6 -5 10 -11 10 -5 0 -7
-4 -4 -10z"/>
<path d="M435 910 c3 -5 8 -10 11 -10 2 0 4 5 4 10 0 6 -5 10 -11 10 -5 0 -7
-4 -4 -10z"/>
<path d="M495 910 c-3 -5 1 -10 9 -10 9 0 16 5 16 10 0 6 -4 10 -9 10 -6 0
-13 -4 -16 -10z"/>
<path d="M288 903 c6 -2 18 -2 25 0 6 3 1 5 -13 5 -14 0 -19 -2 -12 -5z"/>
<path d="M695 891 c-55 -6 -57 -7 -26 -13 18 -5 37 -6 41 -3 5 3 68 7 140 9
73 3 134 7 138 10 7 7 -211 5 -293 -3z"/>
<path d="M800 838 c0 -9 5 -20 10 -23 13 -8 13 5 0 25 -8 13 -10 13 -10 -2z"/>
<path d="M831 834 c0 -11 3 -14 6 -6 3 7 2 16 -1 19 -3 4 -6 -2 -5 -13z"/>
<path d="M860 836 c0 -9 17 -11 63 -8 86 6 90 17 6 19 -49 1 -69 -2 -69 -11z"/>
<path d="M1748 834 c-5 -4 -8 -24 -8 -45 0 -28 6 -40 25 -53 15 -10 22 -22 18
-32 -9 -25 27 -43 88 -44 58 0 76 13 70 48 -1 8 5 22 14 32 15 16 14 18 -7 22
-13 3 -39 4 -58 3 -19 -2 -55 -4 -80 -6 l-45 -4 -5 44 c-3 23 -8 39 -12 35z
m201 -89 c-3 -2 -43 -7 -90 -10 -58 -4 -79 -2 -69 5 14 9 168 15 159 5z m-31
-42 c21 -20 14 -23 -47 -23 -37 0 -63 5 -70 13 -6 8 -9 16 -7 18 10 9 112 3
124 -8z"/>
<path d="M950 790 l-45 -7 53 -1 c29 -1 52 2 52 8 0 6 -3 9 -7 8 -5 0 -28 -4
-53 -8z"/>
<path d="M283 552 c-13 -2 -23 -9 -23 -17 0 -18 40 -27 47 -10 8 22 0 30 -24
27z"/>
<path d="M368 523 c-4 -13 1 -18 19 -18 15 0 23 6 23 18 0 10 -8 17 -19 17
-10 0 -21 -8 -23 -17z"/>
<path d="M455 520 c-3 -5 0 -10 9 -10 8 0 21 -3 30 -6 11 -4 16 -1 16 10 0 18
-45 23 -55 6z"/>
<path d="M293 449 c-12 -4 -24 -18 -28 -31 -4 -13 -13 -26 -19 -30 -6 -4 -1
-6 12 -5 14 1 22 8 22 19 0 9 10 24 22 32 26 19 21 27 -9 15z"/>
<path d="M232 439 c-13 -5 -20 -13 -17 -19 4 -6 -6 -10 -22 -10 -16 0 -38 -7
-49 -15 -19 -14 -18 -14 3 -15 37 0 101 30 106 51 3 10 4 19 4 18 -1 0 -12 -4
-25 -10z"/>
<path d="M2345 1353 c-242 -40 -479 -95 -640 -148 -134 -45 -315 -121 -335
-141 -13 -13 -12 -14 10 -5 14 5 59 25 101 44 100 46 286 108 434 145 110 28
163 39 435 90 113 21 109 34 -5 15z"/>
<path d="M3346 1274 c-22 -28 -27 -41 -19 -53 14 -22 55 -35 86 -27 35 8 79
48 69 62 -7 12 -85 54 -99 54 -4 0 -21 -16 -37 -36z m64 6 c0 -5 -4 -10 -9
-10 -5 0 -11 -7 -15 -15 -7 -19 -1 -19 18 0 10 10 24 13 41 9 53 -13 13 -44
-59 -44 -52 0 -69 16 -32 30 17 6 24 14 20 25 -4 10 0 15 15 15 12 0 21 -4 21
-10z"/>
<path d="M3833 665 c-18 -8 -33 -20 -34 -27 0 -7 -4 -4 -9 7 -5 11 -9 14 -9 7
-1 -7 -6 -10 -11 -7 -6 4 -9 1 -8 -6 2 -6 -3 -14 -11 -17 -8 -2 -11 0 -8 5 3
5 -9 10 -26 10 l-32 2 33 -15 c26 -11 37 -12 48 -4 7 7 18 9 23 6 5 -4 12 -2
16 3 3 6 13 8 23 5 13 -5 14 -4 3 4 -10 8 -6 11 18 17 17 3 31 11 31 16 0 12
-9 11 -47 -6z"/>
<path d="M3644 612 c8 -13 -17 -22 -60 -22 -19 0 -34 -4 -34 -9 0 -5 -10 -12
-22 -14 -18 -3 -17 -4 2 -2 21 2 69 11 160 30 8 2 22 4 30 5 10 1 9 4 -5 10
-11 4 -24 4 -29 -1 -5 -4 -18 -3 -29 2 -12 7 -17 7 -13 1z"/>
<path d="M3450 560 c-21 -7 -21 -8 -5 -9 11 0 27 4 35 9 18 11 5 11 -30 0z"/>
<path d="M3376 541 c-4 -5 3 -7 14 -4 23 6 26 13 6 13 -8 0 -17 -4 -20 -9z"/>
<path d="M3316 531 c-4 -5 3 -7 14 -4 23 6 26 13 6 13 -8 0 -17 -4 -20 -9z"/>
<path d="M3278 523 c7 -3 16 -2 19 1 4 3 -2 6 -13 5 -11 0 -14 -3 -6 -6z"/>
<path d="M2758 423 c7 -3 16 -2 19 1 4 3 -2 6 -13 5 -11 0 -14 -3 -6 -6z"/>
<path d="M2678 403 c7 -3 16 -2 19 1 4 3 -2 6 -13 5 -11 0 -14 -3 -6 -6z"/>
<path d="M4109 1000 c-26 -15 -68 -82 -84 -135 -20 -68 -20 -237 1 -298 18
-52 63 -97 99 -97 48 0 106 72 120 147 3 18 9 42 14 55 13 38 -3 218 -23 258
-38 73 -81 97 -127 70z m75 -31 c14 -11 26 -26 26 -33 0 -7 8 -28 17 -47 11
-21 17 -59 17 -105 1 -40 4 -76 8 -79 4 -4 0 -15 -9 -24 -12 -11 -17 -13 -21
-3 -5 15 -58 16 -68 1 -3 -6 -1 -15 6 -19 18 -11 3 -84 -21 -106 -17 -15 -19
-15 -19 -1 0 9 4 18 8 21 11 7 15 86 4 86 -15 0 -25 -106 -12 -130 11 -20 12
-20 37 10 21 25 26 41 25 86 0 39 3 54 13 54 51 0 31 -113 -30 -170 -19 -18
-28 -20 -38 -12 -8 7 -16 9 -20 6 -11 -11 -56 72 -68 126 -13 63 -6 177 15
237 21 59 66 123 86 123 10 0 29 -9 44 -21z"/>
<path d="M4100 914 c-11 -26 -20 -50 -20 -55 0 -5 -4 -9 -10 -9 -19 0 -10 -29
15 -53 l26 -23 -24 -26 c-29 -31 -38 -53 -31 -73 9 -23 22 -18 17 8 -3 14 3
29 16 41 12 11 21 25 21 33 0 15 2 15 24 7 12 -5 14 -10 6 -19 -6 -7 -7 -20
-4 -29 6 -15 8 -14 18 5 16 32 29 33 59 5 15 -14 27 -23 27 -20 0 11 -23 49
-34 56 -6 4 -10 30 -9 57 3 65 -13 75 -20 13 -3 -27 -1 -50 5 -53 16 -10 -9
-21 -32 -14 -20 6 -24 33 -7 46 4 3 9 17 11 30 1 13 8 34 14 46 16 28 15 41
-2 59 -9 9 -17 10 -21 4 -3 -5 -1 -10 4 -10 16 0 13 -22 -8 -66 -11 -21 -17
-42 -14 -46 10 -17 -8 -28 -28 -17 -22 11 -21 34 1 34 7 0 15 6 18 14 3 8 0
11 -7 7 -13 -8 -15 6 -2 20 10 11 25 74 17 74 -3 0 -14 -21 -26 -46z"/>
<path d="M4215 800 c-3 -5 -2 -10 4 -10 5 0 13 5 16 10 3 6 2 10 -4 10 -5 0
-13 -4 -16 -10z"/>
<path d="M4068 765 c2 -14 6 -25 8 -25 2 0 4 11 4 25 0 14 -4 25 -9 25 -4 0
-6 -11 -3 -25z"/>
<path d="M4103 712 l-22 -3 20 -20 c23 -23 32 -20 27 8 -2 12 -10 17 -25 15z"/>
<path d="M4069 643 c0 -5 -2 -16 -4 -25 -2 -10 2 -21 7 -25 7 -3 8 -1 4 6 -4
6 0 14 8 17 20 8 21 34 1 34 -8 0 -15 -3 -16 -7z"/>
<path d="M4085 571 c-3 -5 -1 -12 5 -16 5 -3 10 1 10 9 0 18 -6 21 -15 7z"/>
<path d="M2232 788 c-85 -60 -142 -193 -142 -335 0 -124 23 -198 82 -267 30
-35 40 -40 89 -44 50 -4 58 -1 99 29 88 68 134 187 134 344 -1 120 -22 183
-83 246 -44 46 -51 49 -97 49 -35 0 -59 -7 -82 -22z m137 -23 c46 -29 87 -105
100 -186 7 -44 6 -56 -8 -66 -24 -19 -59 -16 -71 6 -5 11 -19 23 -31 26 l-21
7 22 23 c30 32 54 22 46 -19 -4 -22 -3 -27 4 -16 5 8 10 10 10 4 0 -7 7 -14
15 -18 13 -5 13 -1 0 31 -9 21 -22 45 -30 53 -8 9 -15 21 -15 26 0 5 5 2 10
-6 7 -11 10 -2 10 33 0 30 -4 46 -10 42 -5 -3 -10 -14 -10 -24 0 -36 -54 -131
-74 -131 -12 0 -5 36 16 80 20 44 36 142 19 124 -11 -12 -54 -152 -58 -189 -3
-27 0 -30 28 -31 18 -1 41 -12 58 -28 27 -26 71 -36 71 -16 0 6 5 10 10 10 16
0 12 -64 -10 -141 -20 -74 -46 -123 -80 -154 -20 -18 -20 -18 -20 9 0 29 49
109 78 125 9 6 13 10 7 11 -5 0 -17 -4 -25 -10 -16 -10 -43 6 -34 21 3 5 -2 9
-12 9 -15 0 -15 -2 1 -26 14 -22 15 -31 5 -53 l-12 -26 -10 25 c-5 14 -7 42
-5 63 5 34 3 37 -20 37 -21 0 -23 -2 -13 -14 6 -8 14 -58 17 -110 l6 -96 -50
0 c-65 0 -92 21 -127 100 -35 77 -44 130 -24 130 8 0 28 12 43 26 27 25 29 25
41 9 7 -10 15 -23 18 -29 3 -7 9 -4 16 7 6 9 16 17 23 17 6 0 21 12 32 26 19
24 23 25 62 15 34 -9 42 -16 45 -39 4 -23 5 -24 12 -9 18 40 -58 83 -108 62
-14 -6 -17 -5 -12 4 7 11 -9 41 -23 41 -6 0 -41 -53 -41 -62 0 -3 7 -5 15 -5
9 0 15 10 15 24 0 13 5 23 10 23 16 0 12 -46 -5 -60 -8 -7 -25 -10 -39 -6
l-24 6 18 36 c11 20 27 42 37 50 10 7 13 14 6 14 -6 0 -9 9 -6 20 3 12 0 20
-8 20 -8 0 -7 4 4 13 16 11 15 15 -8 59 -14 26 -22 55 -19 65 5 17 5 17 -10
-1 -13 -16 -13 -22 0 -47 8 -16 17 -51 20 -79 4 -41 3 -50 -10 -50 -9 0 -17 3
-17 8 -15 88 -22 112 -31 112 -14 0 -1 -112 14 -121 7 -5 19 -9 26 -9 17 0 1
-30 -44 -80 -44 -48 -74 -58 -74 -24 0 19 5 24 25 24 14 0 25 5 25 10 0 6 15
20 33 31 17 11 23 18 12 15 -15 -4 -24 2 -38 25 -9 17 -14 36 -10 42 4 7 -1 6
-10 -2 -10 -8 -17 -9 -17 -3 0 6 10 18 22 26 20 14 18 21 -5 17 -4 -1 -3 7 2
18 6 10 7 22 3 26 -4 3 -1 5 7 3 8 -2 17 6 19 17 2 11 15 31 28 44 13 13 24
27 24 31 0 11 43 29 73 29 15 1 45 -10 66 -24z m-206 -264 c-9 -35 -50 -33
-44 2 2 9 9 50 11 57 0 3 9 -5 19 -17 11 -13 17 -32 14 -42z"/>
<path d="M2250 744 c0 -6 7 -17 15 -24 9 -7 15 -20 14 -29 -3 -34 1 -52 11
-46 6 4 8 10 5 15 -2 4 -6 27 -6 52 -2 35 -6 44 -21 44 -10 0 -18 -6 -18 -12z"/>
<path d="M2385 569 c-4 -6 -5 -12 -2 -15 2 -3 7 2 10 11 7 17 1 20 -8 4z"/>
<path d="M2306 434 c-3 -8 -2 -13 3 -10 5 3 14 0 20 -8 6 -7 26 -16 43 -20 17
-3 40 -14 50 -23 10 -9 18 -11 18 -5 0 16 -40 41 -70 44 -14 2 -28 11 -32 21
-9 21 -24 22 -32 1z"/>
<path d="M2274 409 c-11 -19 -10 -229 1 -226 8 3 16 237 8 237 -1 0 -5 -5 -9
-11z"/>
<path d="M2157 377 c-12 -19 -12 -24 0 -36 10 -9 12 -23 8 -44 l-6 -32 20 33
c11 17 25 32 31 32 13 0 13 -53 -1 -67 -14 -14 -8 -55 9 -61 11 -3 12 0 4 15
-7 12 -7 25 -1 36 6 9 11 45 13 78 l2 61 -25 -31 c-14 -17 -29 -31 -33 -31
-12 0 -10 38 2 45 6 3 10 10 10 16 0 17 -17 9 -33 -14z"/>
<path d="M625 530 c-3 -6 1 -7 9 -4 18 7 21 14 7 14 -6 0 -13 -4 -16 -10z"/>
<path d="M791 506 c-9 -11 -10 -20 -1 -36 13 -24 30 -18 30 11 0 10 5 19 10
19 6 0 10 5 10 10 0 15 -36 12 -49 -4z"/>
</g>
</svg>
