<?xml version="1.0" standalone="no"?>
<!DOCTYPE svg PUBLIC "-//W3C//DTD SVG 20010904//EN"
 "http://www.w3.org/TR/2001/REC-SVG-20010904/DTD/svg10.dtd">
<svg version="1.0" xmlns="http://www.w3.org/2000/svg"
 width="352.000000pt" height="368.000000pt" viewBox="0 0 352.000000 368.000000"
 preserveAspectRatio="xMidYMid meet">
<style>
  /* Country outline: light #a1a1aa, dark #52525b (match WorldMapChart) */
  path { fill: #a1a1aa; stroke: none; }
  @media (prefers-color-scheme: dark) { path { fill: #52525b; } }
</style>
<g transform="translate(0.000000,368.000000) scale(0.100000,-0.100000)"
stroke="none">
<path d="M2785 3617 c-81 -32 -138 -94 -198 -214 -17 -34 -36 -64 -41 -66 -22
-7 -341 24 -493 47 -406 64 -656 72 -828 27 -150 -39 -396 -178 -630 -355
-128 -97 -305 -277 -353 -358 -43 -72 -85 -239 -120 -477 -24 -168 -27 -210
-25 -441 1 -280 20 -486 52 -570 31 -82 275 -372 545 -648 99 -100 103 -103
181 -127 134 -41 285 -74 394 -85 195 -19 497 -11 887 25 89 8 220 15 292 15
l130 0 7 -30 c9 -40 74 -139 117 -176 46 -40 119 -69 154 -60 24 6 26 10 21
47 -6 46 -58 152 -93 190 -13 14 -24 27 -24 30 0 2 171 3 380 1 236 -2 380 0
380 6 0 13 -471 26 -682 19 -93 -3 -168 -2 -168 3 0 5 11 22 25 38 22 27 23
31 9 43 -23 19 -140 25 -160 8 -15 -12 -15 -40 1 -81 6 -16 0 -18 -55 -18 -55
0 -61 2 -55 17 26 61 45 132 45 171 l0 44 339 -7 c327 -7 701 0 701 14 0 3
-211 7 -470 8 -518 2 -698 12 -839 49 -124 32 -182 65 -261 145 -147 148 -300
534 -341 854 -25 206 1 489 67 696 117 371 263 563 492 646 156 57 357 73 930
73 294 0 422 3 422 11 0 7 -148 10 -500 7 l-501 -3 4 65 c2 42 10 75 22 93 18
28 19 29 99 23 177 -12 876 -19 876 -9 0 6 -145 12 -402 17 -379 6 -538 13
-547 22 -2 2 2 12 10 21 8 10 25 40 39 66 55 105 141 177 213 177 38 0 39 -1
32 -27 -10 -42 -52 -125 -84 -170 -23 -32 -34 -40 -53 -36 -13 2 -32 -3 -43
-12 -19 -16 -19 -16 5 -9 14 4 35 8 46 8 12 1 32 10 43 20 33 30 101 173 101
212 0 32 -2 34 -32 33 -18 0 -47 -6 -63 -12z m-1025 -213 c74 -8 203 -26 285
-39 166 -26 342 -45 434 -46 34 -1 61 -4 61 -8 -1 -17 -18 -31 -33 -25 -10 3
-17 1 -17 -5 0 -6 3 -11 8 -11 4 0 8 -31 9 -70 l2 -69 -32 -5 c-18 -2 -72 -9
-122 -16 -270 -34 -453 -158 -568 -386 -24 -48 -27 -50 -61 -46 -70 8 -456
-49 -701 -103 -144 -32 -424 -107 -517 -139 -52 -18 -68 -20 -68 -10 0 43 87
227 199 421 58 100 50 94 217 157 39 15 82 39 96 54 31 33 141 193 136 197
-11 11 -163 -31 -225 -62 -69 -34 -215 -155 -332 -277 -46 -46 -51 -71 -9 -42
12 9 31 16 41 16 10 0 36 9 58 21 23 11 43 18 45 16 3 -3 -20 -46 -51 -97
-154 -254 -239 -490 -280 -779 -20 -138 -19 -231 5 -443 24 -219 42 -307 87
-428 38 -102 150 -330 162 -330 4 0 -22 60 -58 133 -59 118 -125 289 -133 342
-2 13 2 19 12 17 8 -2 120 -28 250 -57 429 -97 701 -145 969 -168 l134 -12 42
-81 c50 -97 120 -190 174 -233 87 -69 247 -123 405 -136 l88 -8 -7 -46 c-3
-25 -15 -78 -26 -117 l-21 -71 -161 -11 c-89 -7 -254 -19 -367 -28 -292 -22
-612 -15 -770 19 -182 39 -277 67 -319 96 -83 56 -573 608 -618 695 -38 75
-52 173 -65 466 -11 254 -11 273 11 450 34 281 74 470 118 560 42 87 179 235
328 355 181 145 475 323 595 360 148 45 361 56 590 29z m-755 -254 c-27 -38
-56 -77 -66 -86 -23 -21 -324 -147 -384 -161 -11 -2 36 50 105 116 70 67 131
119 138 116 7 -3 10 0 7 5 -13 22 217 108 239 89 5 -4 -13 -39 -39 -79z m742
-498 c-3 -9 -27 -72 -52 -140 -91 -245 -120 -419 -113 -669 8 -228 60 -462
149 -660 l29 -65 -47 6 c-27 3 -97 11 -158 16 -312 30 -1158 203 -1170 239 -2
9 -12 75 -20 146 -23 192 -30 416 -16 516 13 91 67 327 79 345 13 20 436 141
647 184 152 31 397 71 520 84 170 18 158 18 152 -2z m943 -2159 c3 -2 -5 -21
-17 -41 -18 -31 -27 -37 -55 -37 -52 -1 -68 11 -68 50 0 29 4 34 28 38 28 4
103 -3 112 -10z m78 -131 c33 -38 90 -153 94 -188 2 -24 -1 -30 -20 -32 -35
-5 -85 15 -130 54 -43 37 -105 131 -116 176 l-6 27 77 -5 c69 -5 81 -8 101
-32z"/>
<path d="M1414 3321 c-61 -10 -243 -66 -264 -82 -13 -10 -13 -10 1 -6 8 3 52
16 96 31 176 55 251 57 538 12 325 -51 722 -92 705 -73 -3 3 -64 11 -135 17
-154 13 -380 42 -595 75 -188 30 -279 36 -346 26z"/>
<path d="M1680 3073 c-358 -28 -744 -150 -848 -268 -45 -51 -176 -279 -163
-283 15 -5 124 58 162 95 20 19 45 52 54 74 18 38 18 38 -9 74 -33 43 -29 50
47 93 127 72 372 148 567 177 58 8 186 20 285 25 99 6 191 12 205 14 34 4
-244 3 -300 -1z m-816 -315 c23 -32 20 -49 -14 -96 -32 -44 -135 -120 -147
-108 -12 12 119 226 138 226 4 0 15 -10 23 -22z"/>
<path d="M674 1213 c10 -40 114 -211 159 -260 104 -114 460 -233 782 -262 154
-14 391 -25 385 -18 -3 4 -80 11 -170 17 -315 20 -531 58 -720 125 -92 33
-222 99 -246 126 -17 18 -16 20 3 42 31 35 34 55 14 95 -26 51 -64 84 -145
127 l-68 36 6 -28z m98 -43 c47 -30 108 -101 108 -126 0 -27 -24 -65 -39 -62
-14 3 -65 74 -130 181 -21 34 -21 37 -4 37 10 0 39 -14 65 -30z"/>
<path d="M480 865 c0 -21 251 -267 319 -312 53 -35 213 -93 257 -93 29 0 40
18 21 33 -8 7 -38 47 -67 90 -29 43 -62 85 -75 93 -12 8 -84 39 -160 69 -77
31 -150 65 -162 77 -13 12 -23 16 -23 10 0 -16 -47 -8 -69 11 -22 19 -41 29
-41 22z m202 -98 c57 -24 134 -56 171 -72 38 -15 77 -35 87 -44 30 -26 120
-165 112 -173 -9 -9 -148 35 -212 67 -52 26 -198 152 -250 214 -19 23 -37 44
-39 47 -15 15 43 -2 131 -39z"/>
<path d="M722 693 c-15 -6 18 -37 83 -80 22 -14 52 -34 67 -45 29 -19 88 -25
88 -8 0 21 -64 81 -117 110 -72 39 -82 31 -11 -9 66 -38 108 -72 108 -88 0
-19 -18 -16 -69 13 -75 43 -142 95 -135 105 6 10 5 10 -14 2z"/>
<path d="M2195 519 c-82 -10 -270 -35 -417 -55 -249 -35 -274 -37 -355 -27
-49 6 -132 25 -186 43 -108 34 -142 35 -50 1 69 -25 198 -57 268 -66 33 -4
121 4 260 24 116 17 323 44 460 61 138 17 255 33 260 35 25 9 -104 1 -240 -16z"/>
<path d="M935 3160 c-4 -6 -10 -8 -15 -5 -17 10 -94 -36 -147 -88 -29 -28 -53
-55 -53 -61 0 -5 19 12 41 38 43 48 122 96 159 96 19 0 20 -2 7 -20 -8 -11
-45 -40 -83 -65 -101 -65 -68 -57 43 12 32 19 81 73 68 73 -4 0 -2 7 5 15 10
12 10 15 -3 15 -9 0 -19 -5 -22 -10z"/>
<path d="M670 2975 c-11 -13 -10 -14 4 -9 9 3 16 10 16 15 0 13 -6 11 -20 -6z"/>
<path d="M2614 361 c10 -15 74 -31 121 -30 37 1 36 2 -20 13 -33 7 -71 16 -84
20 -16 6 -21 5 -17 -3z"/>
<path d="M2670 3414 c-25 -9 -49 -20 -54 -25 -16 -14 16 -10 44 6 14 8 40 14
58 15 17 0 32 5 32 10 0 14 -27 12 -80 -6z"/>
<path d="M2688 3264 c-18 -18 -100 -25 -130 -10 -11 5 -18 4 -18 -1 0 -5 16
-15 36 -21 30 -9 46 -8 87 6 28 9 52 23 55 30 5 17 -11 15 -30 -4z"/>
<path d="M3025 3250 c-110 -5 -103 -6 70 -7 105 0 244 3 310 7 112 6 107 6
-70 6 -104 0 -244 -3 -310 -6z"/>
<path d="M2723 3066 c2 -6 23 -14 48 -18 24 -4 94 -18 154 -32 131 -30 443
-83 535 -90 109 -9 24 10 -170 39 -169 25 -404 69 -445 83 -29 10 177 18 443
18 127 -1 232 3 232 7 0 4 -180 7 -400 6 -294 -1 -400 -4 -397 -13z"/>
<path d="M2541 3036 c9 -8 352 -97 505 -130 200 -44 452 -89 467 -83 15 6 14
6 -263 57 -124 24 -330 69 -458 101 -217 55 -262 65 -251 55z"/>
<path d="M2239 2948 c-194 -160 -320 -339 -398 -562 -115 -327 -65 -768 141
-1251 103 -242 152 -312 240 -341 62 -20 68 -19 473 106 326 101 404 118 688
156 75 10 137 22 137 27 0 4 -21 5 -47 2 -84 -11 -366 -54 -416 -64 -45 -8
-49 -7 -57 13 -12 33 -68 436 -85 620 -18 191 -20 636 -4 946 6 118 13 217 15
219 2 2 108 -10 236 -28 340 -46 358 -48 358 -40 0 9 -35 15 -195 34 -166 20
-408 56 -418 62 -5 3 -41 13 -80 23 -40 10 -152 41 -250 68 -218 62 -257 69
-257 49 0 -8 -21 -41 -46 -73 -156 -200 -279 -434 -350 -669 -26 -84 -28 -103
-28 -275 -1 -118 4 -210 13 -255 24 -127 69 -302 102 -397 34 -99 138 -357
168 -417 29 -58 34 -81 18 -81 -81 0 -290 474 -361 822 -86 417 -35 734 165
1031 43 63 215 242 279 290 19 14 32 29 28 32 -3 3 -34 -18 -69 -47z m331 -23
c89 -24 165 -46 168 -50 6 -6 5 8 37 -370 14 -165 25 -313 25 -330 0 -26 -7
-34 -47 -55 -67 -35 -74 -54 -71 -186 3 -127 11 -143 83 -175 l41 -18 24 -303
c36 -473 36 -470 25 -474 -405 -123 -548 -164 -577 -164 -34 0 -39 3 -58 48
-228 507 -312 806 -313 1112 0 163 15 245 79 417 60 162 180 371 320 556 44
57 24 58 264 -8z m290 -80 c25 -7 44 -16 44 -21 -1 -5 -7 -153 -14 -329 -16
-389 -9 -720 19 -950 18 -151 66 -494 73 -525 2 -7 -13 -18 -32 -25 -69 -26
-65 -35 -83 183 -10 108 -22 267 -27 352 -16 227 -13 216 -70 245 -27 14 -54
34 -60 44 -5 11 -10 68 -10 128 0 126 6 140 74 168 27 11 46 26 46 35 0 24
-49 609 -56 668 l-6 53 28 -7 c16 -4 49 -13 74 -19z"/>
<path d="M3450 988 c-292 -51 -614 -125 -798 -183 -138 -44 -87 -38 79 9 205
58 562 135 742 161 26 4 47 11 47 16 0 5 -3 8 -7 8 -5 -1 -33 -6 -63 -11z"/>
<path d="M3440 873 c-14 -2 -95 -15 -180 -29 -139 -22 -336 -62 -490 -98 -32
-7 -49 -15 -42 -20 7 -4 36 -1 65 8 120 35 619 126 690 126 14 0 29 5 32 10 6
10 -25 11 -75 3z"/>
<path d="M2810 723 c0 -5 160 -10 355 -12 254 -2 355 0 355 8 0 8 -103 11
-355 11 -195 0 -355 -3 -355 -7z"/>
<path d="M2880 519 c25 -4 180 -10 345 -12 207 -4 261 -3 175 3 -165 11 -578
18 -520 9z"/>
</g>
</svg>
