<?xml version="1.0" standalone="no"?>
<!DOCTYPE svg PUBLIC "-//W3C//DTD SVG 20010904//EN"
 "http://www.w3.org/TR/2001/REC-SVG-20010904/DTD/svg10.dtd">
<svg version="1.0" xmlns="http://www.w3.org/2000/svg"
 width="570.000000pt" height="534.000000pt" viewBox="0 0 570.000000 534.000000"
 preserveAspectRatio="xMidYMid meet">
<g transform="translate(0.000000,534.000000) scale(0.100000,-0.100000)"
fill="#000000" stroke="none">
<path d="M4270 5073 c-229 -20 -519 -99 -805 -219 -219 -92 -715 -361 -870
-473 -22 -16 -89 -64 -150 -107 -135 -95 -373 -285 -475 -378 -104 -95 -290
-284 -380 -386 -41 -47 -77 -87 -80 -90 -91 -88 -339 -468 -443 -677 -233
-469 -349 -873 -378 -1313 -36 -562 106 -958 396 -1103 98 -49 160 -62 295
-61 163 2 291 31 530 122 651 247 1640 1000 2392 1822 231 251 654 762 724
872 29 46 30 60 4 83 -30 27 -57 10 -131 -85 -262 -334 -520 -646 -613 -743
-17 -18 -65 -70 -106 -115 -159 -175 -388 -399 -615 -603 -61 -56 -196 -168
-324 -272 -53 -42 -114 -92 -136 -110 -21 -17 -111 -85 -200 -150 -680 -503
-1272 -766 -1616 -718 -153 21 -258 87 -345 217 -238 360 -207 1117 76 1819
193 479 481 901 876 1285 248 242 449 400 801 633 345 228 574 351 878 469
279 110 414 148 609 173 297 40 467 -32 521 -220 124 -425 -392 -1412 -1097
-2101 -370 -362 -760 -633 -1058 -735 -79 -27 -216 -36 -280 -19 -62 16 -141
97 -166 171 -27 76 -27 284 0 389 65 254 202 492 406 700 46 47 82 90 81 95
-1 6 1 7 4 3 4 -4 46 26 94 66 207 175 524 392 906 621 231 139 235 142 235
169 0 57 -47 60 -138 8 -191 -110 -672 -420 -775 -500 -19 -15 -45 -34 -57
-42 -159 -106 -426 -346 -539 -485 -221 -270 -341 -570 -341 -849 0 -112 21
-202 62 -275 79 -137 180 -188 356 -179 243 13 594 201 989 530 147 122 500
476 622 623 332 401 602 852 727 1218 197 573 69 902 -356 920 -41 2 -91 2
-110 0z"/>
</g>
</svg>
