<svg version="1.0" xmlns="http://www.w3.org/2000/svg" width="600.000000pt" height="462.000000pt" viewBox="0 0 600.000000 462.000000" preserveAspectRatio="xMidYMid meet" style="width: 1466.77px; height: auto;"> <g transform="translate(0.000000,462.000000) scale(0.100000,-0.100000)" fill="#E78A53" stroke="none">       <path d="M2600 3814 c-238 -46 -408 -179 -511 -398 -52 -111 -90 -350 -74 -465 l7 -51 37 6 c20 3 80 7 134 7 l97 2 0 105 c1 190 42 313 137 408 222 223 619 115 674 -184 44 -235 -180 -600 -498 -814 -94 -63 -93 -60 -53 -147 17 -36 40 -88 52 -114 25 -59 14 -59 101 -3 711 458 901 1227 384 1548 -133 83 -348 127 -487 100z" class=""></path>        <path d="M2045 2805 c-421 -54 -735 -276 -785 -554 -48 -267 212 -476 538 -434 89 12 88 12 51 -53 -199 -358 -126 -789 159 -933 386 -195 833 78 832 509 -1 164 -45 295 -184 540 -46 80 -97 170 -114 200 -39 71 -116 243 -137 309 l-17 51 -139 0 c-108 0 -139 -3 -139 -13 0 -15 54 -180 69 -212 6 -11 32 -68 59 -127 28 -59 97 -191 155 -295 157 -283 193 -393 168 -514 -55 -264 -409 -326 -522 -91 -64 132 -23 333 127 619 l55 107 -39 76 c-22 41 -47 96 -57 123 -10 26 -20 47 -23 47 -3 0 -35 -9 -71 -19 -366 -108 -594 -28 -456 159 141 191 522 277 941 214 40 -6 43 -4 150 88 60 52 109 100 109 108 0 20 -132 63 -256 84 -134 23 -342 28 -474 11z" class=""></path>  <path d="M3452 2590 c-215 -58 -388 -233 -471 -478 -84 -248 -63 -591 51 -821 147 -298 472 -402 751 -242 50 28 125 97 116 104 -10 9 -118 76 -172 106 l-58 33 -49 -21 c-230 -99 -414 119 -414 494 -1 337 158 565 395 565 246 0 402 -263 334 -565 -9 -42 -15 -78 -13 -80 1 -1 28 -15 58 -30 30 -15 75 -42 100 -59 76 -54 77 -54 99 19 134 433 -36 844 -399 965 -95 31 -234 36 -328 10z" class=""></path>         <path d="M3300 1769 c0 -123 19 -219 44 -229 383 -156 529 -237 747 -416 146 -121 272 -275 329 -402 13 -28 26 -52 29 -52 8 0 231 69 259 81 l22 9 -41 82 c-184 367 -540 657 -1099 898 -129 55 -269 110 -282 110 -5 0 -8 -36 -8 -81z"></path>         </g> </svg>