<svg version="1.0" xmlns="http://www.w3.org/2000/svg" width="6560.000000pt" height="462.000000pt" viewBox="0 0 6560.000000 462.000000" preserveAspectRatio="xMidYMid meet"> <g transform="translate(0.000000,462.000000) scale(0.100000,-0.100000)" fill="#000000" stroke="none"> <path d="M2530 3796 c-233 -70 -401 -234 -469 -460 -31 -102 -55 -289 -47 -366 l7 -65 112 3 c170 4 153 -11 160 144 6 154 25 226 82 312 114 172 330 230 523 141 69 -32 147 -111 180 -183 23 -49 26 -69 25 -148 -1 -77 -6 -104 -35 -181 -79 -209 -255 -424 -465 -566 -35 -23 -66 -52 -69 -63 -7 -26 78 -228 98 -232 8 -1 54 25 103 59 460 318 708 764 630 1134 -37 174 -161 332 -325 413 -163 80 -362 103 -510 58z" class=""></path> <path d="M2020 2800 c-274 -39 -539 -172 -658 -332 -176 -236 -131 -479 111 -598 101 -49 189 -64 302 -52 44 5 85 7 92 5 7 -3 -6 -41 -37 -106 -64 -134 -80 -198 -87 -338 -4 -89 -2 -134 11 -193 58 -258 252 -416 515 -416 150 0 274 47 381 146 110 102 161 201 181 349 25 192 -26 350 -224 695 -74 129 -168 323 -199 410 l-23 65 -105 3 c-58 2 -119 0 -137 -3 l-31 -6 13 -47 c36 -130 114 -298 305 -657 110 -208 145 -309 137 -401 -20 -251 -308 -375 -477 -205 -127 128 -106 329 70 681 l58 116 -33 63 c-18 35 -45 89 -58 120 l-25 57 -113 -29 c-146 -38 -318 -44 -387 -13 -43 19 -72 57 -72 93 0 10 13 41 30 70 48 84 145 152 284 198 172 58 329 73 555 55 l160 -13 68 56 c94 77 149 135 138 145 -18 16 -99 44 -185 63 -98 23 -448 34 -560 19z" class=""></path> <path d="M3503 2599 c-116 -19 -216 -72 -316 -167 -190 -181 -278 -459 -247 -776 34 -345 187 -584 419 -656 70 -22 205 -27 279 -10 67 16 163 65 216 113 l49 43 -30 22 c-16 11 -68 43 -116 71 l-86 49 -53 -20 c-182 -71 -329 37 -393 288 -25 96 -25 313 -1 409 57 225 185 354 361 363 253 13 418 -253 350 -568 -15 -69 -10 -84 28 -96 12 -4 56 -29 98 -55 42 -27 81 -49 87 -49 13 0 47 105 63 197 7 38 10 119 7 192 -4 107 -10 139 -35 214 -41 115 -84 187 -163 267 -87 87 -194 144 -315 165 -96 16 -124 17 -202 4z" class=""></path> <path d="M3306 1843 c-16 -17 2 -227 25 -275 8 -18 41 -37 127 -73 158 -65 293 -133 437 -220 230 -138 400 -216 579 -263 l61040 0 0 -312 0 550 -60156 0 c-706 0 -749 3 -921 61 -125 41 -211 83 -377 183 -133 80 -358 197 -455 238 -22 9 -62 27 -90 38 -96 42 -203 79 -209 73z" class=""></path> </g> </svg>