<svg version="1.0" xmlns="http://www.w3.org/2000/svg" width="600.000000pt" height="450.000000pt" viewBox="0 0 600.000000 450.000000" preserveAspectRatio="xMidYMid meet" style="width: 1734.03px; height: auto;"> <g transform="translate(0.000000,450.000000) scale(0.100000,-0.100000)" fill="#000000" stroke="none"> <path d="M2280 4270 c-59 -6 -117 -23 -270 -82 l-195 -76 -134 8 c-74 5 -170 10 -214 11 l-80 2 -103 -358 c-57 -197 -107 -362 -111 -366 -5 -3 -72 -32 -150 -64 l-143 -58 -31 -56 c-17 -31 -48 -99 -69 -153 -33 -82 -40 -109 -42 -184 l-3 -88 52 -35 c77 -53 75 -61 -60 -298 -107 -187 -115 -204 -136 -302 -12 -57 -20 -105 -19 -106 2 -1 71 7 155 18 l152 20 77 -69 c43 -38 95 -85 117 -104 38 -34 39 -37 58 -155 10 -66 21 -130 24 -142 4 -19 -14 -36 -122 -114 -71 -51 -146 -99 -168 -106 -85 -28 -276 -118 -273 -128 2 -6 88 -145 192 -307 l188 -296 -1 -115 -2 -114 82 -61 c45 -34 96 -64 113 -67 17 -3 202 -28 411 -56 443 -58 448 -58 570 10 89 50 131 93 199 206 20 33 50 76 68 96 l33 37 425 55 425 55 214 91 c117 50 216 93 219 95 2 3 38 117 78 253 73 244 89 278 137 304 26 14 55 2 72 -30 21 -42 162 -91 261 -91 65 0 84 5 156 39 65 30 93 50 129 92 89 106 85 93 109 334 l22 220 75 191 75 192 122 120 121 120 169 16 c93 8 170 17 172 19 2 2 -34 59 -81 128 l-85 123 -162 52 c-139 43 -178 60 -263 114 -55 35 -101 64 -102 65 -1 1 24 85 56 188 32 103 58 188 57 188 0 1 -347 36 -771 78 l-770 78 -75 35 c-41 19 -239 148 -440 287 -318 218 -370 251 -400 249 -19 0 -69 -4 -110 -8z m505 -250 c219 -151 396 -265 447 -289 l83 -39 755 -73 c415 -40 757 -74 759 -76 3 -2 -21 -84 -52 -182 -31 -99 -57 -181 -57 -184 0 -2 48 -35 107 -72 104 -67 154 -88 348 -146 l76 -22 80 -115 c44 -63 78 -116 76 -118 -2 -2 -75 -11 -162 -20 l-158 -16 -126 -118 -125 -119 -77 -195 -77 -195 -23 -227 -24 -228 -64 -75 c-81 -96 -155 -134 -279 -145 -73 -7 -89 -5 -154 19 -87 31 -114 48 -123 75 -8 24 -49 36 -79 22 -45 -20 -74 -84 -141 -317 -37 -126 -73 -235 -79 -241 -6 -7 -103 -51 -216 -98 l-205 -86 -425 -55 -425 -56 -42 -45 c-23 -25 -57 -71 -74 -102 -57 -99 -106 -150 -194 -196 -49 -27 -99 -46 -130 -50 -35 -4 -177 11 -459 49 l-409 55 -74 55 -73 55 0 113 0 112 -195 305 -195 305 110 52 c61 29 129 57 151 63 31 9 238 145 301 199 4 4 -3 73 -16 153 l-23 147 -49 44 c-214 192 -179 176 -349 152 -55 -8 -109 -15 -121 -15 l-20 0 20 98 c19 90 29 112 133 293 138 240 140 249 58 306 l-56 38 6 80 c7 88 61 241 118 336 32 51 33 52 176 110 80 33 146 60 147 62 1 1 49 163 105 360 l103 357 51 0 c27 0 122 -5 211 -10 l160 -10 195 76 c191 75 234 85 382 93 22 1 113 -57 392 -249z" class=""></path>                       </g> </svg>