<svg version="1.0" xmlns="http://www.w3.org/2000/svg" width="600.000000pt" height="450.000000pt" viewBox="0 0 600.000000 450.000000" preserveAspectRatio="xMidYMid meet" style="width: 1679.99px; height: auto;"> <g transform="translate(0.000000,450.000000) scale(0.100000,-0.100000)" fill="#000000" stroke="none"> <path d="M2659 4258 c-32 -18 -38 -28 -48 -76 -10 -49 -9 -58 9 -87 11 -18 40 -43 65 -56 53 -28 64 -54 72 -173 5 -67 -7 -171 -23 -198 -3 -4 -16 -2 -30 4 -23 11 -25 16 -20 52 24 162 21 174 -60 273 -23 29 -50 74 -59 100 -22 63 -29 76 -43 81 -24 8 -14 -119 18 -218 37 -114 50 -191 50 -291 0 -76 23 -169 42 -169 5 0 22 7 37 16 25 15 31 14 141 -31 151 -62 203 -100 220 -160 7 -25 16 -48 21 -51 4 -2 25 2 45 11 20 8 52 15 71 15 55 0 71 15 93 86 66 216 -45 546 -232 688 -60 46 -103 53 -170 28 -45 -17 -58 -18 -83 -8 l-29 12 32 13 c18 7 32 16 32 19 0 8 -103 142 -109 142 -4 0 -22 -10 -42 -22z m94 -57 l48 -60 -38 -20 -38 -19 25 -10 c14 -5 32 -11 40 -14 8 -3 39 3 69 14 70 23 109 16 169 -32 147 -116 253 -365 239 -565 -5 -82 -28 -163 -50 -177 -7 -4 -29 -8 -50 -8 -21 0 -53 -6 -72 -14 -38 -16 -37 -17 -55 37 -18 57 -88 107 -229 162 -118 47 -120 48 -146 31 -15 -10 -28 -16 -30 -14 -20 24 -30 74 -36 188 -6 116 -12 151 -43 250 -28 87 -36 128 -34 170 l3 55 23 -62 c13 -35 38 -82 57 -105 19 -24 46 -62 61 -86 28 -45 28 -42 8 -198 -5 -38 -4 -42 29 -62 l35 -20 16 57 c19 69 21 197 3 266 -12 44 -19 53 -64 80 -69 41 -87 75 -70 138 9 34 20 52 42 66 17 10 32 17 36 15 3 -1 26 -30 52 -63z" class=""></path>    <path d="M2718 1183 c-80 -60 -103 -121 -69 -179 15 -25 17 -36 8 -39 -156 -49 -194 -66 -231 -104 l-28 -29 53 -29 c30 -15 63 -31 73 -36 17 -7 14 -10 -22 -28 -46 -23 -51 -40 -31 -97 10 -28 7 -40 -20 -98 l-31 -66 20 -27 c27 -38 176 -128 234 -141 74 -16 170 -3 259 37 l77 34 67 -61 c51 -46 135 -100 157 -100 1 0 10 16 20 35 17 32 18 42 8 99 -17 88 -15 114 7 125 21 12 75 -1 133 -30 21 -11 50 -19 67 -19 25 0 34 8 61 52 17 28 34 67 37 86 6 33 2 39 -48 83 -30 26 -51 50 -48 53 3 4 34 7 67 8 34 1 62 2 62 4 0 13 -37 84 -53 102 -25 27 -46 28 -97 2 -78 -40 -153 -14 -166 58 -6 27 -4 32 13 32 18 0 83 57 83 74 0 5 -12 5 -26 2 -44 -11 -93 4 -128 40 l-33 34 -25 -32 c-27 -36 -50 -93 -41 -102 19 -19 -14 -1 -47 25 -26 21 -42 44 -50 76 -15 51 -80 157 -103 166 -8 3 -50 8 -93 11 -75 6 -81 5 -116 -21z m197 1 c26 -6 77 -84 99 -151 13 -39 29 -62 61 -89 46 -38 65 -38 65 0 0 12 12 40 27 63 l26 41 31 -33 c32 -33 90 -53 121 -41 8 3 15 1 15 -4 0 -13 -51 -50 -70 -50 -26 0 -29 -8 -16 -50 22 -76 96 -101 176 -60 22 11 48 20 59 20 20 0 53 -39 65 -76 6 -19 2 -22 -31 -28 -21 -3 -50 -6 -65 -6 -16 0 -28 -3 -28 -7 1 -13 43 -56 78 -81 42 -30 42 -62 -1 -132 -37 -64 -63 -72 -124 -42 -61 31 -120 45 -143 32 -23 -12 -25 -43 -9 -136 9 -52 8 -67 -5 -93 l-17 -31 -47 24 c-26 14 -73 50 -105 82 l-57 58 -53 -23 c-112 -50 -128 -53 -232 -49 l-100 4 -84 53 c-124 78 -124 79 -89 163 25 59 28 74 19 100 -19 54 -14 66 36 92 l47 24 -73 36 -73 37 23 26 c27 28 82 55 177 84 34 11 62 22 62 26 0 3 -9 21 -21 39 -35 57 -16 106 66 166 38 28 44 29 105 23 36 -4 74 -9 85 -11z" class=""></path>                  </g> </svg>