<svg version="1.0" xmlns="http://www.w3.org/2000/svg" width="600.000000pt" height="450.000000pt" viewBox="0 0 600.000000 450.000000" preserveAspectRatio="xMidYMid meet" style="width: 1385.67px; height: auto;"> <g transform="translate(0.000000,450.000000) scale(0.100000,-0.100000)" fill="#000000" stroke="none"> <path d="M3079 4254 l-76 -24 -7 -47 c-5 -40 -2 -55 25 -108 l32 -61 66 0 c101 0 121 -14 149 -104 21 -69 27 -78 67 -102 41 -25 44 -25 59 -9 8 9 22 36 30 59 l15 42 -37 19 c-24 12 -52 41 -75 75 -35 53 -37 60 -37 139 l0 82 -59 33 c-32 17 -62 32 -67 31 -5 0 -43 -11 -85 -25z m141 -14 l60 -30 0 -82 c0 -79 1 -83 43 -143 28 -42 52 -66 74 -74 31 -11 31 -13 20 -44 -7 -18 -17 -41 -24 -52 -12 -20 -12 -20 -50 1 -33 19 -41 31 -63 95 -14 41 -29 79 -32 85 -10 16 -122 38 -157 31 -27 -6 -31 -2 -60 52 -26 50 -29 64 -23 100 7 43 7 43 77 66 39 13 71 23 73 24 1 1 29 -13 62 -29z" class=""></path>  <path d="M2343 4001 c-44 -28 -59 -61 -94 -213 -23 -101 -29 -151 -27 -208 3 -68 8 -83 53 -165 75 -135 123 -271 141 -402 15 -110 15 -114 -6 -180 -12 -38 -47 -118 -78 -179 l-56 -111 18 -80 c18 -79 19 -81 128 -204 128 -144 204 -257 259 -382 47 -105 101 -282 119 -384 7 -40 17 -73 22 -73 5 0 7 8 4 18 -3 9 -12 51 -21 92 -22 106 -76 270 -123 372 -55 119 -127 221 -253 363 l-107 121 -17 81 -18 80 50 94 c28 52 63 131 78 177 27 82 27 85 15 185 -16 125 -71 285 -142 411 -69 120 -73 168 -28 365 37 165 56 205 107 222 65 21 171 7 267 -36 l85 -38 106 43 c117 47 125 46 146 -17 6 -20 25 -57 41 -83 28 -46 29 -49 14 -78 -19 -38 -40 -43 -127 -30 -54 8 -80 8 -110 -2 -21 -7 -39 -16 -39 -20 0 -4 50 -51 111 -105 86 -76 113 -95 120 -84 5 8 18 28 29 45 11 18 36 44 55 58 l35 27 11 -28 c6 -15 20 -65 32 -110 20 -77 23 -82 50 -85 l29 -3 -21 -26 c-12 -16 -23 -49 -27 -82 l-7 -56 -48 -11 c-27 -7 -49 -17 -49 -23 0 -7 7 -82 15 -167 24 -247 12 -576 -35 -975 -44 -368 -50 -390 -154 -558 -37 -60 -66 -111 -63 -113 7 -8 138 216 163 279 20 49 33 128 64 382 48 400 61 744 36 995 -17 169 -18 164 43 175 44 8 51 18 51 77 0 35 6 54 25 76 32 39 32 42 -9 42 -33 0 -34 1 -50 68 -27 106 -47 154 -64 147 -27 -10 -70 -50 -93 -88 -13 -20 -28 -36 -33 -34 -5 2 -53 41 -107 88 l-98 84 32 13 c25 11 46 11 108 3 94 -14 120 -6 137 43 13 35 12 39 -18 86 -17 27 -36 65 -41 84 -17 61 -36 63 -156 16 l-106 -42 -81 38 c-71 33 -93 38 -171 41 -77 4 -95 1 -122 -16z" class=""></path>  <path d="M1912 3585 c-35 -40 -41 -53 -44 -103 -2 -31 2 -78 10 -103 l13 -47 82 -5 c45 -3 91 -8 103 -12 21 -7 21 -6 8 87 -7 51 -13 114 -14 139 0 46 0 47 -49 68 -27 11 -54 21 -60 21 -5 0 -27 -20 -49 -45z m104 16 l41 -19 7 -83 c3 -46 9 -105 12 -131 l7 -47 -34 9 c-19 6 -59 10 -90 10 -55 0 -57 1 -68 31 -6 18 -11 60 -11 94 0 56 3 66 36 108 20 26 42 47 48 47 6 0 29 -9 52 -19z"></path>     <path d="M3924 1227 c-10 -5 -20 -11 -22 -13 -3 -2 15 -42 23 -52 9 -10 66 31 63 45 -4 22 -40 33 -64 20z m53 -24 c6 -18 -47 -29 -57 -12 -5 7 -6 17 -3 22 7 12 56 4 60 -10z" class=""></path>  <path d="M3980 1063 c-25 -15 -55 -26 -66 -25 -38 5 -162 -155 -183 -235 -5 -21 -12 -64 -16 -96 -6 -52 -4 -60 19 -88 38 -45 36 -131 -4 -229 l-30 -73 21 -34 c27 -43 74 -69 95 -53 9 9 11 17 4 29 -9 17 23 85 63 128 17 20 18 25 6 40 -8 10 -20 23 -28 29 -20 15 -5 71 25 90 30 20 30 30 1 74 -13 19 -29 50 -36 69 -11 33 -10 37 26 73 33 34 43 39 77 36 28 -2 42 2 50 14 9 15 5 24 -21 50 l-32 31 39 56 c37 53 64 141 44 141 -5 0 -29 -12 -54 -27z m45 -25 c-4 -19 -24 -58 -46 -87 -21 -28 -39 -54 -39 -58 0 -4 13 -21 30 -38 36 -37 28 -59 -17 -46 -27 8 -35 4 -77 -31 -43 -37 -46 -43 -40 -72 3 -17 20 -55 36 -85 25 -43 28 -55 17 -62 -8 -5 -17 -9 -20 -9 -8 0 -29 -48 -29 -67 0 -9 12 -30 27 -45 l27 -28 -22 -20 c-32 -30 -66 -101 -64 -133 2 -28 2 -28 -27 -13 -16 9 -38 28 -49 44 l-21 28 26 60 c19 42 28 82 31 138 3 73 2 80 -22 105 -26 27 -26 29 -16 107 12 92 38 150 113 241 40 50 56 63 72 59 12 -3 37 6 64 25 24 16 46 27 48 25 2 -2 1 -19 -2 -38z" class=""></path> <path d="M4041 782 c-7 -14 -5 -27 10 -51 17 -28 22 -30 40 -21 11 7 27 26 34 43 12 28 11 33 -3 39 -33 13 -71 8 -81 -10z m57 2 c18 -5 21 -11 16 -28 -11 -34 -36 -47 -51 -27 -16 21 -17 61 0 61 6 0 22 -3 35 -6z"></path>  <path d="M3955 640 c-8 -13 3 -100 14 -114 10 -11 19 -13 38 -5 14 5 40 7 57 3 28 -5 34 -2 44 21 16 35 15 49 -6 68 -19 17 -139 39 -147 27z m143 -34 c11 -10 12 -21 5 -43 -9 -25 -14 -28 -46 -25 -20 2 -45 -1 -55 -7 -23 -12 -31 1 -38 63 l-4 39 62 -7 c35 -3 69 -12 76 -20z" class=""></path>              </g> </svg>