<svg version="1.0" xmlns="http://www.w3.org/2000/svg" width="600.000000pt" height="450.000000pt" viewBox="0 0 600.000000 450.000000" preserveAspectRatio="xMidYMid meet" style="width: 1392.82px; height: auto;"> <g transform="translate(0.000000,450.000000) scale(0.100000,-0.100000)" fill="#000000" stroke="none"> <path d="M1900 4234 c-112 -44 -117 -47 -207 -136 -73 -73 -102 -111 -147 -192 -53 -97 -55 -105 -67 -216 -11 -106 -7 -186 44 -1045 l56 -930 86 -298 c78 -275 91 -311 161 -449 75 -147 77 -150 147 -202 118 -86 110 -83 265 -95 95 -8 193 -23 292 -46 137 -33 157 -40 271 -106 l124 -71 60 -105 c33 -57 63 -109 66 -115 4 -5 28 4 58 23 49 30 61 32 184 40 l132 9 145 150 c133 137 162 161 350 291 211 145 275 201 471 411 l100 107 19 213 c11 117 20 225 20 240 0 18 -24 57 -77 124 l-77 97 -115 55 c-64 30 -180 76 -259 103 -200 67 -295 125 -647 396 -295 227 -301 233 -373 332 -42 58 -70 106 -66 113 4 6 3 8 -3 5 -6 -4 -15 -1 -21 6 -5 6 -103 215 -216 462 -182 396 -218 467 -303 595 l-96 146 -123 67 c-68 37 -127 67 -131 66 -5 0 -60 -21 -123 -45z m254 -33 l118 -63 93 -143 c78 -121 124 -211 299 -590 192 -417 213 -457 296 -572 l89 -125 303 -232 c353 -270 462 -337 633 -391 66 -20 179 -64 251 -97 l131 -60 78 -99 77 -100 -21 -236 -22 -236 -172 -178 c-163 -169 -182 -184 -377 -319 -180 -124 -224 -160 -360 -295 l-155 -154 -132 -10 c-123 -9 -135 -12 -177 -40 l-44 -30 -65 112 -64 112 -124 72 c-116 68 -134 75 -273 108 -129 31 -304 54 -411 55 -21 0 -58 20 -118 63 l-89 64 -78 149 c-74 142 -82 163 -164 454 l-87 305 -55 920 c-51 843 -55 930 -44 1036 11 109 15 123 58 207 36 69 69 113 144 191 l96 101 119 44 c65 25 120 44 123 43 3 -1 58 -31 124 -66z" class=""></path>                         </g> </svg>