<svg version="1.0" xmlns="http://www.w3.org/2000/svg" width="600.000000pt" height="450.000000pt" viewBox="0 0 600.000000 450.000000" preserveAspectRatio="xMidYMid meet" style="width: 2057.55px; height: auto;"> <g transform="translate(0.000000,450.000000) scale(0.100000,-0.100000)" fill="#000000" stroke="none"> <path d="M1145 4249 c-108 -48 -148 -70 -176 -95 -15 -14 -37 -24 -56 -24 -57 0 -119 -72 -102 -117 5 -13 17 -23 27 -23 27 0 42 -41 42 -115 0 -80 8 -85 110 -74 110 12 115 14 162 70 24 29 67 64 98 80 102 55 142 84 173 127 l31 42 -29 30 c-16 17 -37 30 -47 30 -12 0 -18 8 -18 24 0 34 -25 56 -65 56 -19 0 -37 5 -40 10 -10 17 -36 11 -110 -21z m145 4 c45 -7 60 -19 60 -49 0 -17 8 -28 27 -35 40 -15 63 -38 56 -57 -8 -23 -75 -92 -89 -92 -6 0 -18 -7 -25 -16 -7 -9 -36 -26 -64 -39 -31 -14 -72 -46 -107 -84 l-57 -61 -58 0 c-32 0 -72 -4 -90 -9 -44 -13 -53 1 -53 79 0 68 -17 110 -45 110 -8 0 -19 9 -24 19 -8 15 -6 25 11 47 33 42 50 53 81 54 16 0 44 13 65 30 50 39 232 120 257 113 11 -3 36 -7 55 -10z" class=""></path>   <path d="M1403 3796 c-18 -12 -30 -26 -28 -33 2 -7 -12 -14 -38 -18 -47 -7 -68 -20 -85 -52 -13 -23 -16 -61 -5 -50 3 4 16 -2 27 -12 31 -29 134 -65 149 -53 7 6 35 13 62 17 54 8 94 25 113 48 18 21 -3 69 -38 89 -18 10 -28 22 -24 31 6 16 -20 47 -40 47 -6 0 -17 -5 -24 -12 -9 -9 -15 -8 -24 4 -12 13 -16 13 -45 -6z m77 -6 c27 14 50 -2 43 -30 -4 -14 4 -25 31 -41 28 -16 36 -27 36 -50 0 -25 -6 -33 -35 -45 -19 -7 -47 -14 -62 -14 -15 0 -41 -7 -56 -15 -26 -13 -33 -13 -90 10 -33 14 -69 34 -80 46 -19 21 -19 21 0 47 12 17 31 28 49 30 58 5 76 12 70 27 -7 19 44 47 61 33 8 -6 19 -6 33 2z"></path> <path d="M4719 3672 c-50 -35 -54 -41 -57 -82 -3 -33 1 -47 14 -57 14 -10 15 -16 6 -25 -13 -13 -16 -66 -4 -85 4 -6 16 -11 27 -10 14 2 22 -8 31 -38 7 -22 13 -53 13 -70 2 -48 15 -61 46 -47 19 9 26 18 23 36 -1 13 2 29 8 37 23 29 26 84 5 111 -15 19 -20 41 -21 99 0 41 2 85 5 99 5 19 0 31 -18 48 l-23 22 -55 -38z m76 -2 c11 -12 15 -26 10 -37 -4 -10 -6 -54 -5 -98 1 -62 5 -84 19 -100 21 -23 18 -79 -5 -105 -7 -9 -11 -25 -8 -36 4 -16 0 -23 -15 -27 -22 -5 -25 0 -36 68 -10 68 -25 96 -49 93 -16 -2 -22 3 -24 24 -2 15 2 37 8 48 9 17 8 25 -4 39 -9 10 -16 34 -16 55 0 33 5 40 47 66 56 36 55 35 78 10z"></path> <path d="M2372 3387 c-79 -29 -68 -107 21 -145 16 -7 27 -19 27 -31 0 -18 52 -127 70 -144 4 -5 11 6 15 23 4 18 22 58 40 89 53 90 105 97 237 30 27 -14 59 -19 113 -19 l75 0 0 34 c0 23 -6 36 -17 40 -10 4 -34 16 -53 26 -22 13 -54 20 -87 20 -29 0 -76 9 -105 20 -39 15 -65 18 -109 13 -54 -5 -60 -4 -96 26 -41 34 -74 38 -131 18z m124 -28 c37 -29 43 -31 104 -26 47 4 73 1 95 -10 16 -9 68 -20 114 -25 96 -9 151 -37 151 -75 0 -21 -4 -23 -64 -23 -49 0 -81 7 -137 31 -88 38 -138 41 -174 14 -25 -18 -75 -102 -91 -150 -5 -17 -8 -14 -20 19 -8 22 -21 47 -28 55 -8 9 -16 30 -18 46 -2 24 -10 32 -37 41 -39 13 -61 38 -61 70 0 25 13 37 55 52 49 17 70 14 111 -19z"></path>  <path d="M4775 2640 c-4 -13 -4 -59 0 -105 l7 -81 -36 -27 c-40 -31 -54 -76 -37 -120 8 -20 26 -35 65 -52 30 -13 57 -29 61 -34 3 -6 34 -11 69 -11 47 0 74 6 108 24 72 38 168 117 168 138 0 10 5 18 10 18 6 0 4 12 -5 29 -9 18 -12 41 -9 60 5 23 1 35 -18 53 -13 13 -29 35 -35 49 -9 20 -24 30 -70 42 -78 22 -100 21 -108 -3 -11 -35 -95 -22 -142 22 l-21 20 -7 -22z m40 -20 c3 -5 29 -16 58 -25 l52 -16 21 27 c21 26 23 26 75 14 63 -14 99 -34 99 -55 0 -7 10 -21 22 -29 17 -12 21 -24 20 -57 -1 -23 3 -47 8 -54 22 -27 -2 -69 -67 -118 -130 -97 -199 -110 -305 -54 -36 20 -68 45 -75 59 -17 34 -6 86 21 100 46 25 48 33 41 128 -6 78 -5 90 8 90 9 0 19 -4 22 -10z" class=""></path>  <path d="M3399 1100 c-19 -15 -21 -21 -11 -28 11 -8 11 -10 -2 -15 -14 -5 -12 -11 9 -43 26 -39 32 -69 15 -79 -5 -3 -10 -17 -10 -30 0 -13 -7 -31 -16 -40 -14 -14 -15 -22 -5 -56 10 -34 10 -44 -3 -64 -20 -31 -20 -49 1 -96 11 -25 26 -42 45 -48 22 -8 28 -16 28 -38 0 -21 13 -41 48 -75 56 -55 80 -66 192 -82 115 -17 154 -7 180 47 11 22 17 43 15 47 -3 4 2 10 10 14 8 3 20 16 26 29 10 21 6 32 -29 83 -47 71 -72 118 -72 138 0 9 -6 13 -14 10 -7 -3 -23 6 -34 20 -11 14 -28 26 -39 26 -20 0 -67 45 -96 93 -10 15 -24 27 -33 27 -8 0 -13 4 -9 10 3 5 -12 18 -34 30 -45 23 -66 51 -50 67 19 19 -9 56 -38 50 -15 -3 -27 1 -30 9 -7 19 -17 18 -44 -6z m66 -14 c25 10 50 -23 33 -44 -10 -12 -6 -20 22 -44 19 -16 45 -38 56 -49 12 -10 26 -19 31 -19 5 0 16 -12 25 -27 27 -44 77 -93 96 -93 29 -1 80 -56 113 -122 17 -35 43 -78 57 -96 l25 -33 -25 -27 c-14 -15 -28 -39 -32 -55 -4 -15 -16 -37 -27 -48 -19 -19 -28 -20 -107 -14 -111 8 -169 27 -221 71 -33 29 -41 42 -41 70 0 31 -4 37 -35 50 -20 8 -38 22 -41 32 -3 9 -11 27 -17 39 -8 18 -6 32 8 63 15 34 16 45 6 67 -12 27 -12 29 30 115 5 10 9 24 9 33 0 22 -32 85 -44 85 -6 1 0 7 14 15 22 12 23 14 7 20 -17 7 -17 8 0 21 15 11 20 11 29 -2 7 -9 18 -12 29 -8z"></path>  <path d="M4311 1106 c-12 -5 -20 -15 -17 -23 3 -7 -8 -28 -24 -47 -34 -38 -37 -51 -14 -60 15 -6 15 -8 -1 -26 -9 -10 -15 -25 -12 -32 2 -7 -1 -24 -8 -38 -18 -36 -4 -62 51 -98 55 -37 89 -41 104 -12 6 11 19 20 29 20 10 0 26 12 36 26 14 22 16 41 9 136 -8 124 -20 150 -68 141 -18 -4 -26 -2 -24 7 4 16 -31 20 -61 6z m46 -5 c11 10 14 10 11 -2 -2 -10 8 -15 34 -17 44 -4 44 -4 53 -135 8 -106 -5 -147 -45 -147 -10 0 -22 -9 -25 -20 -8 -25 -26 -25 -73 -1 -55 28 -76 55 -68 88 4 15 8 35 10 43 1 8 8 26 15 39 12 21 11 26 -4 38 -17 12 -17 14 7 36 14 13 29 35 33 48 9 27 28 44 33 28 3 -6 9 -5 19 2z"></path> <path d="M2325 602 c-83 -40 -131 -84 -154 -141 -19 -46 2 -86 79 -150 101 -84 178 -89 260 -15 38 34 38 35 35 103 -3 84 -28 172 -58 206 -37 42 -72 41 -162 -3z m152 5 c20 -15 52 -132 57 -207 l4 -70 -37 -29 c-69 -55 -114 -60 -186 -23 -49 25 -124 95 -134 125 -20 57 28 128 120 177 89 47 141 55 176 27z" class=""></path>    <path d="M1837 383 c-19 -3 -32 -13 -39 -31 -21 -52 -16 -75 26 -105 l39 -29 26 26 c19 20 25 36 25 64 -1 44 -19 83 -37 81 -7 -1 -25 -4 -40 -6z m51 -15 c21 -21 15 -101 -8 -121 -20 -17 -22 -16 -52 12 -30 28 -31 32 -22 67 6 28 16 40 34 45 36 10 35 10 48 -3z"></path>              </g> </svg>