<svg version="1.0" xmlns="http://www.w3.org/2000/svg" width="600.000000pt" height="450.000000pt" viewBox="0 0 600.000000 450.000000" preserveAspectRatio="xMidYMid meet" style="width: 2207.68px; height: auto;"> <g transform="translate(0.000000,450.000000) scale(0.100000,-0.100000)" fill="#000000" stroke="none">  <path d="M925 4270 c-22 -5 -73 -20 -114 -34 -41 -14 -87 -26 -101 -26 -24 0 -31 -9 -60 -72 -17 -40 -43 -96 -57 -125 -23 -49 -23 -55 -10 -95 12 -38 11 -82 -15 -398 -23 -296 -26 -365 -17 -413 l12 -58 -45 -67 c-73 -108 -81 -128 -74 -190 8 -69 15 -82 96 -167 51 -54 69 -80 74 -110 10 -52 38 -92 93 -133 63 -48 96 -59 203 -67 52 -4 106 -13 120 -20 44 -24 234 -208 257 -250 l21 -40 62 1 c71 1 110 23 123 70 5 16 22 55 38 86 16 31 29 62 29 68 0 6 -25 43 -55 83 -34 45 -61 92 -71 127 -10 33 -30 70 -51 94 l-36 39 7 74 c5 69 3 81 -29 165 -25 63 -61 127 -117 207 -85 120 -119 205 -119 291 0 19 18 194 41 388 40 338 41 355 26 405 -21 69 -77 143 -122 162 -40 16 -50 17 -109 5z m108 -16 c18 -9 40 -26 50 -38 26 -30 64 -106 71 -141 3 -16 -14 -196 -38 -399 -47 -395 -46 -360 -11 -512 2 -11 43 -76 90 -143 111 -160 145 -244 145 -359 0 -87 8 -111 46 -150 13 -13 30 -48 38 -76 9 -31 39 -85 72 -130 l56 -77 -30 -57 c-16 -31 -33 -72 -37 -90 -8 -39 -44 -60 -115 -69 -48 -6 -50 -5 -67 28 -24 46 -230 246 -271 264 -19 8 -70 17 -115 21 -118 9 -149 19 -210 69 -52 42 -68 68 -82 129 -3 16 -32 56 -64 90 -82 87 -100 116 -107 178 -7 62 2 85 73 186 l45 64 -9 61 c-8 47 -4 141 17 415 25 323 26 398 6 430 -3 6 5 35 18 64 14 29 38 83 55 121 25 55 34 67 54 67 13 0 57 12 98 26 64 22 133 39 177 43 7 0 27 -6 45 -15z" class=""></path>    <path d="M5260 1475 c-14 -8 -56 -28 -94 -46 l-68 -32 6 -68 c6 -62 4 -75 -24 -143 -25 -60 -42 -84 -81 -117 l-50 -42 -54 12 c-51 12 -56 11 -95 -14 -25 -16 -49 -24 -58 -20 -10 4 -57 13 -106 21 -49 8 -121 28 -160 45 -76 32 -159 48 -169 32 -15 -25 123 -121 348 -241 97 -52 149 -74 208 -86 105 -21 124 -33 156 -97 24 -49 40 -63 161 -147 168 -116 176 -124 184 -174 5 -30 18 -53 50 -84 31 -32 40 -46 32 -55 -8 -9 -7 -10 7 -6 9 4 17 2 17 -3 0 -6 -7 -10 -15 -10 -15 0 -21 -21 -9 -33 12 -12 34 6 34 29 0 13 5 24 11 24 6 0 9 -15 8 -34 -2 -19 0 -38 4 -42 4 -4 7 0 7 10 0 9 4 15 9 11 6 -3 14 3 20 12 13 25 -4 54 -27 47 -12 -4 -11 -1 5 13 39 32 43 63 43 343 l0 268 -81 264 c-111 360 -139 406 -219 363z m92 -40 c15 -22 32 -53 37 -70 5 -16 43 -141 85 -276 l76 -245 0 -260 c0 -142 -5 -275 -10 -294 -6 -24 -21 -42 -42 -54 -18 -11 -30 -15 -26 -11 5 5 -7 19 -26 31 -35 24 -76 95 -76 131 0 26 -20 43 -188 157 -124 84 -132 92 -156 146 -29 65 -39 71 -166 99 -129 28 -540 260 -540 304 0 16 78 -1 149 -33 36 -16 98 -34 136 -40 39 -6 89 -16 113 -22 38 -10 46 -8 81 15 38 25 42 26 100 15 l62 -12 52 52 c37 37 60 72 80 122 26 63 28 79 22 138 l-6 67 62 25 c34 14 76 33 93 42 42 23 56 19 88 -27z m178 -1240 c0 -8 -4 -15 -10 -15 -5 0 -10 7 -10 15 0 8 5 15 10 15 6 0 10 -7 10 -15z" class="" stroke-width="1"></path>  <path d="M2069 773 c-6 -16 -9 -71 -7 -126 3 -95 4 -100 31 -120 77 -58 87 -73 87 -124 0 -26 4 -53 8 -60 15 -23 64 -32 209 -39 90 -4 194 -16 267 -30 68 -14 154 -24 202 -24 73 0 85 2 94 20 20 38 -26 89 -164 179 -69 45 -128 87 -132 92 -9 15 -210 148 -242 160 -15 6 -71 19 -124 30 -53 10 -114 27 -135 38 -69 35 -82 36 -94 4z m101 -18 c16 -8 71 -24 122 -35 51 -11 104 -23 118 -26 31 -9 218 -134 245 -164 11 -12 27 -25 36 -29 9 -3 63 -37 121 -75 111 -74 153 -120 136 -149 -14 -26 -142 -22 -280 7 -73 16 -166 27 -263 31 -85 4 -164 13 -182 21 -31 12 -33 16 -33 66 0 63 -16 91 -69 118 -29 14 -40 27 -45 51 -10 49 -7 178 4 199 11 21 26 18 90 -15z" class=""></path>            </g> </svg>