<svg version="1.0" xmlns="http://www.w3.org/2000/svg" width="600.000000pt" height="450.000000pt" viewBox="0 0 600.000000 450.000000" preserveAspectRatio="xMidYMid meet" style="width: 1801.62px; height: auto;"> <g transform="translate(0.000000,450.000000) scale(0.100000,-0.100000)" fill="#000000" stroke="none"> <path d="M2090 4275 c0 -3 -23 -95 -51 -203 -44 -166 -58 -206 -91 -254 l-38 -57 37 -6 c21 -4 63 -14 93 -25 30 -10 67 -21 82 -24 l28 -6 -22 -44 c-16 -33 -40 -58 -94 -96 -96 -66 -124 -103 -124 -162 0 -40 6 -52 44 -94 74 -83 86 -115 86 -227 0 -54 5 -129 11 -166 11 -64 14 -70 57 -102 97 -73 137 -137 167 -264 8 -37 20 -76 26 -88 6 -12 60 -71 119 -132 68 -70 111 -123 118 -145 7 -19 18 -84 27 -145 13 -98 22 -125 85 -263 80 -175 106 -267 115 -402 9 -137 25 -242 40 -265 7 -11 34 -45 60 -75 26 -30 58 -79 71 -108 22 -48 24 -65 24 -215 0 -92 -7 -211 -15 -273 -13 -92 -13 -117 -3 -149 12 -36 18 -40 66 -52 45 -12 60 -11 106 2 56 16 85 47 115 122 10 25 26 37 76 58 62 27 64 29 86 87 35 95 88 130 163 109 21 -5 70 -6 121 -2 120 11 136 26 253 232 l93 164 14 190 c11 145 12 233 5 370 -9 170 -8 189 16 330 13 83 27 162 30 177 4 21 1 28 -16 33 -28 9 -100 57 -100 66 0 4 13 62 29 128 30 120 30 121 21 296 -8 157 -14 192 -52 338 -42 161 -42 162 -118 272 -136 196 -240 390 -275 507 l-15 54 -227 91 -226 90 -61 -13 c-34 -7 -86 -26 -116 -43 -30 -17 -61 -31 -68 -31 -7 0 -35 15 -63 34 -37 24 -71 64 -125 142 -80 116 -137 169 -227 208 -43 20 -77 25 -204 31 -84 4 -153 4 -153 0z m341 -36 c87 -31 156 -93 237 -212 56 -82 85 -114 131 -145 l59 -41 68 36 c38 20 93 42 124 48 l55 11 223 -89 c200 -81 223 -92 228 -116 24 -102 117 -276 270 -506 l93 -140 40 -160 c37 -144 42 -179 49 -335 8 -174 8 -175 -24 -305 l-31 -130 27 -15 c15 -8 42 -23 62 -34 l35 -18 -29 -167 c-27 -160 -28 -173 -19 -351 6 -138 5 -234 -6 -375 l-14 -190 -95 -165 c-54 -95 -107 -175 -124 -188 -24 -19 -49 -25 -117 -32 -49 -4 -100 -4 -117 1 -77 23 -139 -15 -171 -106 -23 -62 -27 -67 -95 -95 -51 -21 -57 -27 -88 -90 -33 -66 -34 -67 -91 -83 -58 -16 -117 -10 -147 14 -20 16 -22 70 -8 169 7 52 14 175 14 273 0 173 -1 179 -26 230 -15 29 -51 79 -80 113 -62 71 -69 94 -84 285 -13 172 -43 283 -117 439 -63 132 -77 178 -88 275 -15 137 -27 160 -144 280 -109 111 -134 151 -147 230 -10 64 -70 179 -109 211 -19 16 -50 41 -68 56 -29 24 -35 37 -45 97 -7 38 -12 113 -12 166 0 111 -8 133 -81 213 -42 46 -49 60 -49 95 0 57 34 101 124 162 59 40 79 60 97 97 12 27 21 49 18 51 -6 5 -169 55 -201 61 l-28 6 34 53 c27 40 46 95 85 246 28 106 51 195 51 197 0 3 62 2 138 -1 99 -5 152 -12 193 -26z" class=""></path>                    </g> </svg>