<svg version="1.0" xmlns="http://www.w3.org/2000/svg" width="300.000000pt" height="420.000000pt" viewBox="0 0 300.000000 420.000000" preserveAspectRatio="xMidYMid meet" style="width: 1170px; height: auto;"> <g transform="translate(0.000000,420.000000) scale(0.100000,-0.100000)" fill="#000000" stroke="none"> <path d="M2455 4096 c-18 -26 -11 -50 20 -76 13 -11 20 -11 40 0 36 19 41 47 14 76 -29 31 -54 31 -74 0z m74 -47 c-5 -11 -18 -19 -27 -19 -39 0 -57 51 -24 69 25 14 65 -24 51 -50z"></path>  <path d="M2752 4044 c-22 -15 -30 -48 -13 -59 6 -3 6 -17 1 -35 -6 -22 -5 -34 5 -44 8 -7 11 -17 7 -20 -3 -4 0 -5 8 -2 8 3 41 7 73 10 65 5 87 18 87 51 0 35 -25 51 -58 36 -38 -18 -41 -16 -27 21 7 18 -26 58 -48 58 -7 0 -23 -7 -35 -16z m65 -20 c3 -9 1 -25 -5 -34 -9 -14 -7 -22 10 -36 15 -14 22 -16 25 -6 3 7 13 17 23 22 15 8 21 6 30 -11 15 -26 -5 -53 -34 -45 -11 3 -25 1 -30 -3 -6 -5 -27 -6 -47 -4 l-36 5 2 61 c1 34 3 63 4 65 5 10 53 -1 58 -14z" class=""></path>   <path d="M2425 3967 c-14 -11 -17 -22 -12 -57 5 -40 3 -45 -39 -88 -49 -50 -54 -79 -17 -98 13 -6 34 -23 47 -37 15 -16 36 -27 51 -27 24 0 34 13 59 80 3 8 13 24 21 36 14 19 14 23 -6 48 -23 29 -22 33 13 50 15 7 23 21 23 36 0 22 -5 25 -37 28 -26 2 -39 9 -43 23 -7 22 -33 25 -60 6z m55 -19 c11 -14 29 -23 47 -23 35 0 38 -25 5 -41 -41 -20 -44 -29 -21 -58 20 -26 20 -34 -1 -66 -5 -8 -16 -32 -24 -52 -18 -45 -38 -48 -72 -11 -13 14 -34 31 -46 37 -35 18 -32 31 18 81 44 45 46 50 41 90 -9 62 19 85 53 43z" class=""></path>      <path d="M2495 3659 c-20 -11 -45 -17 -54 -14 -10 3 -24 -1 -31 -10 -11 -13 -11 -22 3 -49 12 -26 23 -34 52 -39 42 -7 65 0 65 19 0 8 7 14 15 14 20 0 38 37 31 65 -8 31 -38 37 -81 14z m69 -14 c8 -21 -3 -43 -25 -50 -10 -4 -19 -13 -19 -21 0 -13 -13 -19 -35 -14 -22 5 -40 9 -46 9 -5 1 -29 47 -29 56 0 3 15 5 33 5 17 0 41 7 51 15 26 19 62 19 70 0z"></path>          <path d="M1592 3014 c-20 -20 -57 -46 -82 -59 -25 -12 -53 -32 -64 -44 -10 -11 -34 -23 -53 -27 -42 -8 -98 -62 -207 -201 -39 -50 -64 -73 -78 -73 -22 0 -58 -24 -120 -82 -27 -25 -38 -43 -38 -64 -1 -40 -34 -110 -75 -156 -25 -27 -35 -48 -35 -71 0 -17 -7 -41 -15 -51 -8 -11 -15 -31 -15 -44 0 -28 -36 -82 -54 -82 -18 0 -46 -33 -46 -54 0 -10 -13 -48 -29 -84 -42 -97 -58 -169 -43 -190 6 -9 19 -30 27 -45 15 -27 15 -29 -10 -58 -17 -21 -25 -42 -25 -68 0 -25 -7 -44 -20 -56 -11 -10 -20 -26 -20 -37 0 -10 -5 -18 -10 -18 -22 0 -60 -50 -60 -79 0 -28 9 -39 89 -103 28 -23 27 -49 -4 -78 -20 -19 -24 -30 -21 -69 11 -143 26 -178 66 -154 13 9 19 7 28 -8 17 -26 15 -31 -7 -20 -24 13 -64 -27 -60 -61 1 -12 -1 -35 -4 -50 -4 -16 -9 -39 -12 -52 -3 -16 -21 -33 -51 -50 -50 -28 -78 -32 -120 -16 -33 13 -57 -4 -48 -32 3 -10 0 -26 -8 -35 -15 -19 -192 -103 -216 -103 -9 0 -30 -11 -47 -24 -25 -20 -28 -28 -19 -43 13 -21 43 -31 102 -32 23 -1 42 -5 42 -10 0 -5 7 -12 16 -15 20 -8 64 19 64 38 0 12 5 12 30 0 16 -9 30 -22 30 -29 0 -21 39 -40 53 -26 8 8 5 11 -10 11 -13 0 -24 8 -28 21 -4 11 -18 24 -31 29 -13 5 -24 16 -24 25 0 27 -19 16 -34 -20 -16 -37 -49 -48 -60 -20 -4 11 -21 15 -64 15 -68 0 -94 17 -64 42 9 8 30 19 47 22 45 11 174 73 212 102 27 20 32 30 27 50 -6 24 -6 24 53 18 52 -6 63 -3 105 22 54 33 68 58 72 135 3 72 10 81 52 73 40 -7 41 -3 13 42 -24 39 -27 40 -45 17 -21 -29 -32 -5 -40 89 -6 79 -5 89 15 114 33 42 27 63 -35 119 -50 45 -55 53 -49 79 5 17 21 36 41 48 19 11 34 27 34 36 0 8 6 23 14 31 8 9 17 36 20 60 3 29 14 53 32 72 l27 28 -31 49 -32 48 24 75 c13 41 30 90 39 109 9 19 18 47 21 62 4 16 19 34 37 45 37 22 69 71 69 105 0 14 7 31 15 38 8 7 15 29 15 49 0 28 7 44 31 67 35 34 70 106 71 149 1 21 13 41 40 68 44 43 96 77 118 77 8 0 46 38 85 85 38 47 73 85 77 85 5 0 16 15 24 34 18 36 60 66 93 66 11 0 35 13 53 28 18 16 55 41 81 56 27 15 58 39 70 52 16 18 31 24 64 24 44 0 46 -1 120 -72 30 -29 34 -30 63 -18 24 10 37 10 56 1 20 -9 31 -8 54 4 16 8 32 19 35 25 16 25 173 -3 226 -41 34 -24 36 -39 10 -63 -10 -10 -21 -32 -24 -49 -3 -18 -9 -45 -13 -60 -4 -20 -2 -33 10 -46 10 -11 23 -42 31 -71 7 -28 19 -58 25 -65 8 -10 10 -30 6 -60 -4 -25 -2 -79 5 -120 11 -66 11 -79 -3 -103 -9 -15 -19 -58 -23 -97 -4 -38 -14 -82 -21 -97 -9 -18 -14 -64 -14 -138 l0 -110 25 0 c31 0 43 -26 23 -47 -12 -12 -20 -13 -36 -4 -11 6 -46 11 -77 11 -46 0 -60 -4 -80 -25 -14 -13 -25 -31 -25 -40 0 -9 -7 -27 -16 -40 -17 -26 -16 -43 11 -115 10 -27 14 -57 10 -77 -6 -33 23 -134 53 -185 14 -24 14 -29 -2 -52 -14 -22 -20 -25 -36 -16 -15 8 -21 8 -24 -2 -2 -7 -9 -32 -17 -56 -9 -32 -9 -46 -1 -54 14 -14 -24 -58 -52 -58 -12 0 -16 -5 -13 -15 4 -8 -5 -23 -20 -35 -21 -17 -24 -22 -13 -35 10 -12 10 -19 2 -27 -7 -7 -12 -21 -12 -32 0 -26 -38 -66 -56 -59 -8 3 -21 0 -29 -7 -8 -7 -22 -10 -31 -6 -17 7 -54 -10 -54 -24 0 -6 9 -6 25 0 14 5 31 7 38 4 8 -3 19 2 26 10 7 8 19 12 27 9 19 -7 75 46 72 68 -2 9 3 23 11 32 11 14 11 20 1 32 -11 13 -10 18 8 31 12 8 22 22 22 30 0 8 4 13 8 10 5 -3 21 9 37 26 24 25 27 33 17 49 -9 14 -9 25 -2 39 5 10 10 27 10 38 0 15 5 18 24 15 20 -4 29 2 45 28 19 32 19 33 1 68 -42 80 -60 141 -49 168 7 19 5 39 -11 82 -24 70 -25 90 -3 133 9 18 19 40 23 48 9 19 114 30 152 16 34 -13 60 7 56 43 -2 20 -9 27 -32 29 l-28 4 6 106 c4 59 11 118 16 132 4 14 14 59 21 100 7 41 17 81 23 88 11 16 9 77 -5 140 -6 30 -6 57 2 84 9 36 8 44 -10 69 -12 16 -21 39 -21 51 0 13 -9 41 -20 63 -22 43 -26 80 -10 90 6 3 10 19 10 34 0 15 9 36 20 46 28 26 25 39 -17 72 -72 56 -195 72 -256 34 -27 -17 -44 -20 -75 -15 -22 3 -48 2 -58 -4 -16 -9 -28 -2 -74 41 -46 43 -61 51 -98 53 -37 3 -48 -2 -80 -32z" class="" stroke-width="1"></path>  <path d="M2312 3038 c-17 -17 -15 -49 4 -76 12 -17 24 -22 47 -20 42 4 46 29 12 73 -28 37 -43 43 -63 23z m57 -33 c17 -25 21 -39 14 -46 -17 -17 -46 -6 -62 23 -13 22 -13 29 -2 42 19 22 23 21 50 -19z" class=""></path>      <path d="M2406 2941 c-34 -38 19 -105 63 -81 28 14 26 45 -4 75 -29 30 -37 31 -59 6z m58 -22 c17 -25 11 -49 -13 -49 -24 0 -41 20 -41 47 0 30 33 31 54 2z" class=""></path>                                                  <path d="M1788 820 c4 -26 0 -31 -31 -46 -20 -9 -38 -25 -40 -35 -6 -22 -52 -30 -88 -15 -13 6 -15 1 -11 -24 3 -20 0 -30 -9 -30 -7 0 -21 -8 -32 -17 -18 -17 -20 -17 -39 10 -18 25 -47 40 -33 16 10 -15 -25 -101 -39 -96 -6 2 -12 22 -14 45 -3 42 -15 55 -26 27 -3 -8 -12 -15 -21 -15 -13 0 -15 -7 -9 -35 8 -42 -1 -44 -56 -13 -34 20 -41 21 -63 9 -21 -11 -35 -11 -77 -1 -80 19 -80 2 -1 -42 34 -19 40 -35 15 -45 -14 -5 -28 0 -84 27 -8 4 -21 19 -28 33 -13 26 -42 38 -42 17 0 -6 18 -33 40 -61 45 -57 48 -74 23 -118 -22 -37 -37 -35 -40 5 -3 45 -66 158 -91 162 -11 2 -26 10 -32 18 -7 8 -18 14 -26 14 -11 0 -11 -6 1 -32 10 -25 19 -32 34 -30 26 4 45 -38 36 -80 -8 -33 -20 -36 -35 -8 -9 16 -15 18 -31 10 -25 -14 -39 -5 -39 25 0 19 -9 28 -37 40 -21 9 -45 23 -55 32 -10 9 -18 11 -18 5 0 -14 54 -52 73 -52 9 0 18 -13 22 -30 4 -17 11 -30 17 -30 6 0 4 -8 -4 -17 -17 -19 -14 -77 4 -100 5 -7 8 -16 5 -20 -3 -4 8 -9 23 -10 37 -3 54 19 45 54 -14 56 -15 87 -3 75 18 -18 32 -14 45 14 8 17 9 34 2 50 -19 51 -7 47 19 -6 14 -30 29 -73 32 -95 7 -52 31 -57 59 -12 25 41 27 89 5 111 -19 19 -17 20 33 2 71 -25 104 26 41 64 -38 23 -36 24 12 10 26 -8 39 -6 58 6 22 15 26 14 65 -12 48 -32 74 -24 69 21 -5 42 22 53 28 12 4 -26 10 -32 29 -32 18 0 27 9 41 44 12 32 18 39 23 27 8 -20 25 -20 64 -1 30 15 48 40 39 54 -3 4 8 6 23 3 33 -5 71 13 71 32 0 8 14 19 30 26 36 15 54 43 45 70 -10 31 -22 24 -17 -10z m-825 -240 c13 -15 14 -20 3 -20 -7 0 -16 9 -19 20 -3 11 -4 20 -3 20 1 0 9 -9 19 -20z m47 -20 c0 -5 -2 -10 -4 -10 -3 0 -8 5 -11 10 -3 6 -1 10 4 10 6 0 11 -4 11 -10z m-60 -137 c0 -10 3 -35 6 -55 6 -33 4 -38 -13 -38 -30 0 -58 81 -36 103 13 14 43 7 43 -10z" stroke-width="1" class=""></path>         <path d="M773 584 c-3 -8 0 -26 7 -39 11 -21 9 -28 -18 -63 -46 -57 -59 -67 -76 -53 -14 12 -29 52 -17 48 3 -1 7 3 9 8 1 6 -4 10 -10 10 -7 0 -15 -11 -16 -25 -2 -14 -8 -30 -13 -36 -4 -5 -6 -27 -2 -47 5 -35 4 -37 -21 -37 -15 0 -29 -7 -31 -15 -16 -50 -14 -48 -31 -34 -13 11 -15 26 -11 81 5 62 4 71 -18 94 -28 30 -39 19 -30 -30 9 -44 -10 -83 -31 -65 -8 6 -14 20 -14 30 0 11 -5 19 -11 19 -6 0 -8 -9 -3 -22 24 -81 83 -51 70 36 l-7 41 21 -23 c18 -19 20 -27 11 -60 -15 -53 -14 -77 8 -103 19 -23 19 -23 40 -5 11 10 18 22 16 27 -3 4 7 9 22 11 26 3 28 7 33 57 4 48 7 52 19 38 16 -20 42 -22 59 -5 9 9 12 8 12 -4 0 -18 20 -28 60 -28 39 0 52 20 44 69 -6 39 -13 45 -41 42 -7 -1 -9 7 -6 19 3 11 0 27 -7 35 -10 12 -10 18 0 30 9 11 9 15 1 15 -6 0 -14 -7 -18 -16z m53 -110 c-4 -9 -1 -23 5 -30 17 -21 1 -34 -42 -34 -44 0 -48 10 -18 51 22 31 66 42 55 13z" class=""></path>                               </g> </svg>