<svg version="1.0" xmlns="http://www.w3.org/2000/svg" width="600.000000pt" height="450.000000pt" viewBox="0 0 600.000000 450.000000" preserveAspectRatio="xMidYMid meet" style="width: 1738.28px; height: auto;"> <g transform="translate(0.000000,450.000000) scale(0.100000,-0.100000)" fill="#000000" stroke="none"> <path d="M4366 3602 c-7 -12 22 -38 31 -28 4 3 0 14 -9 22 -9 10 -18 12 -22 6z"></path> <path d="M834 3445 c-10 -8 -14 -14 -9 -14 6 0 19 6 29 14 11 8 15 15 10 15 -6 0 -19 -7 -30 -15z"></path> <path d="M4760 3285 c5 -7 6 -16 2 -21 -4 -5 -3 -5 2 -1 15 12 15 34 0 34 -9 0 -11 -4 -4 -12z"></path> <path d="M843 3275 c0 -8 4 -12 9 -9 5 3 6 10 3 15 -9 13 -12 11 -12 -6z"></path> <path d="M910 3250 c0 -5 5 -10 11 -10 5 0 7 5 4 10 -3 6 -8 10 -11 10 -2 0 -4 -4 -4 -10z"></path> <path d="M4724 3245 c3 -9 0 -12 -10 -8 -7 3 -14 1 -14 -5 0 -11 69 -46 77 -39 11 12 -10 27 -30 22 -19 -5 -20 -5 -4 5 23 15 22 26 -4 33 -15 4 -19 2 -15 -8z"></path> <path d="M858 3224 c6 -12 8 -24 5 -28 -3 -3 -1 -6 5 -6 18 0 14 25 -5 41 -15 13 -15 12 -5 -7z"></path> <path d="M800 3206 c0 -2 8 -10 18 -17 15 -13 16 -12 3 4 -13 16 -21 21 -21 13z"></path> <path d="M850 3170 c0 -5 5 -10 10 -10 6 0 10 5 10 10 0 6 -4 10 -10 10 -5 0 -10 -4 -10 -10z"></path> <path d="M875 3130 c-3 -5 1 -10 9 -10 9 0 16 5 16 10 0 6 -4 10 -9 10 -6 0 -13 -4 -16 -10z"></path> <path d="M864 3051 c0 -15 3 -17 13 -9 7 6 10 14 7 19 -9 15 -20 10 -20 -10z"></path> <path d="M966 2962 c-3 -5 1 -9 9 -9 8 0 12 4 9 9 -3 4 -7 8 -9 8 -2 0 -6 -4 -9 -8z"></path> <path d="M1010 2961 c0 -5 7 -11 15 -15 8 -3 15 -1 15 3 0 5 -7 11 -15 15 -8 3 -15 1 -15 -3z"></path> <path d="M970 2910 c0 -5 5 -10 10 -10 6 0 10 5 10 10 0 6 -4 10 -10 10 -5 0 -10 -4 -10 -10z"></path> <path d="M1129 2751 c6 -10 7 -21 4 -25 -3 -3 -1 -6 5 -6 7 0 12 4 12 9 0 18 -12 41 -21 41 -6 0 -6 -8 0 -19z"></path> <path d="M220 2720 c0 -5 5 -10 10 -10 6 0 10 5 10 10 0 6 -4 10 -10 10 -5 0 -10 -4 -10 -10z"></path> <path d="M1180 2656 c0 -9 5 -16 10 -16 6 0 10 4 10 9 0 6 -4 13 -10 16 -5 3 -10 -1 -10 -9z"></path> <path d="M1406 2635 c4 -8 10 -15 15 -15 4 0 6 7 3 15 -4 8 -10 15 -15 15 -4 0 -6 -7 -3 -15z"></path> <path d="M1490 2631 c0 -5 5 -13 10 -16 6 -3 10 -2 10 4 0 5 -4 13 -10 16 -5 3 -10 2 -10 -4z"></path> <path d="M1236 2605 c-3 -8 -1 -15 4 -15 6 0 10 7 10 15 0 8 -2 15 -4 15 -2 0 -6 -7 -10 -15z"></path> <path d="M1330 2541 c0 -5 5 -13 10 -16 6 -3 10 -2 10 4 0 5 -4 13 -10 16 -5 3 -10 2 -10 -4z"></path> <path d="M1565 2390 c3 -5 8 -10 11 -10 2 0 4 5 4 10 0 6 -5 10 -11 10 -5 0 -7 -4 -4 -10z"></path> <path d="M2100 2355 c7 -9 15 -13 17 -11 7 7 -7 26 -19 26 -6 0 -6 -6 2 -15z"></path> <path d="M5149 2163 c-13 -16 -12 -17 4 -4 9 7 17 15 17 17 0 8 -8 3 -21 -13z"></path> <path d="M5180 2130 c0 -5 5 -10 10 -10 6 0 10 5 10 10 0 6 -4 10 -10 10 -5 0 -10 -4 -10 -10z"></path> <path d="M2170 2096 c0 -2 8 -10 18 -17 15 -13 16 -12 3 4 -13 16 -21 21 -21 13z"></path> <path d="M5010 1840 c0 -5 5 -10 10 -10 6 0 10 5 10 10 0 6 -4 10 -10 10 -5 0 -10 -4 -10 -10z"></path>            </g> </svg>