<svg version="1.0" xmlns="http://www.w3.org/2000/svg" width="600.000000pt" height="450.000000pt" viewBox="0 0 600.000000 450.000000" preserveAspectRatio="xMidYMid meet" style="width: 1836.3px; height: auto;"> <g transform="translate(0.000000,450.000000) scale(0.100000,-0.100000)" fill="#000000" stroke="none">  <path d="M2564 4092 c-110 -187 -110 -188 -222 -510 l-112 -324 -16 -326 -16 -327 50 -155 c32 -99 76 -208 122 -299 39 -79 95 -212 125 -295 l53 -151 5 -204 5 -203 -64 -132 c-58 -121 -69 -137 -150 -216 -47 -47 -127 -139 -176 -205 l-89 -120 6 -85 c4 -47 11 -89 15 -94 5 -4 73 -27 152 -51 108 -32 242 -59 543 -109 l400 -66 135 43 135 43 182 231 182 230 46 252 46 251 -67 247 -67 247 -159 220 -158 221 -189 110 -190 110 -1 88 c0 86 1 90 63 230 50 112 65 157 70 211 6 67 5 71 -51 205 -42 100 -75 159 -119 217 -46 61 -67 99 -89 167 l-28 87 43 132 44 132 -121 115 c-71 69 -140 146 -168 189 -27 41 -51 75 -55 77 -3 2 -55 -80 -115 -183z m185 68 c34 -49 68 -93 75 -97 7 -4 53 -45 101 -90 l87 -82 -44 -133 -45 -133 28 -83 c21 -61 45 -107 92 -170 46 -62 80 -124 120 -219 73 -174 72 -195 -23 -413 l-67 -155 6 -83 6 -83 190 -113 190 -112 156 -217 156 -217 66 -248 67 -247 -40 -215 c-22 -118 -42 -229 -45 -246 -3 -20 -68 -111 -185 -259 l-179 -228 -133 -43 -133 -43 -390 64 c-356 59 -435 76 -636 136 l-66 20 -6 87 -6 86 84 111 c46 60 125 153 175 205 84 87 97 107 157 230 l65 134 -7 206 -8 205 -52 150 c-30 83 -85 211 -123 285 -49 95 -86 184 -122 297 l-51 162 16 323 16 323 110 320 c109 316 112 322 216 502 59 100 110 180 114 178 3 -3 34 -45 68 -95z" class=""></path>                 </g> </svg>