<svg version="1.0" xmlns="http://www.w3.org/2000/svg" width="600.000000pt" height="450.000000pt" viewBox="0 0 600.000000 450.000000" preserveAspectRatio="xMidYMid meet" style="width: 1537.97px; height: auto;"> <g transform="translate(0.000000,450.000000) scale(0.100000,-0.100000)" fill="#000000" stroke="none"> <path d="M1202 4224 c-220 -34 -372 -62 -423 -79 l-79 -27 6 -56 c3 -31 15 -97 26 -146 20 -86 20 -91 4 -168 -10 -44 -16 -81 -14 -83 2 -1 48 -32 103 -67 193 -125 463 -219 679 -238 162 -14 271 11 495 115 l163 75 97 0 97 0 72 50 c39 28 74 55 77 61 4 5 -46 65 -109 133 -109 116 -127 130 -309 246 -171 111 -209 130 -347 182 -85 32 -164 57 -175 57 -11 -1 -174 -25 -363 -55z m535 -13 c143 -52 176 -70 344 -179 184 -119 253 -177 387 -333 l31 -35 -72 -52 -72 -52 -97 0 -96 0 -167 -75 c-226 -103 -330 -127 -488 -114 -214 19 -499 119 -684 240 -103 68 -97 55 -68 169 10 39 9 56 -11 129 -12 45 -24 110 -25 144 l-3 61 70 23 c51 17 667 121 781 132 7 0 83 -25 170 -58z"></path>   <path d="M2900 3059 c-162 -19 -322 -97 -467 -227 -40 -36 -73 -68 -73 -72 0 -3 27 -39 61 -79 56 -66 63 -81 95 -188 49 -169 84 -518 84 -851 0 -301 -1 -300 121 -363 45 -23 92 -54 106 -68 13 -14 72 -104 131 -199 l107 -173 260 -144 260 -144 288 -90 287 -90 207 -22 c132 -13 216 -26 230 -35 13 -8 62 -30 110 -50 49 -20 94 -38 101 -41 9 -4 12 17 12 86 0 84 3 97 34 160 30 58 89 133 191 239 l21 23 71 -40 c40 -22 77 -42 83 -43 7 -2 25 43 45 115 l33 117 -24 180 -25 180 -90 149 -91 149 -176 75 c-98 41 -189 77 -203 80 l-26 7 -5 142 c-6 139 -7 145 -39 204 l-34 62 -174 62 -173 62 -203 173 c-199 171 -204 175 -306 215 -104 40 -104 40 -566 93 l-463 52 75 65 c87 75 120 94 198 110 l57 11 0 60 c0 68 10 64 -130 48z m120 -48 l0 -50 -55 -11 c-30 -6 -74 -22 -98 -36 -45 -25 -185 -149 -177 -156 3 -3 214 -28 470 -57 l465 -52 102 -41 c100 -39 108 -45 305 -214 l202 -174 116 -40 c253 -90 228 -76 262 -143 28 -57 31 -70 36 -204 l5 -143 26 -6 c30 -6 361 -143 377 -155 6 -5 50 -73 97 -151 l86 -143 24 -177 23 -176 -29 -109 c-16 -59 -31 -110 -33 -112 -1 -2 -37 15 -79 38 -42 23 -80 41 -84 39 -4 -2 -48 -48 -98 -104 -119 -131 -153 -202 -153 -315 0 -44 -4 -79 -8 -79 -13 0 -132 49 -185 76 -41 21 -79 28 -250 45 -214 21 -235 27 -702 177 -62 20 -167 72 -339 168 l-249 139 -114 180 c-62 99 -126 191 -142 205 -15 14 -60 42 -99 63 -111 58 -112 61 -112 364 0 327 -34 667 -82 836 -30 102 -38 119 -95 189 l-63 78 43 39 c129 118 213 171 334 212 48 16 124 33 168 38 44 5 86 9 93 10 8 1 12 -15 12 -48z" class=""></path>                         </g> </svg>