<svg version="1.0" xmlns="http://www.w3.org/2000/svg" width="600.000000pt" height="450.000000pt" viewBox="0 0 600.000000 450.000000" preserveAspectRatio="xMidYMid meet" style="width: 1870.87px; height: auto;"> <g transform="translate(0.000000,450.000000) scale(0.100000,-0.100000)" fill="#000000" stroke="none"> <path d="M3360 4266 c-24 -8 -47 -30 -73 -67 -42 -60 -72 -78 -133 -79 -46 0 -71 -15 -197 -116 -104 -83 -140 -141 -196 -315 -24 -77 -68 -181 -101 -244 l-57 -110 -6 -110 c-4 -60 -10 -122 -14 -137 -4 -15 -36 -56 -70 -91 -60 -62 -68 -66 -165 -97 -133 -43 -168 -61 -253 -131 -107 -89 -150 -147 -235 -312 -137 -268 -156 -351 -167 -725 -6 -209 -8 -234 -33 -315 l-28 -88 38 -19 c29 -15 39 -27 44 -54 9 -47 -29 -250 -57 -306 -20 -40 -27 -46 -65 -52 -29 -5 -73 -1 -131 11 -86 17 -89 17 -137 -1 -27 -11 -53 -23 -58 -28 -4 -4 -1 -32 8 -62 12 -40 31 -69 79 -119 49 -53 249 -237 414 -383 23 -19 23 -19 94 14 69 32 73 32 162 25 71 -5 132 -20 262 -62 137 -44 191 -56 279 -64 104 -10 120 -8 405 36 293 46 299 48 595 142 206 65 314 105 347 127 49 32 96 96 163 218 38 69 39 70 117 83 32 5 39 11 54 50 16 44 16 46 -9 101 -14 31 -26 64 -26 74 0 10 -11 43 -25 74 -14 31 -25 61 -25 67 0 5 25 47 55 92 76 115 215 225 330 263 44 15 84 30 89 34 5 5 0 34 -11 67 -18 52 -18 65 -7 128 7 39 27 111 44 160 37 106 68 271 77 407 7 121 -4 152 -92 256 -59 70 -69 88 -101 188 -32 99 -41 115 -74 140 -21 16 -49 47 -63 69 -24 39 -24 41 -14 155 6 64 7 128 3 143 -3 15 -28 44 -57 67 -51 40 -52 40 -113 34 -59 -6 -63 -5 -79 20 -10 14 -20 41 -24 59 -6 30 -72 173 -128 277 -13 25 -35 68 -49 95 l-25 51 19 64 c19 61 19 68 4 107 -23 59 -69 82 -278 143 -194 55 -255 65 -306 46z m290 -53 c219 -63 261 -83 283 -136 17 -41 17 -44 -4 -105 -20 -59 -20 -64 -5 -103 9 -23 28 -55 41 -73 13 -17 33 -55 44 -84 12 -29 39 -87 61 -128 22 -42 40 -86 40 -98 0 -13 10 -38 23 -57 22 -33 25 -34 93 -34 65 0 72 -2 111 -35 53 -44 58 -68 44 -211 l-11 -111 29 -42 c16 -24 46 -55 65 -70 31 -23 40 -41 68 -131 29 -96 38 -113 103 -192 40 -49 78 -106 85 -127 25 -78 -12 -352 -74 -533 -19 -56 -39 -132 -45 -168 -9 -58 -8 -74 9 -118 11 -27 17 -54 15 -58 -3 -4 -38 -17 -79 -29 -62 -19 -91 -36 -179 -106 -87 -68 -116 -99 -165 -171 l-60 -89 29 -63 c16 -35 29 -75 29 -89 0 -13 9 -40 21 -58 37 -61 22 -137 -30 -149 -17 -3 -35 -4 -40 -1 -16 10 -61 -35 -88 -87 -52 -104 -105 -176 -151 -209 -36 -26 -118 -56 -352 -130 -301 -96 -308 -97 -598 -143 -281 -44 -296 -45 -399 -35 -82 8 -140 21 -262 61 -112 37 -186 55 -261 64 l-104 12 -74 -34 -73 -34 -194 177 c-234 211 -289 271 -311 336 -9 27 -14 50 -13 52 2 1 27 11 54 22 49 19 52 20 130 2 73 -17 140 -17 181 -1 25 9 55 95 75 212 25 144 20 182 -27 204 -19 9 -34 23 -34 30 0 7 11 45 24 83 21 62 24 95 30 295 8 257 27 412 62 504 43 115 182 381 224 430 52 60 172 161 219 184 20 10 72 28 116 41 108 31 141 49 203 112 62 63 69 86 82 239 9 112 11 118 60 207 27 51 70 156 96 233 63 194 90 237 214 338 113 91 132 101 195 101 36 0 49 6 77 33 18 19 44 50 58 69 48 69 102 69 340 1z" class=""></path>                     </g> </svg>