<svg version="1.0" xmlns="http://www.w3.org/2000/svg" width="600.000000pt" height="316.000000pt" viewBox="0 0 600.000000 316.000000" preserveAspectRatio="xMidYMid meet" style="width: 1849.4px; height: auto;"> <g transform="translate(0.000000,316.000000) scale(0.100000,-0.100000)" fill="#000000" stroke="none"> <path d="M671 2446 c-11 -13 -5 -72 9 -81 4 -3 13 2 20 10 7 8 18 15 25 15 19 0 27 28 15 51 -12 22 -52 25 -69 5z m59 -25 c0 -3 -11 -11 -25 -18 -21 -9 -25 -9 -25 6 0 26 21 43 37 30 7 -7 13 -14 13 -18z"></path> <path d="M840 2370 c0 -15 7 -20 25 -20 18 0 25 5 25 20 0 15 -7 20 -25 20 -18 0 -25 -5 -25 -20z m40 6 c0 -3 -4 -8 -10 -11 -5 -3 -10 -1 -10 4 0 6 5 11 10 11 6 0 10 -2 10 -4z"></path> <path d="M386 2362 c-3 -5 -8 -28 -12 -50 -5 -33 -4 -42 8 -42 16 0 42 26 50 50 11 32 -30 68 -46 42z m34 -24 c0 -7 -7 -22 -15 -32 -14 -19 -15 -19 -15 5 0 14 3 29 7 32 10 11 23 8 23 -5z"></path>  <path d="M1863 2274 c-3 -8 -1 -20 5 -26 16 -16 42 -2 42 22 0 24 -38 28 -47 4z"></path> <path d="M2932 2264 c-38 -27 -24 -76 17 -55 25 14 35 42 19 58 -11 11 -17 10 -36 -3z m15 -31 c-15 -16 -17 -16 -17 -1 0 9 6 18 13 21 20 7 22 -2 4 -20z"></path>   <path d="M3383 2197 c-16 -18 -29 -22 -56 -19 -29 3 -36 0 -42 -17 -9 -29 1 -41 35 -41 19 0 31 6 34 18 5 14 14 17 35 14 40 -6 73 14 69 41 -4 31 -47 34 -75 4z m52 -7 c0 -7 -10 -16 -22 -21 -14 -5 -23 -5 -23 1 0 6 5 10 10 10 6 0 10 7 10 16 0 9 6 14 13 12 6 -3 12 -11 12 -18z m-99 -31 c10 -17 -13 -36 -27 -22 -12 12 -4 33 11 33 5 0 12 -5 16 -11z"></path> <path d="M2967 2203 c-14 -13 -7 -33 12 -33 14 0 17 -6 13 -25 -3 -20 0 -25 17 -25 27 0 40 29 20 44 -8 6 -13 19 -11 29 3 12 -3 17 -21 17 -13 0 -27 -3 -30 -7z m33 -13 c0 -5 -5 -10 -11 -10 -5 0 -7 5 -4 10 3 6 8 10 11 10 2 0 4 -4 4 -10z" class=""></path> <path d="M3204 2165 c-8 -30 -1 -40 21 -31 10 3 15 15 13 28 -4 31 -26 34 -34 3z"></path> <path d="M2826 2164 c-9 -22 17 -49 39 -40 10 3 15 15 13 28 -4 29 -42 37 -52 12z m39 -14 c-3 -5 -10 -10 -16 -10 -5 0 -9 5 -9 10 0 6 7 10 16 10 8 0 12 -4 9 -10z" class=""></path> <path d="M1680 2127 c0 -31 9 -38 31 -26 29 15 25 49 -6 49 -20 0 -25 -5 -25 -23z m26 -14 c-10 -10 -19 5 -10 18 6 11 8 11 12 0 2 -7 1 -15 -2 -18z"></path>    <path d="M234 2065 c-12 -8 -24 -12 -27 -9 -3 3 -8 -5 -12 -17 -6 -17 -2 -27 15 -41 12 -10 28 -18 35 -18 11 0 35 61 35 89 0 15 -22 14 -46 -4z m20 -32 c-9 -35 -8 -35 -28 -27 -30 12 -19 29 32 53 1 0 -1 -11 -4 -26z"></path> <path d="M2372 2028 c4 -30 43 -33 43 -3 0 13 -8 21 -23 23 -20 3 -23 0 -20 -20z"></path> <path d="M4067 1987 c-8 -22 12 -56 38 -63 40 -10 57 2 53 38 -3 30 -6 32 -45 35 -25 2 -43 -2 -46 -10z m73 -29 c0 -21 -30 -24 -48 -6 -19 19 -14 25 18 24 21 -1 30 -6 30 -18z"></path>   <path d="M3290 1959 c0 -7 -11 -22 -25 -35 -25 -23 -31 -49 -17 -72 7 -10 38 -17 95 -21 5 -1 5 -6 2 -11 -9 -15 14 -40 35 -40 18 0 19 13 11 137 0 12 -8 29 -17 37 -18 18 -84 22 -84 5z m80 -28 c13 -25 13 -78 0 -86 -6 -4 -17 -2 -25 5 -7 6 -19 10 -27 9 -63 -8 -76 18 -30 62 33 32 67 36 82 10z m10 -132 c0 -6 -4 -7 -10 -4 -5 3 -10 11 -10 16 0 6 5 7 10 4 6 -3 10 -11 10 -16z"></path> <path d="M2770 1927 c0 -14 7 -31 16 -38 14 -11 18 -10 30 6 21 28 13 50 -19 53 -23 3 -27 0 -27 -21z m32 -19 c-9 -9 -12 -7 -12 12 0 19 3 21 12 12 9 -9 9 -15 0 -24z"></path> <path d="M4646 1904 c-9 -22 11 -44 40 -44 16 0 24 6 24 18 0 38 -52 58 -64 26z m44 -14 c0 -5 -7 -10 -15 -10 -8 0 -15 5 -15 10 0 6 7 10 15 10 8 0 15 -4 15 -10z"></path> <path d="M2054 1886 c-7 -29 1 -46 22 -46 11 0 14 9 12 32 -4 39 -25 48 -34 14z m23 -18 c-3 -8 -6 -5 -6 6 -1 11 2 17 5 13 3 -3 4 -12 1 -19z"></path> <path d="M2107 1893 c-15 -15 -7 -43 13 -43 15 0 20 7 20 25 0 24 -18 34 -33 18z"></path> <path d="M2720 1865 c0 -20 5 -25 24 -25 30 0 42 16 26 35 -21 25 -50 19 -50 -10z m40 1 c0 -11 -19 -15 -25 -6 -3 5 1 10 9 10 9 0 16 -2 16 -4z"></path> <path d="M4734 1875 c-3 -8 -3 -18 0 -24 3 -5 -2 -7 -12 -4 -22 5 -46 -21 -38 -42 8 -22 47 -19 53 4 3 14 13 18 36 17 35 -1 48 24 27 49 -16 19 -59 19 -66 0z m56 -18 c0 -21 -12 -28 -27 -16 -19 16 -16 29 7 29 11 0 20 -6 20 -13z m-60 -31 c0 -2 -7 -9 -15 -16 -12 -10 -15 -10 -15 4 0 9 7 16 15 16 8 0 15 -2 15 -4z"></path> <path d="M1544 1854 c-4 -14 -2 -30 5 -37 17 -17 45 4 49 37 3 22 0 26 -22 26 -19 0 -27 -7 -32 -26z m32 -21 c-10 -10 -19 5 -10 18 6 11 8 11 12 0 2 -7 1 -15 -2 -18z"></path> <path d="M2243 1864 c-3 -8 -1 -20 5 -26 16 -16 42 -2 42 22 0 24 -38 28 -47 4z"></path> <path d="M5081 1861 c-7 -5 -11 -19 -9 -32 4 -31 42 -33 46 -3 4 25 -19 46 -37 35z m19 -31 c0 -5 -2 -10 -4 -10 -3 0 -8 5 -11 10 -3 6 -1 10 4 10 6 0 11 -4 11 -10z"></path> <path d="M1680 1820 c0 -23 4 -30 20 -30 25 0 28 45 4 54 -23 9 -24 8 -24 -24z m25 0 c3 -5 1 -10 -4 -10 -6 0 -11 5 -11 10 0 6 2 10 4 10 3 0 8 -4 11 -10z"></path> <path d="M3490 1811 c0 -27 4 -31 26 -31 22 0 25 4 22 28 -2 19 -9 28 -25 30 -20 3 -23 -1 -23 -27z m34 -12 c-3 -5 -10 -7 -15 -3 -5 3 -7 10 -3 15 3 5 10 7 15 3 5 -3 7 -10 3 -15z"></path> <path d="M5270 1746 c0 -29 11 -39 35 -30 24 10 15 48 -12 52 -19 3 -23 -1 -23 -22z m30 -6 c0 -5 -2 -10 -4 -10 -3 0 -8 5 -11 10 -3 6 -1 10 4 10 6 0 11 -4 11 -10z"></path> <path d="M2750 1716 c0 -15 7 -26 19 -29 25 -6 31 0 31 30 0 18 -5 23 -25 23 -20 0 -25 -5 -25 -24z m34 -7 c-3 -5 -10 -7 -15 -3 -5 3 -7 10 -3 15 3 5 10 7 15 3 5 -3 7 -10 3 -15z"></path> <path d="M1358 1709 c-25 -14 -22 -36 4 -42 26 -7 71 18 65 36 -5 16 -47 20 -69 6z m37 -19 c-3 -5 -13 -10 -21 -10 -8 0 -12 5 -9 10 3 6 13 10 21 10 8 0 12 -4 9 -10z"></path> <path d="M5750 1629 c0 -5 -7 -9 -16 -9 -11 0 -14 -8 -12 -27 3 -24 8 -28 33 -28 26 0 30 4 33 31 2 25 -1 33 -17 37 -12 3 -21 1 -21 -4z m20 -33 c0 -8 -4 -17 -8 -20 -13 -8 -35 11 -28 23 10 16 36 14 36 -3z"></path> <path d="M4550 1621 c-31 -9 -40 -47 -12 -55 29 -10 72 10 72 33 0 15 -23 36 -33 30 -1 -1 -13 -4 -27 -8z m40 -26 c0 -9 -9 -15 -25 -15 -29 0 -34 16 -7 23 30 8 32 7 32 -8z"></path> <path d="M3624 1586 c-8 -32 2 -46 32 -46 18 0 24 5 24 23 0 46 -45 64 -56 23z m36 -21 c0 -9 -6 -12 -15 -9 -8 4 -15 10 -15 15 0 5 7 9 15 9 8 0 15 -7 15 -15z"></path> <path d="M3774 1505 c-5 -11 -14 -15 -29 -11 -37 9 -41 -23 -8 -50 39 -32 67 -32 61 0 -4 18 0 26 14 29 18 5 26 37 9 37 -5 0 -16 3 -25 6 -10 4 -18 0 -22 -11z m36 -15 c0 -5 -4 -10 -10 -10 -5 0 -10 5 -10 10 0 6 5 10 10 10 6 0 10 -4 10 -10z m-39 -30 c17 -13 19 -19 9 -19 -16 0 -50 22 -50 33 0 12 18 6 41 -14z"></path> <path d="M4052 1133 c2 -20 9 -29 26 -31 20 -3 23 0 20 25 -2 20 -9 29 -26 31 -20 3 -23 0 -20 -25z m33 -3 c3 -5 2 -10 -4 -10 -5 0 -13 5 -16 10 -3 6 -2 10 4 10 5 0 13 -4 16 -10z"></path> <path d="M4022 548 c-31 -31 2 -68 49 -53 31 10 23 59 -11 63 -14 2 -31 -3 -38 -10z m49 -23 c0 -5 -9 -11 -21 -13 -20 -3 -27 8 -13 22 10 9 34 3 34 -9z" class=""></path> </g> </svg>