<svg version="1.0" xmlns="http://www.w3.org/2000/svg" width="600.000000pt" height="338.000000pt" viewBox="0 0 600.000000 338.000000" preserveAspectRatio="xMidYMid meet" style="width: 2562.75px; height: auto;"> <g transform="translate(0.000000,338.000000) scale(0.100000,-0.100000)" fill="#000000" stroke="none">                       <path d="M3740 2903 c0 -9 7 -24 16 -34 21 -24 11 -52 -38 -105 -33 -36 -44 -42 -67 -38 -21 4 -42 -4 -88 -34 -91 -58 -117 -67 -160 -54 -41 13 -53 9 -53 -18 0 -10 -13 -44 -30 -75 -16 -31 -30 -63 -30 -70 0 -8 -12 -27 -26 -44 -21 -25 -25 -38 -20 -64 3 -18 2 -46 -3 -62 -33 -104 -63 -171 -90 -199 -17 -18 -31 -36 -31 -42 0 -9 -56 -66 -121 -123 -25 -21 -29 -22 -56 -8 -15 8 -49 18 -75 22 l-48 7 -39 -80 c-38 -79 -77 -124 -191 -216 -89 -72 -182 -156 -254 -230 l-79 -81 6 -121 c7 -135 5 -140 -61 -162 -50 -17 -89 -48 -132 -108 -39 -52 -48 -74 -32 -74 5 0 67 -48 139 -108 72 -59 183 -145 247 -192 65 -47 136 -99 160 -117 l43 -32 34 35 c19 20 75 66 124 104 50 38 116 90 148 115 32 25 66 49 74 54 9 5 14 15 10 24 -5 15 -10 15 -41 2 -74 -31 -116 -13 -116 49 0 32 -11 38 -46 27 -68 -22 -82 -22 -89 -2 -3 12 -12 18 -20 15 -15 -6 -39 31 -30 45 3 5 1 20 -4 34 -8 19 -15 23 -35 20 -15 -3 -26 -1 -26 5 0 11 47 52 60 52 5 0 20 -19 34 -42 45 -75 39 -72 84 -49 50 26 52 26 52 1 0 -10 9 -24 20 -30 10 -6 24 -28 30 -50 20 -75 44 -66 49 19 1 8 7 11 17 7 21 -8 67 17 142 78 44 35 71 50 88 48 18 -3 25 2 30 25 4 15 15 40 25 54 37 52 39 99 10 201 -22 76 -31 93 -47 93 -17 0 -19 -6 -16 -52 l3 -51 -53 -15 c-107 -30 -105 -30 -112 3 -3 19 -12 30 -22 30 -13 0 -15 -6 -11 -28 4 -20 0 -33 -17 -49 -22 -21 -24 -22 -38 -5 -9 9 -23 31 -32 48 -14 28 -14 33 -1 44 9 7 13 21 10 31 -8 23 9 33 25 14 29 -35 38 -9 19 58 -11 41 -24 48 -34 17 -11 -34 -43 -25 -50 14 -13 69 -7 78 75 104 41 13 99 24 129 25 l54 2 16 -50 c23 -70 46 -68 46 5 1 62 8 80 34 80 10 0 34 11 54 24 25 18 38 21 46 13 19 -19 41 14 57 84 9 35 13 82 10 103 -6 51 33 176 85 274 21 41 39 83 39 95 0 11 10 31 22 44 21 22 21 23 3 43 -15 16 -17 26 -9 47 13 36 30 39 47 7 l14 -26 21 27 c27 34 27 41 2 55 -24 13 -17 34 18 49 23 11 29 10 45 -10 l18 -22 30 29 c27 26 29 30 13 41 -10 7 -15 16 -11 19 13 13 35 -5 56 -47 27 -52 47 -68 83 -69 90 -1 108 59 64 206 -13 43 -31 92 -39 108 -16 30 -16 39 3 103 9 30 9 45 1 61 -26 48 -161 86 -161 45z m105 -19 c41 -19 48 -38 35 -84 -15 -52 -12 -89 10 -134 26 -56 50 -151 50 -203 0 -47 -17 -63 -69 -63 -31 0 -49 18 -83 79 -21 39 -45 49 -65 28 -13 -13 -14 -19 -3 -31 10 -13 10 -19 0 -31 -12 -14 -15 -14 -30 0 -21 19 -50 19 -78 -1 -25 -17 -29 -52 -7 -60 17 -7 18 -13 6 -33 -8 -12 -13 -11 -28 8 -16 20 -23 22 -40 12 -30 -15 -40 -67 -18 -91 16 -17 15 -20 -4 -39 -12 -12 -21 -32 -21 -46 0 -13 -13 -47 -30 -75 -47 -80 -82 -195 -91 -300 -10 -119 -25 -174 -45 -166 -9 3 -47 -9 -85 -26 l-69 -33 -1 -60 -1 -60 -14 44 c-20 66 -30 74 -83 66 -76 -10 -195 -45 -213 -62 -22 -20 -23 -62 -4 -108 16 -37 36 -44 59 -20 17 16 27 10 27 -16 0 -12 -5 -16 -15 -13 -20 8 -45 -14 -38 -32 3 -8 -2 -23 -10 -32 -15 -16 -14 -21 4 -57 11 -22 31 -48 44 -57 23 -17 24 -17 52 10 20 19 36 26 57 24 36 -4 156 27 157 42 1 6 1 34 1 61 l-1 50 19 -60 c11 -33 20 -68 20 -77 0 -9 5 -20 11 -24 17 -10 1 -84 -26 -120 -14 -18 -25 -42 -25 -53 0 -16 -6 -21 -26 -21 -17 0 -44 -16 -77 -46 -60 -54 -117 -85 -149 -81 -19 2 -24 -4 -28 -33 l-6 -35 -8 31 c-4 18 -16 40 -27 50 -10 9 -19 25 -19 35 0 29 -17 31 -66 10 l-45 -20 -17 31 c-9 17 -26 42 -37 55 -18 22 -23 23 -48 12 -35 -16 -63 -57 -48 -72 6 -6 21 -11 33 -12 19 -1 24 -8 28 -46 4 -36 9 -45 28 -47 12 -2 22 -10 22 -18 0 -23 20 -25 78 -11 l52 14 0 -24 c0 -29 42 -73 70 -73 11 0 36 7 55 14 19 8 35 14 35 12 0 -2 -19 -16 -42 -31 -23 -15 -65 -46 -93 -69 -28 -22 -87 -68 -129 -101 -43 -33 -84 -68 -91 -79 -8 -10 -20 -16 -27 -13 -17 6 -388 286 -489 369 l-77 63 28 40 c42 60 79 91 143 119 31 14 60 31 62 38 3 7 2 62 -3 122 -7 93 -5 112 9 134 26 41 158 166 319 301 140 118 145 125 182 203 l38 81 45 -6 c25 -4 56 -14 70 -23 23 -15 26 -15 72 22 71 56 123 107 123 119 0 7 16 28 35 48 19 20 35 43 35 52 0 8 12 43 26 77 17 41 26 80 25 114 0 41 5 58 23 79 13 15 27 42 30 59 4 17 18 48 31 68 14 21 25 47 25 58 0 20 14 21 68 4 15 -5 79 26 140 68 33 23 51 29 73 24 24 -5 37 1 68 29 21 20 47 52 56 71 16 35 16 37 -4 65 -12 15 -21 31 -21 35 0 10 56 -3 95 -22z m-831 -1619 c3 -8 1 -15 -4 -15 -6 0 -10 7 -10 15 0 8 2 15 4 15 2 0 6 -7 10 -15z" class=""></path>                                                                                                                  </g> </svg>