<svg version="1.0" xmlns="http://www.w3.org/2000/svg" width="600.000000pt" height="450.000000pt" viewBox="0 0 600.000000 450.000000" preserveAspectRatio="xMidYMid meet" style="width: 1908.16px; height: auto;"> <g transform="translate(0.000000,450.000000) scale(0.100000,-0.100000)" fill="#000000" stroke="none"> <path d="M2570 3959 c-454 -175 -828 -320 -833 -321 -4 -2 -64 -219 -133 -483 -68 -264 -163 -626 -209 -804 -47 -178 -85 -332 -85 -341 0 -20 603 -1487 616 -1500 5 -5 340 -72 744 -149 l735 -141 378 377 c208 208 397 400 419 426 39 46 52 83 261 730 121 375 222 698 224 717 5 39 -164 1301 -175 1311 -11 10 -1101 499 -1109 498 -5 0 -379 -144 -833 -320z m1016 230 c98 -45 343 -155 544 -246 201 -90 368 -167 372 -171 7 -7 178 -1248 178 -1287 0 -11 -102 -335 -225 -720 l-225 -699 -207 -211 c-114 -115 -300 -303 -413 -417 l-205 -207 -735 141 c-404 77 -736 142 -738 143 -5 4 -605 1461 -609 1481 -5 21 406 1616 420 1630 2 2 377 148 833 324 456 175 829 319 830 320 0 0 81 -36 180 -81z" class=""></path>                </g> </svg>