<svg version="1.0" xmlns="http://www.w3.org/2000/svg" width="600.000000pt" height="450.000000pt" viewBox="0 0 600.000000 450.000000" preserveAspectRatio="xMidYMid meet" style="width: 2023.19px; height: auto;"> <g transform="translate(0.000000,450.000000) scale(0.100000,-0.100000)" fill="#000000" stroke="none"> <path d="M4398 4258 c-8 -13 -29 -67 -47 -121 -25 -78 -30 -101 -20 -113 9 -11 9 -17 -1 -29 -7 -8 -10 -21 -7 -30 4 -8 2 -17 -3 -20 -6 -4 -10 -25 -10 -48 0 -57 -11 -71 -46 -63 -25 6 -31 3 -43 -24 l-13 -31 -25 23 c-13 12 -34 23 -46 23 -13 1 -28 5 -35 8 -6 5 -18 -3 -27 -17 -9 -14 -26 -28 -37 -32 -13 -4 -18 -12 -15 -25 3 -12 0 -19 -9 -19 -8 0 -14 -4 -14 -10 0 -5 5 -10 11 -10 7 0 5 -9 -5 -24 -11 -17 -12 -27 -5 -32 14 -8 -41 -66 -57 -60 -7 3 -20 -6 -28 -20 -9 -13 -23 -24 -31 -24 -9 0 -20 -11 -25 -25 -9 -23 -13 -24 -57 -19 -26 3 -53 7 -60 9 -7 2 -15 0 -18 -5 -4 -6 -22 -10 -41 -10 -19 0 -34 -5 -34 -11 0 -11 -82 -7 -113 6 -30 13 -191 -10 -207 -30 -15 -18 -1 -93 20 -113 20 -20 50 -75 50 -94 0 -7 15 -25 34 -40 52 -42 55 -75 12 -152 -32 -57 -38 -63 -66 -62 -17 1 -30 6 -30 14 0 7 -4 11 -9 7 -5 -3 -11 4 -13 16 -4 27 -52 35 -83 15 -24 -16 -140 -18 -168 -4 -10 5 -17 15 -14 21 3 9 -16 12 -66 12 -39 0 -75 4 -81 10 -19 18 -66 35 -66 25 0 -6 -9 -10 -20 -10 -23 0 -27 18 -5 26 20 8 19 23 -2 31 -29 11 -60 45 -46 50 20 7 -4 45 -48 75 -39 27 -69 28 -69 2 0 -8 -4 -14 -9 -14 -5 0 -17 -7 -26 -16 -15 -15 -17 -15 -36 2 -16 14 -22 15 -32 5 -9 -11 -9 -14 1 -18 17 -6 -4 -33 -25 -33 -21 0 -53 -42 -47 -61 2 -9 -6 -42 -20 -72 -13 -31 -22 -65 -19 -75 3 -14 -1 -22 -15 -26 -20 -7 -95 -107 -106 -144 -4 -11 -27 -32 -51 -47 -27 -15 -45 -33 -45 -44 0 -10 -9 -26 -20 -36 -11 -10 -20 -24 -20 -31 0 -8 -11 -21 -25 -30 -14 -9 -23 -20 -20 -24 8 -12 -21 -20 -33 -8 -7 7 -17 6 -31 -1 -11 -6 -32 -9 -46 -5 -15 4 -25 2 -25 -5 0 -6 -6 -11 -13 -11 -8 0 -22 -9 -31 -19 -14 -15 -15 -24 -6 -40 14 -27 1 -27 -45 -1 -33 18 -34 18 -23 1 15 -24 4 -51 -22 -51 -11 0 -24 -8 -27 -17 -13 -33 -31 -43 -67 -38 -23 4 -37 2 -43 -8 -4 -7 -38 -28 -75 -46 -74 -35 -86 -47 -69 -64 6 -6 11 -15 11 -19 0 -12 -54 -10 -66 2 -11 11 -105 -73 -117 -103 -3 -8 -21 -23 -39 -31 -18 -9 -64 -47 -101 -84 -63 -63 -67 -70 -58 -95 12 -30 -3 -85 -27 -103 -12 -9 -11 -14 10 -30 14 -11 27 -26 30 -34 2 -8 11 -15 19 -16 8 0 26 -2 40 -2 26 -2 43 -28 40 -59 -1 -6 8 -18 20 -26 17 -12 19 -19 10 -35 -10 -18 -6 -52 5 -52 3 0 14 9 26 20 12 11 27 20 33 20 6 0 12 14 13 32 2 18 4 33 6 35 10 10 65 -22 75 -43 6 -15 17 -24 24 -21 7 3 24 -4 38 -14 13 -10 30 -19 37 -19 7 0 15 -7 18 -15 7 -18 41 -20 47 -2 3 8 13 2 30 -17 25 -28 34 -30 80 -11 24 10 22 -9 -5 -47 -16 -21 -19 -32 -11 -35 7 -2 9 -11 6 -19 -3 -9 2 -14 15 -14 12 0 24 -5 28 -12 4 -7 3 -8 -4 -4 -8 5 -11 -5 -10 -31 2 -49 -3 -66 -24 -75 -10 -4 -18 -14 -18 -22 0 -7 -7 -16 -15 -20 -8 -3 -15 -17 -15 -32 0 -14 -8 -38 -19 -52 -54 -78 -77 -177 -50 -219 14 -23 39 -31 39 -13 0 6 4 10 9 10 5 0 7 -9 4 -21 -5 -19 -3 -20 43 -14 27 4 57 11 66 16 10 5 19 5 22 0 7 -11 -17 -21 -49 -21 -12 0 -27 -6 -33 -13 -6 -7 -29 -12 -51 -12 -30 0 -41 -4 -41 -15 -1 -12 -3 -11 -11 3 -14 24 -30 11 -23 -19 7 -25 0 -28 -57 -24 -23 1 -26 -2 -22 -25 3 -14 9 -28 14 -30 12 -8 -1 -35 -16 -35 -20 0 -68 -108 -63 -142 5 -33 -28 -68 -89 -93 -19 -8 -32 -19 -28 -24 9 -16 96 -25 117 -12 15 9 24 7 51 -13 30 -23 34 -24 71 -11 24 8 52 11 71 7 27 -6 31 -10 24 -27 -4 -11 -8 -14 -8 -7 -1 7 -15 12 -36 12 -28 0 -35 -4 -35 -20 0 -10 8 -24 18 -30 14 -9 12 -10 -13 -5 -33 5 -76 -12 -83 -34 -3 -8 0 -11 7 -7 6 4 11 2 11 -3 0 -13 65 -41 96 -41 13 0 28 9 35 21 10 19 12 20 27 6 14 -15 13 -18 -8 -35 l-23 -19 33 -6 c33 -7 65 7 54 24 -3 5 2 9 10 9 26 0 28 -20 4 -41 -17 -15 -18 -19 -6 -15 10 3 18 1 18 -4 0 -5 -16 -9 -36 -8 -26 1 -42 -6 -62 -25 -22 -23 -24 -27 -9 -27 10 0 29 11 43 25 l25 25 -7 -35 c-6 -35 10 -51 22 -21 3 8 19 16 36 20 17 3 32 14 35 24 4 18 35 23 49 9 13 -13 24 -7 24 13 0 11 4 20 10 20 5 0 8 15 5 34 -3 25 0 34 8 30 7 -2 21 2 32 10 19 14 19 15 1 35 -11 12 -27 21 -36 21 -10 0 -24 7 -31 17 -13 15 -11 16 16 9 17 -4 43 -10 59 -13 16 -3 31 -14 33 -24 3 -11 9 -19 13 -19 4 0 17 -16 29 -35 17 -30 66 -63 77 -52 2 1 -3 15 -11 30 -8 16 -10 27 -3 27 5 0 12 -9 15 -21 3 -12 11 -18 19 -15 10 4 14 -3 14 -19 0 -14 3 -25 8 -25 4 0 12 -10 17 -22 16 -36 40 -29 40 12 0 30 4 35 30 40 17 4 45 15 64 24 30 16 35 16 42 3 5 -8 31 -29 59 -47 44 -28 52 -30 68 -19 28 22 32 32 32 77 0 30 4 42 15 42 8 0 27 16 42 36 15 21 42 53 59 73 17 20 37 49 45 66 30 63 114 97 224 90 39 -3 75 -5 80 -6 6 0 43 4 82 8 52 7 76 6 85 -2 9 -8 40 -10 100 -5 78 5 92 10 125 37 50 40 75 85 75 134 -1 31 4 43 24 55 30 21 30 51 -1 87 -18 21 -30 26 -48 22 -19 -5 -29 1 -52 30 -15 21 -43 43 -61 51 -19 8 -34 18 -34 22 0 5 -17 26 -38 48 -21 21 -49 57 -62 79 -28 48 -39 57 -62 51 -9 -2 -25 2 -35 10 -10 7 -30 14 -45 14 -15 0 -32 8 -37 18 -9 14 -12 15 -20 2 -8 -12 -13 -12 -30 4 -21 19 -26 55 -12 89 4 10 10 18 14 18 22 -3 27 1 27 15 0 10 -6 14 -15 11 -24 -10 -24 7 1 26 22 17 24 17 34 -3 6 -11 8 -30 4 -44 -6 -26 11 -45 28 -28 7 7 5 34 -5 83 -14 65 -14 78 -1 103 18 38 18 43 -6 73 -27 34 -25 43 11 87 22 25 37 35 50 31 12 -4 22 1 29 15 7 12 18 19 25 16 8 -3 20 1 28 8 7 8 22 16 33 18 11 2 24 17 31 38 7 19 12 31 12 25 1 -5 14 5 30 22 26 29 31 31 67 23 46 -11 84 -3 84 16 0 19 19 18 26 -1 9 -21 31 -19 37 5 3 11 12 22 21 25 39 12 78 34 106 60 11 10 23 15 27 12 3 -4 12 -2 20 4 15 13 18 59 3 59 -5 0 -10 6 -10 13 0 12 27 26 91 46 19 6 53 29 74 51 26 27 48 40 66 40 35 0 76 53 96 125 15 51 33 69 48 45 10 -17 23 -11 29 13 5 23 70 67 99 67 9 0 22 6 30 14 7 8 33 16 57 18 41 3 44 6 55 45 7 23 9 45 4 50 -27 27 -13 219 20 281 18 33 13 45 -28 74 -32 23 -40 35 -43 69 -2 22 0 43 4 45 4 3 8 16 8 30 0 13 9 33 20 44 11 11 22 31 26 44 7 27 34 57 34 37 0 -6 4 -11 8 -11 13 0 32 47 32 79 0 34 9 44 26 30 10 -8 15 -8 18 2 2 8 7 23 11 34 3 11 5 21 3 23 -2 2 5 8 15 13 9 6 17 18 17 27 1 27 26 53 43 46 20 -7 47 18 47 43 0 11 14 32 31 49 29 27 31 27 25 7 -4 -13 -4 -23 -1 -23 17 0 62 61 61 82 -1 14 4 22 13 20 7 -1 19 2 26 8 18 15 65 -8 65 -31 0 -15 4 -16 35 -6 35 10 43 21 25 32 -5 3 -10 17 -10 31 0 14 -11 36 -25 50 -29 29 -55 86 -55 119 0 32 -24 50 -40 31 -6 -9 -9 -20 -5 -26 3 -5 1 -10 -4 -10 -6 0 -11 8 -11 18 0 10 -11 24 -24 31 -48 26 -71 70 -76 151 l-5 75 -37 3 c-36 3 -37 4 -31 34 5 28 4 31 -13 24 -49 -19 -72 -18 -83 3 -15 27 -35 27 -53 -1z m47 -8 c20 -22 46 -25 76 -10 14 8 19 7 19 -3 0 -7 -5 -18 -11 -24 -12 -12 -1 -17 56 -25 18 -3 20 -12 23 -74 3 -69 4 -72 52 -124 27 -29 51 -59 54 -67 3 -7 13 -13 21 -13 12 0 15 6 10 20 -5 14 -2 20 9 20 10 0 16 -9 16 -25 0 -37 28 -100 56 -124 15 -13 24 -32 24 -51 0 -17 5 -30 13 -31 6 0 1 -5 -12 -10 -19 -7 -27 -6 -33 4 -12 23 -68 43 -77 28 -4 -6 -15 -9 -23 -6 -11 4 -19 -3 -28 -27 -13 -34 -17 -44 -19 -54 0 -4 -8 -1 -16 6 -13 11 -21 8 -45 -15 -17 -16 -30 -39 -30 -51 0 -25 -15 -38 -44 -39 -10 0 -26 -14 -36 -32 -9 -18 -20 -30 -23 -27 -3 4 -11 -14 -18 -39 -9 -38 -15 -46 -32 -44 -18 2 -22 -5 -27 -41 -5 -36 -30 -84 -30 -57 0 4 -9 0 -20 -10 -11 -10 -20 -23 -20 -30 0 -7 -9 -22 -20 -35 -25 -29 -44 -94 -41 -140 2 -27 12 -44 43 -74 35 -32 40 -41 30 -56 -36 -58 -53 -256 -25 -293 6 -8 6 -25 -1 -47 -10 -32 -14 -35 -56 -38 -26 -1 -48 -8 -53 -17 -4 -8 -15 -15 -23 -15 -31 0 -87 -34 -105 -64 -10 -17 -19 -25 -19 -18 0 8 -9 12 -22 10 -17 -2 -26 -15 -38 -54 -22 -73 -59 -124 -91 -124 -16 0 -38 -13 -59 -35 -18 -19 -54 -42 -79 -51 -25 -9 -58 -21 -73 -26 -30 -11 -35 -27 -16 -57 14 -23 4 -53 -16 -45 -8 3 -24 -4 -35 -15 -12 -12 -25 -21 -30 -21 -5 0 -14 -7 -21 -15 -7 -8 -23 -15 -36 -15 -16 0 -28 -8 -36 -25 -10 -22 -13 -23 -20 -10 -12 21 -30 19 -51 -6 -10 -11 -25 -18 -35 -15 -69 19 -83 18 -103 -8 -11 -14 -26 -26 -34 -26 -7 0 -16 -16 -19 -35 -6 -31 -11 -35 -37 -35 -18 0 -28 -4 -24 -10 3 -5 -3 -10 -14 -10 -11 0 -27 -7 -35 -16 -9 -8 -22 -14 -28 -12 -25 9 -88 -70 -88 -109 0 -12 9 -27 20 -33 24 -13 25 -27 5 -68 -12 -23 -13 -40 -6 -73 10 -45 8 -66 -4 -30 -8 27 -24 26 -59 -5 -30 -27 -30 -34 2 -37 11 0 19 -5 16 -9 -3 -4 -11 -5 -18 -2 -13 5 -26 -34 -26 -77 0 -22 40 -61 56 -55 7 3 17 -1 23 -8 6 -7 22 -11 36 -8 15 2 33 -2 43 -11 9 -8 30 -17 46 -19 22 -2 34 -12 49 -41 23 -45 130 -157 149 -157 8 0 29 -20 48 -45 28 -37 36 -43 52 -34 15 8 24 5 43 -13 32 -30 32 -62 0 -76 -22 -10 -25 -18 -25 -59 0 -60 -34 -115 -90 -143 -43 -22 -177 -29 -196 -10 -7 7 -36 7 -84 1 -41 -6 -110 -7 -152 -4 -93 7 -151 -7 -203 -50 -21 -17 -44 -46 -52 -64 -7 -19 -20 -36 -27 -39 -8 -3 -30 -30 -50 -60 -20 -30 -43 -54 -51 -54 -20 0 -29 -19 -26 -61 1 -29 -3 -41 -20 -52 -20 -14 -25 -13 -63 11 -22 15 -48 35 -57 46 -15 18 -16 18 -50 0 -19 -9 -50 -20 -69 -24 -33 -5 -35 -8 -33 -42 2 -26 -1 -36 -10 -32 -15 6 -37 51 -37 77 0 12 -5 17 -13 14 -7 -3 -19 4 -25 14 -7 10 -19 19 -27 19 -17 0 -20 -16 -5 -25 15 -9 12 -25 -4 -25 -8 0 -25 17 -37 38 -13 20 -27 38 -31 40 -4 2 -8 10 -8 17 0 8 -23 20 -54 29 -66 19 -86 20 -86 3 0 -19 21 -37 42 -37 10 0 18 -5 18 -11 0 -5 4 -8 9 -4 5 3 13 0 17 -6 4 -8 3 -9 -4 -5 -7 4 -12 1 -12 -9 0 -13 -4 -14 -20 -5 -18 10 -20 7 -21 -27 -1 -38 -16 -100 -18 -74 -1 7 -7 11 -16 7 -14 -5 -19 5 -16 32 1 6 -6 12 -15 12 -14 0 -14 3 -4 15 11 13 10 18 -6 30 -10 8 -21 14 -24 14 -12 0 -39 -27 -33 -32 3 -4 -2 -7 -11 -7 -12 0 -16 -5 -13 -14 6 -16 -10 -26 -30 -19 -9 4 -9 9 0 23 9 15 7 23 -8 40 l-20 22 -22 -28 c-21 -27 -23 -27 -63 -14 -23 7 -46 22 -51 32 -10 19 -8 20 60 22 19 1 36 7 38 14 3 7 1 12 -4 11 -21 -4 -33 2 -33 16 0 18 41 20 58 3 14 -14 21 -9 24 22 3 20 -3 25 -35 32 -23 5 -46 4 -57 -2 -30 -16 -65 -12 -94 11 -21 17 -30 18 -41 9 -10 -8 -31 -10 -67 -4 -52 7 -53 7 -20 16 17 5 32 13 32 18 0 6 5 10 12 10 7 0 23 12 36 27 13 16 21 23 18 17 -3 -7 1 -17 8 -23 11 -9 19 -9 35 1 29 18 26 26 -11 30 -27 2 -34 8 -36 30 -3 27 40 122 51 112 3 -3 13 9 22 26 12 23 14 35 6 43 -17 17 -13 40 5 33 8 -3 27 -3 41 0 22 6 24 11 19 38 -4 23 -3 27 4 14 9 -15 13 -15 40 -2 16 9 35 12 41 9 5 -4 19 1 29 10 13 12 27 15 45 11 14 -4 25 -2 25 3 0 6 7 8 15 5 8 -4 15 -13 15 -21 0 -10 6 -13 16 -9 8 3 22 -1 30 -9 9 -8 25 -15 37 -15 19 1 15 6 -23 40 -25 22 -50 40 -56 40 -6 0 -19 10 -27 22 l-16 23 -7 -22 c-5 -17 -12 -21 -40 -18 -19 1 -34 -2 -34 -6 0 -5 -5 -9 -10 -9 -6 0 -10 6 -9 13 6 45 -14 66 -24 26 -5 -20 -7 -21 -23 -5 -37 38 22 222 77 237 16 5 18 7 7 8 -23 1 -25 51 -3 51 8 0 15 9 15 20 0 13 7 20 20 20 12 0 20 6 18 13 -1 6 4 23 11 36 11 19 11 25 0 32 -10 6 -9 12 5 28 19 21 19 21 -12 27 -21 4 -29 11 -25 20 3 8 0 14 -6 14 -11 0 17 46 47 78 24 26 1 31 -44 9 l-46 -22 -23 28 c-26 29 -50 35 -59 15 -3 -9 -8 -8 -16 5 -6 9 -19 17 -28 17 -9 0 -28 9 -42 20 -14 11 -30 20 -37 20 -7 0 -17 9 -23 20 -6 11 -26 27 -45 35 -19 7 -35 19 -35 26 0 7 -3 9 -7 5 -4 -4 -6 -24 -4 -45 2 -33 -2 -42 -29 -61 -37 -26 -45 -22 -29 14 11 23 10 28 -7 40 -10 8 -19 20 -20 28 -3 41 -17 56 -54 61 -47 6 -97 52 -79 73 6 7 14 25 18 41 6 23 12 27 34 25 15 -2 27 1 27 7 0 6 -11 11 -25 11 -17 0 -28 7 -34 22 -7 19 3 33 68 95 42 40 84 73 94 73 12 0 23 12 30 30 6 17 19 33 29 36 9 3 27 17 40 32 20 24 29 27 71 24 49 -4 56 3 38 37 -9 15 0 23 60 52 39 18 75 39 80 45 6 8 21 9 44 4 29 -7 36 -4 50 16 8 13 15 28 15 33 0 5 10 11 22 13 12 2 28 14 34 26 7 15 14 20 18 13 9 -14 43 -14 51 -1 4 6 2 16 -4 23 -5 7 -7 17 -3 23 11 17 55 38 74 35 10 -1 25 2 35 8 10 5 24 6 33 1 20 -10 60 5 60 24 0 7 7 16 15 20 8 3 15 11 15 18 0 7 9 24 20 38 11 14 20 32 20 40 0 9 16 24 36 35 23 12 51 42 74 80 58 92 82 119 90 105 8 -14 30 -5 30 11 0 6 -3 8 -7 6 -14 -9 -6 51 11 88 10 21 20 53 21 72 4 40 20 63 45 63 29 0 45 27 29 47 -13 15 -12 15 8 5 12 -7 25 -17 29 -23 4 -7 21 5 45 30 37 41 38 42 60 24 47 -38 58 -53 53 -68 -8 -19 32 -65 55 -65 11 0 9 -6 -8 -21 -21 -20 -22 -23 -6 -31 9 -6 27 -7 40 -4 15 4 30 0 40 -11 12 -11 37 -17 87 -19 39 -1 73 -6 77 -11 22 -34 162 -46 205 -18 17 11 26 13 31 5 4 -6 13 -9 21 -6 9 3 14 -1 14 -13 0 -17 8 -25 35 -31 6 -1 17 -6 26 -11 21 -11 48 18 84 90 33 66 29 110 -15 141 -16 11 -40 46 -55 77 -14 32 -31 60 -36 64 -14 8 -32 90 -22 99 15 13 151 33 179 26 90 -21 120 -22 141 -4 9 7 52 12 109 12 90 1 95 2 100 23 4 14 14 23 25 23 10 0 24 9 31 20 7 11 18 20 23 20 18 0 81 72 68 77 -9 3 -8 11 3 29 9 13 13 24 8 24 -4 0 -3 5 3 11 6 6 9 18 6 26 -4 9 2 16 16 20 11 3 21 9 21 14 0 5 7 9 16 9 11 0 14 5 10 16 -5 14 -4 15 8 5 7 -6 20 -9 27 -6 8 3 26 -6 41 -20 31 -28 48 -32 48 -10 0 8 5 15 10 15 6 0 10 6 10 14 0 9 8 12 27 8 35 -7 53 19 53 74 0 24 5 46 11 49 6 4 8 13 5 21 -3 7 0 16 5 20 7 4 8 21 4 41 -3 20 -2 47 3 62 5 14 18 54 28 89 11 34 24 62 31 62 7 0 10 7 7 15 -9 21 10 19 31 -5z m-2610 -2630 c-3 -5 -12 -10 -18 -10 -7 0 -6 4 3 10 19 12 23 12 15 0z m1225 -165 c0 -8 -4 -15 -10 -15 -5 0 -7 7 -4 15 4 8 8 15 10 15 2 0 4 -7 4 -15z m-1159 -482 c8 -9 9 -14 2 -10 -6 4 -13 3 -15 -3 -2 -6 -9 -1 -16 10 -10 16 -10 20 2 20 7 0 20 -8 27 -17z m44 -33 c3 -5 2 -10 -4 -10 -5 0 -13 5 -16 10 -3 6 -2 10 4 10 5 0 13 -4 16 -10z m-393 -322 c-9 -9 -15 -9 -24 0 -9 9 -7 12 12 12 19 0 21 -3 12 -12z m307 -254 c-7 -9 -5 -16 8 -24 17 -11 17 -11 0 -6 -10 3 -21 6 -23 6 -2 0 -4 7 -4 16 0 8 -4 13 -9 10 -5 -4 -7 3 -4 13 4 17 8 18 24 8 13 -8 15 -15 8 -23z m12 -44 c6 0 1 -13 -11 -30 -12 -16 -30 -30 -40 -30 -11 0 -24 -8 -29 -17 -8 -14 -10 -15 -11 -3 0 22 12 36 38 44 17 6 20 11 13 20 -13 16 -2 29 17 21 7 -3 18 -5 23 -5z" class=""></path>          <path d="M1125 1809 c-10 -15 3 -25 16 -12 7 7 7 13 1 17 -6 3 -14 1 -17 -5z" class=""></path> <path d="M1500 1637 c-6 -18 -16 -40 -21 -49 -13 -25 5 -23 40 3 20 15 27 27 23 44 -7 37 -29 38 -42 2z m30 -11 c0 -8 -7 -19 -15 -26 -12 -10 -15 -10 -15 3 0 25 11 47 21 41 5 -3 9 -11 9 -18z"></path> <path d="M1350 1615 c-11 -13 -8 -15 14 -15 16 0 26 -5 26 -15 0 -16 15 -20 24 -7 3 5 2 18 -1 30 -6 26 -44 30 -63 7z m43 -2 c-7 -2 -19 -2 -25 0 -7 3 -2 5 12 5 14 0 19 -2 13 -5z"></path> <path d="M1346 1541 c-4 -7 -5 -15 -2 -18 9 -9 19 4 14 18 -4 11 -6 11 -12 0z"></path>   <path d="M1465 860 c-10 -11 -16 -20 -14 -21 2 0 13 -2 24 -4 11 -1 29 -6 39 -10 16 -7 18 -5 13 9 -4 10 -7 19 -7 21 0 3 -8 9 -19 14 -14 8 -23 6 -36 -9z m46 -17 c13 -15 12 -15 -11 -3 -34 17 -36 20 -18 20 9 0 22 -7 29 -17z"></path> <path d="M1581 337 c-6 -8 -8 -16 -5 -20 10 -9 34 4 34 19 0 18 -14 18 -29 1z"></path> <path d="M1665 319 c-12 -19 5 -23 22 -6 16 16 16 17 1 17 -9 0 -20 -5 -23 -11z"></path>            </g> </svg>