<svg version="1.0" xmlns="http://www.w3.org/2000/svg" width="600.000000pt" height="450.000000pt" viewBox="0 0 600.000000 450.000000" preserveAspectRatio="xMidYMid meet" style="width: 2076.12px; height: auto;"> <g transform="translate(0.000000,450.000000) scale(0.100000,-0.100000)" fill="#000000" stroke="none"> <path d="M4396 4328 c5 -8 2 -9 -12 -4 -10 4 -15 4 -11 0 4 -4 1 -14 -6 -22 -9 -11 -5 -11 15 2 23 15 30 36 12 36 -3 0 -2 -5 2 -12z"></path> <path d="M4387 4273 c-14 -13 -7 -42 8 -37 8 4 15 15 15 25 0 19 -11 25 -23 12z"></path> <path d="M4327 3953 c5 -35 3 -39 -26 -50 -17 -6 -34 -20 -37 -30 -4 -10 -14 -26 -22 -35 -10 -12 -11 -18 -4 -18 7 0 12 -7 12 -15 0 -8 -6 -12 -14 -9 -21 8 -27 -22 -11 -53 21 -40 19 -52 -11 -50 -15 1 -29 -4 -31 -10 -3 -8 3 -13 14 -13 15 0 16 2 3 10 -8 5 -10 10 -4 10 6 0 18 -10 27 -22 11 -17 18 -20 27 -12 9 9 9 14 -1 19 -8 6 -10 4 -4 -5 6 -9 4 -11 -4 -5 -20 11 3 28 39 28 26 0 30 4 30 29 0 16 7 40 16 53 9 14 14 31 11 38 -3 7 1 21 9 32 14 19 19 100 8 129 -3 9 -12 16 -19 16 -9 0 -12 -11 -8 -37z m23 -29 c0 -25 -7 -58 -15 -73 -8 -16 -12 -31 -9 -34 3 -3 -2 -19 -10 -36 -9 -16 -16 -40 -16 -53 0 -17 -6 -23 -24 -24 -19 -1 -28 6 -37 30 -16 39 -17 51 -4 51 22 0 36 17 25 30 -17 20 18 72 53 79 27 6 29 9 25 45 -2 22 0 37 4 35 5 -3 8 -25 8 -50z"></path> <path d="M4180 3647 c0 -7 -8 -21 -19 -31 -16 -15 -19 -15 -31 -1 -10 12 -15 13 -21 4 -9 -16 0 -39 15 -39 7 0 28 8 47 18 34 17 47 51 21 60 -6 2 -12 -3 -12 -11z m10 -27 c0 -5 -5 -10 -11 -10 -5 0 -7 5 -4 10 3 6 8 10 11 10 2 0 4 -4 4 -10z"></path> <path d="M4085 3560 c-3 -6 1 -7 9 -4 18 7 21 14 7 14 -6 0 -13 -4 -16 -10z"></path> <path d="M4027 3435 c-9 -19 -12 -37 -7 -40 11 -7 23 12 16 24 -3 4 1 17 10 27 14 18 15 18 4 -3 -7 -16 -7 -23 0 -23 5 0 10 4 10 9 0 5 3 16 6 25 12 32 -23 15 -39 -19z"></path> <path d="M3940 3346 c0 -7 7 -19 15 -26 12 -10 16 -9 21 3 3 9 3 21 -1 27 -9 15 -35 12 -35 -4z m30 -6 c0 -5 -4 -10 -10 -10 -5 0 -10 5 -10 10 0 6 5 10 10 10 6 0 10 -4 10 -10z"></path> <path d="M1602 308 c-19 -19 -14 -30 10 -26 13 2 24 11 26 21 4 20 -18 23 -36 5z m28 -8 c0 -5 -8 -10 -17 -10 -15 0 -16 2 -3 10 19 12 20 12 20 0z"></path> <path d="M2095 241 c-3 -5 -1 -12 5 -16 12 -7 30 2 30 16 0 12 -27 12 -35 0z"></path>           </g> </svg>