<svg version="1.0" xmlns="http://www.w3.org/2000/svg" width="600.000000pt" height="450.000000pt" viewBox="0 0 600.000000 450.000000" preserveAspectRatio="xMidYMid meet" style="width: 1574.67px; height: auto;"> <g transform="translate(0.000000,450.000000) scale(0.100000,-0.100000)" fill="#000000" stroke="none"> <path d="M3451 4253 c-47 -24 -60 -38 -91 -96 -20 -37 -42 -93 -49 -125 -6 -31 -26 -87 -43 -124 -33 -70 -34 -71 -120 -83 -27 -4 -48 -10 -48 -14 0 -3 8 -19 19 -36 l18 -30 -34 -68 c-30 -59 -35 -81 -39 -165 -4 -77 -1 -110 14 -162 l19 -65 154 -112 c85 -62 182 -125 217 -139 l62 -27 43 30 c24 18 74 76 119 140 l78 110 35 162 c31 144 35 179 35 307 0 163 -29 330 -76 435 -24 53 -29 58 -72 69 -26 6 -78 14 -117 17 -63 5 -75 2 -124 -24z m185 6 c32 -5 67 -13 77 -16 28 -8 61 -93 92 -233 25 -112 27 -137 23 -279 -4 -130 -10 -180 -38 -300 -32 -142 -33 -144 -104 -246 -39 -56 -90 -117 -114 -135 l-44 -34 -64 32 c-36 18 -130 78 -210 135 -143 101 -145 103 -162 157 -12 40 -17 85 -15 161 1 101 3 108 38 172 35 64 36 66 20 97 -9 18 -15 34 -12 36 2 3 30 9 62 14 32 5 59 11 60 12 18 21 59 125 74 188 22 90 69 180 109 208 59 41 109 49 208 31z" class=""></path>     <path d="M3431 2587 c-6 -7 -55 -41 -108 -77 -53 -36 -101 -72 -106 -81 -8 -12 -4 -25 12 -48 12 -17 21 -39 19 -48 -6 -30 -103 -41 -160 -18 -14 6 -18 2 -18 -19 0 -24 3 -26 45 -26 53 0 99 -21 116 -51 l11 -21 24 23 c16 15 20 25 13 30 -7 4 0 13 17 23 17 10 49 51 74 94 24 42 61 96 82 118 33 36 36 43 23 54 -8 7 -15 21 -15 31 0 23 -14 31 -29 16z m5 -107 c-18 -19 -52 -67 -74 -106 -26 -46 -55 -81 -82 -99 -35 -24 -39 -30 -24 -35 13 -5 14 -9 5 -14 -8 -5 -20 0 -33 14 -26 27 -59 40 -109 40 -28 0 -39 4 -39 15 0 12 5 13 28 4 29 -11 113 -4 144 12 25 13 23 32 -8 69 -26 30 -26 31 -8 52 11 11 56 45 100 75 45 29 88 60 95 69 10 13 14 10 25 -23 13 -37 12 -39 -20 -73z" class=""></path>  <path d="M3512 1705 c-24 -50 -28 -90 -10 -101 15 -9 42 25 64 81 18 49 18 50 -11 59 -17 5 -25 -2 -43 -39z m58 19 c0 -2 -11 -29 -25 -59 -24 -55 -45 -66 -45 -24 0 30 42 98 57 92 7 -3 13 -7 13 -9z"></path>   <path d="M2820 972 c-33 -16 -35 -20 -36 -69 -1 -55 -16 -83 -43 -83 -10 0 -26 -6 -36 -14 -18 -13 -18 -14 4 -25 12 -7 38 -11 59 -9 32 3 40 8 60 48 13 25 32 54 43 66 22 23 24 61 5 87 -16 21 -13 21 -56 -1z m56 -28 c5 -18 1 -33 -15 -52 -12 -15 -27 -38 -33 -52 -27 -57 -68 -76 -108 -50 -12 7 -8 11 18 16 40 8 56 36 53 92 -2 33 2 47 16 57 30 24 62 18 69 -11z"></path>  <path d="M2202 347 c-17 -8 -22 -16 -18 -31 3 -12 -2 -30 -10 -40 -12 -17 -12 -22 3 -38 20 -23 69 -23 123 -2 34 14 40 20 34 38 -13 47 -92 91 -132 73z m85 -33 c42 -32 43 -59 2 -73 -75 -26 -130 -7 -102 35 8 13 12 28 8 34 -22 36 45 40 92 4z"></path>           </g> </svg>