<svg version="1.0" xmlns="http://www.w3.org/2000/svg" width="600.000000pt" height="450.000000pt" viewBox="0 0 600.000000 450.000000" preserveAspectRatio="xMidYMid meet" style="width: 1481.31px; height: auto;"> <g transform="translate(0.000000,450.000000) scale(0.100000,-0.100000)" fill="#000000" stroke="none"> <path d="M3394 4231 c-63 -45 -82 -67 -190 -222 -156 -226 -159 -233 -184 -347 -28 -129 -44 -160 -105 -199 -119 -76 -128 -86 -252 -272 -95 -145 -130 -208 -164 -295 -35 -91 -65 -143 -163 -285 -114 -167 -162 -260 -181 -351 -4 -19 -27 -80 -52 -135 -84 -185 -94 -279 -42 -393 23 -51 33 -91 41 -167 14 -146 5 -226 -37 -324 l-35 -82 22 -42 c11 -23 38 -62 59 -86 22 -24 39 -47 39 -51 0 -5 40 -56 89 -115 l90 -108 223 -87 c123 -48 289 -113 370 -144 l148 -58 91 -124 c78 -107 94 -124 118 -124 25 0 100 45 115 68 3 6 27 99 52 209 28 123 56 217 72 248 28 52 49 64 162 97 59 17 63 26 139 335 l63 251 -14 224 -15 223 59 388 c52 348 58 405 58 546 0 86 -7 209 -15 272 -9 63 -24 223 -35 356 -25 307 -35 352 -92 410 -24 24 -66 57 -94 73 -27 16 -64 49 -81 73 l-32 44 19 74 c11 41 20 82 20 91 0 12 -25 25 -93 47 -50 17 -94 31 -97 31 -3 0 -37 -22 -76 -49z m174 5 c45 -15 82 -30 82 -33 0 -2 -9 -41 -20 -85 l-21 -80 33 -48 c22 -33 52 -60 92 -82 79 -44 130 -110 144 -185 7 -32 21 -166 32 -298 11 -132 26 -291 35 -354 30 -226 22 -369 -44 -803 l-60 -388 15 -222 15 -223 -64 -260 c-36 -143 -70 -272 -75 -286 -9 -22 -23 -30 -79 -44 -100 -27 -122 -42 -150 -104 -13 -30 -44 -140 -68 -245 -44 -188 -45 -192 -84 -229 -68 -63 -81 -57 -185 87 l-89 123 -369 144 -370 144 -67 80 c-89 106 -181 227 -209 274 l-22 38 36 79 c31 67 37 93 41 169 7 135 -9 257 -46 335 -52 110 -42 202 41 380 25 52 48 111 52 130 17 91 63 181 178 348 98 142 127 193 164 288 35 91 72 156 168 303 114 174 128 191 181 222 74 44 123 85 140 120 8 15 24 71 36 126 12 54 29 112 38 130 9 17 72 112 140 210 108 154 133 184 190 225 36 26 71 45 76 44 6 -2 47 -15 93 -30z" class=""></path>              </g> </svg>