<svg version="1.0" xmlns="http://www.w3.org/2000/svg" width="600.000000pt" height="450.000000pt" viewBox="0 0 600.000000 450.000000" preserveAspectRatio="xMidYMid meet" style="width: 2021.54px; height: auto;"> <g transform="translate(0.000000,450.000000) scale(0.100000,-0.100000)" fill="#000000" stroke="none"> <path d="M1495 4237 c-17 -36 -31 -48 -95 -80 -41 -20 -105 -46 -141 -57 -36 -11 -86 -35 -111 -54 l-44 -34 -49 -212 c-33 -142 -46 -216 -39 -225 5 -8 86 -101 179 -208 l170 -194 265 -165 c242 -151 282 -173 460 -245 249 -102 286 -108 552 -93 186 11 195 11 248 -9 46 -18 67 -35 133 -110 66 -76 97 -101 200 -165 l122 -76 65 -241 65 -241 79 -55 79 -56 51 18 c28 10 92 35 141 54 l90 36 -1 109 -2 108 -71 104 c-80 115 -97 128 -336 251 l-110 56 -65 111 c-40 70 -105 212 -175 383 l-110 271 -151 164 c-133 144 -162 170 -245 219 -52 31 -323 195 -604 364 -280 169 -514 309 -520 311 -5 2 -19 -16 -30 -39z m1193 -672 c34 -21 107 -91 201 -193 l148 -160 104 -258 c63 -157 132 -307 175 -383 l70 -126 85 -44 c46 -23 130 -68 186 -99 101 -56 102 -57 173 -159 l71 -103 -3 -106 -3 -107 -129 -49 -129 -49 -76 52 -76 52 -65 241 -65 240 -126 81 c-103 66 -140 96 -206 170 -113 127 -128 132 -385 117 -262 -15 -294 -10 -540 90 -182 73 -218 92 -460 243 l-263 163 -160 183 c-88 101 -168 193 -178 206 -18 23 -18 27 27 226 l46 202 41 37 c23 21 60 43 83 48 53 14 182 68 223 95 18 11 40 36 49 56 l16 37 557 -336 c306 -184 580 -350 609 -367z" class=""></path>          <path d="M4186 1505 c-21 -22 -76 -81 -122 -131 l-84 -92 -48 -270 -48 -271 86 -233 c48 -127 93 -235 101 -239 8 -4 138 -17 289 -29 l275 -21 110 26 c133 32 148 45 202 170 l38 90 0 240 0 240 -54 153 -54 154 -89 86 c-85 83 -94 89 -186 121 -87 31 -112 35 -237 40 l-140 6 -39 -40z m399 -11 c109 -36 111 -37 196 -121 l87 -85 53 -157 54 -156 0 -230 0 -230 -35 -86 c-54 -132 -65 -142 -201 -173 l-114 -26 -278 24 c-152 12 -279 25 -280 27 -2 2 -41 107 -87 232 l-84 228 44 252 c24 139 47 263 52 276 5 13 58 77 120 142 l111 119 126 0 c118 0 133 -2 236 -36z" class=""></path>            </g> </svg>