<svg version="1.0" xmlns="http://www.w3.org/2000/svg" width="600.000000pt" height="450.000000pt" viewBox="0 0 600.000000 450.000000" preserveAspectRatio="xMidYMid meet" style="width: 2186.74px; height: auto;"> <g transform="translate(0.000000,450.000000) scale(0.100000,-0.100000)" fill="#000000" stroke="none"> <path d="M1855 3490 c-38 -10 -97 -29 -130 -41 -53 -19 -87 -23 -275 -28 l-215 -6 -73 -38 c-53 -27 -93 -40 -149 -47 -53 -7 -98 -21 -150 -46 -70 -35 -76 -36 -177 -35 -90 1 -115 5 -182 31 -120 46 -199 42 -282 -16 -10 -7 27 -104 58 -152 60 -92 83 -112 129 -112 42 0 61 -18 61 -58 0 -31 111 -127 169 -147 57 -19 86 -48 151 -152 41 -65 52 -75 120 -110 63 -32 76 -44 86 -73 6 -19 17 -51 24 -70 6 -19 22 -64 34 -100 20 -57 29 -69 72 -98 27 -17 75 -59 106 -92 49 -51 61 -59 85 -55 15 3 159 19 318 35 274 29 296 33 401 70 69 25 129 40 158 40 43 0 51 -4 107 -58 65 -62 127 -91 197 -92 78 0 82 5 80 128 -3 120 11 160 78 234 50 56 68 97 68 159 1 46 -4 62 -27 93 -25 32 -30 51 -39 139 -14 139 -24 167 -76 195 -40 22 -42 26 -42 68 0 44 -5 51 -125 189 -69 79 -142 157 -163 173 -111 87 -247 112 -397 72z m289 -20 c68 -26 130 -78 226 -190 41 -47 93 -107 116 -133 36 -40 43 -56 46 -95 3 -43 6 -48 43 -69 47 -26 63 -63 64 -146 1 -78 18 -141 54 -198 26 -42 28 -53 22 -98 -5 -35 -18 -66 -46 -103 -82 -112 -92 -129 -100 -171 -5 -23 -6 -75 -2 -114 8 -96 2 -103 -85 -96 -78 6 -133 33 -184 91 -18 22 -42 44 -53 49 -29 15 -115 0 -215 -38 -77 -29 -117 -36 -410 -69 l-325 -36 -65 65 c-36 36 -85 77 -107 90 -30 18 -44 33 -49 55 -3 17 -17 58 -29 91 -13 33 -29 79 -36 102 -11 39 -18 46 -86 81 -71 37 -79 45 -141 138 -65 95 -70 99 -132 125 -82 34 -170 112 -170 152 0 40 -32 68 -70 60 -37 -7 -56 9 -112 90 -30 44 -66 126 -68 154 0 0 16 11 37 23 51 30 134 26 238 -13 69 -25 95 -29 185 -30 101 -1 107 1 175 35 50 26 93 39 153 47 61 8 101 20 155 48 l72 38 215 6 c203 6 219 8 285 34 152 59 284 67 399 25z" class=""></path>        <path d="M3735 2020 c-204 -36 -444 -120 -487 -171 -47 -55 -69 -151 -52 -216 7 -25 94 -63 145 -63 44 0 79 -24 119 -83 32 -46 40 -52 70 -52 48 0 55 -6 116 -101 88 -137 150 -161 346 -135 92 12 171 -1 233 -39 17 -11 55 -25 84 -31 57 -12 91 -37 91 -68 0 -31 47 -61 94 -61 22 0 76 12 120 25 91 29 149 32 226 11 73 -21 118 -20 156 3 31 19 31 19 75 -6 43 -25 48 -25 179 -20 88 4 182 1 270 -8 144 -16 233 -19 243 -9 3 3 -1 20 -10 38 -14 29 -13 37 6 95 11 35 17 69 13 75 -4 7 -32 43 -62 80 -49 60 -67 73 -164 123 -108 54 -110 55 -175 49 -36 -4 -78 -9 -93 -12 -23 -5 -28 -1 -34 21 -5 19 -1 32 13 48 32 35 34 63 7 111 -46 81 -138 127 -284 141 -63 6 -124 27 -375 126 -179 70 -337 126 -392 139 -131 28 -275 26 -478 -10z m472 -1 c63 -14 207 -64 398 -140 265 -104 311 -119 394 -129 132 -15 219 -59 255 -128 22 -43 20 -69 -9 -104 -24 -28 -24 -31 -9 -60 14 -26 20 -29 47 -25 18 3 61 8 97 12 64 5 67 4 165 -47 88 -47 107 -62 162 -129 l63 -76 -21 -63 c-17 -49 -19 -67 -10 -86 6 -14 11 -27 11 -29 0 -14 -85 -14 -210 0 -105 11 -183 14 -280 9 -132 -6 -137 -6 -185 19 -50 25 -50 25 -85 6 -45 -23 -65 -23 -160 1 -85 22 -115 19 -240 -20 -71 -22 -121 -25 -149 -10 -10 5 -26 29 -35 53 -15 40 -21 46 -64 57 -26 7 -82 28 -126 48 -88 38 -129 42 -283 28 -153 -15 -197 7 -279 136 -64 101 -82 120 -105 108 -32 -18 -47 -11 -79 40 -38 59 -78 85 -141 93 -77 10 -118 35 -125 76 -8 43 9 112 41 167 23 40 30 43 182 99 280 103 575 138 780 94z" class=""></path>                 </g> </svg>