<svg version="1.0" xmlns="http://www.w3.org/2000/svg" width="600.000000pt" height="450.000000pt" viewBox="0 0 600.000000 450.000000" preserveAspectRatio="xMidYMid meet" style="width: 1955.37px; height: auto;"> <g transform="translate(0.000000,450.000000) scale(0.100000,-0.100000)" fill="#000000" stroke="none"> <path d="M3910 4200 l-455 -79 -512 -264 -513 -264 -415 -420 -415 -421 -24 -78 c-78 -247 -296 -981 -296 -994 0 -8 100 -227 223 -487 l222 -473 483 -250 483 -251 497 71 c279 40 502 76 508 83 10 10 118 192 488 820 l87 147 -12 63 c-24 134 14 292 91 372 26 26 86 130 174 298 l135 258 33 386 34 386 -53 376 -52 376 -113 212 c-72 137 -118 212 -128 212 -8 0 -220 -36 -470 -79z m590 -140 l111 -210 52 -372 51 -372 -33 -386 -32 -385 -131 -250 c-75 -143 -149 -272 -174 -300 -85 -100 -123 -248 -97 -374 l14 -67 -287 -485 -286 -486 -498 -71 -498 -71 -479 248 -478 248 -222 469 c-122 258 -222 475 -223 482 0 11 184 628 286 957 l34 110 417 423 418 422 508 261 507 260 403 69 c335 57 469 80 519 89 3 0 56 -94 118 -209z" class=""></path>                  </g> </svg>