<svg version="1.0" xmlns="http://www.w3.org/2000/svg" width="600.000000pt" height="450.000000pt" viewBox="0 0 600.000000 450.000000" preserveAspectRatio="xMidYMid meet" style="width: 1974.99px; height: auto;"> <g transform="translate(0.000000,450.000000) scale(0.100000,-0.100000)" fill="#000000" stroke="none"> <path d="M4029 4265 c-31 -17 -59 -71 -59 -115 0 -47 -16 -68 -56 -76 l-37 -7 7 -60 c7 -65 15 -77 59 -77 16 0 35 -10 48 -24 20 -23 59 -26 59 -4 0 5 -8 4 -19 -2 -16 -8 -21 -6 -26 10 -4 14 -18 22 -44 26 -54 9 -58 13 -66 71 -7 51 -6 51 23 58 42 9 58 32 65 95 9 78 38 105 112 102 66 -3 105 -16 105 -37 0 -9 -10 -19 -22 -24 -13 -5 -31 -18 -42 -30 -18 -20 -18 -21 0 -27 11 -3 30 -10 44 -16 l25 -11 -32 -13 c-30 -13 -33 -18 -33 -54 0 -57 -23 -106 -53 -114 -25 -6 -43 -49 -29 -71 4 -5 9 6 12 25 4 26 11 35 30 40 29 7 49 52 49 116 1 38 3 42 32 48 38 7 34 26 -9 46 -17 8 -32 18 -32 23 0 4 16 15 35 24 42 20 49 58 13 72 -47 17 -132 20 -159 6z" class=""></path> <path d="M2180 1138 c-19 -12 -53 -37 -74 -55 -21 -18 -62 -40 -90 -49 -58 -19 -141 -91 -151 -133 -4 -14 -18 -38 -33 -54 -19 -20 -28 -42 -33 -85 -6 -50 -2 -75 38 -207 25 -82 55 -162 66 -176 17 -23 18 -32 8 -59 -12 -37 1 -75 32 -94 14 -9 21 -6 36 13 18 23 19 23 30 5 11 -19 11 -19 27 1 8 11 20 39 27 63 11 42 11 42 58 42 39 0 51 5 68 26 11 14 33 29 48 33 22 6 28 13 26 34 -1 20 4 28 21 33 14 3 36 28 57 62 18 31 57 82 85 112 74 79 89 112 88 195 0 55 -6 82 -27 126 -31 65 -93 139 -141 168 -46 29 -120 28 -166 -1z m168 -13 c39 -26 101 -100 127 -152 52 -103 37 -221 -36 -290 -22 -21 -63 -72 -90 -115 -34 -51 -59 -78 -75 -82 -22 -6 -25 -11 -19 -36 6 -26 4 -30 -14 -30 -11 0 -35 -13 -54 -29 -24 -21 -46 -31 -77 -33 -43 -3 -45 -4 -57 -47 -17 -58 -30 -72 -47 -48 -18 23 -23 22 -30 -8 -8 -32 -32 -32 -49 1 -10 20 -11 35 -3 65 9 33 7 42 -11 67 -11 15 -41 93 -66 173 -53 170 -53 214 1 288 18 24 32 49 32 55 0 25 96 106 145 122 28 10 70 33 95 53 75 61 93 70 143 70 34 1 58 -6 85 -24z" class=""></path>               </g> </svg>