<svg version="1.0" xmlns="http://www.w3.org/2000/svg" width="600.000000pt" height="450.000000pt" viewBox="0 0 600.000000 450.000000" preserveAspectRatio="xMidYMid meet" style="width: 1738.34px; height: auto;"> <g transform="translate(0.000000,450.000000) scale(0.100000,-0.100000)" fill="#000000" stroke="none"> <path d="M5420 3900 c0 -5 5 -10 10 -10 6 0 10 5 10 10 0 6 -4 10 -10 10 -5 0 -10 -4 -10 -10z"></path> <path d="M5425 3670 c3 -5 8 -10 11 -10 2 0 4 5 4 10 0 6 -5 10 -11 10 -5 0 -7 -4 -4 -10z"></path> <path d="M5440 3630 c-8 -5 -10 -10 -5 -10 6 0 3 -4 -5 -10 -8 -5 -12 -11 -10 -14 3 -2 19 7 35 20 29 23 17 35 -15 14z"></path> <path d="M5541 3622 c-1 -13 -5 -21 -10 -18 -5 3 -11 -1 -15 -9 -8 -22 8 -26 26 -6 9 11 12 24 7 37 -7 17 -8 17 -8 -4z"></path> <path d="M5460 3610 c-12 -8 -12 -10 2 -15 19 -7 38 1 38 16 0 12 -21 11 -40 -1z"></path> <path d="M5185 3540 c-8 -13 3 -30 21 -30 18 0 18 14 0 29 -10 8 -16 9 -21 1z"></path> <path d="M5225 3491 c-3 -5 -2 -12 3 -15 5 -3 9 1 9 9 0 17 -3 19 -12 6z"></path> <path d="M5535 3479 c-11 -16 -1 -19 13 -3 7 8 8 14 3 14 -5 0 -13 -5 -16 -11z"></path> <path d="M5283 3455 c-23 -23 -31 -41 -13 -30 6 3 10 1 10 -6 0 -7 3 -9 7 -6 10 11 42 -23 36 -39 -3 -8 -1 -14 4 -14 22 0 10 42 -18 59 l-29 18 20 18 c17 16 20 16 15 3 -4 -11 1 -21 15 -28 19 -10 22 -18 17 -51 -4 -27 -1 -39 7 -39 10 0 11 13 4 57 -8 53 -18 82 -18 54 0 -7 -4 -10 -10 -6 -5 3 -7 12 -3 20 8 22 -19 16 -44 -10z"></path> <path d="M4085 3050 c-4 -6 -1 -9 7 -8 7 2 12 -3 10 -10 -2 -10 2 -10 18 -2 11 6 20 13 20 16 0 3 -5 2 -10 -1 -6 -4 -17 -2 -25 5 -9 8 -15 8 -20 0z"></path> <path d="M4145 3000 c3 -5 8 -10 11 -10 2 0 4 5 4 10 0 6 -5 10 -11 10 -5 0 -7 -4 -4 -10z"></path> <path d="M3785 2121 c-3 -5 -2 -12 3 -15 5 -3 9 1 9 9 0 17 -3 19 -12 6z"></path> <path d="M5756 2054 c-11 -28 -6 -39 9 -20 8 11 15 23 15 28 0 14 -18 9 -24 -8z"></path> <path d="M265 830 c-6 -10 26 -15 81 -11 45 3 52 -17 12 -34 -18 -8 -26 -14 -17 -15 21 0 66 36 57 45 -8 9 -76 24 -105 25 -12 0 -25 -4 -28 -10z"></path> <path d="M223 796 c4 -10 7 -22 7 -27 0 -5 12 -9 28 -8 32 1 76 17 52 19 -8 1 3 7 25 15 54 17 30 19 -28 1 -40 -12 -49 -12 -68 2 -21 14 -22 14 -16 -2z"></path> <path d="M335 651 c-3 -5 -2 -12 3 -15 5 -3 9 1 9 9 0 17 -3 19 -12 6z"></path> <path d="M377 613 c-10 -9 -9 -23 2 -23 5 0 11 7 15 15 5 15 -5 20 -17 8z"></path>           </g> </svg>