<svg version="1.0" xmlns="http://www.w3.org/2000/svg" width="600.000000pt" height="450.000000pt" viewBox="0 0 600.000000 450.000000" preserveAspectRatio="xMidYMid meet" style="width: 1682.51px; height: auto;"> <g transform="translate(0.000000,450.000000) scale(0.100000,-0.100000)" fill="#000000" stroke="none"> <path d="M2619 3620 c-82 -25 -193 -71 -328 -135 l-204 -98 -171 -21 -171 -22 -169 22 c-228 30 -270 23 -424 -70 -83 -50 -128 -86 -187 -148 -104 -110 -144 -192 -189 -385 l-35 -150 -228 -321 -228 -322 -33 -121 -33 -120 57 -108 57 -107 141 -33 141 -33 325 9 c401 11 553 -2 853 -72 168 -39 211 -53 347 -116 l155 -71 63 -102 c35 -56 83 -123 105 -150 39 -44 48 -49 136 -71 172 -43 580 -35 696 15 22 9 72 48 110 86 45 45 163 132 334 248 252 171 271 182 412 237 144 56 152 57 341 79 165 18 218 29 365 72 l171 51 158 126 c204 163 356 337 500 574 l96 158 -31 48 c-30 46 -35 49 -143 88 -62 23 -196 60 -298 82 -119 27 -261 69 -398 117 -192 67 -270 102 -799 364 -552 273 -596 293 -773 350 -183 58 -193 60 -347 70 -87 6 -179 11 -204 13 -31 3 -84 -8 -170 -33z m376 9 c158 -10 163 -11 360 -76 190 -62 229 -80 760 -345 516 -258 577 -286 782 -359 150 -52 288 -93 421 -123 172 -39 248 -62 366 -108 16 -6 41 -31 57 -56 l27 -43 -86 -144 c-58 -95 -131 -196 -217 -299 -113 -137 -148 -171 -286 -280 l-156 -125 -174 -50 c-147 -42 -203 -53 -361 -71 -181 -19 -191 -22 -335 -77 -142 -54 -158 -63 -413 -236 -175 -119 -290 -204 -340 -253 -44 -42 -92 -79 -115 -88 -68 -25 -188 -36 -393 -36 -179 0 -206 2 -291 25 -111 30 -123 41 -234 216 l-68 107 -167 75 c-145 65 -190 80 -348 116 -100 23 -256 50 -347 61 -149 17 -197 18 -493 9 l-327 -10 -139 32 -138 33 -55 103 -55 103 32 118 32 117 206 290 c113 160 217 305 230 324 15 22 35 84 56 175 48 208 89 288 200 398 119 115 249 195 349 212 64 11 92 10 241 -9 l169 -22 175 22 175 23 204 98 c226 108 382 162 476 163 33 1 132 -4 220 -10z" class=""></path>                        </g> </svg>