<svg version="1.0" xmlns="http://www.w3.org/2000/svg" width="600.000000pt" height="450.000000pt" viewBox="0 0 600.000000 450.000000" preserveAspectRatio="xMidYMid meet" style="width: 1742px; height: auto;"> <g transform="translate(0.000000,450.000000) scale(0.100000,-0.100000)" fill="#000000" stroke="none"> <path d="M2651 4266 c-9 -10 -8 -16 4 -26 13 -11 19 -11 32 2 16 17 10 38 -11 38 -8 0 -19 -6 -25 -14z m33 -11 c-4 -8 -10 -15 -15 -15 -5 0 -9 7 -9 15 0 8 7 15 15 15 9 0 12 -6 9 -15z"></path> <path d="M3525 2491 c-3 -5 -2 -12 3 -15 5 -3 9 1 9 9 0 17 -3 19 -12 6z"></path> <path d="M3578 2479 c-22 -23 -23 -39 -4 -39 8 0 17 -8 20 -17 6 -14 10 -12 26 12 11 17 20 26 20 21 0 -6 5 -5 12 2 8 8 8 15 -2 27 -17 20 -51 18 -72 -6z m67 1 c3 -5 0 -10 -8 -10 -8 0 -19 -10 -26 -22 -7 -14 -9 -15 -6 -5 4 15 1 17 -18 11 -22 -7 -22 -6 -3 15 20 22 51 28 61 11z"></path> <path d="M3225 2370 c-4 -6 -3 -16 3 -22 6 -6 12 -6 17 2 4 6 3 16 -3 22 -6 6 -12 6 -17 -2z"></path> <path d="M3434 1874 c3 -9 6 -18 6 -20 0 -2 7 -4 15 -4 13 0 13 3 3 20 -15 24 -33 27 -24 4z"></path> <path d="M3432 1805 c-13 -14 -19 -32 -16 -42 5 -14 4 -15 -4 -4 -6 8 -12 9 -16 3 -7 -11 18 -24 28 -15 3 4 6 15 6 25 0 10 7 18 15 18 8 0 15 9 15 20 0 25 -2 25 -28 -5z"></path> <path d="M2980 1796 c0 -14 5 -28 11 -32 17 -10 32 12 24 35 -9 29 -35 27 -35 -3z m30 -12 c0 -8 -4 -14 -10 -14 -5 0 -10 9 -10 21 0 11 5 17 10 14 6 -3 10 -13 10 -21z"></path> <path d="M2847 999 c-9 -6 -17 -18 -17 -29 0 -19 43 -60 63 -60 6 0 21 -10 33 -21 27 -25 54 -19 54 11 0 11 7 23 15 26 8 4 15 15 15 25 0 23 -38 26 -46 4 -8 -20 -16 -19 -42 4 -14 11 -31 16 -47 13 -34 -6 -32 -14 3 -10 20 2 26 -1 24 -13 -3 -21 47 -21 72 0 27 22 32 3 6 -24 -13 -14 -20 -25 -15 -25 5 0 4 -5 -2 -11 -7 -7 -18 -3 -36 15 -14 14 -35 26 -45 26 -11 0 -25 7 -32 15 -10 13 -9 19 5 35 21 23 17 33 -8 19z"></path> <path d="M3060 835 c-12 -19 -19 -39 -15 -45 11 -19 22 -10 18 14 -3 13 1 27 8 31 9 6 11 -2 6 -33 -3 -23 -1 -42 4 -42 5 0 9 25 9 55 0 30 -2 55 -4 55 -2 0 -14 -16 -26 -35z"></path>            </g> </svg>