<svg version="1.0" xmlns="http://www.w3.org/2000/svg" width="600.000000pt" height="450.000000pt" viewBox="0 0 600.000000 450.000000" preserveAspectRatio="xMidYMid meet" style="width: 1814.79px; height: auto;"> <g transform="translate(0.000000,450.000000) scale(0.100000,-0.100000)" fill="#000000" stroke="none"> <path d="M2003 4033 c-56 -136 -211 -510 -343 -831 l-241 -583 -69 -737 c-53 -568 -66 -740 -57 -748 7 -6 254 -215 550 -463 l538 -451 1170 0 1170 0 -6 127 c-4 71 -35 942 -70 1937 -35 994 -65 1809 -67 1811 -2 1 -532 41 -1178 89 -646 48 -1202 90 -1235 93 l-60 5 -102 -249z m962 172 c402 -30 926 -69 1165 -86 239 -18 436 -33 437 -34 2 -1 32 -827 67 -1836 36 -1009 67 -1876 70 -1927 l4 -92 -1161 0 -1162 0 -545 458 c-538 452 -545 459 -542 493 1 19 31 350 67 736 l65 701 342 826 341 826 61 -5 c34 -3 390 -30 791 -60z" class=""></path>             </g> </svg>