<svg version="1.0" xmlns="http://www.w3.org/2000/svg" width="600.000000pt" height="367.000000pt" viewBox="0 0 600.000000 367.000000" preserveAspectRatio="xMidYMid meet" style="width: 2099.82px; height: auto;">
<style>
  /* Property SVG: light #a1a1aa, dark #52525b (match vehicle SVGs) */
  g { fill: #a1a1aa; }
  @media (prefers-color-scheme: dark) { g { fill: #52525b; } }
</style>
<g transform="translate(0.000000,367.000000) scale(0.100000,-0.100000)" stroke-width="1">   <path d="M3640 3240 c-36 -9 -132 -36 -215 -59 -251 -70 -943 -258 -1240 -336 -518 -136 -860 -225 -891 -231 -35 -7 -44 -29 -44 -108 l0 -42 113 -71 c61 -39 162 -101 222 -138 61 -37 126 -78 147 -92 l36 -24 1 -484 c2 -457 1 -484 -16 -488 -67 -19 -415 -78 -427 -74 -9 4 -16 11 -16 17 0 6 3 9 8 7 4 -3 7 18 7 47 1 58 32 124 56 117 8 -2 28 -5 44 -7 21 -3 26 -1 15 5 -8 6 -18 7 -22 5 -4 -3 -15 -1 -25 4 -14 8 -6 15 46 41 34 18 67 28 74 24 9 -5 8 -2 -1 9 -10 13 -10 17 4 22 27 10 38 7 26 -7 -8 -10 -5 -13 16 -15 20 -2 23 1 14 10 -20 20 -13 28 15 17 18 -7 30 -6 37 1 6 7 7 10 1 8 -5 -2 -11 2 -12 7 -3 9 2 11 36 14 16 1 5 16 -11 16 -6 0 -13 5 -15 12 -3 9 8 11 38 7 40 -5 41 -4 35 18 -3 13 -6 26 -6 29 0 4 -14 9 -32 13 -30 6 -30 7 -14 25 10 11 16 28 13 38 -4 15 -5 15 -6 -3 0 -12 -8 -24 -16 -28 -8 -3 -15 -14 -15 -25 0 -24 -19 -31 -45 -17 -24 13 -35 27 -29 38 2 4 -5 12 -17 18 -20 11 -20 12 -3 25 12 9 26 10 41 4 14 -5 23 -5 23 1 0 13 -34 21 -66 16 -34 -6 -55 5 -28 15 18 7 17 8 -3 8 -24 1 -44 -20 -25 -27 12 -4 17 -32 6 -32 -3 0 -14 5 -25 10 -13 7 -19 7 -19 0 0 -5 6 -10 14 -10 9 0 12 -7 9 -20 -3 -11 -12 -20 -20 -20 -11 0 -14 16 -12 78 2 87 9 102 50 102 16 0 29 5 29 10 0 13 -47 13 -55 0 -4 -6 -16 -8 -27 -4 -20 6 -21 3 -15 -37 4 -32 3 -39 -4 -26 -12 21 -29 22 -29 1 0 -8 4 -12 10 -9 12 8 24 -41 21 -92 -1 -28 -21 -31 -21 -4 0 21 -13 35 -23 24 -4 -3 0 -18 9 -34 12 -25 12 -29 0 -29 -7 0 -16 9 -19 20 -3 11 -12 20 -21 20 -9 0 -16 8 -16 18 0 14 2 15 10 2 9 -14 14 -7 11 13 -1 5 3 6 8 3 5 -3 20 -2 33 3 21 9 19 10 -14 10 -20 1 -49 -4 -63 -11 -21 -9 -28 -9 -34 1 -6 10 -12 9 -24 -4 -9 -9 -21 -13 -27 -10 -5 3 -10 2 -10 -3 0 -5 -7 -9 -15 -9 -18 0 -19 9 -3 25 9 9 9 12 0 12 -6 0 -9 7 -6 15 7 17 -14 40 -36 40 -8 0 -14 6 -13 12 3 13 -66 47 -75 38 -3 -3 9 -11 26 -17 18 -7 32 -18 32 -25 0 -17 -8 -16 -26 2 -9 8 -27 15 -41 15 -15 0 -23 3 -20 7 4 3 -1 12 -10 18 -15 11 -16 15 -3 31 14 17 14 18 -2 5 -10 -7 -25 -11 -33 -7 -24 9 -17 -8 7 -19 13 -6 24 -18 26 -29 3 -13 0 -16 -9 -11 -8 5 -10 4 -5 -4 4 -6 16 -9 27 -6 12 4 29 -2 46 -15 18 -14 30 -17 37 -10 16 16 30 12 15 -6 -7 -9 -22 -14 -35 -11 -20 3 -22 1 -13 -14 5 -11 12 -19 15 -19 3 0 2 5 -2 11 -4 8 0 9 15 4 15 -4 21 -3 19 7 -2 7 7 14 19 16 32 5 30 -24 -2 -32 -14 -4 -25 -10 -25 -15 0 -14 -55 3 -56 17 -1 7 -3 14 -4 17 -1 3 -3 8 -4 13 -5 28 -36 38 -36 11 0 -6 5 -7 10 -4 9 5 15 -15 11 -37 0 -5 3 -8 9 -8 12 0 9 -22 -5 -32 -5 -4 -2 -10 8 -14 9 -3 17 -10 17 -15 0 -6 -9 -5 -21 1 -12 7 -18 18 -15 26 5 14 -31 40 -41 30 -4 -3 -12 -1 -20 6 -16 13 -28 5 -18 -12 4 -7 16 -10 26 -7 12 3 19 0 19 -8 0 -8 14 -24 31 -36 35 -24 23 -44 -18 -28 -18 6 -27 4 -43 -13 -21 -23 -18 -38 8 -39 11 0 12 -2 4 -6 -13 -5 -7 -23 8 -23 13 0 5 33 -9 38 -9 3 -9 7 0 18 14 17 49 18 49 2 0 -10 3 -9 9 1 10 16 16 7 26 -39 4 -19 16 -44 26 -56 19 -20 18 -20 -14 -21 -25 -1 -35 5 -43 22 -10 20 -8 24 10 29 21 5 21 5 1 20 -26 20 -36 20 -29 1 4 -8 0 -22 -7 -31 -11 -13 -10 -17 4 -25 23 -13 21 -32 -3 -54 -19 -18 -20 -17 -21 6 l0 24 -10 -25 c-9 -23 -11 -23 -20 -7 -6 9 -21 17 -34 17 -14 0 -29 8 -35 20 -6 11 -15 20 -21 20 -5 0 -2 -11 8 -25 10 -13 28 -25 39 -25 12 0 24 -6 27 -13 13 -33 141 -3 130 31 -7 20 8 14 29 -13 11 -14 30 -25 44 -25 24 0 87 -34 116 -64 9 -8 19 -39 23 -68 4 -29 14 -63 22 -75 14 -21 14 -23 -1 -23 -9 0 -16 8 -16 18 0 9 -4 23 -9 31 -7 10 -9 4 -8 -19 l2 -34 -90 -18 c-68 -14 -102 -17 -138 -10 -26 5 -50 5 -53 1 -3 -5 12 -9 33 -10 41 -1 -174 -43 -692 -134 -176 -32 -322 -59 -324 -61 -2 -2 -2 -6 0 -8 6 -5 1314 230 1668 299 111 22 107 24 102 -42 l-3 -56 318 6 c174 4 380 7 456 7 104 0 138 3 138 13 0 6 25 40 56 75 l56 62 99 0 99 0 0 -64 c0 -90 10 -96 161 -96 110 0 117 1 122 21 l6 21 628 -6 c760 -8 974 -13 1033 -26 25 -5 82 -9 128 -10 81 0 82 0 82 25 0 21 4 24 28 20 56 -10 797 -115 811 -115 8 0 12 2 9 5 -6 7 -88 19 -518 80 -179 26 -326 47 -326 48 -2 3 -14 619 -14 710 l0 77 -40 0 -40 0 0 80 0 80 -197 1 c-109 1 -223 3 -253 3 -30 1 -84 3 -120 4 l-65 2 -3 154 -4 153 45 26 c24 15 102 67 173 117 71 49 134 90 141 90 11 0 24 146 14 156 -2 2 -280 4 -617 4 l-612 0 67 153 c37 83 75 168 84 187 9 19 17 63 19 98 3 71 7 70 -92 42z m80 -54 c0 -54 0 -54 -37 -64 -21 -5 -270 -73 -553 -150 -762 -208 -1092 -296 -1525 -407 -99 -26 -211 -55 -250 -66 -38 -10 -73 -19 -77 -19 -14 0 -9 110 5 114 6 3 181 48 387 101 520 134 1062 279 1755 470 246 67 263 72 283 74 8 1 12 -16 12 -53z m-22 -85 c-1 -4 -36 -83 -77 -175 l-74 -166 -128 0 -129 0 0 69 0 70 -57 -19 c-32 -10 -88 -26 -125 -35 -71 -19 -108 -44 -108 -73 0 -14 -14 -22 -52 -31 -108 -27 -224 -61 -239 -70 -14 -8 -18 -4 -24 26 -5 27 -10 34 -23 30 -16 -5 -157 -43 -507 -139 -82 -22 -205 -55 -272 -73 l-122 -32 2 -156 c1 -87 0 -157 -2 -157 -2 0 -42 24 -90 54 -47 30 -155 97 -240 150 -85 53 -148 96 -140 96 8 0 133 31 279 70 146 38 396 104 555 145 327 86 584 155 955 257 140 39 269 74 285 78 46 12 257 71 285 80 34 11 52 12 48 1z m-423 -233 c-7 -22 -14 -563 -15 -1198 l0 -615 -32 2 c-18 1 -71 2 -118 2 l-85 1 -4 239 c-3 238 -3 240 18 234 12 -3 21 -1 21 6 0 6 -9 11 -20 11 -20 0 -20 7 -20 593 0 325 3 608 6 629 l6 36 122 35 c66 19 122 35 123 36 1 1 0 -5 -2 -11z m1505 -195 l0 -66 -362 7 c-200 3 -509 7 -688 7 -179 1 -351 4 -382 6 l-58 5 0 57 0 56 745 -3 745 -2 0 -67z m-1780 43 c0 -15 -7 -27 -17 -30 -10 -3 -66 -19 -125 -36 -59 -17 -114 -33 -122 -36 -9 -3 -15 4 -18 20 -5 23 -1 27 31 36 20 5 81 23 136 39 55 16 103 29 108 30 4 0 7 -10 7 -23z m-340 -824 c0 -447 0 -816 0 -822 0 -7 -151 -10 -434 -10 l-435 0 -1 338 c0 185 -2 350 -4 366 -2 16 -5 180 -7 365 l-4 335 150 42 c83 23 263 72 400 109 138 36 268 72 290 79 22 6 41 11 43 11 1 -1 2 -367 2 -813z m40 340 l0 -413 32 -39 c19 -23 38 -36 46 -32 11 4 6 13 -19 33 -19 16 -28 29 -21 29 6 0 12 -5 12 -11 0 -6 7 -9 15 -6 8 4 17 2 20 -3 3 -5 11 -8 18 -6 7 1 9 1 5 -1 -14 -8 -8 -33 8 -33 8 0 12 5 9 10 -4 6 -3 10 2 9 32 -6 13 24 -23 35 -10 3 -4 4 13 2 18 -1 34 2 36 8 2 6 4 -4 5 -21 0 -18 -4 -33 -9 -33 -6 0 -8 -4 -4 -9 3 -5 -5 -12 -17 -14 -13 -2 -6 -5 17 -5 26 -1 35 1 26 7 -9 6 -5 9 14 9 17 0 22 -3 15 -8 -7 -5 11 -8 41 -8 31 -1 57 4 61 11 5 8 8 5 8 -9 0 -20 -4 -20 -97 -16 -66 2 -101 8 -109 17 -7 10 -14 11 -25 4 -11 -8 -11 -12 -1 -16 6 -2 12 -20 12 -38 0 -19 5 -37 10 -40 6 -3 10 -14 9 -23 0 -14 -2 -13 -9 3 -5 12 -9 -65 -10 -195 l-1 -215 -53 -56 -53 -57 -7 462 c-4 253 -6 609 -6 790 1 286 3 326 15 310 12 -16 14 -91 15 -432z m298 436 c-3 -7 -62 -29 -131 -48 -120 -33 -127 -36 -133 -63 -3 -16 -4 -170 -3 -343 l4 -314 128 0 c78 0 127 -4 127 -10 0 -13 -240 -13 -260 0 -13 8 -15 59 -15 357 l0 348 135 41 c156 49 153 48 148 32z m-3 -38 c3 -5 2 -10 -4 -10 -5 0 -13 5 -16 10 -3 6 -2 10 4 10 5 0 13 -4 16 -10z m9 -36 c9 -24 7 -31 -4 -14 -7 10 -10 -16 -10 -82 l0 -98 -115 0 -115 0 0 74 0 73 113 30 c61 17 115 31 118 32 4 0 10 -6 13 -15z m1724 1 c1 -1 -28 -22 -65 -47 -38 -26 -105 -72 -151 -103 -45 -32 -85 -55 -89 -52 -12 13 8 58 25 56 31 -3 38 1 38 20 0 11 -4 17 -8 15 -4 -3 -8 -13 -8 -22 0 -10 -3 -13 -8 -7 -9 13 -44 16 -36 4 3 -6 -173 -9 -433 -9 -241 0 -446 0 -456 0 -11 0 -28 -22 -49 -65 l-33 -66 -65 7 c-36 3 -75 5 -88 5 l-23 -1 2 141 3 141 720 -7 c397 -4 722 -8 724 -10z m-1721 -603 c-1 -97 -2 -15 -2 183 0 198 1 278 2 177 2 -101 2 -263 0 -360z m1196 438 l207 0 0 -265 0 -265 -25 0 -25 0 0 245 0 245 -297 0 c-164 0 -349 3 -410 7 -104 6 -113 8 -113 26 0 19 6 19 228 13 125 -3 320 -6 435 -6z m-673 -23 c0 -25 -70 -141 -70 -117 -1 13 61 140 68 140 1 0 2 -10 2 -23z m-540 -27 c0 -6 -45 -10 -115 -10 -70 0 -115 4 -115 10 0 6 45 10 115 10 70 0 115 -4 115 -10z m598 -7 c-10 -2 -26 -2 -35 0 -10 3 -2 5 17 5 19 0 27 -2 18 -5z m387 0 c-11 -3 -23 -10 -27 -17 -5 -7 -8 -5 -8 7 0 12 7 17 28 16 21 -1 22 -2 7 -6z m-1228 -50 c-3 -10 -5 -4 -5 12 0 17 2 24 5 18 2 -7 2 -21 0 -30z m243 -80 c0 -92 -2 -104 -16 -99 -9 3 -60 6 -115 6 l-99 0 0 103 0 102 115 -3 115 -3 0 -106z m557 70 c-3 -10 -5 -2 -5 17 0 19 2 27 5 18 2 -10 2 -26 0 -35z m153 -178 l0 -225 -70 1 -71 1 1 224 1 224 70 0 69 0 0 -225z m222 0 l-3 -225 -89 0 -90 0 0 225 0 225 93 0 92 0 -3 -225z m198 0 l0 -225 26 0 25 0 -3 225 -4 225 95 -1 c53 -1 88 -3 79 -6 -10 -2 -18 -10 -18 -16 -1 -7 0 -108 0 -224 l1 -213 -83 0 c-46 0 -127 3 -180 7 l-98 6 0 224 0 223 80 0 80 0 0 -225z m27 203 c-3 -8 -6 -5 -6 6 -1 11 2 17 5 13 3 -3 4 -12 1 -19z m-620 -425 c-2 -2 -18 0 -35 3 l-32 7 0 163 0 164 33 49 32 49 3 -215 c1 -119 1 -218 -1 -220z m810 405 c-3 -8 -6 -5 -6 6 -1 11 2 17 5 13 3 -3 4 -12 1 -19z m-620 -10 c-3 -8 -6 -5 -6 6 -1 11 2 17 5 13 3 -3 4 -12 1 -19z m230 -10 c-3 -7 -5 -2 -5 12 0 14 2 19 5 13 2 -7 2 -19 0 -25z m-499 -5 c-3 -14 -13 -18 -48 -16 -25 1 -62 2 -82 2 -27 1 -38 5 -38 16 0 12 16 15 86 15 76 0 85 -2 82 -17z m-701 -35 c-3 -7 -5 -2 -5 12 0 14 2 19 5 13 2 -7 2 -19 0 -25z m800 0 c-3 -7 -5 -2 -5 12 0 14 2 19 5 13 2 -7 2 -19 0 -25z m600 10 c-3 -8 -6 -5 -6 6 -1 11 2 17 5 13 3 -3 4 -12 1 -19z m-717 -180 l0 -168 -75 0 -75 0 0 170 0 169 75 -2 75 -2 0 -167z m917 117 c1 -25 -3 -45 -8 -45 -10 0 -13 73 -2 83 3 4 7 7 7 7 1 0 2 -20 3 -45z m-630 -42 c-2 -16 -4 -5 -4 22 0 28 2 40 4 28 2 -13 2 -35 0 -50z m632 -65 c1 -56 -7 -61 -13 -8 -3 30 1 60 9 60 1 0 3 -23 4 -52z m-1360 26 c2 -2 -48 -4 -112 -4 -64 0 -117 4 -117 9 0 9 220 4 229 -5z m-41 -29 l42 -6 0 -90 0 -90 -109 2 -109 1 -4 67 c-5 103 -3 109 40 113 20 2 51 4 67 6 17 1 49 0 73 -3z m769 -17 c-3 -8 -6 -5 -6 6 -1 11 2 17 5 13 3 -3 4 -12 1 -19z m901 -112 l3 -66 -101 0 -101 0 2 63 c1 34 3 64 4 67 2 3 45 4 97 3 l93 -1 3 -66z m222 35 c0 -27 -5 -31 -52 -45 -29 -9 -74 -22 -100 -30 l-48 -15 0 59 0 60 100 0 100 0 0 -29z m110 3 c-92 -29 -90 -29 -90 1 0 25 1 25 83 24 l82 -1 -75 -24z m92 -50 c1 -31 1 -58 -1 -60 -2 -2 -31 -4 -63 -4 l-58 0 2 45 c3 44 4 45 48 59 68 21 68 21 72 -40z m-892 17 c0 -6 -4 -13 -10 -16 -5 -3 -10 1 -10 9 0 9 5 16 10 16 6 0 10 -4 10 -9z m760 -41 c0 -36 -2 -40 -25 -38 -21 2 -25 7 -25 34 0 18 6 35 13 37 30 13 37 6 37 -33z m-562 -5 c-3 -28 -11 -24 -13 5 -1 11 2 20 7 20 4 0 7 -11 6 -25z m492 -3 c0 -26 -3 -28 -30 -24 -34 5 -43 37 -12 45 36 10 42 7 42 -21z m-70 -7 c0 -11 -12 -15 -44 -15 -24 0 -53 -3 -63 -7 -10 -3 -15 -2 -10 3 8 8 76 30 105 33 6 0 12 -6 12 -14z m-1130 -19 c173 -4 450 -8 615 -11 557 -9 859 -16 862 -18 1 -2 5 -185 9 -408 l7 -405 -76 -2 -77 -3 -2 351 -3 350 -430 5 c-236 3 -502 7 -590 10 -88 3 -276 5 -417 6 l-258 0 0 70 c0 67 1 69 23 65 12 -3 164 -7 337 -10z m-650 -46 c0 -19 -7 -20 -135 -20 -128 0 -135 1 -135 20 0 19 7 20 135 20 128 0 135 -1 135 -20z m-40 -58 c0 -14 -44 -36 -48 -23 -2 6 -11 12 -20 12 -9 1 -3 5 13 9 42 11 55 11 55 2z m40 -12 c0 -13 -5 -18 -15 -14 -16 7 -19 17 -8 27 12 13 23 7 23 -13z m593 -27 c70 -3 127 -10 127 -15 0 -5 -97 -8 -215 -7 -178 1 -215 3 -215 15 0 16 89 18 303 7z m357 -96 l0 -94 -110 1 -110 1 0 93 0 92 110 0 110 0 0 -93z m220 -73 l0 -166 -97 5 -98 4 -2 39 c-2 22 -4 94 -5 162 l-3 122 103 0 102 0 0 -166z m201 160 l44 -6 0 -89 0 -89 -117 0 -118 0 0 95 0 95 74 0 c40 0 93 -3 117 -6z m564 -14 c-22 -5 -44 -9 -50 -10 -36 -8 -455 2 -455 10 0 6 97 10 273 9 166 -1 256 -4 232 -9z m-1472 -20 c4 0 7 -96 7 -214 l0 -215 -87 -3 -88 -3 2 190 c1 105 2 205 3 223 l0 34 78 -6 c42 -3 80 -5 85 -6z m185 -216 l4 -214 -79 0 -78 0 -2 218 -3 217 78 -3 77 -3 3 -215z m70 -9 c3 -170 1 -235 -7 -235 -18 0 -19 11 -26 248 -6 210 -5 222 12 222 17 0 18 -16 21 -235z m1250 -96 c3 -294 2 -331 -11 -326 -9 3 -31 9 -49 12 l-33 6 0 312 0 311 25 7 c14 4 34 7 45 8 20 1 20 -6 23 -330z m-2151 284 c-3 -10 -5 -4 -5 12 0 17 2 24 5 18 2 -7 2 -21 0 -30z m2041 -196 c2 -186 0 -227 -11 -227 -11 0 -14 44 -16 231 -2 186 0 230 11 227 10 -4 14 -56 16 -231z m-1858 -8 l0 -232 -46 7 c-26 3 -64 6 -85 6 l-39 0 0 225 0 225 85 0 85 0 0 -231z m17 -206 c-1 -82 -3 -15 -3 147 0 162 2 229 3 148 2 -82 2 -214 0 -295z m650 400 c-3 -10 -5 -4 -5 12 0 17 2 24 5 18 2 -7 2 -21 0 -30z m951 -178 l4 -215 -86 0 -86 0 0 215 0 215 83 0 82 0 3 -215z m189 0 l3 -215 -80 0 -80 0 -1 153 c0 83 -3 180 -5 215 l-5 62 83 0 83 0 2 -215z m-3633 91 c-4 -18 -1 -25 15 -29 12 -3 21 -1 21 4 0 5 11 7 24 3 13 -3 27 -1 30 5 4 6 16 11 28 11 17 0 19 -4 14 -33 -6 -30 -3 -34 26 -46 30 -12 31 -13 13 -22 -15 -7 -10 -8 18 -4 42 7 42 7 23 -55 -15 -51 -41 -64 -55 -28 -6 13 -10 17 -10 11 -1 -7 -5 -13 -10 -13 -10 0 -8 57 3 67 3 3 6 1 6 -5 0 -6 10 -16 22 -23 17 -9 20 -9 15 4 -3 9 0 14 10 13 9 0 18 5 21 13 5 14 3 14 -45 -6 -7 -3 -16 3 -20 13 -7 19 -32 43 -44 44 -17 1 -19 -35 -3 -47 13 -10 15 -16 7 -24 -8 -8 -16 -3 -27 20 -13 24 -13 31 -4 32 8 0 8 3 -2 6 -32 11 -90 56 -90 70 0 10 -6 12 -20 8 -11 -3 -20 -4 -20 -1 0 4 48 34 58 36 1 0 0 -11 -4 -24z m348 12 c-9 -9 -8 -16 5 -30 13 -15 14 -18 2 -18 -8 0 -20 5 -27 12 -14 14 -15 12 -3 -30 9 -31 8 -33 -19 -38 -27 -6 -28 -8 -18 -37 10 -28 8 -33 -21 -59 -18 -16 -30 -32 -27 -35 3 -4 20 6 36 22 17 16 30 25 30 19 0 -5 8 3 18 19 10 15 22 24 25 21 4 -4 2 -13 -4 -20 -8 -10 -6 -11 15 -1 28 13 34 27 12 27 -8 0 -16 6 -19 14 -5 12 -1 13 24 4 45 -15 36 -37 -29 -66 -23 -10 -39 -22 -35 -26 4 -4 -1 -4 -11 0 -13 5 -17 4 -12 -4 3 -6 1 -14 -5 -18 -8 -4 -9 -3 -5 4 12 20 -6 14 -32 -10 -14 -13 -22 -17 -18 -10 4 6 2 12 -3 12 -6 0 -11 -5 -11 -11 0 -18 -68 -80 -75 -69 -3 5 -7 28 -8 50 -1 35 -4 39 -22 35 -11 -3 -14 -2 -7 1 6 3 12 10 12 15 0 6 -7 6 -17 1 -10 -5 -24 -7 -32 -4 -10 3 -11 0 -3 -14 6 -10 18 -19 28 -19 13 0 22 -16 35 -57 9 -31 13 -61 9 -68 -5 -8 -10 -3 -14 14 -3 14 -16 36 -29 49 -24 27 -106 71 -114 63 -9 -9 -44 15 -40 27 2 7 0 20 -5 31 -7 13 -7 16 1 12 6 -4 11 0 11 9 0 13 6 15 33 10 17 -4 38 -13 46 -21 13 -11 9 -12 -22 -3 -39 10 -57 6 -57 -14 0 -9 2 -9 8 0 8 13 62 6 62 -8 0 -5 -13 -9 -29 -9 -17 0 -32 -3 -35 -8 -2 -4 14 -6 36 -4 26 3 44 0 50 -9 8 -11 9 -10 5 3 -6 17 11 28 44 28 10 0 19 5 19 11 0 5 -5 7 -11 3 -8 -5 -8 -1 0 14 18 34 31 36 25 4 -5 -23 -1 -30 20 -40 24 -10 37 -42 18 -42 -4 0 -8 -9 -8 -21 0 -18 2 -18 12 -5 6 9 14 13 17 9 4 -3 7 6 7 21 0 15 4 25 9 21 5 -3 13 5 17 17 4 13 15 29 26 36 10 7 15 18 11 25 -4 7 -9 4 -14 -9 -7 -17 -8 -17 -8 4 -1 12 4 22 10 22 5 0 8 4 5 8 -3 5 1 20 9 35 9 18 10 27 3 27 -6 0 -8 3 -5 7 4 3 16 -2 26 -11 20 -18 41 -15 41 6 0 5 -7 8 -15 4 -18 -7 -20 5 -3 22 7 7 9 12 4 12 -4 0 6 11 21 25 29 25 46 34 25 13z m1388 -358 c53 0 90 -4 90 -10 0 -6 -38 -10 -94 -10 l-94 0 1 188 1 187 3 -177 3 -178 90 0z m-1760 311 c0 -8 -7 -11 -20 -8 -11 3 -20 2 -20 -3 0 -12 37 -19 48 -8 13 13 78 -45 91 -83 7 -22 7 -28 -1 -23 -8 5 -9 2 -5 -9 7 -20 3 -21 -24 -7 -26 14 -24 30 4 31 12 0 16 3 9 6 -6 2 -10 9 -6 14 10 17 -16 9 -37 -12 -13 -13 -27 -18 -37 -14 -28 12 -47 11 -45 -2 2 -7 -4 -10 -12 -7 -8 4 -15 7 -15 8 0 0 -4 16 -9 34 -6 20 -6 32 0 32 5 0 9 -8 9 -18 0 -11 8 -18 23 -19 19 -2 20 0 6 10 -27 20 -40 52 -27 65 9 9 9 12 0 12 -7 0 -12 4 -12 9 0 5 18 8 40 7 26 -1 40 -6 40 -15z m2810 -126 l0 -135 -115 0 -115 0 0 135 0 135 115 0 115 0 0 -135z m460 -2 l0 -138 -112 3 c-62 2 -114 5 -115 5 0 1 -4 62 -8 135 l-7 132 121 0 121 0 0 -137z m-3072 106 c10 -15 20 -19 38 -15 16 4 24 2 24 -7 0 -16 -45 -16 -62 1 -6 6 -19 12 -27 13 -11 0 -12 2 -3 6 6 2 10 9 6 14 -3 5 -1 9 3 9 5 0 14 -9 21 -21z m210 -12 c9 -7 9 -13 1 -23 -15 -19 -22 -18 -37 6 -23 37 -2 46 36 17z m119 -20 l21 -23 -35 3 c-20 1 -41 7 -47 13 -15 15 17 13 33 -2 11 -11 11 -9 2 10 -15 28 -2 28 26 -1z m-169 -21 c-10 -7 -15 -16 -11 -19 3 -4 -1 -7 -10 -7 -25 0 -21 25 6 37 28 13 38 6 15 -11z m100 -42 c-26 -14 -37 -9 -20 8 18 18 15 28 -9 28 -18 0 -20 2 -9 16 12 13 16 12 37 -12 l24 -28 -23 -12z m-298 36 c0 -5 -7 -7 -15 -4 -8 4 -15 8 -15 10 0 2 7 4 15 4 8 0 15 -4 15 -10z m2860 -118 c0 -38 3 -110 6 -160 l7 -92 -102 0 -101 0 0 114 c0 62 -3 134 -6 160 l-7 46 102 0 101 0 0 -68z m-3110 0 c0 -4 -9 -13 -20 -20 -23 -14 -26 -8 -7 13 13 16 27 19 27 7z m3377 -54 c-3 -8 -6 -5 -6 6 -1 11 2 17 5 13 3 -3 4 -12 1 -19z m-867 -46 c-63 -1 -153 2 -200 6 -77 8 -67 9 108 11 175 1 192 3 193 19 1 11 4 8 8 -8 l7 -25 -116 -3z m390 -31 c0 -32 3 -73 6 -90 l7 -31 -117 0 -116 0 0 29 c0 15 -3 56 -6 90 l-7 61 117 0 116 0 0 -59z m460 -42 l0 -91 -31 6 c-17 3 -69 6 -115 6 l-84 0 0 85 0 85 115 0 115 0 0 -91z m420 71 c14 -5 -68 -8 -193 -9 -143 -1 -216 2 -212 9 7 12 368 12 405 0z m-1120 -81 l0 -70 -215 3 -215 3 0 68 0 67 215 0 215 0 0 -71z m1140 -9 l0 -70 -197 0 c-109 0 -203 4 -209 8 -6 4 -13 35 -16 70 l-4 62 213 0 213 0 0 -70z m-1843 -62 c-3 -8 -6 -5 -6 6 -1 11 2 17 5 13 3 -3 4 -12 1 -19z" class="" stroke-width="1"></path>                                                                                                                                                                                       <path d="M2460 2515 c-55 -15 -238 -64 -397 -106 -65 -16 -135 -35 -156 -40 l-38 -10 7 -577 c3 -317 8 -583 10 -591 4 -12 54 -13 326 -7 177 3 324 9 327 12 7 6 7 112 4 832 -3 565 6 513 -83 487z m62 -35 c3 -17 2 -33 -2 -35 -4 -2 -135 -36 -293 -76 l-286 -71 -32 23 c-23 16 -28 24 -18 28 27 9 604 160 615 160 7 1 14 -13 16 -29z m8 -340 l0 -280 -65 0 -64 0 2 262 2 261 60 17 c33 10 61 18 63 19 1 0 2 -125 2 -279z m-158 -52 l-3 -228 -54 0 -55 0 0 245 0 244 43 11 c23 6 47 12 52 14 17 5 20 -50 17 -286z m-160 12 l3 -240 -51 0 -51 0 -7 77 c-3 42 -6 143 -6 224 l0 148 48 15 c26 8 50 15 54 15 4 1 9 -107 10 -239z m-282 85 c0 -67 4 -106 13 -114 6 -8 7 -11 2 -8 -8 4 -10 -128 -7 -422 4 -419 4 -428 -15 -433 -19 -5 -20 4 -26 361 -4 201 -7 453 -7 560 0 193 0 194 20 176 17 -16 20 -31 20 -120z m297 18 c-2 -21 -4 -4 -4 37 0 41 2 58 4 38 2 -21 2 -55 0 -75z m-167 -123 l0 -220 -45 0 -45 0 0 189 c0 104 -3 196 -6 204 -4 10 7 19 38 30 24 8 46 15 51 16 4 0 7 -98 7 -219z m187 148 c-2 -13 -4 -5 -4 17 -1 22 1 32 4 23 2 -10 2 -28 0 -40z m-300 -40 c-2 -13 -4 -3 -4 22 0 25 2 35 4 23 2 -13 2 -33 0 -45z m300 -40 c-3 -8 -6 -5 -6 6 -1 11 2 17 5 13 3 -3 4 -12 1 -19z m-170 -75 c-2 -16 -4 -5 -4 22 0 28 2 40 4 28 2 -13 2 -35 0 -50z m170 -120 c-3 -10 -5 -4 -5 12 0 17 2 24 5 18 2 -7 2 -21 0 -30z m-170 -65 c-3 -8 -6 -5 -6 6 -1 11 2 17 5 13 3 -3 4 -12 1 -19z m170 0 c-3 -8 -6 -5 -6 6 -1 11 2 17 5 13 3 -3 4 -12 1 -19z m-187 -48 c0 -5 -20 -10 -45 -10 -25 0 -45 5 -45 10 0 6 20 10 45 10 25 0 45 -4 45 -10z m160 1 c0 -7 -26 -11 -65 -11 -36 0 -65 4 -65 8 0 5 29 10 65 11 40 1 65 -2 65 -8z m30 -1 c0 -5 -5 -10 -11 -10 -5 0 -7 5 -4 10 3 6 8 10 11 10 2 0 4 -4 4 -10z m125 0 c4 -6 -17 -10 -54 -10 -34 0 -61 4 -61 10 0 6 24 10 54 10 30 0 58 -4 61 -10z m155 0 c0 -6 -28 -10 -65 -10 -37 0 -65 4 -65 10 0 6 28 10 65 10 37 0 65 -4 65 -10z m-468 -312 c3 -156 5 -284 4 -285 0 -1 -24 -3 -51 -5 -35 -2 -50 1 -49 10 1 6 2 136 3 287 l1 275 44 0 43 0 5 -282z m156 -6 l4 -288 -56 1 -55 0 -3 288 -3 287 55 0 55 0 3 -288z m154 1 l-3 -288 -54 -1 -55 0 0 288 0 288 58 0 57 0 -3 -287z m158 -3 l0 -285 -61 1 -61 2 -2 285 -1 285 62 -2 63 -1 0 -285z m-289 233 c-12 -20 -14 -14 -5 12 4 9 9 14 11 11 3 -2 0 -13 -6 -23z m-141 -5 c0 -6 -6 -5 -15 2 -8 7 -15 14 -15 16 0 2 7 1 15 -2 8 -4 15 -11 15 -16z m141 -59 c-9 -23 -9 -22 -8 8 1 18 6 28 10 24 4 -4 3 -18 -2 -32z m-144 -1 c-3 -8 -6 -5 -6 6 -1 11 2 17 5 13 3 -3 4 -12 1 -19z m153 -89 c0 -6 -4 -7 -10 -4 -5 3 -10 11 -10 16 0 6 5 7 10 4 6 -3 10 -11 10 -16z m0 -96 c0 -26 -2 -44 -5 -41 -9 9 -13 98 -4 92 5 -3 9 -26 9 -51z m-153 -150 c-2 -32 -3 -8 -3 52 0 61 1 87 3 58 2 -29 2 -78 0 -110z m150 -45 c-3 -8 -6 -5 -6 6 -1 11 2 17 5 13 3 -3 4 -12 1 -19z m273 -104 c-30 -7 -570 -9 -570 -1 0 4 132 6 293 6 160 -1 285 -3 277 -5z" stroke-width="1" class=""></path>                                                                                                                                                    <path d="M2840 1466 c0 -14 5 -28 10 -31 6 -4 10 7 10 24 0 17 -4 31 -10 31 -5 0 -10 -11 -10 -24z" class=""></path>      <path d="M1223 1533 c-21 -7 -15 -18 11 -21 13 -1 30 6 37 16 13 15 12 16 -4 3 -12 -10 -21 -11 -25 -4 -4 5 -13 8 -19 6z"></path> <path d="M1130 1490 c0 -5 4 -10 9 -10 6 0 13 5 16 10 3 6 -1 10 -9 10 -9 0 -16 -4 -16 -10z" class=""></path>           <path d="M1370 1830 c6 -11 15 -20 21 -20 6 0 6 7 -1 20 -6 11 -15 20 -21 20 -6 0 -6 -7 1 -20z"></path> <path d="M1089 1793 c-13 -16 -12 -17 4 -4 9 7 17 15 17 17 0 8 -8 3 -21 -13z"></path> <path d="M1348 1783 c-10 -13 -1 -18 29 -14 6 1 9 -7 6 -18 -4 -17 -8 -17 -30 -6 -13 7 -33 10 -44 8 -18 -5 -18 -7 6 -19 14 -7 31 -16 37 -20 10 -6 10 -4 3 7 -5 8 -2 7 7 -3 19 -21 25 -16 29 27 2 17 10 35 17 40 9 7 4 10 -19 10 -17 0 -35 -6 -41 -12z"></path> <path d="M1105 1779 c-4 -6 -5 -12 -2 -15 2 -3 7 2 10 11 7 17 1 20 -8 4z"></path> <path d="M1070 1746 c0 -7 8 -20 18 -27 15 -13 16 -12 4 3 -8 9 -11 22 -7 28 3 5 1 10 -4 10 -6 0 -11 -6 -11 -14z"></path> <path d="M1415 1750 c-11 -17 5 -31 19 -17 14 12 12 27 -4 27 -5 0 -12 -4 -15 -10z"></path> <path d="M1112 1734 c1 -9 13 -19 26 -20 29 -5 28 0 -4 21 -24 16 -26 16 -22 -1z"></path> <path d="M1130 1701 c0 -5 7 -12 16 -15 14 -5 15 -4 4 9 -14 17 -20 19 -20 6z"></path> <path d="M1287 1704 c-16 -16 21 -31 63 -25 33 5 40 8 27 14 -10 4 -29 4 -43 1 -14 -4 -24 -2 -24 5 0 12 -13 15 -23 5z"></path> <path d="M1173 1681 c-1 -11 5 -25 14 -32 13 -11 14 -9 11 16 -3 33 -23 45 -25 16z"></path> <path d="M1510 1673 c0 -5 9 -18 20 -28 11 -10 20 -14 20 -8 0 5 -9 18 -20 28 -11 10 -20 14 -20 8z"></path> <path d="M1290 1655 c0 -2 15 -12 33 -20 l32 -16 -24 21 c-22 19 -41 26 -41 15z"></path> <path d="M970 1643 c0 -5 9 -18 20 -28 11 -10 20 -14 20 -8 0 5 -9 18 -20 28 -11 10 -20 14 -20 8z"></path> <path d="M1250 1640 c0 -6 7 -13 15 -17 24 -9 27 1 5 15 -13 8 -20 8 -20 2z"></path> <path d="M1300 1614 c0 -8 5 -12 10 -9 6 4 8 11 5 16 -9 14 -15 11 -15 -7z"></path> <path d="M1610 1610 c0 -5 5 -10 11 -10 6 0 8 -7 4 -17 -5 -14 -3 -15 6 -6 6 6 9 19 6 27 -7 18 -27 22 -27 6z"></path> <path d="M885 1561 c-3 -5 -1 -12 5 -16 6 -4 7 -11 4 -17 -4 -7 -2 -8 4 -4 7 4 12 2 12 -5 0 -7 3 -9 7 -6 3 4 -1 15 -10 25 -10 10 -14 22 -10 25 3 4 4 7 0 7 -3 0 -8 -4 -12 -9z"></path> <path d="M1553 1556 c4 -10 7 -21 7 -26 0 -4 7 -11 16 -14 10 -4 13 -2 8 6 -5 8 -2 9 9 5 25 -9 21 -4 -15 23 -25 19 -30 20 -25 6z" class=""></path> <path d="M935 1544 c10 -8 28 -14 39 -13 12 0 15 3 8 6 -6 2 -10 8 -8 11 2 4 -10 8 -27 8 -28 1 -29 0 -12 -12z"></path> <path d="M879 1487 c18 -23 51 -22 51 1 0 13 -2 14 -9 3 -7 -11 -13 -11 -32 0 -22 11 -23 11 -10 -4z"></path> <path d="M810 1483 c0 -10 53 -43 67 -43 4 0 -1 8 -12 16 -31 24 -55 36 -55 27z"></path> <path d="M756 1458 c3 -4 17 -8 31 -8 15 0 23 3 20 7 -10 9 -56 10 -51 1z"></path> <path d="M841 1426 c-1 -15 4 -17 27 -11 15 4 38 7 52 7 l25 -1 -25 10 c-16 7 -32 7 -47 0 -15 -7 -23 -7 -27 2 -2 7 -5 4 -5 -7z"></path> <path d="M1672 1423 c2 -10 -3 -18 -11 -18 -8 0 -15 -6 -17 -13 -1 -7 0 -8 3 -2 2 5 9 8 13 5 5 -3 18 2 29 12 15 13 17 19 8 25 -19 12 -28 9 -25 -9z"></path> <path d="M954 1407 c3 -10 6 -25 6 -33 0 -8 5 -14 11 -14 12 0 2 40 -14 55 -7 7 -8 4 -3 -8z"></path> <path d="M909 1401 l-26 -6 22 -24 c15 -15 25 -19 29 -12 4 6 2 11 -3 11 -6 0 -11 5 -11 11 0 6 7 9 14 6 10 -4 13 -1 9 9 -3 7 -6 13 -7 13 0 -1 -13 -4 -27 -8z" class=""></path> <path d="M806 1362 c-3 -5 1 -9 9 -9 8 0 12 4 9 9 -3 4 -7 8 -9 8 -2 0 -6 -4 -9 -8z"></path> <path d="M1469 1316 l-21 -28 28 20 c35 25 85 32 92 14 3 -9 -4 -11 -25 -7 -27 5 -27 5 -4 -5 32 -14 51 -6 44 18 -4 15 -13 19 -49 18 -36 -1 -48 -6 -65 -30z"></path> <path d="M895 1299 c-4 -6 -5 -12 -2 -15 2 -3 7 2 10 11 7 17 1 20 -8 4z"></path> <path d="M1074 1290 c0 -13 4 -16 10 -10 7 7 7 13 0 20 -6 6 -10 3 -10 -10z"></path>                    <path d="M4720 690 c0 -8 5 -22 10 -30 9 -13 10 -13 10 0 0 8 -5 22 -10 30 -9 13 -10 13 -10 0z"></path>  <path d="M4762 670 c0 -14 2 -19 5 -12 2 6 2 18 0 25 -3 6 -5 1 -5 -13z"></path> <path d="M4495 659 l-7 -22 -297 6 c-163 4 -800 9 -1416 12 -616 3 -1492 7 -1947 10 -456 2 -828 0 -828 -4 0 -11 1021 -20 2505 -23 671 -2 1295 -4 1388 -6 157 -3 167 -4 158 -21 -9 -16 -26 -18 -166 -18 -85 0 -155 3 -155 6 0 3 -266 6 -590 6 -468 0 -589 3 -585 13 2 6 0 12 -4 12 -5 0 -11 -5 -13 -11 -3 -8 -120 -11 -412 -10 -225 1 -413 4 -417 7 -5 3 -9 1 -9 -4 0 -9 -1280 -7 -1562 2 -76 3 -138 1 -138 -3 0 -13 586 -21 1577 -21 518 0 943 -3 943 -6 0 -3 -27 -61 -60 -130 -33 -68 -60 -134 -60 -145 0 -12 -8 -33 -19 -47 -28 -40 -133 -253 -127 -259 3 -3 34 53 70 125 36 71 71 132 79 135 8 3 341 6 741 6 l726 1 9 -22 c11 -30 181 -251 188 -244 3 2 -36 58 -86 123 -86 112 -91 121 -91 168 0 42 -5 55 -40 96 -26 32 -40 57 -40 76 l1 28 20 -25 c12 -14 46 -52 77 -85 32 -33 83 -88 115 -123 l57 -63 0 -100 c0 -63 4 -99 11 -99 6 0 9 32 8 90 l-2 90 819 3 c813 2 819 2 820 -18 1 -11 3 -54 5 -95 3 -74 3 -73 8 30 4 64 2 109 -4 116 -5 7 -53 30 -105 52 -52 22 -189 81 -305 132 -115 50 -238 103 -272 117 -35 14 -60 29 -57 34 3 5 -2 6 -10 3 -8 -3 -32 3 -53 14 -21 11 -60 28 -86 38 -26 9 -50 21 -53 25 -3 5 -73 9 -155 9 -146 0 -150 1 -144 20 3 11 4 20 1 20 -2 0 -8 -10 -11 -21z m-219 -46 c13 -17 14 -17 8 0 -6 16 2 17 90 16 96 -2 102 -4 88 -26 -8 -13 -102 -16 -102 -2 0 5 -5 9 -11 9 -5 0 -7 -5 -4 -10 4 -7 -43 -10 -139 -9 -80 1 -146 2 -146 4 0 2 3 10 6 19 9 25 191 23 210 -1z m458 -5 c4 -17 -7 -18 -130 -18 -74 0 -134 4 -134 8 0 22 29 27 139 27 106 0 120 -2 125 -17z m30 16 c17 -7 22 -34 6 -34 -5 0 -9 -15 -9 -32 1 -31 2 -32 8 -7 5 23 9 25 30 18 21 -9 22 -11 9 -27 -24 -28 -33 -46 -18 -37 10 6 11 4 5 -11 -17 -42 -18 -64 -2 -64 9 0 21 -8 27 -17 10 -15 11 -16 6 -1 -5 19 51 71 67 61 6 -3 7 -2 4 4 -4 5 4 15 16 22 20 11 57 -4 322 -123 165 -75 318 -145 340 -155 40 -20 39 -20 -721 -20 l-760 -1 -116 128 c-192 211 -228 247 -228 238 0 -6 11 -21 24 -35 l25 -26 -647 3 c-355 1 -648 4 -649 6 -2 2 4 21 14 41 l18 38 600 -7 c330 -3 666 -6 748 -6 81 0 147 -3 147 -7 0 -5 -7 -17 -15 -27 -8 -11 -15 -24 -15 -30 0 -5 7 -1 15 10 13 17 14 15 9 -31 -6 -47 -5 -49 9 -30 17 21 22 40 10 32 -5 -3 -6 15 -4 39 3 43 4 44 39 44 l36 0 -26 -27 c-14 -16 -25 -36 -25 -45 0 -10 1 -18 2 -18 1 0 17 20 35 45 l34 46 71 -2 72 -2 27 -45 27 -45 -26 17 c-25 17 -78 38 -139 57 -51 15 -14 -7 51 -31 34 -12 74 -33 88 -46 15 -14 32 -21 43 -18 13 5 14 4 3 -4 -12 -8 -9 -17 16 -52 17 -23 34 -37 37 -32 3 5 -1 15 -9 22 -9 8 -11 19 -6 33 4 12 6 36 5 52 -4 51 6 95 21 95 19 0 19 -19 0 -44 -18 -24 -20 -40 -3 -30 8 5 9 -2 5 -24 -4 -21 -3 -32 5 -32 7 0 3 -7 -8 -16 -18 -15 -18 -15 5 -8 15 4 21 2 17 -4 -3 -6 -3 -13 1 -15 5 -3 17 12 27 33 10 22 29 49 41 60 l23 21 39 -20 c22 -11 45 -27 52 -35 8 -9 20 -16 29 -16 9 0 6 7 -12 21 -14 11 -23 25 -20 31 4 6 3 9 -2 5 -5 -3 -24 1 -43 9 -28 12 -31 16 -21 29 11 13 16 12 42 -6 16 -12 42 -33 56 -46 14 -13 32 -21 39 -18 8 2 11 0 8 -5 -3 -6 -1 -10 4 -10 6 0 11 -7 11 -16 0 -8 4 -13 9 -9 5 3 16 -1 23 -9 12 -12 16 -8 25 25 6 25 7 39 1 39 -6 0 -8 7 -4 15 3 8 1 15 -4 15 -6 0 -10 10 -10 23 0 14 -3 18 -8 10 -4 -7 -13 -9 -21 -4 -18 12 -5 32 16 24 14 -5 15 -1 10 25 -7 34 -7 35 17 26z m117 -46 c43 -17 75 -36 72 -41 -3 -6 -1 -7 6 -3 6 4 69 -17 139 -47 70 -31 240 -103 377 -162 138 -59 254 -111 260 -116 5 -5 -10 -9 -37 -9 -36 0 -80 16 -199 71 -164 75 -567 255 -609 271 -20 7 -22 11 -10 19 12 8 10 9 -7 4 -23 -6 -83 19 -83 35 0 15 6 13 91 -22z m-527 -14 c15 -14 16 -14 16 0 0 9 5 16 10 16 13 0 13 -17 -1 -25 -6 -4 -8 -29 -5 -63 4 -43 3 -48 -3 -22 -5 19 -9 29 -10 23 -2 -19 -21 -16 -21 2 0 9 -9 25 -20 37 -11 12 -20 28 -20 35 0 18 35 16 54 -3z m333 -30 c25 -44 32 -30 8 16 -9 17 -11 30 -5 30 5 0 10 -7 10 -15 0 -9 7 -18 15 -22 29 -11 60 -93 35 -93 -5 0 -10 12 -10 28 0 15 -5 34 -10 42 -8 11 -9 8 -4 -12 7 -33 -8 -37 -33 -8 -10 11 -22 20 -28 20 -5 0 -3 -5 5 -10 9 -6 10 -10 3 -10 -6 0 -24 11 -40 23 -47 40 -64 46 -87 33 -33 -18 -86 -68 -81 -76 2 -4 -2 -16 -10 -26 -13 -17 -14 -17 -9 -1 5 13 2 16 -12 11 -12 -3 -15 -3 -8 3 6 4 10 17 8 27 -1 11 3 34 10 51 l14 32 103 -2 104 -2 22 -39z m198 -3 l40 -18 -30 -14 c-16 -8 -41 -24 -55 -36 -31 -28 -40 -29 -40 -3 0 11 5 20 10 20 6 0 10 9 10 20 0 10 8 24 18 29 9 6 13 11 8 11 -5 0 -18 -7 -28 -17 -20 -18 -25 -4 -6 15 16 16 25 15 73 -7z m-1352 -41 c265 0 267 0 267 -21 l0 -21 -660 3 c-363 2 -660 7 -660 11 0 3 3 14 7 24 6 16 31 17 392 11 212 -4 506 -7 654 -7z m300 -96 l35 -39 -715 -3 c-394 -1 -718 0 -720 2 -3 2 5 23 17 46 l22 43 663 -5 662 -5 36 -39z m45 -91 l3 -28 -735 3 -736 2 4 23 c3 12 5 25 5 29 1 3 328 5 729 3 l727 -4 3 -28z" class=""></path> <path d="M3890 566 c0 -3 14 -31 31 -61 17 -30 28 -55 25 -55 -4 0 -29 21 -56 46 -28 26 -54 43 -60 39 -7 -5 2 -17 25 -33 32 -23 34 -27 18 -33 -14 -6 -13 -8 9 -8 27 -1 45 -14 73 -53 8 -12 18 -19 21 -15 4 4 -1 16 -11 27 -10 11 -13 20 -7 20 7 0 17 -9 24 -20 16 -26 32 -26 18 -1 -5 11 -10 26 -10 33 1 7 8 -3 16 -22 12 -27 17 -32 24 -20 8 12 13 13 30 2 11 -7 20 -8 20 -3 0 5 -9 12 -19 16 -11 3 -18 12 -15 19 7 18 101 69 113 62 11 -7 41 3 41 13 0 4 -18 7 -39 6 -21 0 -37 -3 -34 -7 2 -5 -3 -8 -12 -8 -17 0 -31 -10 -70 -49 -23 -24 -24 -24 -30 -5 -16 48 -49 113 -56 108 -4 -2 -1 -17 7 -32 17 -33 19 -86 3 -76 -6 3 -20 26 -30 49 -17 38 -49 78 -49 61z" class=""></path> <path d="M4107 474 c-22 -14 -37 -28 -34 -30 5 -5 87 45 87 52 0 9 -17 1 -53 -22z"></path> <path d="M4193 494 c4 -4 15 -8 25 -9 9 -1 35 -5 57 -8 26 -4 33 -4 20 2 -29 12 -111 25 -102 15z"></path> <path d="M4191 443 c-1 -6 3 -23 9 -37 9 -25 8 -26 -18 -21 -22 4 -20 2 9 -11 19 -8 43 -29 53 -45 9 -16 24 -29 32 -29 8 0 13 -4 10 -9 -3 -5 -40 2 -81 15 -42 13 -83 24 -93 23 -9 0 15 -10 53 -21 39 -11 75 -24 80 -30 6 -5 -2 -5 -18 1 -16 6 -45 11 -65 10 l-37 -1 29 -8 c16 -5 33 -7 37 -4 4 2 10 0 14 -6 3 -5 20 -10 36 -10 18 0 39 -9 54 -24 27 -27 42 -19 50 25 3 13 9 25 15 27 6 2 7 8 4 13 -3 6 -12 5 -22 -3 -14 -12 -15 -8 -9 34 4 27 2 50 -3 53 -6 3 -10 -5 -10 -19 0 -14 -4 -26 -8 -26 -4 0 -6 16 -4 36 3 24 1 34 -6 30 -6 -3 -12 4 -15 16 -2 13 -5 -5 -6 -40 l-1 -63 -29 33 c-16 19 -36 49 -44 68 -9 19 -16 30 -16 23z m124 -141 c-3 -8 0 -19 7 -23 10 -7 10 -11 0 -21 -8 -7 -13 -8 -12 -3 5 22 -1 29 -11 15 -9 -12 -10 -12 -5 3 3 10 6 28 6 38 0 12 4 17 11 14 6 -4 8 -14 4 -23z" class=""></path> <path d="M4845 418 c-2 -13 -6 -42 -7 -66 l-3 -43 -35 27 c-41 31 -128 74 -150 74 -8 0 11 -12 42 -27 32 -14 55 -30 52 -34 -3 -5 2 -6 11 -3 10 4 15 2 13 -7 -2 -8 2 -13 9 -12 6 1 33 -18 60 -43 26 -25 36 -39 22 -30 -14 9 -37 15 -51 14 -14 -1 -53 13 -87 30 -33 18 -58 27 -55 20 3 -7 31 -25 62 -40 31 -15 72 -37 90 -49 17 -11 32 -17 32 -12 0 4 -12 16 -27 25 -26 16 -26 17 -6 18 12 0 35 -12 52 -26 17 -14 31 -21 31 -16 0 6 10 12 23 14 17 2 23 11 25 36 2 18 7 30 12 27 6 -3 19 9 30 27 22 36 26 53 10 43 -21 -13 -9 10 22 42 18 18 27 33 21 33 -11 0 -53 -34 -53 -43 0 -3 -10 -23 -22 -44 l-23 -38 -6 50 c-5 39 -6 31 -5 -32 1 -45 -2 -79 -6 -77 -4 3 -8 0 -8 -7 0 -7 -2 -10 -5 -7 -3 3 -2 16 3 29 5 13 5 51 2 84 -5 44 -7 50 -9 23 -1 -43 -13 -49 -29 -15 -19 40 -13 0 8 -48 25 -58 17 -75 -17 -35 -23 28 -25 36 -20 95 6 65 2 85 -8 43z m134 -94 c-6 -16 -13 -24 -16 -17 -5 13 16 58 23 50 3 -2 -1 -17 -7 -33z" class=""></path>   <path d="M5074 386 c-50 -52 -86 -106 -81 -120 5 -13 13 -10 39 17 18 18 50 43 71 56 21 13 36 25 34 27 -5 6 -85 -34 -92 -46 -3 -5 -12 -10 -18 -10 -7 0 2 13 18 29 43 40 70 71 59 70 -5 -1 -18 -11 -30 -23z" class=""></path>  <path d="M4411 346 c-20 -46 -38 -64 -26 -26 3 11 3 30 -1 43 -7 20 -8 19 -15 -13 -4 -19 -4 -39 1 -44 5 -5 2 -26 -7 -48 -29 -74 -5 -49 37 37 23 47 40 89 37 92 -3 2 -14 -16 -26 -41z"></path>  <path d="M4537 359 c-9 -5 -22 -7 -27 -4 -6 3 -10 2 -10 -3 0 -5 -13 -15 -29 -22 -16 -6 -38 -21 -49 -33 -21 -24 -38 -77 -23 -77 4 0 11 13 14 29 5 24 21 38 77 71 38 23 70 44 70 46 0 6 -3 5 -23 -7z" class=""></path>  <path d="M5130 278 c-30 -4 -72 -17 -93 -27 l-37 -19 -21 26 -21 27 7 -28 c5 -17 3 -27 -4 -27 -6 0 -11 -5 -11 -11 0 -7 7 -8 18 -4 9 4 24 8 32 9 29 4 75 19 103 33 15 7 52 14 83 14 30 1 53 3 51 5 -10 10 -55 11 -107 2z" class=""></path>  <path d="M4092 257 c10 -8 16 -16 13 -18 -2 -3 15 -4 38 -4 23 0 67 -4 97 -8 37 -5 48 -4 33 2 -12 5 -52 14 -90 19 -37 6 -77 13 -88 17 -19 6 -19 6 -3 -8z"></path>   <path d="M4325 540 c3 -5 14 -10 23 -10 15 0 15 2 2 10 -20 13 -33 13 -25 0z"></path> <path d="M4476 530 c-31 -35 -40 -60 -20 -60 3 0 3 4 0 9 -3 5 11 25 31 45 20 19 34 38 31 41 -3 3 -22 -13 -42 -35z"></path> <path d="M4835 510 c-7 -12 2 -12 30 0 19 8 19 9 -2 9 -12 1 -25 -3 -28 -9z"></path>  <path d="M41 582 c-1 -7 3 -21 8 -30 4 -9 11 -32 15 -51 l6 -35 -23 22 c-18 17 -24 19 -24 8 0 -8 3 -13 7 -11 10 6 55 -44 47 -52 -4 -3 -18 4 -31 16 l-23 22 5 -27 c4 -22 2 -26 -12 -21 -9 4 -16 3 -16 -2 0 -5 9 -11 20 -14 28 -7 27 -47 -1 -47 -11 0 -18 -4 -15 -9 3 -5 16 -7 28 -3 16 4 20 2 15 -10 -6 -16 10 -38 27 -38 6 0 5 5 -2 12 -15 15 -16 38 -2 38 6 0 10 -7 10 -15 0 -8 4 -15 10 -15 5 0 7 7 4 15 -4 8 -1 15 5 15 6 0 11 -5 11 -11 0 -5 4 -7 10 -4 5 3 10 1 10 -5 0 -7 7 -10 15 -6 8 3 15 1 15 -4 0 -20 27 -9 60 25 19 19 29 35 23 35 -6 0 -25 -14 -42 -32 -21 -21 -31 -27 -31 -16 0 23 39 53 71 54 16 1 66 2 111 3 92 1 99 10 12 17 -86 6 -82 18 6 15 23 0 23 0 -5 9 -33 11 -64 5 -117 -22 -21 -10 -38 -14 -38 -9 0 16 72 71 138 103 34 17 62 32 62 34 0 7 -62 -17 -106 -41 -50 -27 -127 -95 -119 -103 7 -7 -15 -32 -27 -32 -6 0 -5 7 2 15 7 8 9 15 5 15 -4 0 -2 6 4 13 6 8 8 16 5 19 -3 3 9 33 25 67 17 34 29 61 26 61 -9 0 -65 -105 -65 -122 0 -10 -6 -18 -14 -18 -8 0 -13 11 -12 29 1 16 4 27 8 25 4 -3 16 13 28 36 25 48 20 52 -9 8 l-21 -33 0 50 c-2 70 -18 27 -21 -54 -2 -42 -6 -61 -15 -61 -7 0 -16 5 -19 10 -3 6 2 10 11 10 15 0 16 2 2 18 -9 9 -18 33 -22 52 -8 40 -34 101 -35 82z m59 -188 c0 -17 -16 -34 -32 -34 -16 0 -19 5 -16 25 3 14 1 28 -3 31 -5 3 -9 10 -9 15 0 5 14 0 30 -13 17 -12 30 -23 30 -24z m44 -3 c11 -17 -5 -39 -25 -34 -10 3 -16 9 -13 14 3 5 10 7 15 4 5 -3 6 1 3 9 -6 17 11 22 20 7z"></path> <path d="M65 390 c3 -5 11 -10 16 -10 6 0 7 5 4 10 -3 6 -11 10 -16 10 -6 0 -7 -4 -4 -10z"></path> <path d="M769 545 c-19 -14 -33 -28 -31 -30 1 -3 2 -11 1 -17 0 -7 -7 1 -15 19 -7 17 -19 35 -25 38 -8 5 -8 2 -1 -11 10 -20 16 -71 13 -114 -2 -20 -7 -14 -30 33 -16 32 -31 58 -35 58 -3 -1 -7 -1 -8 0 -18 6 -46 3 -42 -3 4 -5 12 -7 20 -4 18 7 54 -40 54 -71 0 -14 4 -21 10 -18 10 6 14 -12 10 -54 -1 -14 2 -21 9 -17 13 9 14 -4 2 -23 -6 -10 -11 -5 -17 20 -4 19 -7 38 -6 42 1 4 -12 20 -30 35 -18 14 -52 46 -76 69 -47 47 -58 53 -42 23 6 -11 15 -20 21 -20 5 0 7 -10 4 -23 -4 -15 3 -35 20 -61 21 -31 23 -37 8 -31 -47 20 -96 35 -100 31 -2 -2 28 -16 66 -31 39 -15 74 -32 78 -38 4 -7 0 -8 -13 -3 -15 6 -137 25 -167 26 -5 0 -6 -4 -3 -9 3 -4 34 -11 68 -15 35 -3 77 -10 93 -15 26 -8 23 -9 -27 -10 -31 -1 -69 4 -85 9 -26 9 -27 9 -9 -5 11 -8 38 -15 60 -15 73 0 118 -12 123 -31 3 -11 9 -16 14 -13 5 3 9 0 9 -6 0 -17 62 30 68 52 2 10 9 18 14 18 5 0 6 -6 2 -12 -5 -8 -1 -8 12 2 30 22 30 24 9 16 -16 -6 -17 -5 -8 5 7 7 20 13 30 14 10 1 32 8 48 15 18 7 52 10 85 7 45 -5 51 -4 35 6 -36 21 -125 13 -182 -17 -29 -14 -53 -31 -53 -37 0 -6 -8 -8 -17 -5 -16 6 -16 5 0 -8 13 -10 15 -16 7 -21 -16 -10 -34 10 -27 29 4 9 10 16 14 15 22 -4 23 3 3 19 -21 17 -21 20 -9 62 14 50 60 124 87 139 9 6 12 11 6 11 -5 0 -26 -11 -45 -25z m-113 -161 c-2 -6 1 -17 7 -24 10 -10 7 -10 -11 -1 -13 7 -28 23 -34 36 -6 14 -14 22 -19 20 -9 -6 -39 34 -39 53 0 7 23 -6 50 -29 28 -24 49 -48 46 -55z m27 -69 c27 -26 35 -45 18 -45 -5 0 -12 9 -16 19 -3 10 -15 21 -25 24 -11 3 -20 10 -20 16 0 17 13 13 43 -14z" class=""></path>  <path d="M244 496 c-38 -35 -67 -67 -63 -70 3 -3 36 26 74 64 38 39 67 70 63 70 -3 0 -37 -29 -74 -64z"></path> <path d="M670 525 c0 -5 5 -17 10 -25 5 -8 10 -10 10 -5 0 6 -5 17 -10 25 -5 8 -10 11 -10 5z"></path> <path d="M803 491 c-15 -20 -30 -38 -33 -41 -3 -3 -16 -20 -29 -37 -28 -41 -19 -60 17 -35 15 11 38 25 52 31 l25 12 -25 -20 c-14 -11 -34 -27 -45 -36 -19 -16 -18 -16 8 -1 15 9 38 23 52 32 13 9 46 22 72 30 l48 14 -69 -6 c-53 -5 -78 -12 -103 -31 -18 -14 -33 -21 -33 -16 0 13 105 113 118 113 22 0 18 25 -4 26 -16 1 -32 -9 -51 -35z"></path>  <path d="M1370 483 c-26 -57 -39 -130 -22 -119 7 4 12 18 12 31 0 13 9 48 20 76 27 66 18 76 -10 12z" class=""></path>     <path d="M2257 499 c-4 -13 -7 -38 -7 -55 0 -17 -7 -52 -16 -78 -12 -35 -13 -51 -5 -59 8 -8 11 -2 11 23 0 49 8 33 14 -28 2 -30 0 -54 -6 -58 -7 -4 -8 5 -3 26 5 24 4 31 -5 25 -8 -5 -10 -22 -7 -48 5 -35 4 -38 -10 -25 -16 17 -21 104 -10 173 l7 40 -13 -35 -14 -34 -8 34 c-5 19 -8 40 -8 45 0 6 -8 12 -18 12 -17 2 -17 0 1 -30 9 -18 20 -48 24 -67 l6 -35 -29 47 c-29 45 -51 67 -51 50 0 -5 11 -19 24 -32 14 -12 32 -42 40 -67 18 -54 4 -48 -23 10 -20 42 -64 97 -77 97 -4 0 4 -12 17 -27 33 -36 62 -83 56 -90 -3 -2 -29 11 -59 29 -71 45 -83 49 -105 32 -17 -14 -17 -14 1 -7 14 5 17 3 11 -7 -6 -10 -3 -12 15 -7 24 6 100 -28 100 -45 0 -5 4 -7 9 -4 5 3 20 -3 32 -15 l24 -20 -25 13 c-14 7 -28 12 -32 13 -3 0 -9 3 -13 7 -4 4 -14 4 -23 1 -11 -5 -13 -3 -7 7 6 10 4 12 -7 7 -9 -3 -28 1 -43 9 -15 8 -32 11 -38 7 -6 -4 -7 -1 -2 7 5 8 3 11 -6 8 -8 -3 -13 -10 -12 -16 2 -7 -4 -9 -14 -5 -12 5 -14 3 -8 -7 6 -9 4 -11 -5 -5 -10 6 -9 11 5 21 10 8 16 16 13 19 -3 3 -22 -9 -44 -26 -21 -17 -54 -38 -72 -46 -21 -8 -32 -19 -29 -27 3 -8 0 -19 -6 -25 -8 -8 -8 -11 1 -11 7 0 13 5 13 10 1 6 2 16 3 22 0 7 10 14 21 16 16 3 18 1 8 -9 -7 -7 -13 -22 -12 -34 0 -14 2 -16 6 -5 14 35 47 66 91 82 57 22 66 22 117 -3 l40 -19 -59 4 c-42 4 -56 2 -48 -6 6 -6 32 -10 59 -8 84 3 96 1 126 -30 29 -30 64 -47 74 -36 4 3 12 1 20 -5 9 -9 13 -8 13 0 0 6 -4 11 -10 11 -18 0 -10 25 13 40 12 8 42 24 67 37 29 14 38 22 25 23 -11 0 -35 -9 -52 -20 -18 -11 -33 -16 -33 -12 0 11 41 46 77 67 26 15 27 15 3 9 l-25 -6 25 29 c14 16 -3 1 -37 -34 -54 -54 -63 -60 -63 -40 0 16 16 35 50 61 28 21 50 42 50 48 0 5 -20 -7 -45 -28 -49 -39 -57 -36 -24 11 32 48 50 85 41 85 -5 0 -14 -12 -21 -26 -6 -15 -15 -23 -19 -19 -4 4 -15 -17 -24 -47 l-17 -53 2 66 c1 37 5 65 10 62 9 -5 8 16 -2 41 -7 18 -8 18 -14 -5z" class=""></path>  <path d="M1803 433 l-21 -68 -2 55 -2 55 -8 -40 c-4 -22 -5 -45 -3 -52 7 -17 -6 -67 -15 -58 -4 3 -19 37 -35 73 -19 46 -25 56 -21 32 4 -19 13 -47 20 -62 9 -17 10 -28 4 -28 -6 0 -6 -7 2 -19 7 -11 16 -17 22 -14 5 3 6 1 2 -6 -4 -6 -12 -9 -17 -6 -5 4 -9 1 -9 -4 0 -10 14 -15 24 -8 2 1 12 -6 23 -15 18 -16 20 -15 43 35 13 29 23 59 22 67 -2 19 42 96 54 93 6 -1 11 7 11 18 1 10 -1 19 -4 19 -17 0 -70 -94 -76 -136 -3 -16 -10 -28 -16 -26 -7 1 -10 -2 -6 -8 7 -12 -19 -53 -28 -43 -11 10 -8 25 3 18 6 -4 10 6 10 24 0 16 5 31 11 33 12 4 50 138 39 138 -3 0 -16 -30 -27 -67z" class=""></path>  <path d="M1278 472 c-7 -9 -8 -13 -2 -9 19 11 25 -38 10 -74 l-14 -34 -12 30 c-7 17 -16 44 -20 60 -6 23 -8 16 -9 -35 0 -65 13 -103 37 -108 7 -1 12 9 12 28 0 17 5 30 11 30 5 0 8 4 5 8 -2 4 -1 14 3 21 6 9 10 5 13 -13 3 -14 1 -26 -3 -26 -5 0 -8 -3 -7 -7 1 -5 -3 -17 -8 -28 -16 -30 -25 -85 -14 -85 6 0 10 12 10 28 l1 27 31 -35 c17 -19 28 -27 25 -18 -4 12 3 25 23 40 17 12 30 27 30 34 0 6 7 17 15 24 8 7 12 17 9 22 -4 6 20 34 52 64 31 30 55 57 51 60 -4 4 -9 -1 -13 -10 -3 -9 -10 -14 -14 -11 -15 9 -125 -125 -122 -147 2 -13 -3 -21 -17 -25 -12 -3 -21 -12 -21 -20 0 -18 -16 -8 -30 17 -7 14 -6 22 4 33 17 17 21 36 13 57 -18 45 -26 95 -16 101 7 4 5 8 -4 12 -9 3 -21 -2 -29 -11z m-19 -131 c1 -37 -11 -17 -15 26 -3 29 -2 33 5 18 5 -11 10 -31 10 -44z" class=""></path>   <path d="M1160 416 c22 -37 40 -69 40 -71 0 -3 -12 2 -27 12 -14 9 -31 18 -37 20 -6 1 -22 5 -36 8 -14 3 1 -8 33 -25 31 -17 57 -32 57 -35 0 -4 -94 30 -112 41 -4 3 -8 1 -8 -5 0 -5 33 -20 73 -33 64 -22 73 -28 77 -53 3 -16 11 -30 19 -33 8 -3 11 0 7 7 -4 6 0 14 8 17 20 8 21 24 1 24 -18 0 -29 21 -45 88 -6 28 -16 55 -21 58 -5 3 -4 -7 1 -21 16 -43 12 -41 -19 7 -16 25 -34 49 -40 53 -7 4 6 -23 29 -59z" class=""></path>   <path d="M1435 470 c3 -5 -8 -25 -25 -42 -17 -18 -40 -49 -51 -68 -10 -19 -25 -43 -31 -52 -7 -9 -9 -20 -6 -23 8 -9 48 13 48 26 0 6 -4 7 -10 4 -28 -18 0 31 57 99 33 40 42 66 22 66 -5 0 -7 -4 -4 -10z" class=""></path>   <path d="M1379 428 c-12 -23 -12 -23 10 -4 23 21 26 26 11 26 -5 0 -15 -10 -21 -22z"></path>   <path d="M1741 404 c0 -16 4 -38 9 -49 6 -13 7 -5 3 25 -7 53 -13 66 -12 24z"></path> <path d="M1903 382 c-34 -26 -66 -57 -72 -69 -15 -32 -7 -29 40 17 23 22 46 40 51 40 5 0 23 14 40 30 46 46 10 35 -59 -18z" class=""></path> <path d="M1570 416 c0 -7 132 -77 137 -73 2 2 -24 21 -57 41 -56 33 -80 43 -80 32z"></path> <path d="M1463 380 c-47 -28 -41 -34 8 -10 59 31 58 18 -1 -14 -49 -27 -71 -46 -51 -46 5 0 13 4 16 10 3 5 32 22 63 37 47 22 53 28 36 34 -29 12 -36 11 -71 -11z"></path>  <path d="M1618 334 c29 -7 62 -19 73 -25 22 -11 39 -4 23 10 -12 11 -96 31 -126 30 -13 0 1 -7 30 -15z"></path>  <path d="M815 321 c-2 -4 12 -7 31 -8 19 0 33 1 30 4 -7 8 -56 11 -61 4z"></path>  <path d="M1535 320 c-3 -5 11 -15 32 -22 l37 -13 -35 -6 c-28 -5 -26 -6 11 -4 44 3 151 -26 178 -47 6 -6 12 -19 12 -30 0 -10 4 -17 9 -13 15 9 6 54 -14 73 -17 16 -17 16 -12 0 4 -12 2 -15 -8 -11 -8 3 -12 10 -9 15 4 6 -2 8 -15 3 -16 -5 -20 -3 -15 9 5 13 -3 16 -47 16 -36 0 -65 7 -86 20 -18 10 -35 15 -38 10z" class=""></path>   <path d="M132 290 c0 -14 2 -19 5 -12 2 6 2 18 0 25 -3 6 -5 1 -5 -13z"></path>  <path d="M2211 294 c0 -11 3 -14 6 -6 3 7 2 16 -1 19 -3 4 -6 -2 -5 -13z"></path>  <path d="M780 291 c0 -10 26 -9 36 2 4 4 -2 7 -14 7 -12 0 -22 -4 -22 -9z"></path>        <path d="M1386 243 c-6 -14 -5 -15 5 -6 7 7 10 15 7 18 -3 3 -9 -2 -12 -12z" class=""></path> <path d="M1882 240 c-12 -10 -19 -21 -15 -23 5 -3 16 6 26 19 21 29 19 30 -11 4z"></path> <path d="M2040 250 c-8 -5 -10 -10 -5 -10 6 0 17 5 25 10 8 5 11 10 5 10 -5 0 -17 -5 -25 -10z"></path>                                    </g> </svg>