<svg version="1.0" xmlns="http://www.w3.org/2000/svg" width="600.000000pt" height="327.000000pt" viewBox="0 0 600.000000 327.000000" preserveAspectRatio="xMidYMid meet" style="width: 1941.07px; height: auto;">
<style>
  /* Property SVG: light #a1a1aa, dark #52525b (match vehicle SVGs) */
  g { fill: #a1a1aa; }
  @media (prefers-color-scheme: dark) { g { fill: #52525b; } }
</style>
<g transform="translate(0.000000,327.000000) scale(0.100000,-0.100000)" stroke="none"> <path d="M3237 2387 c-99 -48 -165 -86 -160 -91 4 -5 3 -6 -5 -2 -7 4 -46 -8 -91 -29 -89 -42 -59 -44 -306 25 -191 54 -368 102 -382 104 -6 0 -12 -3 -13 -9 -1 -5 -6 -16 -12 -22 -7 -9 -7 -13 0 -13 7 0 10 -21 9 -54 l-2 -55 -195 -126 c-184 -120 -321 -209 -488 -319 -41 -26 -72 -50 -69 -52 4 -4 105 60 482 304 39 25 116 76 173 114 l103 68 406 -102 c244 -61 400 -104 391 -109 -15 -8 -172 24 -438 91 -91 22 -210 52 -264 65 l-99 25 -86 -53 c-229 -142 -612 -390 -608 -394 5 -4 81 42 332 202 94 59 213 135 265 168 l95 59 70 -16 c39 -9 78 -16 88 -16 33 0 16 -15 -61 -55 -42 -21 -107 -56 -144 -77 -37 -21 -81 -38 -97 -38 -38 0 -101 -29 -101 -47 0 -7 -12 -15 -27 -19 -56 -12 -67 -17 -87 -39 -12 -13 -71 -51 -130 -84 -101 -56 -112 -60 -154 -54 -37 5 -44 4 -38 -8 4 -8 0 -5 -9 6 -13 16 -17 17 -24 6 -6 -9 -18 -11 -34 -7 -19 4 -25 12 -23 32 1 31 31 55 342 276 111 80 191 143 191 153 0 8 -5 14 -11 12 -6 -2 -11 -9 -11 -14 0 -6 -4 -15 -9 -20 -5 -5 -6 -3 -2 5 4 6 5 12 2 12 -5 0 -106 -74 -326 -239 -63 -47 -132 -97 -152 -111 -35 -23 -38 -29 -38 -71 l0 -47 43 -6 c23 -3 65 -8 93 -12 48 -6 51 -8 49 -33 -1 -14 -3 -63 -3 -108 -2 -72 -4 -83 -19 -83 -10 0 -116 -34 -236 -77 l-218 -77 3 -217 3 -216 -250 -7 c-137 -3 -370 -9 -518 -12 -147 -4 -267 -11 -267 -15 0 -5 97 -6 218 -3 604 17 814 19 820 8 4 -7 102 -30 217 -53 116 -23 219 -44 230 -46 32 -7 217 7 204 16 -30 18 187 -2 341 -32 39 -7 36 -8 -25 -4 l-70 4 53 -10 c28 -6 52 -15 52 -19 0 -5 -7 -7 -15 -4 -8 3 -28 2 -44 -4 -20 -7 -47 -6 -92 3 -173 34 -319 50 -319 35 0 -5 26 -10 58 -11 31 0 102 -9 157 -19 99 -18 99 -18 45 -21 -79 -4 -75 -4 -190 21 -126 27 -147 27 -675 0 -998 -51 -979 -50 -964 -64 2 -2 65 0 139 5 228 14 235 13 249 -17 6 -15 10 -29 7 -31 -2 -3 -98 -11 -213 -19 -114 -7 -209 -14 -211 -14 -2 0 -1 -4 2 -9 3 -4 16 -7 28 -5 13 2 131 10 263 19 523 33 1058 67 1215 76 91 5 260 16 375 24 116 8 374 24 575 35 201 11 500 29 665 40 165 11 489 31 720 45 231 14 506 31 612 38 190 12 364 9 1066 -20 136 -6 187 -5 187 3 0 8 -32 12 -92 13 -51 1 -264 8 -473 16 -209 8 -408 15 -442 15 -49 0 -61 3 -57 14 4 11 -18 15 -110 20 -64 3 -168 9 -232 12 l-115 6 3 197 3 196 65 6 c36 4 104 10 153 14 l87 7 -2 325 -3 325 -135 53 c-74 29 -279 110 -455 180 -176 69 -387 153 -468 186 -82 32 -154 59 -160 59 -7 0 -88 -38 -180 -83z m450 -35 c51 -19 91 -37 89 -39 -2 -3 -73 23 -157 55 -85 33 -164 63 -176 67 -13 3 -23 10 -23 15 0 4 39 -8 88 -27 48 -19 129 -51 179 -71z m-277 -364 c0 -243 -2 -439 -4 -437 -3 2 -25 63 -51 134 -159 450 -176 485 -228 485 -26 0 -187 46 -196 57 -3 3 1 4 10 0 10 -3 107 37 235 98 121 57 222 104 227 104 4 1 7 -198 7 -441z m195 373 c693 -269 784 -303 796 -295 7 4 9 3 6 -3 -4 -7 36 -26 101 -50 l107 -40 3 -298 2 -297 -32 6 c-18 3 -152 21 -298 41 -146 19 -401 54 -567 77 l-303 42 0 444 c0 351 3 443 13 439 6 -2 84 -32 172 -66z m-1128 -30 c98 -27 206 -57 241 -67 34 -9 60 -19 58 -21 -2 -3 -69 13 -148 36 -79 22 -181 50 -228 62 -76 19 -127 38 -108 39 4 0 87 -22 185 -49z m768 39 c-3 -5 -12 -10 -18 -10 -7 0 -6 4 3 10 19 12 23 12 15 0z m-640 -98 c83 -23 231 -63 330 -90 l180 -49 3 -46 c2 -26 -1 -47 -6 -47 -6 0 -180 43 -388 96 -209 53 -391 99 -406 101 -27 5 -28 8 -28 63 l0 58 83 -23 c45 -12 150 -41 232 -63z m1260 12 c36 -15 64 -28 62 -30 -3 -4 -128 44 -136 52 -10 9 12 3 74 -22z m-1048 -50 c-3 -3 -12 -4 -19 -1 -8 3 -5 6 6 6 11 1 17 -2 13 -5z m40 -10 c-3 -3 -12 -4 -19 -1 -8 3 -5 6 6 6 11 1 17 -2 13 -5z m113 -29 c41 -14 62 -22 45 -20 -43 8 -153 43 -135 44 8 0 49 -10 90 -24z m125 -35 c13 -5 14 -9 5 -9 -8 0 -24 4 -35 9 -13 5 -14 9 -5 9 8 0 24 -4 35 -9z m81 -48 c12 -17 36 -72 54 -124 18 -51 61 -172 96 -269 35 -97 64 -179 64 -183 0 -3 -11 -6 -24 -6 -25 0 -248 -37 -278 -46 -17 -5 -18 12 -18 256 l0 262 30 11 c29 11 30 13 30 75 0 71 10 77 46 24z m-575 -23 c119 -30 253 -58 304 -63 17 -2 56 -9 88 -15 l57 -12 0 -258 0 -258 -67 9 c-121 15 -108 -17 -108 258 0 132 3 240 7 240 4 0 9 -107 11 -237 l3 -238 1 248 c2 218 0 247 -14 247 -24 0 -375 79 -400 90 -19 8 -34 3 -80 -25 -68 -41 -64 -46 7 -10 27 14 53 25 57 25 4 -1 -18 -14 -50 -31 -32 -16 -62 -27 -66 -24 -5 3 -17 2 -27 -2 -16 -6 -16 -7 2 -14 17 -7 17 -8 2 -8 -17 -1 -18 -19 -18 -241 0 -207 -2 -240 -15 -240 -13 0 -15 32 -15 228 0 132 -4 233 -10 242 -7 10 -10 -68 -9 -237 0 -140 4 -253 9 -253 5 0 35 7 66 15 32 8 60 13 62 10 6 -6 6 -6 -171 -50 -81 -21 -150 -35 -153 -32 -3 3 37 15 88 27 l93 23 -3 256 -3 257 33 15 c81 39 183 95 187 103 2 4 7 3 11 -4 4 -6 58 -25 121 -41z m86 -5 c-3 -3 -12 -4 -19 -1 -8 3 -5 6 6 6 11 1 17 -2 13 -5z m-9 -60 l172 -38 0 -60 c0 -34 1 -141 3 -239 1 -97 0 -177 -3 -177 -3 0 -84 9 -180 20 -96 11 -177 20 -180 20 -3 0 -4 111 -2 247 2 192 0 248 -10 255 -11 6 -10 8 0 8 8 0 10 5 6 13 -6 9 -5 9 7 0 8 -7 92 -29 187 -49z m89 40 c-3 -3 -12 -4 -19 -1 -8 3 -5 6 6 6 11 1 17 -2 13 -5z m-309 -509 c-2 -1 -31 -5 -65 -8 l-63 -7 0 59 c0 33 4 61 9 63 8 2 101 192 101 204 0 2 -4 4 -10 4 -5 0 -10 -4 -10 -9 0 -4 -20 -50 -45 -102 l-44 -94 2 164 2 164 60 33 60 33 3 -251 c1 -138 1 -252 0 -253z m-218 201 c0 -235 -1 -244 -20 -249 -20 -5 -20 0 -20 238 0 242 1 251 33 254 4 1 7 -109 7 -243z m-62 -258 c-7 -4 -16 -8 -20 -8 -5 0 -8 106 -8 235 0 212 2 235 18 244 16 9 17 -5 20 -226 2 -183 -1 -238 -10 -245z m-38 227 c0 -151 -4 -245 -10 -245 -6 0 -10 96 -12 245 -2 191 0 245 10 245 9 0 12 -56 12 -245z m-40 -5 l0 -240 -26 -10 c-14 -6 -27 -10 -30 -10 -2 0 -4 106 -3 235 1 228 1 235 22 250 12 8 25 15 29 15 5 0 8 -108 8 -240z m-74 144 c-3 -8 -10 -14 -16 -14 -13 0 -9 42 5 52 12 9 19 -17 11 -38z m-39 -301 c-1 -65 -3 -14 -3 112 0 127 2 180 3 118 2 -62 2 -165 0 -230z m-18 112 l2 -215 -25 0 -26 0 0 205 c0 184 2 205 18 214 9 6 20 11 23 11 4 0 7 -97 8 -215z m-61 134 c-2 -29 -9 -35 -107 -80 -57 -27 -106 -49 -108 -49 -2 0 -3 10 -1 22 2 16 31 37 108 80 57 32 106 58 107 58 2 0 2 -14 1 -31z m122 -14 c0 -25 -4 -45 -9 -45 -5 0 -8 19 -6 43 5 51 4 47 10 47 3 0 5 -20 5 -45z m-125 -152 l-2 -107 -83 -28 c-46 -15 -94 -28 -107 -28 -22 0 -23 3 -23 83 l0 82 103 52 c56 29 105 52 108 52 3 1 5 -47 4 -106z m125 -48 c0 -86 -4 -135 -10 -135 -7 0 -10 47 -8 135 2 74 6 135 11 135 4 0 7 -61 7 -135z m631 -80 c257 -27 296 -32 239 -34 -48 -1 -480 46 -488 53 -7 8 -27 9 249 -19z m1169 -44 c201 -27 461 -62 578 -77 116 -15 212 -31 212 -36 0 -4 -12 -5 -27 -3 -34 6 -454 60 -870 111 -228 28 -303 41 -303 51 0 9 8 12 23 8 12 -3 186 -27 387 -54z m-1430 22 c0 -27 -3 -29 -79 -43 -50 -10 -102 -13 -138 -9 -32 3 -53 7 -48 8 14 3 260 68 263 70 1 0 2 -11 2 -26z m310 -8 c129 -14 331 -35 448 -48 188 -19 212 -24 212 -40 0 -14 -6 -16 -37 -12 -54 7 -434 42 -653 60 -271 22 -270 22 -270 50 0 21 4 23 33 19 17 -2 138 -16 267 -29z m695 26 c-10 -9 -274 -52 -310 -50 -39 1 27 18 150 38 139 22 173 25 160 12z m-1495 -26 c0 -24 -1 -25 -62 -18 -35 3 -64 7 -66 8 -3 2 101 31 121 34 4 1 7 -10 7 -24z m1696 -19 c104 -14 340 -43 524 -66 419 -50 433 -53 310 -60 -52 -3 -99 -2 -105 1 -5 4 -54 12 -108 18 -54 6 -105 16 -115 21 -22 13 -474 62 -572 63 -41 0 -106 -1 -145 -3 -38 -2 -106 0 -150 5 l-80 8 105 18 c139 22 120 22 336 -5z m-561 4 c19 -5 6 -6 -35 -3 -36 3 -67 7 -69 9 -8 7 73 2 104 -6z m-1337 -10 c9 0 12 -51 12 -220 0 -206 -2 -226 -26 -318 -39 -145 -38 -138 -25 -127 6 6 20 46 31 90 11 43 21 80 23 81 1 2 3 -40 2 -92 l0 -95 -35 3 -35 3 -3 344 -2 343 22 -6 c13 -3 29 -6 36 -6z m-68 -341 c0 -319 -1 -340 -17 -335 -24 6 -297 63 -353 73 l-45 9 -3 224 -2 225 137 49 c76 27 165 60 198 72 33 12 66 23 73 23 9 1 12 -73 12 -340z m171 335 l44 -6 -3 -314 c-3 -310 -2 -314 18 -314 20 0 20 5 20 316 l0 317 31 -7 c17 -3 49 -6 70 -6 l39 0 0 -300 0 -300 -49 0 c-40 0 -50 -3 -54 -20 -4 -16 -14 -20 -45 -20 -23 0 -44 -4 -47 -10 -3 -5 -26 -10 -50 -10 l-44 0 -3 340 c-3 307 -1 340 13 340 9 0 36 -3 60 -6z m904 -28 l160 -12 -75 -9 c-83 -10 -147 -9 -294 5 -54 6 -120 10 -147 10 -27 0 -49 4 -49 9 0 22 81 21 405 -3z m-668 -48 c-2 -13 -4 -3 -4 22 0 25 2 35 4 23 2 -13 2 -33 0 -45z m84 52 l39 0 0 -290 0 -290 -39 0 c-22 0 -46 -3 -55 -6 -14 -6 -16 25 -16 296 0 271 2 302 16 296 9 -3 33 -6 55 -6z m105 -10 l24 0 0 -285 0 -285 -40 0 -40 0 0 291 c0 261 2 291 16 285 9 -3 27 -6 40 -6z m1269 -270 c0 -260 -1 -280 -17 -280 -17 0 -18 20 -18 280 0 260 1 280 18 280 16 0 17 -20 17 -280z m299 254 c87 -8 186 -19 220 -22 l61 -7 2 -241 3 -241 -123 -7 c-67 -3 -195 -9 -284 -12 l-163 -7 0 283 0 282 63 -6 c34 -3 133 -13 221 -22z m-1487 -272 c-2 -269 -3 -277 -22 -280 -20 -3 -20 2 -18 280 2 156 3 284 3 285 0 0 9 -1 19 -4 19 -5 20 -16 18 -281z m1133 266 c0 -19 -6 -23 -35 -25 -31 -1 -35 1 -35 23 0 21 5 24 35 24 30 0 35 -3 35 -22z m-1041 6 l31 -6 0 -268 0 -268 -51 -4 c-28 -1 -53 -1 -55 1 -2 2 -4 127 -4 278 l0 273 24 0 c13 0 38 -3 55 -6z m541 -5 c-25 -4 -58 -7 -75 -7 -29 1 -29 1 5 8 19 4 53 7 75 7 l40 0 -45 -8z m-430 -269 l0 -270 -25 0 -25 0 0 270 0 270 25 0 25 0 0 -270z m308 145 c-2 -1 -19 -5 -40 -8 l-36 -5 -4 59 c-3 60 3 70 40 68 10 -1 7 -4 -8 -9 l-25 -8 28 -1 c18 -1 30 5 35 17 4 10 8 -9 10 -47 2 -35 2 -64 0 -66z m222 115 c-30 -5 -71 -8 -90 -8 -31 1 -30 2 10 8 25 4 65 7 90 7 44 0 44 0 -10 -7z m133 -7 c-13 -2 -33 -2 -45 0 -13 2 -3 4 22 4 25 0 35 -2 23 -4z m-503 -263 c0 -167 -4 -260 -10 -260 -6 0 -10 93 -10 260 0 167 4 260 10 260 6 0 10 -93 10 -260z m40 0 c0 -224 -2 -260 -15 -260 -13 0 -15 36 -15 260 0 224 2 260 15 260 13 0 15 -36 15 -260z m256 250 l34 0 0 -56 c0 -54 -1 -56 -22 -50 -13 3 -49 6 -80 6 l-58 0 0 56 0 57 46 -7 c26 -3 62 -6 80 -6z m81 4 c-3 -3 -12 -4 -19 -1 -8 3 -5 6 6 6 11 1 17 -2 13 -5z m226 -1 c-13 -2 -33 -2 -45 0 -13 2 -3 4 22 4 25 0 35 -2 23 -4z m-633 -253 l0 -250 -50 0 -50 0 0 250 0 250 50 0 50 0 0 -250z m557 244 c-3 -3 -12 -4 -19 -1 -8 3 -5 6 6 6 11 1 17 -2 13 -5z m126 -6 c-12 -19 -11 -92 1 -100 6 -4 -11 -8 -37 -8 -30 0 -46 4 -42 10 3 6 1 10 -4 10 -6 0 -11 -4 -11 -10 0 -5 -9 -10 -20 -10 -17 0 -20 7 -20 50 l0 50 58 -2 c41 -2 56 0 55 10 -2 6 4 12 13 12 10 0 12 -4 7 -12z m779 -185 c-4 -298 -8 -318 -10 -45 -1 133 1 242 6 242 4 0 6 -89 4 -197z m-961 181 c35 -6 36 -7 37 -56 1 -41 -2 -49 -14 -44 -9 3 -46 6 -82 6 l-67 0 0 50 0 50 45 0 c25 0 61 -3 81 -6z m289 -241 l0 -244 -31 3 -31 3 2 232 c0 147 -3 234 -9 238 -7 4 -12 -76 -14 -237 l-2 -243 -3 245 -2 245 45 1 45 1 0 -244z m853 228 c15 -1 27 -6 27 -12 0 -6 -11 -8 -27 -5 -16 3 -61 8 -100 11 -40 4 -71 10 -69 14 3 4 35 4 73 0 37 -5 80 -8 96 -8z m-119 -31 c7 0 12 -15 11 -40 0 -37 -2 -40 -27 -40 -27 0 -28 2 -28 46 0 38 3 45 16 40 9 -3 21 -6 28 -6z m96 -48 c0 -41 -2 -44 -22 -38 -13 3 -29 6 -35 6 -8 0 -13 15 -13 40 0 40 0 41 35 38 34 -2 35 -3 35 -46z m40 -132 l5 185 3 -202 c2 -175 0 -203 -13 -203 -13 0 -15 28 -13 203 l2 202 6 -185 5 -185 5 185z m-1515 -117 c-20 -53 -34 -101 -32 -107 3 -9 41 81 62 148 10 32 11 15 7 -86 l-4 -96 -41 -4 -42 -3 3 192 3 192 37 3 37 3 3 -73 c2 -64 -2 -86 -33 -169z m151 237 l64 0 0 -141 0 -140 -35 -37 c-19 -20 -35 -41 -35 -47 0 -5 16 7 35 27 l35 38 0 -39 0 -39 -80 -4 -80 -3 0 199 c0 177 2 197 16 192 9 -3 45 -6 80 -6z m180 -10 c63 0 64 -1 64 -26 0 -25 -33 -71 -137 -192 l-28 -34 2 129 c2 70 3 130 3 132 0 2 7 0 16 -3 9 -3 45 -6 80 -6z m94 -9 c0 -6 -4 -13 -10 -16 -5 -3 -10 1 -10 9 0 9 5 16 10 16 6 0 10 -4 10 -9z m80 -1 l28 0 -2 -172 -1 -173 -62 -3 -63 -3 0 66 c0 67 0 67 55 128 30 34 55 69 55 77 0 9 -12 0 -28 -20 -15 -19 -39 -48 -54 -65 l-27 -30 -1 73 c0 60 4 78 22 103 13 17 28 27 36 24 7 -3 26 -5 42 -5z m885 -171 l0 -149 -30 0 -30 0 3 153 3 153 27 -4 27 -4 0 -149z m85 17 c0 -74 3 -141 6 -150 5 -13 -2 -16 -35 -16 l-41 0 0 150 0 150 35 0 35 0 0 -134z m-1082 12 l-1 -73 -50 -52 c-28 -29 -48 -55 -45 -59 4 -3 27 15 51 41 l44 48 0 -57 1 -56 -64 -2 c-35 -1 -72 -2 -81 -2 -13 -1 -17 9 -18 44 -2 40 3 50 39 90 23 25 59 69 81 98 21 28 40 52 41 52 1 0 2 -33 2 -72z m1172 -203 c-194 -12 -467 -25 -1255 -60 -187 -9 -365 -17 -395 -20 -30 -2 -136 -7 -235 -10 -148 -5 -203 -2 -305 14 l-125 19 105 2 c58 2 119 5 135 6 29 4 136 6 1040 19 354 5 611 15 860 34 50 3 155 7 235 8 l145 1 -205 -13z m410 -4 c0 -10 -66 -17 -235 -26 -60 -3 -355 -21 -655 -40 -300 -19 -743 -46 -985 -60 -242 -14 -470 -28 -507 -31 -68 -7 -68 -7 -68 19 0 24 2 25 83 31 45 3 327 17 627 31 798 37 1563 75 1580 79 33 8 160 5 160 -3z m-2630 -82 c85 -12 159 -26 164 -30 21 -19 -7 -20 -96 -6 -51 9 -132 21 -180 28 -49 7 -88 16 -88 21 0 12 30 10 200 -13z m-350 -88 c79 -17 82 -18 44 -22 -24 -3 -78 5 -125 17 -72 19 -78 22 -44 23 22 0 78 -8 125 -18z m519 15 c-10 -9 -79 -14 -79 -5 0 5 19 9 42 9 23 0 39 -2 37 -4z m-868 -31 c35 -10 69 -22 74 -28 7 -7 5 -8 -5 -5 -8 3 -60 2 -115 -2 -93 -7 -105 -5 -169 19 l-70 26 100 5 c112 7 99 8 185 -15z m228 6 l75 -18 -84 -6 c-69 -6 -98 -3 -160 14 -41 12 -77 23 -79 25 -13 12 185 0 248 -15z m-480 -25 l63 -23 -100 -6 c-95 -7 -104 -6 -148 18 -26 14 -50 28 -53 30 -2 3 36 5 85 5 68 0 104 -6 153 -24z m-213 -12 c24 -14 44 -27 44 -28 0 -1 -41 -3 -92 -5 -50 -1 -94 -4 -98 -6 -3 -2 -24 12 -45 30 l-40 34 93 1 c83 0 98 -3 138 -26z m-206 -14 l34 -30 -44 0 c-25 0 -75 -3 -112 -7 -64 -6 -68 -5 -68 15 0 11 -4 24 -10 27 -27 17 -2 25 78 25 82 -1 89 -3 122 -30z" class=""></path> <path d="M3490 1936 l0 -334 73 -12 c39 -6 119 -20 177 -30 58 -10 141 -24 185 -30 44 -6 96 -14 115 -16 19 -3 143 -23 275 -45 132 -21 248 -39 258 -39 16 0 17 18 17 233 l0 233 -32 12 c-18 7 -157 56 -308 108 -151 53 -378 131 -504 175 -126 43 -235 79 -242 79 -12 0 -14 -59 -14 -334z m430 177 c118 -41 274 -95 345 -119 72 -25 166 -58 210 -72 l80 -26 -37 -9 c-31 -7 -50 -4 -115 21 -43 16 -152 55 -243 87 -91 31 -210 73 -265 92 -127 45 -385 155 -385 163 0 4 44 -9 98 -28 53 -18 194 -67 312 -109z m-180 17 c63 -26 199 -75 303 -110 103 -34 186 -64 184 -66 -2 -3 -127 36 -278 85 -151 49 -310 100 -354 113 -72 22 -80 27 -83 51 l-3 27 58 -26 c32 -15 110 -48 173 -74z m-11 -36 c357 -114 647 -205 704 -221 19 -6 24 -23 6 -23 -7 0 -93 25 -193 56 -99 31 -244 76 -321 99 -77 24 -202 63 -277 86 -87 27 -138 47 -138 56 0 7 3 13 6 13 4 0 100 -30 213 -66z m106 -78 c61 -18 209 -64 330 -101 121 -37 230 -70 243 -73 12 -2 22 -10 22 -18 0 -7 -6 -12 -12 -9 -7 2 -47 13 -88 25 -41 11 -84 25 -95 30 -11 5 -78 26 -150 46 -71 20 -197 56 -280 81 -82 25 -181 54 -219 64 -83 24 -87 26 -80 43 4 10 28 6 112 -21 59 -18 157 -49 217 -67z m-294 44 c5 0 8 -55 7 -127 l-2 -128 -3 123 c-2 77 -8 122 -14 122 -7 0 -10 -39 -7 -115 1 -63 0 -115 -4 -115 -4 0 -8 56 -10 125 -2 101 0 124 10 120 8 -3 18 -5 23 -5z m37 -127 c1 76 6 116 12 112 6 -4 10 -57 10 -127 0 -105 -2 -119 -16 -114 -9 3 -18 6 -20 6 -2 0 -3 55 -2 123 l2 122 6 -120 6 -120 2 118z m60 -21 c2 -106 1 -121 -13 -116 -12 5 -15 28 -15 126 0 91 3 119 13 116 8 -3 13 -40 15 -126z m19 -64 c-2 -35 -3 -7 -3 62 0 69 1 97 3 63 2 -35 2 -91 0 -125z m93 128 c44 -12 45 -13 41 -52 -1 -21 -4 -40 -6 -42 -2 -2 -28 4 -59 13 l-56 16 0 46 c0 39 2 44 18 38 9 -4 37 -13 62 -19z m158 -46 c7 0 -2 -19 -22 -43 -18 -23 -28 -27 -49 -22 -24 6 -27 12 -27 51 l0 43 48 -14 c26 -8 48 -15 50 -15z m30 -86 c-2 -2 -16 0 -30 4 l-25 7 26 40 26 40 3 -44 c2 -23 2 -45 0 -47z m110 6 c3 -32 0 -40 -10 -34 -7 4 -28 10 -47 13 -32 6 -34 8 -33 44 0 20 1 39 1 41 1 2 20 -2 44 -9 40 -12 42 -14 45 -55z m-277 20 c16 0 19 -8 19 -55 0 -30 -1 -55 -2 -55 -2 1 -28 7 -58 14 l-55 12 -3 57 -3 56 42 -14 c23 -8 50 -15 60 -15z m387 10 l67 -20 1 -96 c0 -91 -1 -95 -20 -90 -12 3 -29 6 -38 6 -15 0 -18 8 -16 48 l1 47 7 -45 7 -45 1 46 c2 45 1 46 -37 57 -53 16 -51 18 -50 -35 0 -35 3 -42 8 -28 5 11 6 26 3 34 -4 10 -1 13 12 8 10 -4 22 -7 27 -7 5 0 9 -16 9 -35 0 -38 -1 -38 -49 -29 l-31 7 0 98 c0 114 -5 110 98 79z m415 -144 c1 -80 -1 -146 -5 -146 -7 0 -16 289 -9 296 10 10 12 -11 14 -150z m-30 -4 l5 -134 -25 7 c-14 3 -38 8 -53 11 l-27 6 0 101 c-1 113 9 139 54 145 15 2 30 6 33 8 7 8 8 -1 13 -144z m-696 118 c14 0 13 -3 -1 -25 -24 -36 -19 -44 8 -11 18 21 29 26 45 21 l21 -6 -21 -42 c-12 -23 -22 -43 -23 -44 -1 -1 -18 2 -37 7 -33 9 -34 11 -34 60 0 38 3 49 13 45 8 -3 21 -5 29 -5z m461 -66 c0 -35 -6 -38 -45 -28 -19 5 -23 13 -23 44 l0 38 34 -10 c30 -9 34 -15 34 -44z m-368 -4 c0 -51 -9 -60 -39 -41 -11 7 -10 14 8 39 11 17 21 35 21 41 0 6 2 11 5 11 3 0 5 -22 5 -50z m83 26 c25 -6 27 -10 27 -52 l0 -46 -42 7 c-24 4 -45 9 -48 10 -3 2 -4 24 -2 49 3 38 7 46 21 42 9 -2 28 -7 44 -10z m340 -5 c20 -8 23 -15 19 -41 -3 -22 -9 -30 -19 -26 -8 3 -21 6 -29 6 -9 0 -14 11 -14 35 0 37 5 40 43 26z m58 -81 l5 85 2 -92 c2 -79 0 -92 -13 -87 -12 5 -15 24 -13 98 l2 91 6 -90 6 -90 5 85z m-896 -15 c0 -52 -3 -95 -7 -95 -4 0 -8 43 -10 95 -2 59 1 95 7 95 6 0 10 -38 10 -95z m22 -57 c-2 -29 -3 -6 -3 52 0 58 1 81 3 53 2 -29 2 -77 0 -105z m51 44 c3 -87 2 -92 -18 -92 -19 0 -20 6 -20 96 0 86 2 95 18 92 14 -3 17 -17 20 -96z m42 -8 c0 -72 -3 -95 -12 -92 -9 3 -14 34 -16 96 -2 77 0 92 13 92 12 0 15 -16 15 -96z m17 -51 c-2 -27 -3 -5 -3 47 0 52 1 74 3 48 2 -27 2 -69 0 -95z m91 117 l42 -11 0 -85 0 -86 -52 7 c-29 4 -56 9 -60 12 -5 2 -8 45 -8 94 0 81 2 90 18 85 9 -3 36 -10 60 -16z m562 -63 c0 -32 -3 -38 -16 -33 -9 3 -24 6 -35 6 -16 0 -19 7 -19 44 l0 44 35 -11 c32 -10 35 -13 35 -50z m-452 38 c2 -2 -4 -17 -13 -35 -9 -17 -15 -36 -13 -42 2 -6 12 8 22 31 19 40 35 49 70 35 13 -5 16 -23 16 -88 l0 -82 -64 9 -65 10 -3 89 -3 89 25 -6 c14 -4 26 -8 28 -10z m524 -47 c2 -21 2 -41 0 -43 -2 -2 -17 1 -33 7 -25 9 -29 15 -29 47 0 36 1 37 29 33 26 -3 30 -9 33 -44z m-364 17 l32 -7 0 -80 0 -80 -42 7 c-24 4 -44 8 -44 9 -1 0 -4 38 -6 83 -3 70 -1 82 12 79 8 -3 30 -7 48 -11z m119 -25 c2 0 3 -36 3 -81 0 -70 -2 -80 -16 -75 -9 3 -20 6 -26 6 -7 0 -8 15 -5 38 3 20 2 55 -3 77 -7 35 -8 30 -9 -38 -1 -49 -5 -76 -11 -72 -10 6 -14 147 -4 157 3 4 20 2 37 -3 18 -5 33 -9 34 -9z m88 -96 c0 -40 -3 -74 -6 -74 -4 0 -21 3 -38 6 -30 6 -31 8 -29 58 l1 51 7 -50 c7 -49 7 -49 8 20 0 47 -2 63 -8 50 -8 -18 -9 -17 -9 6 -1 26 0 27 37 17 l37 -9 0 -75z m79 -12 l1 -72 -32 0 -33 0 0 79 0 78 31 -6 32 -6 1 -73z m58 59 c21 -8 23 -13 20 -78 l-3 -69 -30 4 -29 4 0 74 c0 76 3 80 42 65z m66 -88 l-2 -78 -6 75 -6 75 -5 -70 -5 -70 -2 73 c-2 58 1 72 13 72 12 0 15 -14 13 -77z m105 51 c14 -4 17 -17 17 -70 l0 -65 -47 7 c-27 3 -51 8 -54 10 -3 2 -7 33 -8 70 l-2 66 38 -6 c21 -4 46 -9 56 -12z m44 -81 c-2 -16 -4 -3 -4 27 0 30 2 43 4 28 2 -16 2 -40 0 -55z" class=""></path> <path d="M4082 1850 c0 -19 2 -27 5 -17 2 9 2 25 0 35 -3 9 -5 1 -5 -18z"></path> <path d="M2290 2009 c0 -5 5 -7 10 -4 6 3 10 8 10 11 0 2 -4 4 -10 4 -5 0 -10 -5 -10 -11z"></path> <path d="M2293 1945 c0 -22 2 -30 4 -17 2 12 2 30 0 40 -3 9 -5 -1 -4 -23z"></path> <path d="M2293 1820 c0 -41 2 -58 4 -37 2 20 2 54 0 75 -2 20 -4 3 -4 -38z"></path> <path d="M2292 1600 c0 -19 2 -27 5 -17 2 9 2 25 0 35 -3 9 -5 1 -5 -18z"></path> <path d="M2755 1903 c-27 -43 -79 -117 -113 -166 -35 -49 -62 -91 -59 -93 3 -3 10 1 16 8 18 21 221 318 221 323 0 19 -22 -6 -65 -72z"></path> <path d="M2795 1813 c-21 -32 -70 -100 -107 -151 -70 -95 -89 -138 -27 -60 48 59 153 208 168 236 25 47 3 31 -34 -25z"></path>  <path d="M2378 1922 c-21 -47 -35 -88 -33 -91 7 -6 7 -6 48 86 20 45 33 85 29 87 -4 3 -24 -34 -44 -82z"></path> <path d="M2431 1979 c-5 -13 -28 -71 -50 -128 -23 -57 -40 -108 -38 -114 2 -6 27 49 56 122 29 73 50 135 47 138 -3 3 -10 -5 -15 -18z"></path> <path d="M1435 1280 c-60 -16 -124 -29 -142 -29 -36 -1 -40 -9 -35 -85 l4 -52 71 8 c40 4 107 11 149 14 l77 6 3 84 c2 52 -1 84 -7 83 -5 -1 -59 -14 -120 -29z m102 4 c-3 -3 -12 -4 -19 -1 -8 3 -5 6 6 6 11 1 17 -2 13 -5z m-40 -10 c-3 -3 -12 -4 -19 -1 -8 3 -5 6 6 6 11 1 17 -2 13 -5z m53 -58 l0 -44 -47 -6 c-27 -3 -70 -9 -96 -12 l-48 -6 23 46 c21 41 27 46 73 54 94 18 95 18 95 -32z m-187 -30 c-33 -54 -58 -57 -58 -6 0 32 3 35 40 46 22 6 41 10 43 9 1 -1 -10 -23 -25 -49z m-73 -6 c0 -27 -4 -50 -10 -50 -5 0 -10 23 -10 50 0 28 5 50 10 50 6 0 10 -22 10 -50z"></path> <path d="M3655 1205 l0 -75 90 0 c50 -1 145 -3 213 -6 l122 -6 0 66 0 66 -37 1 c-21 0 -56 2 -78 3 -22 2 -94 7 -160 11 -66 3 -127 8 -135 11 -12 3 -15 -9 -15 -71z m48 48 c-7 -2 -19 -2 -25 0 -7 3 -2 5 12 5 14 0 19 -2 13 -5z m212 -23 l50 0 -40 -39 -40 -40 -107 6 -108 6 0 40 0 40 98 -6 c53 -4 119 -7 147 -7z m115 -42 l0 -43 -40 0 c-22 0 -40 2 -40 5 0 3 14 17 32 32 18 14 30 29 27 32 -3 3 -21 -9 -40 -28 -27 -26 -86 -62 -69 -42 60 69 78 84 103 85 25 1 27 -2 27 -41z m40 -3 c0 -25 -4 -45 -10 -45 -5 0 -10 20 -10 45 0 25 5 45 10 45 6 0 10 -20 10 -45z"></path> <path d="M2620 1090 c0 -89 4 -140 10 -140 7 0 10 50 9 140 0 77 -5 140 -10 140 -5 0 -9 -62 -9 -140z"></path> <path d="M2230 2360 c-14 -10 -25 -24 -25 -30 0 -7 -13 -23 -30 -36 -16 -13 -26 -24 -21 -24 13 0 108 72 102 78 -3 2 -11 1 -19 -4 -7 -5 -1 1 13 13 31 28 15 30 -20 3z"></path> <path d="M2155 2305 c-16 -14 -30 -29 -30 -34 0 -5 -4 -13 -9 -18 -5 -5 -6 -3 -2 5 11 19 -6 14 -38 -13 -28 -22 -43 -55 -26 -55 13 0 30 26 22 35 -4 5 -1 5 6 1 14 -8 73 30 69 44 -1 5 12 21 28 34 17 14 26 25 20 25 -5 0 -23 -11 -40 -24z"></path>   <path d="M1960 770 c20 -8 13 -9 -30 -6 -32 2 -47 0 -35 -4 31 -12 254 -44 260 -38 3 3 -20 9 -52 14 -52 7 -55 8 -28 15 19 5 7 6 -35 4 -49 -3 -57 -2 -30 4 22 5 27 9 14 10 -12 0 -37 3 -55 6 -30 4 -31 4 -9 -5z"></path> </g> </svg>