<svg version="1.1" id="Layer_1" xmlns="http://www.w3.org/2000/svg" xmlns:xlink="http://www.w3.org/1999/xlink" x="0px" y="0px"
	 width="100%" viewBox="0 0 490 556" enable-background="new 0 0 490 556" xml:space="preserve">
<style>
  /* Country outline: light #a1a1aa, dark #52525b (match WorldMapChart) */
  path { stroke: #a1a1aa; stroke-linecap: round; stroke-linejoin: round; fill: none; }
  @media (prefers-color-scheme: dark) { path { stroke: #52525b; } }
</style>
<path fill="none" opacity="1.000000" stroke-linecap="round" stroke-linejoin="round" stroke-width="3.000000"
	d="
M390.500000,40.500000 
	C380.009796,41.918537 369.886902,45.085472 359.550995,47.244125 
	C349.066772,49.433750 338.541626,51.201187 328.019501,53.107574 
	C318.881226,54.763229 309.663483,55.680397 300.485168,56.887321 
	C292.556519,57.929916 284.477264,57.773010 276.507111,58.570984 
	C269.993591,59.223118 263.498047,58.765026 257.000122,59.003174 
	C235.953888,59.774517 214.942154,58.779839 194.012405,56.864418 
	C180.605423,55.637455 167.278351,53.474682 153.966278,51.197052 
	C137.767426,48.425514 121.803360,44.890289 106.005638,40.479801 
	C101.608406,39.252155 102.065834,42.788960 101.553482,45.012325 
	C99.909630,52.145844 98.452019,59.323685 97.008942,66.501801 
	C92.576065,88.551659 87.682396,110.508163 83.210823,132.542786 
	C80.798279,144.431061 78.531738,156.405670 76.774849,168.467209 
	C75.124870,179.794678 73.406494,191.078110 72.271812,202.477280 
	C72.009415,205.113464 74.579521,208.176605 71.500000,210.500000 
"/>
<path fill="none" opacity="1.000000" stroke-linecap="round" stroke-linejoin="round" stroke-width="2.000000"
	d="
M453.500000,447.500000 
	C450.223175,457.971802 442.953613,465.671173 434.911041,472.393555 
	C421.168579,483.880157 406.719452,494.497070 391.495911,503.993439 
	C373.177277,515.420532 354.050934,525.195251 333.495728,531.987061 
	C327.690430,533.905273 321.805634,537.225037 316.006714,537.122009 
	C308.002472,536.979919 301.752777,542.050781 294.002136,542.156677 
	C286.825439,542.254761 279.685364,543.934631 272.495605,544.436951 
	C261.845978,545.180908 251.121902,546.300720 240.516342,545.707703 
	C233.870010,545.336060 227.119843,545.711304 220.493958,544.533997 
	C218.120605,544.112244 215.734222,545.415161 213.503540,545.359070 
	C204.616531,545.135498 195.922379,544.073120 187.431076,540.672058 
	C179.588074,537.530640 171.030472,536.223572 163.024673,533.429321 
	C135.236649,523.730591 109.394028,510.210266 85.500572,492.999207 
	C72.696053,483.775818 59.822006,474.636017 49.000000,463.000000 
"/>
<path fill="none" opacity="1.000000" stroke-linecap="round" stroke-linejoin="round" stroke-width="2.000000"
	d="
M72.500000,212.500000 
	C71.477371,217.814011 73.237587,222.902969 74.109764,227.981140 
	C76.809387,243.699402 79.525986,259.443390 83.130798,274.969635 
	C86.877235,291.105896 91.517693,307.042145 96.030479,322.991364 
	C105.942940,358.024261 118.755493,392.030304 133.045898,425.480377 
	C140.017700,441.799561 147.733032,457.775055 155.872070,473.565948 
	C160.886124,483.293915 165.428696,493.278839 170.364380,503.068390 
	C173.576172,509.438751 178.704834,512.176147 185.009567,513.452759 
	C196.733139,515.826538 208.592209,517.318237 220.495132,518.547119 
	C231.811935,519.715454 243.155914,520.565247 254.495041,519.913696 
	C270.249908,519.008484 286.008331,517.842163 301.503174,514.514771 
	C304.314270,513.911133 307.162811,513.476990 310.000702,513.004211 
	C319.437805,511.432037 322.845306,503.840698 326.498444,496.499207 
	C343.154572,463.026428 359.880981,429.595154 373.042206,394.515839 
	C381.825348,371.105621 390.193726,347.598297 397.191315,323.555695 
	C402.690704,304.660492 407.733429,285.694305 412.009674,266.502167 
	C415.880890,249.127731 419.030731,231.625870 421.467682,213.995529 
	C421.554993,213.363968 421.166656,212.666672 421.000000,212.000000 
"/>
<path fill="none" opacity="1.000000" stroke-linecap="round" stroke-linejoin="round" stroke-width="4.000000"
	d="
M432.500000,146.750000 
	C433.891602,151.907944 434.287781,157.172012 434.581573,162.495499 
	C434.860291,167.545639 437.729889,172.110703 437.250336,177.522186 
	C437.060699,179.662338 439.151794,182.160873 441.938782,183.617188 
	C448.090698,186.831787 453.724304,190.919037 459.077362,195.407730 
	C460.584747,196.671707 460.971436,197.745819 461.040741,199.498383 
	C461.265015,205.169373 461.896667,210.830887 461.956665,216.500458 
	C462.133148,233.179199 463.100250,249.840485 463.804962,266.487091 
	C464.235901,276.666321 463.897217,286.845856 464.529907,296.998138 
	C465.423553,311.338837 464.106018,325.666748 464.500763,339.999969 
	C464.964813,356.849243 464.257996,373.679138 463.407227,390.495300 
	C463.194824,394.693390 462.049683,398.894867 460.891296,402.969086 
	C460.441010,404.552795 460.772064,406.011719 460.500000,407.500000 
"/>
<path fill="none" opacity="1.000000" stroke-linecap="round" stroke-linejoin="round" stroke-width="3.000000"
	d="
M33.000000,145.000000 
	C32.499363,162.163422 32.449459,179.338348 32.178795,196.494934 
	C31.892445,214.645615 31.548603,232.855942 30.427357,250.995514 
	C28.223469,286.650085 29.163996,322.331177 29.148096,358.000061 
	C29.144611,365.815033 28.857431,373.709320 29.618896,381.488373 
	C30.386995,389.335236 29.785089,397.495300 32.593552,404.964813 
	C38.143272,419.725098 43.477821,434.717316 55.987919,445.514008 
	C56.894764,446.296661 57.551342,447.512634 59.000000,446.500000 
"/>
<path fill="none" opacity="1.000000" stroke-linecap="round" stroke-linejoin="round" stroke-width="2.000000"
	d="
M58.000000,178.500000 
	C58.333332,183.000000 58.728199,187.496460 58.986904,192.000748 
	C59.490623,200.770752 61.396919,207.458115 71.353569,211.372467 
	C84.411690,216.506149 97.162689,222.677963 109.971642,228.561737 
	C125.567940,235.725891 141.844757,240.600067 158.489807,244.543045 
	C178.915405,249.381592 199.662643,252.124496 220.517014,253.786453 
	C227.217667,254.320465 234.133087,255.013733 241.101715,252.823639 
	C244.473114,251.764084 248.992203,253.606567 252.979248,254.151733 
	C256.076172,254.575195 258.402496,254.176071 260.500000,252.000000 
"/>
<path fill="none" opacity="1.000000" stroke-linecap="round" stroke-linejoin="round" stroke-width="2.000000"
	d="
M461.000000,408.500000 
	C462.166840,415.128204 460.762543,421.625092 459.403992,427.979462 
	C456.062683,443.607910 446.060547,454.778870 434.031464,464.538788 
	C427.521362,469.820892 421.527649,475.744965 414.962555,480.952789 
	C397.210175,495.034912 377.479492,506.097168 357.965668,517.440918 
	C345.604980,524.626465 332.098755,529.223328 318.515320,533.548096 
	C316.351807,534.236938 313.709747,533.348389 312.000000,535.500000 
"/>
<path fill="none" opacity="1.000000" stroke-linecap="round" stroke-linejoin="round" stroke-width="3.000000"
	d="
M32.000000,410.500000 
	C32.269791,421.847992 33.892677,433.080780 39.685558,442.890411 
	C43.796440,449.851715 49.150200,456.211761 55.499512,461.500580 
	C65.501266,469.831818 75.083855,478.740173 85.595955,486.367767 
	C102.013672,498.280457 119.598953,508.387177 137.404892,518.173035 
	C151.277267,525.797058 165.976822,530.672058 181.000000,535.000000 
"/>
<path fill="none" opacity="1.000000" stroke-linecap="round" stroke-linejoin="round" stroke-width="2.000000"
	d="
M391.000000,41.500000 
	C393.289215,46.587776 393.315308,52.170784 394.475189,57.505398 
	C397.878235,73.156906 401.295166,88.807365 404.467529,104.506569 
	C408.436035,124.145912 412.329773,143.803436 415.942505,163.510544 
	C418.336182,176.567947 420.558380,189.680801 420.969269,203.000946 
	C421.025635,204.827393 420.666656,206.666672 420.500000,208.500000 
"/>
<path fill="none" opacity="1.000000" stroke-linecap="round" stroke-linejoin="round" stroke-width="2.000000"
	d="
M133.500000,480.000000 
	C128.381821,472.850464 125.552513,464.476959 121.075737,456.954926 
	C109.671730,437.793579 97.436127,419.337769 79.944023,405.068634 
	C77.214180,402.841766 74.302795,400.676178 70.514671,399.925934 
	C63.032219,398.443970 61.974827,398.937012 57.955818,405.472839 
	C52.593758,414.192749 53.174812,423.637817 54.621193,432.981232 
	C56.069717,442.338593 60.683281,450.531952 67.052811,457.451385 
	C79.389748,470.853333 93.733093,481.709686 109.988205,490.023071 
	C116.566154,493.387238 123.009644,497.036469 130.013550,499.460846 
	C132.829727,500.435638 135.744614,500.693512 137.959824,498.000092 
	C137.893341,491.808380 133.824982,486.635468 133.500000,480.500000 
"/>
<path fill="none" opacity="1.000000" stroke-linecap="round" stroke-linejoin="round" stroke-width="2.000000"
	d="
M435.500000,446.000000 
	C434.871460,444.140961 435.910645,442.644806 436.465027,440.988312 
	C440.381561,429.286255 441.477997,417.554779 435.972382,406.013184 
	C432.363800,398.448395 428.352203,397.431580 420.476105,400.946442 
	C410.479218,405.407745 404.008789,413.713043 396.993011,421.493683 
	C381.463104,438.716644 371.020294,459.170074 360.726715,479.614136 
	C358.236969,484.559052 357.152832,490.495972 355.473999,495.992065 
	C354.587006,498.895813 355.306061,500.065186 358.500153,500.057007 
	C363.454865,500.044312 367.776733,497.894104 371.950867,495.897308 
	C392.594116,486.022247 412.270264,474.399445 426.771698,456.316895 
	C432.902740,448.671783 441.478546,443.599030 446.587769,435.052460 
	C451.181885,427.367615 455.849213,419.796753 457.953644,410.988922 
	C458.239197,409.793732 458.622406,408.811188 459.500000,408.000000 
"/>
<path fill="none" opacity="1.000000" stroke-linecap="round" stroke-linejoin="round" stroke-width="2.000000"
	d="
M385.000000,227.000000 
	C380.161621,231.821564 373.333038,231.999680 367.494537,234.487167 
	C350.667633,241.656311 332.920532,245.305695 315.022278,248.620224 
	C303.068909,250.833847 290.979340,251.676086 278.990387,253.434509 
	C273.080322,254.301346 267.270996,252.712128 261.500000,251.500000 
"/>
<path fill="none" opacity="1.000000" stroke-linecap="round" stroke-linejoin="round" stroke-width="3.000000"
	d="
M437.000000,1.500000 
	C437.130768,13.333839 437.541138,25.199278 437.249695,36.993816 
	C436.940613,49.504589 437.867493,61.980076 437.229553,74.511688 
	C436.646942,85.956573 438.214630,97.495613 438.449951,109.001022 
	C438.807800,126.497116 438.839813,143.999939 438.991333,161.500076 
	C439.009064,163.547379 439.338898,165.667603 438.000000,167.500000 
"/>
<path fill="none" opacity="1.000000" stroke-linecap="round" stroke-linejoin="round" stroke-width="4.000000"
	d="
M57.000000,1.500000 
	C56.833336,29.833334 56.782578,58.168072 56.439735,86.499268 
	C56.312614,97.003784 55.446823,107.497932 55.039021,118.001518 
	C54.942352,120.491287 55.494495,123.001404 55.472679,125.499763 
	C55.366425,137.666962 55.143986,149.833099 55.024014,162.000244 
	C55.005630,163.864532 54.452171,165.887482 56.000000,167.500000 
"/>
<path fill="none" opacity="1.000000" stroke-linecap="round" stroke-linejoin="round" stroke-width="4.000000"
	d="
M405.500000,2.500000 
	C405.904663,13.156477 408.111633,23.553324 409.983429,34.002968 
	C411.891724,44.656204 413.524414,55.360264 415.537201,65.992950 
	C417.877686,78.356491 420.599182,90.647659 422.967957,103.006142 
	C424.789368,112.508652 427.211914,121.882240 428.613953,131.483353 
	C429.302887,136.201126 429.615540,141.137787 432.000000,145.500000 
"/>
<path fill="none" opacity="1.000000" stroke-linecap="round" stroke-linejoin="round" stroke-width="3.000000"
	d="
M34.000000,1.500000 
	C33.090904,33.994095 32.826683,66.495163 33.051117,98.999649 
	C33.064728,100.970383 32.430511,102.684334 32.000000,104.500000 
"/>
<path fill="none" opacity="1.000000" stroke-linecap="round" stroke-linejoin="round" stroke-width="3.000000"
	d="
M459.500000,1.500000 
	C459.666687,6.000000 459.923645,10.498796 459.983673,15.000217 
	C460.192627,30.666319 459.990967,46.346855 460.609192,61.995686 
	C461.096802,74.338799 460.747437,86.667969 461.017578,98.999619 
	C461.057800,100.835724 461.333313,102.666664 461.500000,104.500000 
"/>
<path fill="none" opacity="1.000000" stroke-linecap="round" stroke-linejoin="round" stroke-width="4.000000"
	d="
M87.500000,2.500000 
	C89.090858,6.573230 87.435661,10.572964 86.886917,14.484134 
	C84.956581,28.242601 82.199646,41.870487 79.709686,55.538200 
	C76.457344,73.390732 72.729500,91.149345 69.319824,108.965515 
	C67.364754,119.181084 65.972206,129.586914 62.559361,139.520401 
	C61.899250,141.441727 63.348789,143.962204 61.000000,145.500000 
"/>
<path fill="none" opacity="1.000000" stroke-linecap="round" stroke-linejoin="round" stroke-width="2.000000"
	d="
M73.500000,208.000000 
	C91.681107,214.844681 110.355011,220.147598 129.040176,225.355850 
	C133.071060,226.479416 137.327637,227.231659 141.513184,227.919846 
	C143.868103,228.307037 146.476593,228.446335 148.500000,226.500000 
"/>
<path fill="none" opacity="1.000000" stroke-linecap="round" stroke-linejoin="round" stroke-width="2.000000"
	d="
M286.500000,236.000000 
	C280.222382,239.389755 273.209473,239.183685 266.496307,239.359100 
	C250.007584,239.789978 233.500000,239.504379 217.000031,239.478989 
	C216.499771,239.478226 216.000000,239.166672 215.500000,239.000015 
"/>
<path fill="none" opacity="1.000000" stroke-linecap="round" stroke-linejoin="round" stroke-width="2.000000"
	d="
M364.500000,227.000000 
	C367.666656,229.007874 370.839966,227.492142 373.996887,226.980865 
	C375.348755,226.761948 376.743500,225.867249 377.988037,226.072479 
	C389.680542,228.000549 398.953369,221.185608 408.917450,217.288895 
	C413.233032,215.601151 418.228668,214.432159 421.869446,210.149078 
	C420.006866,207.125473 417.439484,208.999252 415.522522,209.574982 
	C407.801483,211.893921 400.123993,214.377747 392.511780,217.033783 
	C384.625153,219.785583 376.291046,221.219147 368.585052,224.218536 
	C360.330383,227.431488 351.690369,225.683868 343.488678,227.959137 
	C337.581909,229.597778 331.710632,229.548630 325.464630,228.791794 
	C317.107544,227.779129 308.493927,228.699097 300.003784,229.083572 
	C297.527527,229.195709 294.692047,229.704727 294.000000,233.000000 
"/>
<path fill="none" opacity="1.000000" stroke-linecap="round" stroke-linejoin="round" stroke-width="5.000000"
	d="
M329.500000,233.000000 
	C327.515808,234.290665 325.292725,234.482162 323.000153,234.511536 
	C311.999817,234.652496 300.969299,235.379730 290.013275,234.763885 
	C284.727844,234.466782 279.397858,232.695770 274.032837,231.802704 
	C272.213104,231.499786 270.366302,231.024567 268.499939,231.020309 
	C252.833359,230.984619 237.164993,231.127808 221.501022,230.921951 
	C216.812561,230.860367 212.718246,231.146820 210.699036,236.812210 
	C208.504898,234.280167 208.575638,231.765778 208.000000,229.500000 
"/>
<path fill="none" opacity="1.000000" stroke-linecap="round" stroke-linejoin="round" stroke-width="4.000000"
	d="
M158.500000,223.000000 
	C151.815125,220.009842 144.967010,217.888077 137.499588,217.936676 
	C132.619385,217.968460 128.140442,215.735031 123.515984,214.442810 
	C108.556503,210.262680 93.666672,205.833328 78.750000,201.500000 
"/>
<path fill="none" opacity="1.000000" stroke-linecap="round" stroke-linejoin="round" stroke-width="3.000000"
	d="
M7.500000,90.500000 
	C5.420108,102.501717 9.922232,113.017296 15.619722,122.931198 
	C20.862968,132.054672 28.422674,139.377884 37.033447,145.452591 
	C40.257763,147.727264 43.852585,149.488724 48.000000,149.500000 
"/>
<path fill="none" opacity="1.000000" stroke-linecap="round" stroke-linejoin="round" stroke-width="2.000000"
	d="
M486.500000,88.500000 
	C488.183838,102.981316 482.683380,115.337532 474.976349,126.984352 
	C470.971832,133.035965 465.271332,137.610474 460.218628,142.792603 
	C461.215698,145.124435 460.997162,147.322937 460.995453,149.500000 
	C460.983643,164.507858 461.174316,179.510742 461.956116,194.502289 
	C461.972534,194.817383 461.333313,195.166656 461.000000,195.499985 
"/>
<path fill="none" opacity="1.000000" stroke-linecap="round" stroke-linejoin="round" stroke-width="2.000000"
	d="
M52.500000,1.500000 
	C52.500000,18.500000 52.500000,35.500000 52.500000,52.500000 
"/>
<path fill="none" opacity="1.000000" stroke-linecap="round" stroke-linejoin="round" stroke-width="3.000000"
	d="
M485.500000,91.500000 
	C479.578583,93.226364 474.912445,97.313522 469.573944,100.139694 
	C461.786072,104.262566 454.611908,109.530945 446.931976,113.879883 
	C444.620422,115.188843 443.144531,116.820839 443.097382,119.002106 
	C442.891602,128.522430 442.795654,138.059555 444.448120,147.509064 
	C444.602478,148.391693 444.899841,148.966751 445.500000,149.500000 
"/>
<path fill="none" opacity="1.000000" stroke-linecap="round" stroke-linejoin="round" stroke-width="2.000000"
	d="
M8.500000,91.500000 
	C21.129129,99.063400 34.326965,105.649963 46.559650,113.911682 
	C49.337757,115.787964 50.507938,118.071106 50.444031,120.998779 
	C50.276608,128.669067 49.961277,136.342209 49.430408,143.995178 
	C49.245296,146.663681 48.180820,149.183670 48.913982,152.022217 
	C49.510666,154.332367 48.757751,156.950592 46.452244,157.881760 
	C44.046227,158.853516 42.074566,157.331238 41.011589,154.994720 
	C39.831062,152.399811 37.388481,150.270981 38.000000,147.000000 
"/>
<path fill="none" opacity="1.000000" stroke-linecap="round" stroke-linejoin="round" stroke-width="4.000000"
	d="
M138.500000,221.000000 
	C143.815552,222.615387 147.928757,226.970901 153.982498,227.311310 
	C155.433731,227.392899 156.989883,227.824173 157.939575,226.935440 
	C160.823761,224.236420 163.722382,225.137634 167.017960,225.924835 
	C178.304474,228.620773 189.651062,231.075348 201.014465,233.430191 
	C203.048141,233.851639 204.649811,234.189133 205.000000,236.500000 
"/>
<path fill="none" opacity="1.000000" stroke-linecap="round" stroke-linejoin="round" stroke-width="3.000000"
	d="
M239.500000,252.000000 
	C237.804779,250.435211 235.553604,250.168503 233.492126,249.525208 
	C225.110031,246.909561 217.161301,242.679321 207.997604,242.901321 
	C206.514633,242.937241 205.000000,241.666656 203.500000,241.000000 
"/>
<path fill="none" opacity="1.000000" stroke-linecap="round" stroke-linejoin="round" stroke-width="3.000000"
	d="
M436.000000,178.500000 
	C433.868805,184.508331 435.899506,190.944244 434.047150,197.014389 
	C433.098907,200.121841 432.731018,203.314423 430.567871,206.053604 
	C428.280212,208.950546 425.652985,210.408417 422.000000,210.000000 
"/>
<path fill="none" opacity="1.000000" stroke-linecap="round" stroke-linejoin="round" stroke-width="2.000000"
	d="
M260.000000,249.500000 
	C250.314224,247.032684 240.558197,244.943008 230.500992,245.075165 
	C228.827301,245.097153 227.166672,243.478516 225.500000,245.000000 
"/>
<path fill="none" opacity="1.000000" stroke-linecap="round" stroke-linejoin="round" stroke-width="2.000000"
	d="
M56.500000,168.500000 
	C56.500000,170.666672 56.633869,172.843689 56.467140,174.997452 
	C56.243530,177.885895 55.780243,180.827820 52.987988,182.479691 
	C45.958855,186.638046 39.370945,191.410873 33.000000,196.500000 
"/>
<path fill="none" opacity="1.000000" stroke-linecap="round" stroke-linejoin="round" stroke-width="3.000000"
	d="
M215.500000,543.000000 
	C213.346664,541.033325 210.595901,541.270569 207.998901,541.011047 
	C200.508545,540.262695 193.145462,538.845459 186.028702,536.415955 
	C184.438629,535.873047 182.988281,536.272095 181.500000,536.000000 
"/>
<path fill="none" opacity="1.000000" stroke-linecap="round" stroke-linejoin="round" stroke-width="4.000000"
	d="
M163.500000,232.000000 
	C166.125061,234.353912 169.521591,233.287170 172.521439,233.894043 
	C181.809967,235.773071 191.002090,238.355118 200.504944,238.916275 
	C203.693192,239.104538 206.060776,235.682312 209.500000,236.000000 
"/>
<path fill="none" opacity="1.000000" stroke-linecap="round" stroke-linejoin="round" stroke-width="2.000000"
	d="
M134.000000,480.000000 
	C139.315063,479.587067 143.623642,482.868652 148.424393,484.260742 
	C152.957245,485.575104 157.535049,487.238708 162.000000,489.000000 
"/>
<path fill="none" opacity="1.000000" stroke-linecap="round" stroke-linejoin="round" stroke-width="2.000000"
	d="
M360.000000,479.500000 
	C352.563202,481.225616 345.563416,484.187988 338.447540,486.860321 
	C336.544250,487.575104 334.465332,489.607971 332.000000,488.000000 
"/>
<path fill="none" opacity="1.000000" stroke-linecap="round" stroke-linejoin="round" stroke-width="2.000000"
	d="
M455.000000,147.500000 
	C455.291016,153.883728 451.039581,158.135162 444.800232,157.478989 
	C443.857483,153.178741 444.473999,149.639877 449.507690,148.535034 
	C453.435699,147.672882 456.630005,145.439667 460.000000,143.500000 
"/>
<path fill="none" opacity="1.000000" stroke-linecap="round" stroke-linejoin="round" stroke-width="2.000000"
	d="
M294.500000,229.000000 
	C289.738678,227.361282 276.429810,228.248550 272.000000,230.500000 
"/>
<path fill="none" opacity="1.000000" stroke-linecap="round" stroke-linejoin="round" stroke-width="3.000000"
	d="
M60.500000,146.500000 
	C60.000000,152.000000 59.516327,157.501556 58.990292,162.999069 
	C58.827423,164.701202 58.581749,166.406708 57.000000,167.500000 
"/>
<path fill="none" opacity="1.000000" stroke-linecap="round" stroke-linejoin="round" stroke-width="3.000000"
	d="
M358.500000,232.000000 
	C352.500000,233.358521 346.500000,233.777237 340.500000,232.000000 
"/>
<path fill="none" opacity="1.000000" stroke-linecap="round" stroke-linejoin="round" stroke-width="2.000000"
	d="
M434.500000,127.500000 
	C433.949890,133.495819 435.854492,139.696213 433.000000,145.500000 
"/>
<path fill="none" opacity="1.000000" stroke-linecap="round" stroke-linejoin="round" stroke-width="2.000000"
	d="
M40.000000,448.000000 
	C41.850533,453.133026 44.722454,457.682404 48.000000,462.000000 
"/>
<path fill="none" opacity="1.000000" stroke-linecap="round" stroke-linejoin="round" stroke-width="2.000000"
	d="
M437.000000,115.000000 
	C433.380310,114.155434 429.825531,112.834915 426.000000,113.500000 
"/>
<path fill="none" opacity="1.000000" stroke-linecap="round" stroke-linejoin="round" stroke-width="2.000000"
	d="
M67.500000,113.500000 
	C63.712078,113.110794 60.150578,114.382011 56.500000,115.000000 
"/>
<path fill="none" opacity="1.000000" stroke-linecap="round" stroke-linejoin="round" stroke-width="3.000000"
	d="
M157.000000,229.500000 
	C158.495255,231.096375 160.404938,231.553070 162.500000,231.500000 
"/>
<path fill="none" opacity="1.000000" stroke-linecap="round" stroke-linejoin="round" stroke-width="1.000000"
	d="
M358.000000,230.000000 
	C357.500000,229.666672 357.000000,229.333344 356.500000,229.000000 
"/>
<path fill="none" opacity="1.000000" stroke-linecap="round" stroke-linejoin="round" stroke-width="2.000000"
	d="
M243.000000,486.000000 
	C239.372116,490.167236 240.761307,497.992859 245.509888,499.976349 
	C245.935608,500.154175 246.500168,500.008392 246.999969,499.998657 
	C250.175461,499.936890 252.273895,496.011322 252.523117,490.000946 
	C252.661041,486.674591 250.567215,486.106964 247.999619,486.010284 
	C246.501740,485.953888 245.000000,486.000000 243.500000,486.000000 
"/>
</svg>