<?xml version="1.0" standalone="no"?>
<!DOCTYPE svg PUBLIC "-//W3C//DTD SVG 20010904//EN"
 "http://www.w3.org/TR/2001/REC-SVG-20010904/DTD/svg10.dtd">
<svg version="1.0" xmlns="http://www.w3.org/2000/svg"
 width="1472.000000pt" height="1408.000000pt" viewBox="0 0 1472.000000 1408.000000"
 preserveAspectRatio="xMidYMid meet">
<style>
  /* Country outline: light #a1a1aa, dark #52525b (match WorldMapChart) */
  path { fill: #a1a1aa; stroke: none; }
  @media (prefers-color-scheme: dark) { path { fill: #52525b; } }
</style>
<g transform="translate(0.000000,1408.000000) scale(0.100000,-0.100000)"
stroke="none">
<path d="M1407 14053 c-3 -16 -3 -201 -1 -413 3 -212 -2 -745 -11 -1185 -8
-440 -16 -1011 -18 -1269 -4 -502 -4 -496 -52 -496 -42 0 -103 214 -70 246 40
41 0 115 -107 197 -12 10 -36 29 -53 42 -16 14 -36 25 -42 25 -7 0 -13 4 -13
8 0 11 -94 72 -110 72 -6 0 -23 9 -37 20 -14 11 -31 20 -38 20 -7 0 -18 6 -24
14 -7 8 -22 17 -35 20 -13 3 -48 21 -77 41 -29 19 -66 37 -83 41 -17 4 -40 13
-51 20 -11 8 -26 14 -34 14 -8 0 -33 9 -55 19 -76 36 -234 53 -281 30 l-30
-14 -3 -125 c-2 -93 1 -134 12 -160 8 -19 17 -56 21 -82 3 -25 12 -52 20 -58
8 -7 17 -28 21 -47 4 -19 12 -37 19 -40 7 -2 16 -15 19 -28 7 -28 56 -105 68
-105 4 0 14 -15 21 -33 15 -36 58 -83 125 -137 24 -19 54 -44 67 -55 13 -11
35 -29 49 -40 15 -11 34 -27 44 -36 20 -18 67 -49 148 -97 22 -13 57 -34 79
-47 22 -14 51 -29 65 -35 14 -5 36 -16 50 -24 14 -7 40 -17 59 -21 19 -4 56
-23 83 -41 26 -19 53 -34 60 -34 39 -1 122 -56 129 -86 7 -36 -5 -311 -21
-459 -6 -55 -15 -188 -20 -295 -5 -107 -14 -220 -20 -250 -6 -30 -15 -130 -20
-221 -5 -92 -16 -193 -25 -225 -8 -32 -15 -81 -15 -109 0 -27 -7 -75 -15 -105
-9 -30 -20 -102 -26 -160 -5 -58 -16 -127 -24 -155 -7 -27 -16 -79 -20 -113
-3 -35 -10 -74 -15 -87 -5 -13 -14 -80 -20 -149 -6 -68 -17 -146 -24 -173 -8
-26 -17 -88 -20 -138 -3 -49 -10 -106 -16 -125 -5 -19 -14 -91 -20 -160 -6
-69 -15 -141 -20 -160 -6 -19 -15 -102 -20 -185 -6 -82 -17 -195 -26 -250 -24
-149 -24 -1089 -1 -1220 9 -50 21 -140 27 -200 5 -61 17 -132 25 -159 8 -27
15 -62 15 -77 0 -16 14 -75 31 -131 17 -57 36 -126 43 -153 7 -28 21 -65 30
-82 9 -18 16 -40 16 -50 0 -10 6 -27 14 -38 7 -11 17 -36 21 -55 7 -35 34 -95
122 -280 76 -160 93 -193 128 -250 19 -30 34 -60 35 -66 0 -6 9 -19 20 -29 11
-10 20 -26 20 -36 0 -10 5 -21 11 -25 6 -3 19 -25 30 -48 10 -22 28 -54 39
-71 11 -16 27 -46 36 -65 9 -19 20 -37 24 -40 4 -3 15 -18 24 -35 9 -16 25
-43 36 -60 11 -16 26 -41 33 -55 18 -35 34 -61 106 -169 145 -217 188 -282
226 -345 38 -63 58 -93 152 -224 37 -51 110 -147 157 -207 14 -16 48 -62 78
-102 29 -39 68 -88 86 -110 18 -21 71 -87 118 -148 91 -117 145 -182 203 -244
20 -22 57 -63 83 -92 123 -141 401 -414 558 -549 35 -30 72 -62 81 -71 9 -9
47 -38 85 -64 38 -26 78 -56 90 -66 11 -11 25 -19 30 -19 6 0 19 -7 29 -15 52
-41 160 -105 250 -148 55 -27 108 -53 117 -57 46 -25 178 -63 313 -92 28 -5
77 -19 111 -29 33 -10 74 -19 91 -19 16 0 54 -8 84 -19 30 -10 87 -21 127 -25
40 -4 92 -14 114 -22 22 -8 57 -14 78 -14 21 0 56 -7 79 -15 23 -8 92 -20 153
-26 61 -6 123 -15 137 -21 14 -5 67 -14 116 -18 50 -5 117 -16 150 -25 32 -8
87 -15 121 -15 35 0 108 -9 164 -20 56 -11 129 -20 164 -20 34 0 87 -7 118
-15 32 -8 130 -20 219 -26 90 -6 174 -15 188 -21 78 -31 1182 -29 1536 2 61 5
223 14 360 20 138 5 275 14 305 20 30 5 116 14 191 19 74 6 147 14 160 19 13
6 74 13 134 17 61 4 128 13 150 20 22 7 65 16 95 20 30 4 66 13 80 20 14 7 43
15 65 19 49 9 145 46 205 80 25 14 59 32 76 40 17 8 36 22 44 30 7 9 18 16 25
16 7 0 18 7 25 15 6 8 35 30 63 49 29 19 81 60 117 91 36 32 81 67 100 80 19
12 46 33 60 47 14 13 54 48 90 77 36 29 88 75 115 101 28 26 91 80 140 120 50
41 92 76 95 80 3 3 34 30 70 59 36 30 67 57 70 60 3 4 34 30 70 60 63 52 171
150 275 250 28 26 82 75 120 108 39 33 88 77 110 98 22 20 75 69 119 108 43
40 118 108 166 152 47 44 126 116 174 160 48 44 118 109 155 145 37 36 98 94
136 129 212 195 465 454 465 475 0 7 9 29 20 51 11 22 20 46 20 55 0 8 9 29
20 45 11 17 20 40 20 52 0 24 46 178 61 206 6 11 14 44 19 75 5 32 16 73 24
92 19 47 45 152 56 227 5 35 14 72 20 83 6 11 15 46 21 77 6 32 17 69 24 83 7
14 15 52 18 86 4 33 13 74 22 90 8 16 15 43 15 59 0 17 9 63 20 104 11 41 20
94 20 119 0 24 9 87 19 140 11 54 22 150 26 215 3 64 11 132 16 150 30 101 29
1704 -1 1947 -5 41 -14 185 -20 320 -6 135 -14 265 -19 290 -5 25 -12 126 -16
225 -4 99 -13 232 -21 295 -7 63 -18 183 -24 265 -5 83 -14 165 -19 183 -6 18
-15 133 -21 255 -6 122 -15 274 -20 337 -8 105 -17 423 -23 807 -2 148 -1 152
22 177 14 14 32 26 40 26 9 0 33 9 54 20 20 11 49 20 63 20 14 0 38 7 52 15
15 8 38 19 52 25 14 5 32 14 40 20 8 5 26 15 40 21 14 5 43 21 65 34 22 14 51
29 65 35 14 6 58 38 97 71 40 32 76 59 81 59 8 0 124 99 130 111 1 3 20 25 42
49 22 24 40 49 40 56 0 6 7 18 17 25 9 8 22 28 30 44 8 17 25 48 38 70 14 22
27 47 31 55 4 8 15 33 25 55 10 22 21 56 25 75 3 19 12 52 20 73 29 79 4 255
-40 279 -30 16 -227 6 -257 -13 -13 -9 -43 -20 -66 -24 -23 -3 -47 -13 -53
-20 -6 -8 -26 -17 -43 -20 -18 -4 -39 -13 -47 -20 -8 -8 -26 -19 -40 -25 -14
-6 -43 -22 -65 -35 -22 -14 -51 -29 -65 -35 -14 -5 -32 -15 -40 -20 -8 -6 -24
-14 -36 -19 -63 -28 -260 -186 -276 -223 -8 -16 -19 -27 -28 -26 -13 3 -14
182 -11 1526 l3 1522 -55 0 -55 0 -6 -432 c-14 -979 -14 -2611 -1 -2648 16
-42 27 -264 15 -295 -14 -36 -36 -37 -85 -4 -45 31 -62 47 -131 127 -65 75
-111 59 -158 -58 -15 -36 -34 -78 -44 -95 -23 -42 -26 -451 -2 -480 8 -9 19
-26 25 -38 27 -53 157 -74 227 -36 13 7 43 17 68 21 25 5 57 11 71 14 33 7 38
-8 29 -95 -3 -35 -3 -120 1 -190 5 -84 4 -130 -3 -138 -14 -18 -53 -16 -68 2
-7 8 -18 15 -25 15 -7 0 -24 9 -38 20 -14 11 -31 20 -39 20 -7 0 -30 9 -51 20
-20 11 -48 20 -62 20 -14 0 -42 7 -63 16 -134 56 -172 63 -356 68 -99 3 -184
10 -190 16 -10 10 -11 319 -1 480 33 559 46 2897 16 3155 -5 50 -13 186 -17
303 l-7 212 -48 0 -49 0 5 -242 c3 -134 10 -459 16 -723 7 -342 7 -660 0
-1105 -6 -344 -11 -776 -11 -961 0 -466 -37 -1343 -60 -1429 -5 -19 -14 -107
-20 -193 -5 -87 -14 -175 -19 -195 -6 -20 -15 -74 -21 -119 -6 -46 -17 -98
-25 -118 -8 -19 -15 -48 -15 -65 0 -16 -9 -56 -19 -87 -11 -32 -22 -75 -26
-95 -3 -20 -12 -50 -20 -65 -8 -15 -15 -39 -15 -53 0 -14 -9 -43 -20 -65 -11
-22 -20 -43 -20 -49 0 -5 -9 -27 -19 -50 -10 -23 -31 -70 -45 -106 -15 -36
-31 -72 -37 -80 -5 -8 -14 -24 -19 -35 -12 -22 -41 -68 -114 -177 -94 -139
-216 -268 -381 -401 -55 -45 -102 -84 -105 -88 -7 -10 -140 -99 -148 -99 -3 0
-35 -19 -71 -43 -94 -61 -170 -103 -241 -132 -8 -3 -33 -17 -55 -30 -42 -25
-192 -100 -285 -142 -30 -14 -62 -29 -70 -34 -45 -26 -144 -70 -200 -89 -124
-40 -236 -85 -302 -120 -20 -11 -44 -20 -53 -20 -8 0 -32 -9 -52 -20 -21 -11
-48 -20 -60 -20 -13 0 -40 -9 -60 -20 -21 -11 -48 -20 -61 -20 -13 0 -46 -9
-73 -20 -27 -11 -71 -29 -98 -40 -27 -11 -60 -20 -73 -20 -13 0 -36 -7 -51
-15 -15 -8 -45 -17 -65 -21 -20 -4 -50 -13 -66 -21 -16 -8 -58 -19 -93 -24
-35 -5 -77 -16 -93 -24 -16 -8 -42 -15 -57 -15 -16 0 -54 -9 -86 -20 -31 -11
-72 -20 -90 -20 -18 0 -56 -6 -83 -14 -27 -8 -83 -19 -125 -25 -42 -6 -89 -15
-104 -21 -16 -6 -76 -15 -134 -21 -58 -5 -122 -14 -141 -19 -19 -5 -89 -14
-155 -20 -66 -6 -136 -16 -155 -23 -62 -21 -1004 -17 -1104 6 -43 9 -101 17
-130 17 -28 0 -105 9 -171 20 -66 11 -140 20 -165 20 -25 0 -70 7 -100 15 -30
8 -98 21 -151 29 -53 7 -102 17 -108 21 -7 4 -43 11 -80 16 -38 4 -84 15 -102
23 -19 7 -56 19 -84 24 -50 11 -163 41 -220 60 -129 42 -162 52 -179 52 -11 0
-38 8 -60 18 -70 32 -151 62 -166 62 -8 1 -33 9 -55 20 -22 11 -47 19 -55 20
-8 0 -32 9 -53 20 -20 11 -45 20 -55 20 -9 0 -33 8 -52 19 -19 10 -49 21 -67
25 -17 4 -37 14 -44 22 -6 8 -23 14 -37 14 -13 0 -39 8 -56 19 -17 10 -58 28
-91 41 -91 35 -225 96 -325 150 -30 17 -59 30 -63 30 -5 0 -22 11 -39 25 -16
14 -35 25 -43 25 -7 0 -18 7 -25 15 -7 8 -19 15 -28 15 -8 0 -40 17 -71 37
-74 50 -110 71 -143 84 -14 6 -29 17 -32 25 -3 8 -10 14 -16 14 -16 0 -158
106 -277 206 -116 98 -383 393 -383 422 0 6 -17 32 -37 59 -46 59 -59 79 -78
118 -9 17 -20 37 -25 45 -6 8 -14 26 -20 40 -5 14 -14 32 -20 40 -5 8 -14 26
-20 40 -5 14 -14 32 -19 40 -18 29 -50 106 -61 147 -6 23 -15 45 -20 48 -5 3
-12 27 -16 53 -3 26 -12 56 -19 68 -8 12 -17 39 -21 60 -4 21 -15 57 -25 79
-10 22 -19 51 -19 65 0 14 -6 37 -14 52 -8 14 -19 71 -25 126 -6 55 -15 112
-21 127 -5 14 -12 59 -16 98 -3 40 -12 108 -20 152 -8 44 -19 141 -24 215 -6
74 -15 164 -20 200 -6 36 -14 182 -20 325 -5 143 -14 303 -20 355 -25 202 -31
1491 -14 2943 l6 527 -51 0 -51 0 0 -237 c0 -131 -5 -417 -10 -636 -12 -481
-15 -1486 -6 -1687 4 -80 12 -381 18 -670 6 -289 12 -577 15 -641 4 -124 -7
-159 -46 -144 -9 4 -34 9 -56 12 -22 3 -59 11 -83 19 -52 17 -47 17 -68 -3
-31 -31 -153 -31 -190 0 -21 18 -37 23 -60 20 -23 -4 -37 1 -51 16 -11 12 -44
29 -74 39 -88 30 -95 50 -82 258 7 117 17 194 32 251 l22 82 -21 21 c-19 19
-21 30 -17 88 25 354 47 1377 47 2255 l0 957 -49 0 c-45 0 -49 -2 -54 -27z
m-1049 -2617 c15 -7 49 -16 76 -20 27 -3 57 -12 65 -20 9 -8 30 -18 46 -22 17
-3 37 -12 45 -19 8 -7 29 -16 47 -20 17 -3 37 -12 43 -20 6 -8 25 -17 41 -20
16 -4 31 -11 35 -16 3 -5 20 -16 37 -24 18 -8 39 -19 47 -25 8 -5 26 -15 40
-20 25 -10 96 -55 185 -117 25 -18 48 -33 51 -33 10 0 104 -95 104 -105 0 -5
-9 -16 -20 -23 -29 -18 -29 -121 0 -147 11 -10 20 -26 20 -36 0 -23 59 -86 85
-91 38 -6 45 -81 36 -361 -1 -31 -29 -30 -69 2 -56 45 -82 97 -82 163 0 41 -5
61 -20 78 -11 13 -20 31 -20 40 0 10 -15 51 -34 91 -26 58 -35 93 -40 164 -11
127 -13 135 -45 135 -15 0 -32 -5 -39 -12 -17 -17 -15 -113 2 -127 7 -6 16
-41 19 -77 4 -37 13 -76 20 -88 8 -11 17 -34 21 -50 4 -16 16 -41 27 -54 10
-14 19 -34 19 -45 0 -11 9 -30 19 -41 66 -70 19 -103 -71 -50 -70 40 -81 48
-111 72 -16 12 -33 22 -38 22 -5 0 -32 16 -59 35 -27 19 -54 35 -59 35 -11 0
-109 75 -181 139 -30 27 -72 63 -92 81 -21 18 -38 36 -38 41 0 4 -15 29 -32
55 -118 168 -155 265 -164 427 l-7 117 32 0 c18 0 44 -6 59 -14z m13742 -11
c18 -9 31 -26 35 -46 9 -41 -4 -157 -20 -183 -7 -12 -16 -40 -20 -63 -4 -24
-11 -46 -16 -49 -6 -3 -14 -16 -19 -28 -4 -13 -33 -60 -64 -105 -31 -45 -56
-86 -56 -90 0 -5 -32 -40 -71 -78 -103 -98 -108 -103 -115 -103 -3 0 -27 -17
-53 -38 -62 -51 -185 -132 -199 -132 -7 0 -38 -18 -69 -40 -32 -22 -65 -40
-73 -40 -9 0 -25 -7 -37 -15 -11 -8 -40 -17 -63 -21 -24 -4 -52 -16 -62 -26
-34 -34 -53 -19 -56 42 -1 30 -5 86 -8 123 -3 41 -1 80 6 100 6 18 16 84 21
147 16 195 20 214 54 241 49 40 110 79 123 79 7 0 12 4 12 8 0 5 21 22 48 38
26 16 56 35 67 42 11 6 31 17 45 22 14 6 32 15 40 20 8 6 26 15 40 20 14 6 32
14 40 20 8 5 29 16 45 25 17 8 37 19 45 24 28 18 129 61 143 61 8 0 20 6 26
14 7 8 35 17 64 21 29 4 61 11 72 16 30 12 43 11 75 -6z m-1201 -749 c39 -31
79 -56 90 -56 44 0 54 -47 43 -216 l-9 -153 -33 -31 c-32 -30 -33 -30 -145
-30 -78 0 -116 4 -122 13 -29 36 -24 494 5 524 31 30 94 11 171 -51z m-11395
-561 c11 -8 32 -15 47 -15 20 0 28 -6 33 -25 7 -29 1 -45 -18 -45 -23 0 -39
-28 -32 -55 10 -39 54 -34 93 10 36 40 54 43 106 15 41 -22 155 -28 174 -9 15
15 252 38 262 25 15 -20 49 -311 51 -436 0 -47 9 -123 20 -170 11 -47 20 -99
20 -117 0 -17 9 -69 20 -115 11 -46 20 -99 20 -119 0 -20 9 -56 20 -80 11 -24
20 -56 20 -72 0 -15 9 -44 20 -64 11 -21 20 -52 20 -70 0 -18 9 -50 20 -70 11
-21 20 -48 20 -60 0 -13 9 -40 20 -60 11 -21 20 -43 20 -50 0 -7 9 -30 20 -50
11 -21 20 -44 20 -51 0 -8 9 -25 20 -39 11 -14 20 -31 20 -38 0 -16 50 -115
67 -133 7 -7 13 -20 13 -28 0 -8 6 -17 14 -20 8 -3 18 -18 21 -34 3 -15 15
-36 26 -46 10 -9 19 -22 19 -29 0 -7 9 -20 20 -30 11 -10 20 -24 20 -31 0 -7
6 -17 14 -21 7 -4 20 -21 28 -36 42 -81 283 -331 443 -459 103 -83 259 -192
330 -232 17 -9 48 -28 70 -41 22 -13 54 -31 70 -39 17 -9 38 -20 48 -26 9 -5
25 -15 35 -20 9 -6 33 -17 52 -26 56 -24 114 -57 146 -82 27 -22 28 -25 11
-37 -21 -15 -16 -396 8 -520 7 -38 16 -119 20 -180 4 -60 13 -140 20 -178 8
-37 17 -107 21 -155 4 -48 12 -105 19 -127 7 -22 16 -71 20 -109 4 -38 13 -85
20 -106 7 -20 16 -86 20 -146 4 -60 13 -125 21 -146 7 -20 16 -74 20 -119 4
-46 13 -97 19 -114 7 -16 16 -73 20 -125 4 -52 13 -111 20 -130 8 -19 16 -64
20 -99 3 -36 12 -76 20 -90 7 -14 16 -62 20 -106 4 -44 13 -94 20 -112 8 -17
17 -58 21 -89 4 -32 12 -72 19 -89 7 -16 16 -64 20 -105 4 -41 13 -87 21 -101
7 -14 16 -50 20 -80 3 -30 12 -63 19 -74 7 -11 16 -50 20 -85 4 -36 13 -81 20
-100 8 -19 17 -57 20 -85 4 -27 13 -62 21 -76 7 -15 18 -51 23 -80 5 -30 16
-72 25 -94 8 -22 15 -50 16 -63 0 -12 7 -33 15 -46 9 -13 18 -48 21 -77 3 -30
14 -76 24 -104 34 -97 50 -153 57 -201 3 -27 14 -65 25 -84 10 -19 18 -47 18
-63 0 -15 7 -41 15 -58 9 -16 20 -58 25 -92 9 -64 30 -139 55 -192 8 -16 17
-55 21 -85 4 -30 12 -62 19 -70 7 -8 16 -31 20 -50 4 -19 13 -45 21 -57 7 -12
16 -41 20 -65 3 -24 12 -53 20 -65 7 -12 17 -40 20 -63 4 -23 13 -47 20 -55
12 -12 33 -82 34 -111 0 -22 -32 -24 -78 -5 -56 23 -162 58 -217 72 -22 6 -47
16 -55 24 -8 7 -32 16 -52 20 -21 4 -42 13 -49 21 -6 7 -26 16 -45 20 -18 3
-38 12 -45 20 -6 8 -17 14 -23 14 -6 0 -33 11 -61 25 -27 13 -57 25 -66 25 -9
0 -19 6 -22 14 -3 8 -21 17 -39 21 -18 4 -40 13 -48 20 -8 7 -26 16 -40 20
-14 4 -32 13 -40 20 -8 7 -26 16 -40 20 -14 4 -36 16 -49 26 -13 11 -32 19
-41 19 -10 0 -20 7 -23 14 -3 8 -22 18 -41 22 -20 3 -36 10 -36 16 0 5 -15 15
-34 23 -19 8 -37 19 -40 24 -4 5 -19 12 -35 16 -16 3 -32 12 -34 20 -3 7 -19
16 -35 20 -17 3 -33 12 -35 20 -3 7 -19 16 -36 20 -17 4 -34 12 -38 18 -5 7
-19 18 -33 25 -84 43 -100 53 -100 61 0 5 -14 12 -31 16 -17 4 -33 13 -35 20
-3 7 -17 16 -31 20 -23 5 -81 41 -93 57 -3 4 -33 21 -65 39 -33 17 -67 38 -76
46 -9 7 -33 16 -52 20 -20 3 -44 14 -53 24 -9 11 -22 19 -29 19 -15 0 -53 41
-81 88 -36 58 -84 160 -84 175 0 8 -6 20 -14 26 -8 7 -17 28 -21 48 -3 20 -13
45 -20 57 -7 12 -17 39 -21 61 -3 22 -13 51 -20 65 -8 14 -19 36 -24 50 -6 14
-17 36 -25 50 -8 14 -15 37 -15 51 0 15 -6 29 -14 32 -7 3 -16 26 -19 52 -4
26 -16 58 -27 72 -11 14 -20 34 -20 44 0 10 -5 21 -11 25 -6 3 -18 21 -26 38
-29 63 -46 91 -60 99 -7 4 -13 14 -13 20 0 29 -93 103 -200 160 -30 17 -73 45
-96 63 -23 19 -45 34 -50 34 -5 0 -27 18 -48 40 -22 22 -49 43 -60 46 -12 4
-23 10 -26 15 -10 15 -142 99 -165 105 -13 3 -29 12 -36 20 -6 8 -17 14 -24
14 -7 0 -25 20 -39 45 -30 50 -50 56 -89 25 -41 -32 -44 -59 -11 -85 27 -22
29 -28 30 -103 1 -43 6 -88 12 -98 6 -11 15 -53 21 -94 16 -113 46 -218 82
-285 17 -33 35 -83 39 -112 5 -31 23 -77 43 -110 19 -32 38 -71 41 -88 4 -16
19 -40 32 -54 33 -33 80 -103 89 -133 5 -12 16 -29 26 -36 20 -14 25 -37 9
-47 -14 -8 -99 96 -145 177 -8 15 -27 40 -41 55 -14 15 -33 42 -41 58 -9 17
-21 37 -28 45 -7 8 -68 112 -134 230 -67 118 -126 222 -131 230 -5 8 -21 38
-35 66 -14 29 -36 67 -48 85 -26 39 -107 201 -107 214 0 5 -24 58 -54 119 -30
61 -60 130 -66 153 -6 23 -15 45 -20 48 -5 3 -12 26 -16 50 -3 25 -15 62 -25
82 -11 21 -19 49 -19 63 -1 14 -9 43 -20 65 -11 22 -19 53 -20 68 0 15 -7 41
-15 56 -8 16 -19 75 -24 132 -6 57 -15 120 -21 139 -6 19 -13 78 -16 130 -3
52 -13 138 -22 190 -20 119 -23 837 -4 934 7 32 17 142 23 244 6 102 15 196
20 210 6 14 14 93 19 176 5 83 14 167 20 186 6 19 15 81 21 137 5 56 16 130
24 165 8 35 15 87 15 116 0 29 9 94 19 145 11 50 22 117 25 149 3 31 12 83 20
115 8 32 17 103 21 157 4 55 13 112 21 127 8 16 14 45 14 66 0 21 9 81 19 133
10 52 22 142 25 200 4 58 13 139 21 180 8 41 19 145 25 230 6 85 15 189 20
230 5 41 9 156 9 256 1 166 3 183 21 204 24 27 25 52 6 83 -17 26 -31 111 -21
126 9 15 47 13 69 -4z m10736 -266 c41 -12 119 -24 172 -28 75 -6 102 -12 119
-27 16 -14 37 -19 83 -20 35 -1 74 -8 91 -18 17 -9 39 -16 50 -16 11 0 34 -7
50 -16 17 -9 53 -22 80 -29 177 -47 172 -35 179 -390 3 -143 10 -289 16 -325
5 -36 12 -130 16 -210 3 -80 12 -188 20 -240 8 -52 19 -160 24 -240 5 -80 16
-208 25 -285 8 -77 15 -187 15 -245 0 -58 7 -160 15 -225 30 -237 54 -883 54
-1430 0 -548 -20 -982 -54 -1175 -8 -47 -15 -102 -15 -123 0 -21 -9 -80 -19
-130 -11 -51 -24 -119 -30 -152 -25 -151 -59 -303 -87 -395 -8 -25 -20 -79
-28 -120 -8 -41 -27 -118 -41 -170 -15 -52 -31 -118 -36 -146 -5 -28 -16 -64
-24 -80 -8 -16 -15 -38 -15 -49 0 -11 -9 -40 -20 -64 -11 -24 -20 -52 -20 -63
0 -12 -10 -42 -21 -67 -49 -106 -59 -128 -59 -134 0 -28 -173 -224 -295 -335
-44 -40 -137 -127 -207 -195 -169 -163 -272 -257 -333 -306 -27 -22 -106 -94
-175 -161 -69 -67 -147 -141 -175 -163 -27 -23 -84 -76 -125 -118 -42 -42 -90
-84 -107 -92 -17 -9 -40 -28 -51 -42 -18 -23 -79 -75 -247 -212 -38 -31 -100
-84 -136 -118 -37 -33 -82 -72 -100 -87 -19 -15 -55 -47 -81 -70 -25 -24 -62
-56 -83 -73 -20 -16 -63 -54 -97 -83 -33 -29 -76 -65 -95 -80 -19 -15 -43 -34
-52 -42 -9 -8 -57 -49 -106 -90 -50 -41 -99 -83 -110 -93 -11 -10 -56 -42
-100 -70 -115 -75 -116 -75 -161 -96 -23 -11 -45 -24 -48 -30 -4 -6 -16 -11
-26 -11 -11 0 -34 -9 -52 -20 -18 -11 -45 -20 -60 -20 -14 0 -55 -9 -90 -20
-34 -11 -79 -20 -98 -20 -19 0 -68 -9 -109 -20 -41 -11 -97 -20 -125 -20 -28
0 -94 -7 -146 -14 -53 -8 -170 -20 -260 -26 -91 -6 -183 -15 -205 -20 -22 -6
-229 -15 -460 -20 -231 -5 -545 -14 -699 -20 -341 -12 -529 -12 -622 0 -39 5
-155 14 -257 20 -102 5 -198 15 -213 20 -15 6 -79 15 -143 20 -64 5 -132 14
-151 20 -19 5 -95 15 -169 20 -73 6 -141 15 -151 20 -10 5 -71 14 -135 20 -64
6 -128 15 -140 20 -13 5 -78 14 -146 20 -68 6 -131 16 -140 21 -10 5 -57 15
-106 23 -48 8 -106 19 -128 25 -22 6 -57 11 -77 11 -21 0 -64 9 -95 19 -32 11
-86 22 -121 25 -35 3 -72 11 -84 17 -11 6 -52 15 -91 20 -39 5 -81 16 -93 24
-13 8 -36 15 -51 15 -15 1 -46 8 -68 16 -22 9 -59 19 -82 24 -42 9 -168 68
-308 145 -44 24 -87 47 -95 51 -8 4 -35 24 -60 43 -25 20 -63 49 -85 63 -127
86 -596 526 -780 732 -13 14 -133 154 -160 187 -11 13 -42 51 -68 84 -27 33
-52 62 -56 65 -3 3 -14 16 -23 31 -9 14 -38 50 -65 80 -28 29 -72 86 -99 124
-26 39 -52 75 -56 80 -22 27 -138 192 -181 257 -26 40 -72 107 -102 148 -58
80 -70 120 -35 120 13 0 27 -12 38 -31 9 -17 36 -52 60 -78 23 -25 42 -50 42
-54 0 -4 12 -12 27 -18 16 -5 36 -22 45 -37 10 -15 23 -36 30 -47 7 -11 35
-44 62 -74 26 -30 55 -66 64 -80 9 -15 22 -30 29 -34 7 -4 13 -12 13 -17 0
-22 402 -430 423 -430 20 0 197 -189 214 -227 11 -28 18 -33 48 -33 69 0 71
75 4 147 -21 23 -39 48 -39 55 0 7 -7 26 -16 43 -8 16 -17 50 -21 75 -6 53
-37 137 -87 235 -20 39 -36 78 -36 87 0 9 -7 21 -17 26 -21 12 -10 42 16 42
27 0 67 -19 123 -57 26 -18 51 -33 55 -33 5 0 34 -18 66 -40 31 -22 61 -40 65
-40 4 0 33 -18 65 -40 31 -22 61 -40 65 -40 4 0 32 -17 62 -38 30 -20 66 -43
80 -50 14 -7 43 -23 65 -37 22 -13 54 -32 70 -40 17 -9 48 -27 70 -40 44 -27
49 -30 85 -45 14 -6 43 -22 65 -35 63 -37 240 -125 252 -125 6 0 16 -7 23 -15
7 -8 27 -17 46 -21 19 -3 36 -9 39 -13 4 -7 82 -46 170 -87 17 -7 44 -16 60
-20 17 -4 37 -13 45 -20 9 -7 34 -16 58 -20 23 -3 47 -13 53 -20 6 -7 33 -17
60 -20 27 -4 54 -12 60 -20 6 -7 32 -16 57 -20 26 -4 59 -13 74 -20 15 -8 40
-14 55 -14 15 0 42 -9 58 -20 17 -11 44 -20 60 -20 17 0 44 -8 60 -19 17 -10
53 -21 80 -25 26 -4 58 -14 69 -21 12 -7 43 -17 70 -21 27 -4 60 -13 74 -20
14 -7 51 -16 81 -20 31 -4 65 -13 76 -19 11 -7 47 -16 80 -20 33 -4 69 -12 79
-17 10 -6 53 -14 94 -20 41 -5 86 -15 101 -22 14 -7 54 -16 88 -19 35 -4 78
-13 96 -21 18 -7 77 -17 132 -21 54 -4 115 -13 134 -20 20 -7 83 -15 141 -19
58 -4 137 -15 175 -23 101 -23 868 -23 965 0 36 8 126 18 200 22 74 3 158 12
185 20 28 7 118 16 200 20 83 3 177 12 210 20 33 7 110 16 170 20 61 3 133 12
160 20 28 7 88 16 135 20 46 4 96 13 110 20 14 7 59 17 100 20 41 4 95 16 119
26 24 11 62 19 85 19 22 0 53 6 68 14 14 8 50 17 80 21 29 4 62 13 73 20 11 7
41 16 65 20 25 4 52 13 60 20 8 7 34 16 58 20 23 4 48 12 55 19 7 7 34 16 61
19 27 4 57 13 65 21 9 8 30 17 48 21 17 3 37 13 43 20 6 8 31 17 55 21 25 3
50 12 56 20 6 8 21 14 33 14 12 0 42 11 68 25 26 14 53 25 61 25 8 0 20 6 26
14 7 8 27 17 45 20 19 4 39 13 45 20 7 8 27 17 45 20 19 4 39 13 46 21 6 7 24
17 40 20 16 3 34 13 41 21 6 8 21 14 34 14 12 0 30 9 40 20 10 11 28 20 40 20
12 0 30 9 39 19 10 11 31 23 47 26 16 4 31 10 34 15 2 4 55 33 117 64 62 31
131 69 153 85 22 16 68 44 103 61 35 18 66 38 68 45 3 8 23 12 52 11 52 -1 67
-23 38 -55 -9 -9 -15 -33 -14 -52 1 -40 -12 -67 -58 -125 -38 -46 -79 -146
-70 -169 15 -39 130 64 170 152 8 17 27 40 42 50 16 10 35 24 44 31 13 12 78
55 130 87 34 21 403 386 480 475 30 35 84 93 119 129 34 36 75 82 89 101 15
19 44 55 65 80 44 52 43 50 84 115 18 28 36 55 41 60 7 9 66 109 91 155 24 44
51 109 56 135 4 17 12 37 19 45 8 8 16 35 20 59 4 24 13 53 21 64 8 12 15 31
15 42 0 11 8 36 18 55 11 19 22 61 25 92 3 32 13 68 21 80 9 12 16 34 16 48 1
14 9 43 20 65 15 31 19 62 20 143 0 101 -1 104 -29 133 -42 42 -101 27 -101
-25 0 -27 -33 -59 -78 -74 -42 -14 -232 -143 -302 -204 -19 -16 -44 -34 -55
-39 -60 -27 -160 -97 -227 -162 -66 -64 -138 -163 -138 -190 0 -8 -9 -26 -20
-40 -11 -14 -20 -34 -20 -45 0 -10 -8 -30 -19 -43 -10 -13 -21 -35 -24 -49 -3
-14 -23 -69 -46 -123 -23 -53 -41 -103 -41 -110 0 -7 -9 -30 -20 -52 -11 -22
-20 -49 -20 -61 0 -12 -7 -27 -15 -34 -8 -7 -15 -18 -15 -24 0 -7 -9 -29 -20
-51 -11 -22 -20 -44 -20 -50 0 -5 -12 -32 -25 -60 -14 -27 -25 -57 -25 -66 0
-9 -7 -22 -15 -29 -8 -7 -15 -18 -15 -24 0 -7 -8 -28 -19 -49 -10 -20 -22 -53
-25 -73 -12 -61 -63 -148 -132 -227 -46 -52 -66 -60 -100 -45 -22 10 -28 9
-38 -4 -7 -9 -25 -20 -42 -24 -16 -3 -38 -14 -49 -24 -11 -9 -27 -20 -35 -24
-8 -3 -33 -17 -55 -31 -22 -13 -51 -29 -65 -34 -14 -6 -32 -16 -40 -21 -8 -6
-26 -15 -40 -20 -14 -6 -32 -15 -40 -20 -8 -6 -26 -15 -40 -20 -14 -6 -32 -15
-40 -20 -8 -6 -26 -15 -40 -20 -14 -6 -32 -14 -40 -20 -8 -5 -29 -16 -46 -24
-17 -8 -35 -19 -38 -25 -4 -6 -17 -11 -29 -11 -12 0 -40 -12 -62 -25 -22 -14
-47 -25 -56 -25 -9 0 -22 -7 -29 -15 -7 -8 -27 -17 -46 -21 -18 -3 -38 -12
-44 -19 -6 -8 -26 -17 -43 -21 -18 -3 -43 -12 -57 -19 -42 -23 -113 -52 -152
-65 -21 -6 -40 -16 -43 -21 -4 -5 -14 -9 -23 -9 -10 0 -35 -9 -56 -19 -21 -11
-52 -23 -69 -27 -18 -3 -39 -12 -47 -19 -8 -7 -35 -15 -60 -19 -25 -4 -54 -13
-66 -21 -12 -7 -39 -17 -60 -20 -21 -4 -49 -13 -61 -21 -12 -7 -41 -17 -65
-20 -24 -4 -61 -15 -83 -25 -22 -10 -53 -19 -68 -19 -16 0 -38 -5 -49 -11 -16
-8 -24 -8 -35 3 -17 17 -2 135 22 171 7 12 16 40 20 62 4 22 12 56 20 75 7 19
16 62 20 95 4 33 13 72 21 87 7 14 16 53 20 85 3 32 12 67 19 79 7 11 16 51
20 90 4 38 13 84 21 102 7 18 17 57 20 85 4 29 13 69 20 91 8 21 14 57 14 80
0 23 8 58 18 78 11 20 22 63 25 95 3 32 13 75 21 95 9 20 19 70 22 110 4 40
13 82 20 93 8 11 14 40 14 65 1 25 8 63 16 85 9 22 20 67 26 100 6 33 17 73
24 88 8 15 18 58 21 95 3 37 11 78 18 92 7 14 16 63 20 110 4 46 13 96 20 110
7 14 16 52 20 85 4 33 13 71 20 85 7 14 15 63 19 110 4 47 13 94 21 106 8 12
17 57 21 100 4 44 12 90 19 104 7 14 15 68 19 120 4 52 13 104 20 115 7 11 16
54 20 95 3 41 13 95 20 120 8 25 17 95 21 155 4 61 14 119 21 130 7 11 16 61
19 110 4 50 13 113 20 140 8 28 17 95 20 150 4 55 13 123 20 150 8 28 16 86
20 130 3 44 12 116 20 160 8 44 17 154 20 245 4 91 13 194 20 230 8 36 16 124
19 195 3 72 10 146 16 165 6 22 6 46 0 69 -10 37 17 91 46 91 8 0 31 9 51 20
21 11 44 20 51 20 7 0 44 18 82 40 38 22 75 40 83 40 8 0 20 6 26 14 7 8 24
17 38 21 15 3 38 15 51 26 14 10 30 19 36 19 6 0 34 15 61 33 28 18 73 45 100
61 28 16 68 44 91 63 23 18 45 33 50 33 10 0 140 96 195 144 19 17 61 54 93
81 52 45 185 189 228 247 10 13 36 47 58 76 22 28 45 62 50 75 6 12 21 40 35
62 13 22 31 54 39 70 9 17 20 37 25 45 22 34 77 167 101 242 6 21 16 40 21 43
5 4 9 18 9 32 0 14 8 40 19 57 10 17 22 53 25 79 4 26 13 62 20 80 8 18 17 56
20 86 4 30 14 63 22 75 8 11 14 37 14 58 0 20 9 75 19 120 11 46 25 130 30
188 6 58 16 141 21 185 6 44 13 132 16 196 5 104 25 179 47 179 1 0 36 -10 77
-21z m-2028 -2934 c-2 -37 -8 -78 -13 -92 -5 -13 -14 -88 -20 -166 -5 -78 -15
-158 -20 -177 -5 -19 -14 -114 -20 -210 -5 -96 -14 -188 -19 -204 -5 -16 -14
-81 -20 -145 -6 -64 -17 -147 -25 -186 -8 -38 -17 -113 -20 -165 -4 -52 -13
-113 -20 -135 -7 -22 -16 -80 -20 -130 -4 -49 -13 -108 -20 -130 -7 -22 -16
-78 -19 -125 -4 -47 -13 -105 -21 -130 -7 -25 -16 -76 -20 -114 -4 -38 -13
-85 -20 -105 -7 -20 -16 -79 -20 -131 -4 -52 -13 -106 -20 -120 -7 -14 -16
-54 -20 -90 -4 -36 -13 -76 -20 -90 -7 -14 -16 -61 -20 -105 -4 -44 -11 -88
-17 -98 -5 -10 -14 -46 -19 -80 -5 -34 -16 -80 -24 -102 -7 -22 -16 -77 -19
-122 -3 -46 -12 -95 -20 -111 -8 -15 -17 -50 -21 -77 -4 -28 -13 -63 -20 -80
-6 -16 -15 -58 -19 -93 -4 -34 -13 -79 -20 -100 -8 -21 -17 -67 -21 -102 -4
-36 -13 -76 -20 -90 -7 -14 -15 -55 -19 -92 -3 -36 -13 -81 -20 -100 -7 -18
-17 -55 -20 -81 -4 -26 -14 -63 -22 -82 -8 -19 -14 -50 -14 -70 0 -20 -9 -61
-19 -93 -10 -31 -22 -77 -26 -102 -4 -25 -13 -56 -20 -70 -7 -14 -15 -59 -19
-100 -4 -41 -12 -83 -20 -95 -7 -11 -16 -46 -20 -78 -3 -32 -12 -71 -20 -85
-7 -15 -16 -52 -20 -82 -4 -30 -13 -75 -21 -100 -36 -118 -55 -204 -55 -248 0
-65 -14 -80 -85 -92 -33 -5 -85 -14 -115 -19 -135 -24 -262 -42 -340 -47 -47
-3 -116 -12 -154 -20 -38 -8 -142 -19 -230 -23 -89 -5 -172 -13 -186 -19 -14
-5 -92 -12 -175 -16 -82 -4 -186 -15 -230 -24 -120 -25 -978 -25 -1045 0 -25
9 -88 19 -140 22 -53 4 -111 11 -130 17 -19 5 -78 14 -131 20 -54 5 -112 15
-130 23 -19 7 -61 17 -94 21 -33 4 -71 13 -85 20 -14 7 -50 15 -81 19 -31 3
-72 13 -92 21 -20 8 -56 15 -79 15 -24 1 -61 8 -83 16 -22 9 -69 22 -105 29
-36 7 -83 20 -105 29 -22 8 -50 15 -63 16 -13 0 -35 6 -50 14 -15 7 -47 17
-72 21 -77 12 -123 43 -139 95 -7 25 -19 56 -26 70 -7 14 -16 50 -20 80 -4 30
-14 64 -21 75 -8 12 -18 41 -23 66 -12 53 -47 158 -60 173 -5 6 -13 31 -19 56
-6 25 -17 63 -26 85 -8 22 -15 54 -16 70 0 17 -6 39 -14 50 -7 11 -17 42 -20
69 -4 27 -14 59 -21 70 -8 12 -17 41 -21 66 -4 25 -15 61 -26 80 -10 19 -18
47 -18 61 0 15 -6 42 -14 60 -7 19 -17 59 -20 89 -4 30 -14 65 -21 77 -8 12
-18 48 -21 80 -4 32 -12 69 -19 83 -7 14 -16 45 -20 70 -4 25 -13 52 -20 60
-7 8 -16 40 -20 70 -4 30 -13 66 -20 80 -7 14 -16 54 -20 90 -4 36 -13 76 -20
90 -7 14 -16 50 -20 80 -4 30 -13 71 -21 91 -7 21 -16 59 -20 86 -4 26 -13 57
-20 68 -7 11 -16 54 -20 95 -3 41 -12 86 -19 100 -7 14 -15 55 -19 92 -3 37
-12 84 -20 105 -7 21 -16 69 -20 107 -4 38 -13 80 -20 95 -8 14 -17 58 -21 96
-4 39 -13 81 -20 95 -7 14 -16 63 -20 110 -4 47 -13 108 -20 135 -8 28 -17 88
-21 135 -3 47 -12 100 -20 117 -7 18 -16 76 -19 130 -4 54 -13 118 -20 143 -8
25 -17 79 -21 120 -3 41 -13 93 -21 115 -8 22 -18 90 -23 150 -5 61 -13 126
-19 145 -5 19 -12 85 -16 145 -4 61 -13 137 -20 170 -7 33 -16 107 -20 165 -4
58 -9 130 -12 160 -3 30 -5 66 -5 80 0 14 -6 49 -15 78 -8 29 -12 60 -9 68 8
20 66 18 96 -3 34 -24 209 -103 229 -103 9 0 30 -9 46 -20 17 -11 37 -20 45
-20 8 0 29 -7 45 -16 17 -9 50 -22 75 -29 65 -19 132 -43 155 -57 11 -6 40
-17 65 -24 25 -7 77 -25 115 -39 39 -15 90 -33 115 -40 69 -21 142 -45 175
-56 17 -6 48 -14 70 -18 22 -4 65 -16 95 -25 30 -10 82 -26 115 -37 33 -10 75
-19 93 -19 18 0 46 -7 61 -15 16 -8 71 -19 122 -25 52 -7 103 -17 114 -24 11
-7 54 -16 96 -19 42 -4 89 -11 104 -17 16 -6 83 -15 149 -21 67 -5 146 -14
176 -20 231 -40 1206 -42 1414 -3 43 8 121 19 175 24 53 5 110 13 126 19 17 6
68 15 115 20 101 12 228 36 325 62 39 11 84 19 102 19 18 0 52 7 77 15 25 9
64 20 88 25 69 15 170 41 203 52 17 6 50 15 75 22 25 6 55 17 66 23 12 7 41
15 65 19 24 3 53 12 65 19 12 8 39 17 60 21 21 4 55 15 74 25 19 11 44 19 55
19 23 0 168 54 271 101 23 11 47 19 53 19 7 0 29 9 49 20 20 10 64 29 97 41
33 12 67 25 75 30 93 50 165 80 185 75 6 -2 9 -31 7 -71z m2553 -2721 c29 -11
47 -58 30 -80 -8 -11 -15 -30 -15 -43 0 -13 -9 -38 -19 -55 -10 -17 -22 -51
-26 -75 -4 -24 -14 -59 -21 -77 -8 -18 -14 -48 -14 -66 0 -18 -8 -46 -18 -63
-10 -16 -22 -43 -26 -60 -4 -16 -13 -37 -21 -45 -7 -8 -15 -37 -18 -63 -2 -26
-12 -56 -21 -66 -9 -10 -16 -26 -16 -35 0 -16 -26 -62 -97 -172 -13 -19 -23
-41 -23 -48 0 -7 -8 -24 -17 -37 -10 -13 -22 -31 -28 -40 -29 -47 -55 -79
-102 -129 -29 -30 -53 -60 -53 -67 0 -7 -6 -16 -14 -20 -8 -4 -28 -25 -45 -47
-68 -85 -196 -221 -406 -427 -296 -293 -299 -295 -322 -263 -23 31 -16 99 12
130 14 15 25 35 25 44 0 10 9 29 20 43 11 14 20 31 20 39 0 7 9 27 20 43 11
17 20 37 20 45 0 8 9 32 20 53 11 20 20 43 20 49 0 7 11 36 25 63 13 28 25 57
25 66 0 9 6 22 14 28 8 7 18 25 21 41 3 16 12 34 20 40 7 6 16 26 19 44 4 19
13 39 21 46 7 6 17 26 20 43 13 58 48 162 61 177 6 8 15 31 19 50 4 19 14 44
21 55 8 11 14 26 14 35 0 9 9 32 19 53 10 20 22 49 26 64 3 15 10 30 14 33 12
8 61 98 61 111 0 47 158 213 256 270 29 16 54 33 56 37 2 6 260 183 316 217
10 6 32 22 50 38 36 30 34 29 57 21z m-10920 -23 c7 -13 93 -71 104 -71 4 0
16 -10 27 -21 10 -12 43 -35 72 -51 28 -17 52 -34 52 -39 0 -5 7 -9 15 -9 8 0
19 -9 25 -20 6 -11 16 -20 22 -20 13 0 86 -48 103 -66 6 -7 23 -15 38 -18 35
-8 197 -168 197 -195 0 -10 7 -24 14 -31 8 -6 20 -27 26 -46 6 -19 15 -34 20
-34 5 0 12 -15 15 -32 4 -18 13 -40 21 -48 7 -9 16 -34 20 -55 3 -22 14 -54
25 -71 10 -17 19 -40 19 -51 0 -12 6 -26 14 -32 8 -6 17 -33 21 -59 4 -26 13
-54 20 -62 7 -8 15 -31 19 -51 4 -21 13 -42 21 -49 8 -7 18 -28 21 -48 6 -33
41 -116 64 -152 6 -8 15 -26 20 -40 6 -14 26 -54 45 -88 23 -42 35 -77 35
-103 0 -21 9 -56 20 -76 11 -21 20 -44 20 -51 0 -8 9 -25 20 -39 11 -14 20
-35 20 -45 0 -11 9 -31 20 -45 11 -14 20 -35 20 -47 0 -12 7 -31 15 -42 22
-29 20 -84 -3 -84 -21 0 -371 345 -482 475 -99 116 -169 196 -192 218 -10 10
-18 22 -18 27 0 6 -5 10 -12 10 -12 0 -108 98 -135 138 -9 13 -31 29 -50 37
-24 10 -35 22 -39 44 -4 17 -13 36 -20 42 -8 6 -14 20 -14 30 0 10 -4 20 -9
24 -15 9 -71 94 -71 108 0 7 -9 26 -20 42 -11 17 -20 42 -20 56 0 14 -11 40
-24 57 -13 18 -31 58 -40 90 -9 31 -26 74 -36 94 -11 20 -20 45 -20 55 0 10
-7 29 -16 41 -9 13 -19 58 -24 105 -4 45 -15 99 -24 119 -9 21 -16 53 -16 71
0 19 -7 40 -15 47 -19 16 -19 29 2 52 17 19 58 24 68 9z"/>
<path fill="none" stroke-linecap="round" stroke-linejoin="round" stroke-width="2.000000" d="M13351 11009 c-6 -18 -11 -46 -11 -63 0 -17 -9 -65 -20 -106 -11 -41
-20 -93 -20 -115 -1 -22 -8 -58 -16 -80 -9 -22 -20 -60 -26 -85 -5 -25 -14
-49 -19 -54 -11 -12 -12 -56 -1 -56 13 0 72 58 72 70 0 7 9 23 19 36 11 13 22
48 26 77 4 28 12 61 17 71 15 29 36 234 28 270 -18 74 -32 84 -49 35z"/>
<path fill="none" stroke-linecap="round" stroke-linejoin="round" stroke-width="2.000000" d="M1873 9937 c-4 -7 -13 -64 -20 -127 -6 -63 -18 -162 -27 -220 -9 -58
-16 -163 -16 -233 0 -72 -6 -157 -14 -195 -8 -37 -17 -120 -20 -184 -3 -64
-12 -145 -20 -180 -8 -35 -17 -119 -21 -187 -4 -68 -13 -140 -20 -160 -7 -20
-16 -84 -20 -141 -4 -57 -13 -121 -21 -142 -7 -20 -16 -92 -20 -160 -4 -68
-11 -134 -16 -148 -6 -14 -14 -69 -18 -122 -5 -53 -16 -121 -24 -150 -8 -29
-17 -95 -21 -146 -4 -51 -12 -108 -20 -125 -7 -18 -15 -67 -19 -111 -4 -43
-13 -104 -21 -135 -7 -31 -16 -94 -20 -141 -3 -47 -12 -105 -20 -130 -7 -25
-16 -85 -20 -135 -3 -49 -12 -112 -19 -140 -8 -27 -17 -97 -21 -155 -4 -58
-13 -132 -21 -165 -19 -81 -19 -329 0 -404 8 -31 17 -103 21 -161 4 -58 13
-119 20 -137 7 -17 17 -58 20 -90 4 -32 13 -65 20 -73 7 -8 16 -40 20 -70 4
-30 13 -66 21 -80 7 -14 16 -46 19 -72 3 -25 12 -51 20 -58 7 -6 16 -33 20
-60 4 -27 12 -51 20 -53 7 -3 16 -27 20 -54 4 -26 14 -56 22 -65 8 -9 17 -36
20 -60 3 -24 12 -50 19 -59 8 -8 17 -30 20 -48 4 -17 14 -36 24 -41 9 -5 22
-27 29 -49 13 -44 22 -49 40 -27 14 16 6 55 -21 106 -10 19 -18 47 -18 61 0
15 -6 32 -14 38 -7 6 -16 34 -19 62 -4 29 -13 59 -20 68 -8 9 -17 40 -19 69
-3 29 -13 60 -22 71 -9 10 -20 36 -23 57 -3 22 -12 48 -19 59 -6 11 -15 46
-19 77 -3 31 -12 62 -19 68 -8 6 -17 40 -21 75 -3 36 -13 77 -20 93 -8 15 -18
68 -23 117 -6 50 -16 110 -23 135 -20 73 -18 511 3 575 9 28 19 99 23 159 3
60 12 123 19 140 7 17 16 69 20 115 4 46 12 96 18 110 5 14 14 84 19 155 6 71
16 144 24 162 7 18 17 75 20 126 4 51 12 102 18 113 6 11 14 61 18 111 4 51
15 116 23 145 8 30 18 97 21 149 4 52 13 120 20 150 7 30 17 111 20 179 4 68
13 138 20 155 7 17 16 78 20 136 4 58 12 128 20 155 7 28 16 102 19 165 4 63
13 144 21 180 8 36 19 144 25 240 6 96 15 220 20 275 16 174 13 542 -5 548 -8
4 -18 1 -22 -6z"/>
<path fill="none" stroke-linecap="round" stroke-linejoin="round" stroke-width="2.000000" d="M2383 7978 c-16 -25 -7 -1073 10 -1183 9 -55 19 -165 22 -245 4 -80
13 -170 20 -200 7 -30 16 -104 20 -165 3 -60 12 -132 20 -160 7 -27 17 -88 21
-135 4 -47 13 -98 19 -115 7 -16 16 -75 20 -130 4 -55 14 -115 21 -134 8 -19
17 -59 20 -90 4 -31 12 -65 19 -76 6 -11 15 -49 19 -84 4 -35 14 -73 21 -85 8
-11 17 -41 21 -66 4 -25 13 -54 20 -65 6 -11 15 -45 19 -75 4 -30 13 -64 21
-75 7 -11 16 -40 20 -65 4 -25 12 -56 19 -70 7 -14 16 -45 20 -70 4 -25 13
-54 20 -66 8 -12 17 -39 21 -60 3 -21 12 -46 19 -54 7 -8 16 -36 20 -62 4 -26
13 -53 21 -59 8 -6 14 -21 14 -33 0 -12 9 -39 20 -61 11 -21 23 -55 26 -74 4
-20 12 -43 19 -51 7 -8 16 -29 20 -47 3 -17 12 -37 20 -43 7 -6 16 -26 19 -44
4 -19 13 -39 20 -46 8 -6 17 -29 21 -50 4 -21 13 -41 21 -44 8 -3 14 -14 14
-24 0 -11 8 -30 19 -43 10 -13 22 -38 25 -56 4 -17 14 -37 22 -44 8 -6 14 -17
14 -24 0 -7 7 -18 16 -25 8 -8 22 -27 30 -44 8 -17 25 -49 39 -71 13 -22 29
-51 35 -65 12 -26 29 -46 74 -88 16 -15 64 -62 108 -104 43 -42 114 -99 156
-127 42 -27 84 -56 92 -63 19 -16 66 -47 102 -68 92 -51 158 -92 163 -99 3 -5
19 -12 35 -16 17 -4 30 -10 30 -15 0 -5 30 -23 68 -41 37 -17 75 -39 85 -47
20 -18 52 -36 87 -52 14 -6 32 -17 40 -24 8 -7 28 -16 44 -20 15 -4 35 -14 43
-21 8 -8 23 -15 32 -15 10 0 29 -8 42 -18 37 -28 106 -55 123 -49 29 11 24 82
-8 117 -33 37 -56 77 -56 98 0 19 -45 112 -81 167 -10 17 -26 45 -34 63 -8 17
-19 32 -24 32 -5 0 -11 10 -15 23 -5 23 -25 51 -66 96 -14 15 -41 47 -60 70
-60 73 -74 86 -117 115 -24 16 -43 33 -43 38 0 5 -15 16 -32 24 -18 9 -51 26
-73 39 -49 30 -82 45 -99 45 -7 0 -21 7 -32 15 -33 25 -115 10 -184 -36 -8 -5
-26 -15 -40 -22 -53 -26 -82 -51 -101 -89 -39 -76 -111 -26 -191 132 -7 14
-26 48 -43 75 -17 28 -37 61 -43 75 -7 14 -24 43 -37 65 -14 22 -32 54 -40 72
-8 17 -19 34 -24 37 -5 3 -12 22 -16 43 -4 20 -13 46 -21 57 -8 11 -14 28 -14
37 0 9 -8 27 -19 40 -10 13 -22 38 -25 56 -4 17 -14 37 -22 44 -8 6 -14 21
-14 33 0 12 -9 37 -19 57 -11 20 -23 54 -27 75 -3 22 -13 50 -20 64 -7 14 -18
41 -23 60 -17 61 -51 152 -60 164 -5 6 -12 31 -16 56 -4 24 -13 54 -20 65 -7
11 -16 44 -19 74 -4 30 -13 66 -20 80 -7 14 -17 49 -20 76 -4 28 -14 60 -22
72 -7 12 -17 41 -20 65 -4 24 -13 52 -20 63 -7 11 -16 43 -19 70 -4 28 -13 64
-20 82 -7 17 -17 62 -21 100 -4 37 -12 77 -19 88 -7 11 -16 61 -20 110 -4 50
-13 104 -20 120 -7 17 -16 71 -20 120 -4 50 -13 105 -21 123 -7 18 -16 81 -19
140 -4 59 -13 141 -20 182 -8 41 -17 125 -20 185 -3 61 -12 146 -20 190 -9 49
-18 236 -25 480 -7 220 -14 403 -16 406 -2 4 -8 91 -14 195 -5 104 -12 199
-15 212 -6 24 -29 30 -42 10z m1515 -4501 c9 -8 28 -18 42 -22 14 -4 27 -11
30 -16 7 -10 140 -99 149 -99 4 0 20 -17 36 -38 15 -21 43 -49 61 -62 18 -14
37 -35 43 -47 6 -13 15 -23 21 -23 5 0 10 -6 10 -14 0 -8 10 -27 23 -43 27
-35 44 -60 60 -93 6 -14 18 -32 24 -40 44 -52 63 -80 63 -92 0 -8 9 -25 20
-38 32 -37 26 -60 -14 -60 -18 0 -39 7 -46 15 -7 8 -26 19 -44 23 -17 5 -67
33 -111 63 -44 30 -107 67 -140 83 -33 16 -69 37 -80 46 -29 25 -116 83 -145
98 -14 7 -37 20 -51 30 -14 9 -39 26 -55 37 -101 67 -194 143 -200 163 -6 23
27 72 49 72 17 0 117 52 117 60 0 24 111 21 138 -3z"/>
<path fill="none" stroke-linecap="round" stroke-linejoin="round" stroke-width="2.000000" d="M12551 9736 c-23 -27 -14 -440 9 -471 4 -5 11 -62 15 -125 4 -63 13
-133 20 -155 8 -22 16 -103 20 -180 4 -77 13 -171 21 -210 7 -38 18 -128 23
-200 5 -71 14 -142 20 -157 5 -15 13 -73 17 -130 3 -57 12 -121 19 -143 7 -22
16 -85 20 -140 4 -55 13 -116 20 -136 7 -20 16 -92 20 -160 3 -68 13 -146 20
-174 8 -27 19 -93 25 -145 5 -52 16 -126 24 -165 9 -38 15 -97 16 -131 0 -33
7 -83 15 -110 8 -27 15 -72 15 -99 0 -28 7 -75 16 -105 8 -30 21 -111 28 -180
7 -69 19 -138 26 -155 23 -49 19 -495 -4 -555 -10 -25 -20 -87 -23 -140 -3
-52 -12 -107 -20 -123 -7 -15 -16 -55 -19 -89 -3 -34 -12 -71 -19 -82 -7 -12
-16 -46 -20 -76 -4 -30 -13 -64 -19 -75 -7 -11 -16 -42 -20 -69 -4 -27 -14
-59 -21 -70 -8 -12 -17 -41 -21 -66 -4 -25 -12 -52 -19 -60 -8 -8 -17 -33 -20
-55 -4 -22 -13 -47 -20 -55 -7 -8 -16 -33 -20 -55 -3 -22 -13 -47 -21 -56 -22
-24 -15 -113 8 -117 11 -2 19 5 24 22 3 13 14 32 25 42 10 9 19 27 19 38 0 12
9 39 20 61 11 22 20 49 20 61 0 12 8 32 19 45 10 13 22 40 26 59 4 19 14 44
21 56 8 11 17 43 21 70 3 27 12 58 20 70 7 11 16 43 20 70 3 27 12 58 18 69 7
11 16 49 20 85 3 36 11 71 17 78 7 7 17 52 24 100 7 48 17 105 23 127 5 22 15
83 20 135 6 52 15 115 20 140 12 55 13 182 2 270 -5 36 -14 115 -20 175 -7 61
-19 142 -27 180 -7 39 -18 106 -23 150 -6 44 -17 116 -25 160 -8 44 -15 111
-16 148 0 38 -4 77 -10 87 -5 10 -15 63 -20 117 -6 54 -17 125 -25 158 -8 33
-17 110 -20 170 -4 61 -13 133 -20 160 -7 28 -16 93 -20 145 -4 52 -14 112
-21 134 -8 21 -17 84 -20 140 -3 55 -12 135 -19 176 -8 41 -17 120 -21 175 -3
55 -12 129 -19 165 -8 36 -17 115 -20 175 -4 61 -13 133 -20 160 -7 28 -16 88
-20 135 -3 47 -12 112 -20 145 -7 33 -16 111 -19 173 -4 62 -13 129 -21 150
-8 20 -19 82 -24 136 -11 104 -20 127 -40 102z"/>
<path fill="none" stroke-linecap="round" stroke-linejoin="round" stroke-width="2.000000" d="M11986 7988 c-3 -7 -7 -77 -10 -156 -4 -96 -11 -150 -20 -165 -10
-16 -16 -81 -21 -242 -3 -121 -11 -247 -17 -280 -5 -33 -16 -175 -22 -316 -7
-141 -16 -261 -20 -267 -4 -6 -11 -84 -16 -173 -6 -89 -16 -187 -24 -218 -8
-31 -17 -102 -20 -157 -3 -56 -12 -119 -20 -140 -7 -22 -16 -77 -20 -124 -4
-46 -14 -97 -22 -112 -8 -15 -14 -45 -14 -68 0 -22 -9 -66 -19 -98 -11 -31
-22 -79 -26 -107 -4 -27 -13 -64 -20 -81 -7 -17 -16 -60 -20 -95 -4 -35 -13
-73 -19 -84 -7 -11 -16 -42 -20 -70 -4 -27 -13 -59 -20 -70 -7 -11 -16 -45
-20 -75 -4 -30 -12 -60 -18 -67 -6 -7 -17 -37 -24 -66 -7 -28 -20 -70 -28 -92
-8 -22 -15 -49 -16 -60 0 -11 -6 -29 -14 -40 -7 -11 -17 -36 -21 -55 -4 -19
-13 -44 -19 -55 -7 -11 -16 -38 -20 -59 -4 -21 -13 -48 -21 -60 -7 -12 -16
-37 -20 -56 -4 -19 -13 -42 -20 -50 -7 -8 -16 -34 -20 -57 -3 -23 -13 -47 -21
-53 -7 -7 -16 -27 -20 -45 -3 -19 -12 -36 -19 -39 -7 -2 -16 -18 -20 -35 -3
-16 -12 -35 -20 -41 -8 -6 -17 -24 -20 -40 -3 -16 -13 -34 -20 -40 -8 -7 -17
-27 -21 -45 -3 -19 -12 -36 -20 -39 -8 -3 -14 -12 -14 -19 0 -8 -8 -25 -19
-38 -10 -13 -21 -34 -25 -47 -7 -21 -81 -139 -106 -169 -5 -7 -10 -16 -10 -21
0 -8 -26 -42 -67 -84 -30 -32 -66 -23 -102 27 -18 25 -42 50 -54 56 -12 6 -31
19 -42 29 -11 9 -51 27 -89 39 l-69 22 -64 -22 c-122 -40 -232 -112 -346 -225
-108 -107 -132 -138 -170 -220 -8 -17 -20 -35 -26 -38 -6 -4 -11 -15 -11 -24
0 -9 -18 -43 -40 -75 -22 -31 -40 -63 -40 -70 0 -7 -9 -29 -20 -50 -11 -20
-20 -43 -20 -51 0 -8 -11 -28 -25 -44 -41 -49 -52 -92 -29 -109 23 -18 88 -11
113 11 9 9 32 19 49 22 17 4 37 13 43 20 6 8 16 14 22 14 6 0 44 17 85 38 105
52 112 56 112 64 0 4 15 15 33 23 17 9 50 27 72 40 22 14 52 31 68 37 15 7 27
16 27 20 0 4 15 15 33 23 35 17 73 38 97 54 74 51 107 71 117 71 7 0 16 6 20
13 11 17 64 53 90 61 20 6 102 81 246 224 66 66 70 70 106 134 18 32 37 60 42
64 6 3 15 16 20 27 5 12 29 58 54 102 24 44 49 91 55 105 5 14 14 32 20 40 5
8 16 29 24 46 8 17 19 35 25 38 6 4 11 15 11 25 0 10 11 39 25 65 14 26 25 55
25 65 0 10 6 24 14 30 8 7 18 27 22 44 3 17 12 41 19 52 7 11 16 36 20 55 4
19 13 42 21 51 8 8 17 38 20 65 4 27 13 52 20 56 6 5 15 30 19 57 4 28 13 55
20 61 7 6 16 32 20 58 3 26 13 57 21 69 8 12 14 30 14 40 1 10 8 36 16 58 9
22 21 67 29 100 7 33 20 78 29 100 8 22 15 56 16 75 0 20 7 45 15 57 8 11 17
47 21 79 3 33 12 68 19 80 7 11 16 47 20 79 5 33 13 73 20 90 7 16 16 66 19
109 4 44 14 92 21 107 8 15 18 67 21 116 4 48 12 102 19 119 7 17 16 82 20
145 4 63 13 132 20 154 7 22 18 117 25 210 6 94 15 202 20 240 5 39 11 176 15
305 3 129 12 280 20 335 16 117 31 580 21 648 -7 46 -40 69 -50 35z m-1336
-4521 c150 -74 164 -107 80 -189 -27 -26 -54 -48 -59 -48 -6 0 -45 -24 -88
-53 -72 -49 -156 -101 -221 -137 -15 -8 -79 -50 -143 -93 -64 -42 -120 -77
-125 -77 -5 0 -17 -9 -27 -20 -9 -11 -23 -20 -30 -20 -7 0 -28 -11 -47 -25
-76 -56 -105 -12 -55 83 14 26 25 55 25 64 0 10 4 18 8 18 5 0 22 21 38 48 16
26 35 56 42 67 6 11 17 31 23 45 6 14 18 32 27 41 9 10 26 29 37 43 35 46 54
64 176 161 31 25 61 45 66 45 6 0 16 6 22 14 6 8 31 19 56 25 24 6 47 15 50
21 11 18 98 11 145 -13z"/>
<path fill="none" stroke-linecap="round" stroke-linejoin="round" stroke-width="2.000000" d="M12390 3811 c-30 -16 -56 -34 -58 -40 -2 -6 -28 -31 -57 -54 -29 -24
-73 -68 -99 -98 -26 -30 -53 -61 -61 -70 -8 -9 -15 -23 -15 -31 0 -8 -9 -27
-20 -41 -11 -14 -20 -39 -20 -55 0 -20 -13 -47 -40 -81 -22 -28 -40 -54 -40
-58 0 -5 -8 -24 -19 -43 -26 -50 -36 -100 -19 -100 21 0 35 13 43 40 4 14 16
31 26 38 11 7 19 19 19 27 0 7 7 20 15 29 8 8 20 25 25 38 6 13 26 45 45 73
19 27 35 62 35 76 0 14 9 38 20 52 11 14 20 30 20 36 0 6 12 17 28 25 36 19
99 82 107 107 8 26 56 49 99 49 44 0 59 -37 33 -79 -9 -14 -23 -40 -31 -57 -8
-17 -22 -36 -30 -44 -9 -7 -16 -21 -16 -31 0 -11 -9 -27 -20 -36 -11 -10 -20
-23 -20 -29 0 -6 -7 -17 -16 -24 -8 -8 -22 -27 -30 -44 -8 -17 -25 -49 -39
-71 -13 -22 -28 -49 -33 -60 -6 -12 -17 -27 -26 -34 -9 -7 -16 -19 -16 -25 0
-7 -11 -23 -25 -36 -14 -13 -25 -27 -25 -31 0 -5 -13 -28 -30 -52 -28 -41 -40
-97 -22 -97 4 0 23 18 42 41 19 22 51 59 71 82 39 45 64 80 119 171 19 32 45
73 57 92 13 19 26 46 29 59 3 14 11 29 18 33 14 9 47 56 72 102 10 19 22 67
26 105 4 39 10 89 14 112 6 40 5 42 -22 48 -16 4 -36 9 -44 11 -8 2 -40 -9
-70 -25z"/>
<path fill="none" stroke-linecap="round" stroke-linejoin="round" stroke-width="2.000000" d="M2027 3843 c-16 -15 -6 -73 16 -100 33 -39 37 -57 26 -95 -7 -27 -5
-38 11 -60 11 -15 20 -33 20 -41 0 -8 9 -24 20 -37 11 -13 20 -27 20 -32 0 -6
9 -21 20 -35 11 -14 20 -36 20 -49 0 -12 6 -29 14 -37 8 -8 22 -29 31 -48 8
-19 22 -45 29 -58 23 -40 157 -180 178 -187 11 -3 32 -20 47 -36 56 -66 119
-128 129 -128 5 0 15 -7 22 -15 15 -18 40 -20 40 -2 0 7 -8 20 -17 29 -10 9
-23 23 -29 30 -25 30 -135 128 -144 128 -6 0 -10 6 -10 14 0 8 -35 52 -79 98
-43 46 -81 93 -85 105 -4 11 -13 24 -21 27 -8 3 -15 12 -15 21 0 8 -9 32 -20
52 -11 21 -20 45 -20 54 0 9 -9 24 -20 34 -11 10 -20 23 -20 28 0 6 -7 18 -16
28 -8 9 -15 27 -16 40 0 13 -5 39 -10 57 -10 35 -2 112 12 112 5 0 28 -18 52
-40 24 -22 51 -42 61 -46 9 -3 17 -10 17 -15 0 -5 11 -14 25 -19 14 -5 25 -17
25 -28 0 -10 9 -27 19 -36 11 -10 22 -28 25 -41 8 -31 46 -95 56 -95 5 0 12
-10 16 -22 3 -12 24 -44 45 -71 22 -27 39 -59 39 -72 0 -23 55 -74 66 -62 14
13 -23 122 -57 175 -21 31 -39 62 -39 68 0 6 -9 19 -20 29 -11 10 -20 24 -20
31 0 7 -6 17 -14 21 -7 4 -26 36 -41 71 -26 59 -91 132 -117 132 -12 0 -16 4
-85 70 -41 40 -63 45 -63 14 0 -23 -20 -16 -50 16 -26 28 -58 38 -73 23z"/>
<path fill="none" stroke-linecap="round" stroke-linejoin="round" stroke-width="2.000000" d="M1663 13363 c4 -416 11 -747 17 -786 5 -38 15 -236 20 -440 5 -205
12 -384 16 -399 10 -44 22 -33 30 30 10 78 -3 1350 -16 1587 -9 160 -13 306
-19 678 -1 44 -3 47 -28 47 l-26 0 6 -717z"/>
<path fill="none" stroke-linecap="round" stroke-linejoin="round" stroke-width="2.000000" d="M2377 13938 c-20 -495 -3 -2575 22 -2682 7 -26 4 -90 -6 -196 -18
-180 -17 -190 29 -190 70 1 85 28 91 175 5 112 10 141 37 210 41 110 77 247
83 325 3 36 13 81 21 101 8 20 18 60 21 90 4 30 13 72 20 94 8 22 17 72 20
110 4 39 12 79 19 90 7 11 16 46 20 78 4 32 13 73 20 90 8 18 16 67 20 110 3
43 12 90 20 105 7 15 17 67 21 116 4 49 13 105 20 125 7 20 15 78 19 130 4 51
13 110 20 130 7 20 16 74 20 121 4 47 13 108 20 135 8 28 17 88 21 133 3 46
13 102 21 124 8 22 14 59 14 82 0 22 9 95 19 161 11 66 24 165 30 220 5 55 12
112 16 128 l7 27 -56 0 -56 0 1 -52 c1 -64 -24 -297 -39 -353 -5 -22 -13 -75
-17 -118 -3 -43 -10 -90 -16 -105 -5 -14 -15 -76 -20 -136 -6 -61 -16 -133
-24 -161 -7 -27 -16 -86 -20 -129 -3 -44 -10 -88 -16 -98 -5 -9 -13 -59 -18
-111 -5 -51 -16 -128 -25 -172 -22 -113 -47 -267 -57 -355 -5 -41 -15 -93 -23
-115 -8 -22 -17 -62 -21 -90 -3 -27 -13 -69 -21 -93 -8 -23 -14 -57 -14 -75 0
-18 -7 -60 -16 -92 -9 -33 -22 -98 -30 -145 -8 -47 -21 -121 -29 -165 -15 -87
-46 -177 -61 -176 -5 0 -12 33 -16 73 -10 96 -13 2285 -4 2501 l7 167 -44 0
-44 0 -6 -142z"/>
<path fill="none" stroke-linecap="round" stroke-linejoin="round" stroke-width="2.000000" d="M3358 14003 c-10 -43 -20 -109 -24 -148 -3 -38 -12 -92 -19 -120 -19
-69 -52 -248 -60 -320 -3 -32 -12 -82 -20 -110 -7 -27 -16 -77 -20 -110 -3
-33 -12 -80 -20 -105 -7 -25 -16 -78 -20 -118 -3 -40 -12 -87 -20 -105 -7 -18
-16 -61 -20 -97 -4 -36 -13 -76 -20 -90 -7 -14 -15 -54 -19 -90 -3 -36 -12
-85 -20 -110 -7 -25 -17 -74 -21 -109 -4 -35 -13 -78 -20 -95 -7 -17 -16 -60
-19 -95 -4 -36 -13 -76 -21 -90 -7 -14 -16 -53 -20 -86 -4 -33 -13 -71 -20
-85 -7 -14 -16 -56 -20 -95 -4 -38 -13 -81 -20 -95 -7 -14 -16 -51 -20 -83 -3
-32 -12 -73 -20 -90 -7 -18 -16 -61 -19 -96 -4 -35 -13 -73 -20 -85 -8 -11
-17 -40 -20 -64 -4 -24 -13 -53 -20 -65 -8 -12 -16 -51 -20 -86 -3 -35 -11
-70 -18 -78 -6 -8 -15 -39 -19 -70 -4 -30 -14 -62 -22 -71 -8 -10 -17 -40 -20
-69 -3 -29 -12 -62 -20 -75 -8 -13 -18 -50 -22 -82 -4 -33 -13 -69 -20 -80 -7
-12 -16 -48 -20 -81 -4 -33 -13 -68 -21 -79 -9 -13 -14 -47 -14 -96 0 -52 -5
-82 -15 -96 -15 -20 -19 -52 -9 -78 10 -25 22 -19 30 17 3 17 15 43 25 56 11
13 19 40 19 60 0 20 8 52 18 71 11 19 22 59 25 89 4 30 13 61 21 70 9 9 18 44
22 76 4 33 13 69 20 80 7 11 16 43 20 70 4 28 13 59 20 70 8 11 14 35 14 55 0
19 8 51 19 70 10 19 21 57 26 85 4 27 13 65 20 85 7 19 16 57 20 84 4 27 13
59 20 70 7 12 16 43 20 71 4 27 13 61 20 75 7 14 16 52 20 85 3 33 13 70 21
82 8 12 14 37 14 55 0 19 7 58 16 88 8 30 20 90 25 134 6 43 16 88 24 100 8
11 17 46 21 76 4 30 12 66 19 80 7 14 16 57 20 95 4 39 13 81 20 95 7 14 15
53 19 88 4 34 13 79 20 100 7 20 16 67 20 104 3 36 13 81 20 100 8 18 17 62
21 98 4 36 13 81 20 100 8 19 16 69 20 110 4 41 12 86 20 100 7 14 16 60 20
104 4 43 13 92 20 110 7 17 16 71 20 120 4 48 13 102 20 120 7 17 15 66 19
109 4 43 12 90 18 105 5 15 14 61 18 102 5 41 12 94 16 118 l7 42 -39 0 -39 0
-17 -77z"/>
<path fill="none" stroke-linecap="round" stroke-linejoin="round" stroke-width="2.000000" d="M3650 14029 c0 -28 -6 -77 -14 -108 -8 -31 -17 -98 -20 -149 -4 -51
-11 -105 -17 -120 -6 -15 -15 -84 -20 -154 -5 -69 -16 -152 -24 -184 -8 -32
-15 -88 -15 -124 0 -36 -7 -96 -15 -135 -8 -38 -20 -130 -26 -205 -5 -74 -16
-155 -24 -180 -7 -25 -17 -79 -20 -120 -4 -41 -13 -100 -20 -130 -7 -30 -16
-100 -20 -154 -3 -55 -12 -111 -19 -125 -8 -14 -17 -73 -21 -130 -4 -57 -13
-125 -21 -150 -7 -25 -14 -75 -14 -111 -1 -48 -7 -78 -25 -115 -14 -27 -25
-57 -25 -66 0 -9 -6 -22 -14 -28 -7 -6 -16 -41 -20 -77 -4 -36 -13 -76 -20
-87 -8 -12 -17 -42 -20 -66 -4 -24 -13 -55 -20 -70 -7 -14 -17 -53 -21 -86 -4
-33 -22 -98 -40 -145 -19 -47 -37 -107 -41 -135 -4 -27 -13 -59 -20 -70 -7
-11 -16 -47 -20 -80 -3 -33 -12 -69 -19 -80 -7 -11 -16 -45 -20 -75 -4 -30
-13 -62 -20 -70 -7 -8 -16 -35 -20 -60 -4 -24 -13 -54 -20 -65 -7 -11 -16 -42
-20 -69 -4 -27 -13 -59 -20 -70 -7 -12 -17 -43 -21 -71 -3 -27 -12 -61 -19
-75 -7 -14 -17 -54 -23 -89 -6 -35 -16 -69 -21 -75 -6 -7 -13 -32 -17 -56 -4
-25 -12 -56 -19 -70 -7 -14 -16 -52 -20 -85 -4 -33 -14 -69 -21 -80 -8 -11
-14 -39 -14 -62 0 -24 -9 -69 -20 -100 -30 -85 -26 -156 13 -298 11 -39 32
-70 127 -194 46 -60 127 -154 192 -225 21 -23 38 -44 38 -48 0 -8 354 -363
395 -395 15 -12 54 -47 86 -78 33 -30 62 -55 66 -55 3 0 15 -9 27 -21 12 -11
59 -50 106 -85 47 -35 92 -70 100 -77 8 -7 35 -26 60 -42 25 -17 50 -35 55
-41 8 -9 81 -56 170 -112 11 -7 32 -17 48 -23 15 -6 27 -15 27 -19 0 -4 17
-15 38 -25 46 -20 98 -49 114 -63 21 -17 270 -142 283 -142 7 0 18 -7 25 -15
7 -8 27 -17 46 -21 18 -3 38 -12 45 -20 6 -8 18 -14 27 -14 9 0 35 -9 59 -20
24 -11 62 -29 86 -40 24 -11 50 -20 58 -20 8 0 30 -9 50 -19 20 -11 58 -22 85
-26 27 -4 56 -13 64 -20 8 -7 34 -15 58 -19 24 -4 53 -13 65 -20 12 -8 44 -17
71 -21 27 -4 59 -13 70 -20 12 -7 43 -16 69 -20 26 -3 62 -12 80 -19 18 -8 62
-16 99 -20 36 -3 81 -12 100 -20 18 -7 78 -17 133 -20 55 -4 127 -15 160 -24
91 -25 1147 -26 1215 0 25 9 90 19 145 23 55 3 123 12 150 20 28 7 88 16 135
20 47 4 99 13 116 20 17 7 64 16 105 20 41 4 80 12 87 18 7 6 50 16 95 23 86
13 191 37 242 56 17 5 68 15 115 22 47 6 94 17 105 23 11 6 40 14 65 18 25 4
54 14 65 21 11 8 35 14 55 14 19 0 51 8 70 19 19 10 55 22 80 26 25 4 52 13
60 20 8 7 40 16 71 19 31 4 65 14 75 21 11 8 30 15 44 15 14 0 43 9 63 19 21
11 56 22 77 26 21 4 44 13 50 20 6 7 30 17 53 20 23 4 49 13 57 20 8 7 35 16
60 20 25 4 55 13 67 21 12 8 28 14 36 14 7 0 30 9 52 20 22 11 44 20 50 20 5
0 33 11 60 25 28 13 55 25 61 25 6 0 17 6 23 14 6 7 30 16 52 19 22 3 48 12
58 21 10 9 27 16 38 16 11 0 31 9 45 19 13 11 38 23 54 27 16 4 36 12 44 19 8
7 31 15 51 19 21 4 42 13 48 20 7 8 27 17 45 20 19 4 39 13 46 21 7 8 20 15
30 15 9 0 28 8 41 19 13 10 38 22 56 25 17 4 37 13 43 21 6 8 26 17 43 21 18
3 43 15 56 25 13 11 30 19 38 19 8 0 26 9 40 20 14 11 32 20 40 20 8 0 26 9
40 20 14 11 34 20 44 20 10 0 21 5 24 10 4 6 24 18 46 27 21 8 39 19 39 23 0
4 12 13 28 19 53 23 102 51 102 60 0 5 13 12 30 16 16 4 33 12 37 19 5 7 30
25 57 42 27 16 58 38 70 50 57 57 136 145 136 153 0 5 7 14 15 21 8 7 15 21
15 31 0 11 9 36 20 56 11 21 20 48 20 61 0 12 9 35 20 50 47 64 74 260 46 338
-7 22 -17 69 -21 104 -4 36 -13 74 -20 85 -6 11 -15 47 -20 79 -4 33 -13 69
-20 80 -7 12 -16 43 -20 70 -4 27 -13 59 -20 70 -7 12 -16 41 -19 66 -4 25
-13 54 -20 65 -7 11 -16 38 -20 59 -4 21 -13 48 -21 60 -7 12 -16 41 -20 66
-4 25 -13 54 -19 65 -7 11 -16 39 -20 63 -3 24 -13 53 -20 65 -8 12 -19 45
-25 72 -11 56 -36 135 -56 180 -7 17 -16 53 -20 80 -4 28 -13 60 -21 72 -7 12
-17 41 -20 65 -4 24 -13 52 -19 63 -7 11 -16 38 -20 60 -4 22 -11 45 -17 52
-5 7 -16 36 -23 65 -7 29 -20 71 -29 93 -8 22 -15 50 -16 63 0 13 -5 33 -12
45 -6 12 -17 47 -24 77 -15 66 -40 144 -59 185 -35 75 -65 171 -65 209 0 23
-6 51 -14 62 -8 11 -19 42 -24 70 -6 27 -17 67 -26 89 -8 22 -15 50 -16 62 0
12 -4 25 -10 28 -5 3 -17 32 -26 63 -9 31 -21 62 -26 69 -5 6 -13 53 -17 105
-5 51 -13 105 -19 120 -6 14 -14 55 -17 90 -4 34 -13 83 -20 108 -8 25 -17 83
-21 130 -3 47 -12 108 -19 135 -8 28 -17 86 -20 129 -4 44 -13 96 -20 116 -7
20 -16 86 -20 146 -4 60 -13 131 -21 157 -7 27 -16 83 -19 125 -4 42 -13 97
-20 122 -8 25 -19 106 -24 180 -6 74 -15 151 -21 170 -5 19 -10 55 -10 80 0
25 -3 69 -6 98 l-7 52 -43 0 -44 0 0 -78 c0 -43 6 -102 14 -132 8 -30 18 -113
22 -185 4 -71 12 -146 19 -166 7 -20 16 -71 20 -115 4 -43 13 -104 20 -134 8
-30 17 -93 20 -140 4 -47 12 -105 20 -130 7 -25 16 -83 20 -128 3 -46 12 -101
20 -121 7 -21 16 -82 20 -137 4 -54 13 -113 20 -129 7 -17 16 -66 20 -110 4
-43 13 -95 20 -116 22 -61 40 -238 26 -252 -7 -7 -44 -17 -84 -24 -40 -6 -90
-16 -112 -22 -22 -6 -63 -11 -91 -11 -28 0 -93 -9 -145 -20 -52 -11 -111 -20
-131 -20 -20 0 -49 -5 -64 -10 -15 -6 -75 -15 -133 -21 -58 -5 -126 -16 -151
-24 -25 -8 -88 -17 -140 -20 -52 -4 -125 -13 -162 -21 -38 -8 -110 -17 -160
-20 -51 -3 -113 -12 -138 -20 -25 -7 -90 -16 -145 -20 -55 -3 -125 -12 -155
-20 -30 -7 -118 -18 -195 -23 -77 -6 -153 -15 -170 -20 -16 -5 -104 -14 -195
-20 -91 -6 -179 -15 -197 -20 -18 -5 -110 -12 -205 -16 -95 -3 -231 -14 -303
-23 -168 -22 -2397 -25 -2545 -4 -47 7 -242 17 -435 22 -192 6 -397 15 -455
21 -58 7 -233 15 -390 18 l-285 6 2 93 c1 52 9 115 17 140 8 26 17 85 21 131
4 46 11 96 17 110 5 14 14 82 19 151 5 69 16 145 24 170 7 25 17 81 20 125 4
44 13 105 20 135 8 30 17 98 20 150 4 52 13 118 20 145 7 28 16 97 19 154 4
57 13 127 20 155 8 28 17 107 21 176 4 69 13 149 21 179 8 31 14 78 14 107 0
45 14 143 36 252 l7 32 -52 0 -51 0 0 -51z m7023 -2121 c9 -7 21 -33 26 -58
13 -62 39 -138 62 -185 15 -29 20 -55 17 -95 l-3 -55 -210 -6 c-115 -4 -237
-11 -270 -17 -33 -6 -145 -16 -250 -22 -104 -6 -208 -15 -230 -20 -22 -5 -94
-12 -160 -15 -66 -4 -176 -13 -245 -21 -69 -8 -208 -18 -310 -23 -102 -6 -207
-14 -235 -20 -27 -6 -157 -15 -287 -20 -131 -6 -268 -15 -305 -21 -38 -5 -168
-14 -290 -19 -186 -8 -226 -13 -250 -28 -40 -26 -71 -64 -78 -95 -3 -14 -12
-29 -20 -32 -8 -3 -17 -21 -20 -40 -4 -19 -13 -40 -21 -47 -7 -6 -16 -26 -20
-45 -3 -19 -10 -37 -15 -40 -5 -3 -15 -20 -23 -38 -20 -48 -88 -116 -116 -116
-13 0 -31 -7 -40 -15 -35 -32 -862 -29 -903 3 -7 5 -25 12 -42 16 -31 8 -59
33 -90 81 -26 41 -65 118 -65 129 0 12 -50 118 -64 135 -6 8 -16 30 -21 50
l-11 36 -134 3 c-74 1 -171 -2 -215 -8 -44 -6 -159 -15 -255 -20 -96 -6 -224
-17 -285 -25 -60 -8 -171 -18 -245 -21 -74 -3 -187 -11 -250 -19 -63 -8 -180
-17 -260 -20 -80 -4 -194 -13 -255 -20 -60 -8 -182 -19 -270 -25 -88 -6 -185
-15 -215 -20 -30 -5 -113 -12 -183 -15 -70 -4 -149 -13 -175 -19 -26 -7 -71
-14 -101 -15 -30 -1 -62 -6 -72 -11 -38 -21 -47 41 -14 95 7 11 16 42 20 69 4
27 13 59 20 70 7 12 16 43 20 71 4 27 13 61 20 75 7 14 16 55 20 91 5 44 12
69 23 76 22 13 544 -1 752 -21 85 -9 281 -18 435 -21 154 -3 334 -10 400 -16
291 -25 2344 -32 2570 -9 50 5 175 16 279 25 104 8 205 19 225 24 20 5 97 12
171 16 74 4 162 13 195 21 33 7 112 16 175 20 63 3 135 12 160 20 25 7 99 16
165 20 66 3 140 12 165 19 25 7 90 17 145 20 55 4 118 13 140 20 22 7 90 16
150 20 61 3 133 12 160 20 28 8 86 17 130 20 44 4 105 13 135 20 30 7 98 17
150 20 52 4 115 14 140 21 25 7 79 16 120 20 41 3 101 14 133 25 31 10 74 19
95 19 20 0 44 5 52 10 20 13 33 12 53 -2z m155 -500 c13 -15 23 -43 27 -78 4
-30 13 -64 20 -76 8 -12 17 -39 21 -60 3 -21 12 -50 19 -64 7 -14 15 -47 19
-75 4 -27 13 -63 21 -80 18 -40 44 -120 56 -175 5 -25 16 -56 24 -70 7 -14 17
-43 21 -65 4 -22 13 -49 20 -61 8 -11 17 -43 20 -70 4 -27 12 -58 19 -70 8
-12 17 -39 20 -60 4 -21 13 -48 20 -59 6 -11 15 -44 19 -74 4 -29 13 -63 21
-75 7 -11 16 -37 20 -56 4 -19 13 -44 20 -55 7 -11 16 -45 20 -75 4 -30 13
-64 20 -75 7 -11 16 -36 20 -55 4 -19 13 -45 21 -57 8 -13 17 -44 21 -70 3
-27 11 -55 19 -63 7 -8 15 -33 19 -55 4 -22 13 -49 20 -60 7 -11 15 -47 20
-80 4 -33 13 -68 21 -79 8 -11 14 -33 14 -49 0 -15 9 -53 19 -85 23 -68 36
-202 26 -269 -7 -51 -64 -103 -112 -103 -11 0 -28 -9 -38 -20 -10 -11 -31 -20
-46 -20 -15 0 -30 -4 -34 -9 -3 -5 -22 -15 -43 -22 -20 -6 -44 -17 -52 -24 -8
-7 -29 -16 -47 -20 -17 -3 -37 -13 -43 -20 -7 -8 -27 -17 -46 -21 -18 -3 -38
-12 -45 -20 -6 -8 -17 -14 -23 -14 -7 0 -29 -9 -50 -19 -21 -11 -51 -23 -66
-26 -16 -3 -34 -12 -40 -20 -6 -8 -24 -17 -40 -20 -16 -3 -34 -12 -40 -20 -6
-7 -27 -16 -47 -20 -20 -4 -48 -15 -61 -26 -14 -10 -38 -19 -54 -19 -16 0 -31
-6 -34 -14 -3 -8 -19 -17 -36 -20 -18 -3 -39 -13 -47 -20 -9 -8 -35 -19 -58
-25 -23 -7 -45 -16 -48 -21 -3 -5 -25 -12 -50 -16 -24 -3 -49 -12 -55 -19 -6
-8 -26 -17 -43 -21 -18 -4 -48 -15 -67 -25 -19 -11 -42 -19 -51 -19 -9 0 -22
-6 -28 -14 -6 -8 -31 -19 -56 -25 -24 -6 -46 -15 -50 -20 -3 -6 -25 -13 -50
-17 -24 -3 -50 -12 -56 -20 -6 -8 -29 -17 -50 -20 -21 -4 -44 -13 -50 -20 -6
-8 -21 -14 -33 -14 -12 0 -39 -9 -59 -19 -21 -11 -57 -23 -80 -26 -23 -4 -49
-13 -57 -20 -8 -7 -36 -16 -62 -19 -25 -4 -51 -13 -58 -21 -6 -7 -33 -16 -60
-20 -27 -4 -54 -13 -61 -21 -6 -8 -23 -14 -37 -14 -14 0 -44 -9 -66 -19 -23
-11 -63 -24 -91 -30 -27 -5 -68 -16 -90 -25 -22 -8 -54 -15 -71 -16 -17 0 -37
-7 -44 -15 -6 -7 -33 -17 -58 -21 -26 -4 -58 -12 -72 -19 -14 -7 -52 -16 -85
-20 -33 -3 -69 -12 -80 -19 -11 -7 -48 -16 -82 -20 -35 -4 -78 -13 -95 -21
-18 -7 -60 -16 -93 -20 -33 -4 -70 -14 -83 -22 -13 -8 -60 -18 -105 -23 -45
-5 -93 -13 -107 -18 -14 -5 -59 -13 -100 -17 -41 -4 -89 -13 -105 -20 -17 -7
-71 -16 -120 -20 -50 -4 -119 -13 -155 -20 -213 -44 -1145 -48 -1290 -5 -19 6
-75 15 -123 20 -49 6 -101 16 -115 24 -15 7 -51 16 -81 20 -30 4 -66 13 -80
20 -14 7 -48 17 -76 21 -27 4 -61 13 -75 20 -14 7 -45 15 -70 19 -25 4 -54 13
-65 20 -11 8 -39 17 -62 21 -23 3 -47 12 -53 20 -6 7 -27 16 -48 20 -20 3 -46
12 -57 19 -11 8 -40 18 -65 24 -63 15 -149 47 -163 61 -6 6 -22 11 -35 11 -12
0 -40 8 -60 19 -74 37 -127 61 -137 61 -5 0 -32 12 -60 25 -27 14 -55 25 -61
25 -6 0 -17 7 -24 15 -7 8 -27 17 -46 21 -18 3 -38 12 -44 19 -6 8 -24 17 -40
20 -16 3 -34 13 -41 21 -6 8 -17 14 -24 14 -7 0 -24 9 -38 20 -14 11 -30 20
-35 20 -15 0 -52 17 -87 40 -16 11 -64 37 -105 58 -41 21 -95 51 -120 67 -55
36 -95 58 -137 79 -18 8 -33 19 -33 24 0 6 -11 13 -25 16 -13 3 -45 21 -71 39
-71 50 -97 66 -122 77 -24 11 -84 51 -93 62 -3 4 -42 31 -86 60 -191 124 -231
150 -277 183 -78 57 -176 135 -246 197 -36 32 -70 58 -77 58 -7 0 -20 8 -30
19 -10 10 -43 31 -73 47 -82 42 -92 57 -84 123 4 31 12 69 19 86 7 16 16 52
20 80 4 27 13 61 20 75 7 14 16 55 19 92 4 37 14 72 21 78 8 6 17 37 20 68 4
31 14 67 22 80 8 13 17 46 20 75 3 29 12 61 19 72 7 11 16 40 20 65 4 25 13
54 20 65 7 11 16 40 20 65 3 25 12 55 20 66 7 12 16 46 20 75 4 30 13 63 20
74 7 11 16 45 20 75 4 30 13 64 20 75 6 11 15 44 19 74 4 30 14 69 21 87 8 18
14 44 14 58 0 31 55 75 73 57 14 -14 117 -14 188 -1 30 6 120 15 200 20 80 5
157 13 170 18 13 5 103 13 199 16 96 4 211 14 255 21 44 8 150 17 235 20 85 3
196 12 245 20 50 9 169 20 265 25 96 5 202 14 235 20 33 5 134 12 225 15 103
4 180 12 205 21 29 10 98 15 239 17 l199 2 10 -30 c5 -16 15 -37 22 -45 7 -8
17 -31 23 -50 5 -19 22 -55 36 -80 14 -25 28 -52 32 -60 3 -8 10 -22 15 -30 5
-8 17 -26 26 -40 28 -44 105 -97 153 -105 25 -4 54 -14 65 -21 29 -21 792 -19
850 1 22 8 52 15 66 15 50 0 192 140 214 210 4 14 13 32 20 40 8 8 17 29 21
45 3 17 13 38 21 47 8 9 17 35 20 57 9 67 47 78 290 86 109 3 239 13 288 21
50 8 189 18 310 24 121 5 245 13 275 19 30 5 114 12 185 15 72 4 175 13 230
21 55 7 174 17 265 20 91 4 210 13 265 20 55 8 156 17 225 20 69 3 163 13 210
21 47 8 182 18 300 23 118 4 222 9 231 9 8 1 25 -8 37 -20z m-7979 -2184 c25
-8 49 -21 55 -28 6 -8 60 -53 119 -101 60 -48 117 -94 126 -103 10 -10 28 -24
40 -32 31 -20 93 -66 111 -83 8 -8 74 -53 146 -100 72 -48 137 -94 144 -102 7
-8 19 -15 26 -15 8 0 22 -8 32 -17 21 -21 65 -48 105 -65 15 -7 27 -16 27 -20
0 -4 12 -15 28 -23 15 -9 45 -27 67 -40 22 -13 51 -30 65 -37 14 -7 28 -17 32
-22 6 -9 28 -22 98 -58 14 -7 28 -18 32 -24 4 -7 19 -15 33 -18 13 -3 40 -17
60 -30 20 -14 55 -34 78 -46 23 -11 49 -25 57 -29 8 -5 42 -21 75 -37 33 -15
62 -31 65 -34 10 -11 112 -60 126 -60 7 0 21 -8 31 -19 10 -10 34 -21 54 -25
21 -4 42 -13 49 -21 7 -8 18 -15 24 -15 6 0 27 -8 46 -19 19 -10 49 -21 67
-25 17 -4 37 -13 43 -21 6 -8 26 -17 43 -21 17 -3 41 -12 52 -19 11 -7 36 -16
55 -20 19 -4 42 -13 50 -20 8 -7 31 -16 50 -20 19 -4 44 -14 55 -21 11 -8 28
-14 39 -14 10 0 37 -9 60 -19 53 -25 128 -50 191 -63 28 -6 57 -16 65 -23 8
-7 35 -15 59 -19 24 -4 56 -13 72 -21 15 -8 37 -15 49 -15 11 0 46 -9 77 -20
32 -11 73 -20 93 -20 19 -1 53 -8 75 -16 22 -9 76 -20 120 -25 44 -6 96 -14
115 -20 19 -5 91 -14 160 -19 69 -5 190 -14 270 -21 166 -13 679 10 780 36 30
8 104 17 163 20 60 4 126 12 146 20 21 7 73 16 117 20 43 4 93 13 109 20 17 6
68 15 115 19 47 4 100 14 118 22 18 7 57 17 85 20 29 4 61 13 73 20 11 8 49
17 85 20 35 4 76 13 90 20 14 7 50 16 80 20 30 4 65 12 79 19 14 7 53 15 87
18 34 4 79 16 100 27 21 11 47 20 58 20 12 0 38 9 60 20 22 11 53 20 70 20 17
0 40 7 51 15 10 8 35 15 55 15 20 0 47 8 60 18 13 11 46 22 73 26 27 3 57 12
65 20 9 8 32 17 51 21 19 4 51 16 70 26 19 11 46 19 60 19 14 0 34 6 45 14 11
7 37 16 59 19 21 3 46 13 55 21 9 8 34 18 56 22 22 4 56 15 75 25 19 11 42 19
50 19 9 0 25 7 36 15 10 8 26 15 34 15 8 0 38 11 65 25 28 13 56 25 63 25 6 0
29 9 49 20 21 11 45 20 54 20 9 0 22 6 28 14 7 8 27 17 45 20 19 4 39 13 46
20 6 8 30 18 53 21 23 4 49 13 57 20 8 7 29 16 45 19 17 4 37 13 45 20 8 7 34
18 58 25 23 6 42 16 42 21 0 5 18 13 41 16 22 4 43 13 46 20 2 7 22 15 43 19
21 4 44 13 50 20 6 7 29 16 50 20 21 4 44 13 50 21 7 7 27 16 46 20 18 3 38
12 44 19 6 8 24 17 40 20 16 3 34 12 40 20 6 8 25 17 41 20 17 4 33 13 36 21
3 7 20 16 39 20 18 3 38 12 44 19 6 8 26 17 43 20 18 4 46 16 63 26 17 10 44
19 59 19 27 0 27 -1 21 -42 -4 -23 -13 -50 -21 -59 -8 -8 -15 -19 -15 -24 0
-24 -222 -217 -296 -258 -8 -4 -22 -12 -31 -17 -10 -6 -30 -16 -45 -23 -16 -6
-28 -15 -28 -19 0 -5 -18 -15 -40 -24 -22 -9 -40 -20 -40 -24 0 -5 -13 -11
-29 -15 -16 -3 -35 -12 -41 -20 -6 -7 -23 -16 -37 -20 -15 -3 -38 -15 -51 -26
-14 -10 -33 -19 -42 -19 -10 0 -23 -6 -29 -14 -7 -8 -27 -17 -45 -20 -19 -4
-39 -13 -46 -21 -6 -7 -24 -17 -40 -20 -16 -3 -34 -13 -40 -20 -7 -8 -27 -17
-46 -21 -18 -3 -38 -12 -45 -20 -6 -8 -17 -14 -23 -14 -6 0 -33 -11 -61 -25
-27 -13 -57 -25 -66 -25 -9 0 -22 -6 -28 -14 -7 -8 -27 -18 -44 -21 -18 -4
-39 -13 -47 -20 -8 -7 -31 -15 -51 -19 -21 -4 -42 -13 -49 -21 -7 -8 -28 -17
-49 -21 -20 -4 -52 -15 -71 -25 -19 -11 -42 -19 -51 -19 -9 0 -22 -6 -28 -14
-7 -8 -27 -18 -44 -22 -18 -3 -43 -15 -56 -25 -13 -11 -33 -19 -45 -19 -12 0
-30 -6 -41 -14 -11 -7 -37 -16 -57 -20 -21 -4 -57 -16 -80 -26 -24 -11 -53
-20 -64 -20 -12 0 -27 -6 -33 -14 -7 -8 -31 -17 -54 -21 -23 -4 -51 -13 -63
-20 -12 -8 -39 -17 -60 -21 -21 -4 -48 -13 -59 -20 -11 -8 -31 -14 -45 -14
-14 -1 -43 -8 -65 -16 -22 -9 -62 -20 -89 -26 -27 -5 -58 -16 -70 -23 -12 -7
-43 -17 -71 -20 -27 -4 -57 -13 -65 -20 -8 -7 -37 -16 -65 -20 -27 -4 -59 -13
-70 -20 -11 -7 -50 -16 -85 -20 -36 -4 -76 -13 -90 -20 -14 -7 -55 -16 -92
-19 -37 -4 -72 -13 -78 -21 -6 -7 -41 -16 -78 -20 -37 -4 -78 -13 -92 -20 -14
-7 -64 -16 -110 -20 -47 -4 -99 -13 -115 -20 -17 -7 -57 -15 -90 -19 -33 -4
-82 -13 -110 -21 -27 -7 -99 -17 -160 -20 -60 -4 -135 -13 -166 -21 -176 -44
-1192 -44 -1315 -1 -22 8 -76 18 -119 22 -44 4 -93 13 -110 20 -16 7 -60 15
-97 19 -37 3 -84 12 -105 20 -21 7 -62 16 -92 20 -30 4 -66 13 -80 20 -14 7
-48 17 -75 21 -27 4 -59 13 -70 20 -12 7 -37 16 -56 20 -19 4 -45 13 -57 21
-12 8 -32 14 -44 14 -12 0 -36 8 -53 19 -17 10 -47 21 -67 25 -19 3 -53 15
-74 26 -22 11 -44 20 -50 20 -6 0 -28 9 -50 20 -22 11 -44 20 -51 20 -6 0 -17
7 -24 15 -7 8 -23 15 -35 15 -12 0 -33 9 -47 19 -13 11 -36 23 -51 26 -14 4
-31 13 -38 21 -6 8 -19 14 -29 14 -9 0 -29 9 -43 20 -14 11 -29 20 -34 20 -11
0 -106 49 -168 86 -22 13 -55 31 -72 39 -18 8 -33 19 -33 24 0 5 -12 14 -27
21 -46 19 -142 77 -153 92 -9 12 -80 58 -91 58 -5 0 -28 17 -52 38 -23 21 -80
69 -127 106 -205 162 -233 187 -415 366 -134 131 -260 265 -321 340 -15 19
-48 58 -74 85 -44 49 -54 62 -139 172 -22 28 -45 54 -51 58 -14 9 -13 45 3 45
6 0 32 -7 56 -16z"/>
<path fill="none" stroke-linecap="round" stroke-linejoin="round" stroke-width="2.000000" d="M10700 14037 c0 -24 7 -66 15 -92 8 -27 17 -80 21 -119 3 -39 12 -93
20 -121 7 -27 16 -84 20 -125 4 -41 13 -93 20 -116 7 -22 18 -70 23 -106 5
-36 14 -74 19 -85 6 -10 13 -57 17 -103 4 -47 13 -103 20 -125 8 -22 17 -67
21 -100 3 -33 12 -71 19 -85 7 -14 16 -64 20 -110 4 -47 13 -96 20 -110 7 -14
15 -54 19 -89 4 -36 13 -76 21 -90 7 -14 16 -55 20 -91 4 -36 13 -76 20 -90 7
-14 15 -55 18 -93 4 -37 13 -82 21 -100 8 -17 19 -61 24 -97 10 -67 36 -183
54 -235 6 -16 16 -61 22 -100 7 -38 17 -79 24 -91 6 -11 14 -45 18 -75 3 -30
13 -64 21 -77 8 -13 17 -46 20 -75 3 -29 12 -62 19 -74 8 -13 17 -44 20 -70 4
-27 12 -57 19 -68 7 -11 16 -44 20 -72 4 -29 13 -57 21 -64 7 -6 17 -33 20
-61 4 -27 13 -56 21 -64 8 -8 17 -42 20 -77 3 -34 12 -69 19 -78 8 -8 18 -36
23 -62 4 -25 16 -53 25 -62 9 -10 16 -33 16 -55 0 -22 7 -45 16 -55 9 -9 19
-36 22 -61 3 -33 11 -50 28 -60 14 -10 24 -28 26 -47 4 -43 23 -31 21 13 -2
56 -29 182 -41 189 -5 3 -13 29 -17 56 -4 28 -14 61 -22 73 -8 13 -17 49 -20
80 -4 32 -12 66 -18 77 -7 11 -16 43 -20 70 -3 28 -13 60 -21 72 -7 12 -16 41
-20 65 -3 24 -13 53 -20 65 -8 13 -17 44 -21 70 -3 27 -12 51 -18 55 -7 5 -16
40 -20 80 -4 40 -13 82 -20 93 -7 11 -16 47 -20 79 -4 33 -13 69 -20 80 -7 12
-16 46 -20 76 -4 30 -13 62 -20 70 -7 8 -16 44 -20 80 -4 36 -13 72 -20 80 -7
8 -16 53 -20 100 -3 47 -12 94 -19 105 -7 11 -16 54 -20 95 -4 41 -14 85 -22
97 -8 13 -17 51 -20 85 -4 35 -12 72 -19 83 -6 11 -15 49 -19 84 -4 36 -13 76
-20 90 -8 14 -17 64 -20 111 -4 47 -13 94 -20 105 -7 11 -16 55 -19 98 -4 43
-13 90 -21 105 -7 15 -16 65 -20 111 -4 46 -13 95 -20 110 -8 14 -17 62 -21
106 -4 44 -13 89 -20 101 -7 11 -16 60 -20 110 -4 49 -13 107 -20 129 -8 22
-17 78 -21 125 -3 47 -13 100 -20 119 -8 18 -14 67 -14 107 l0 74 -50 0 -50 0
0 -43z"/>
<path fill="none" stroke-linecap="round" stroke-linejoin="round" stroke-width="2.000000" d="M11175 13948 c4 -72 13 -148 20 -169 8 -21 17 -78 21 -126 4 -48 13
-105 20 -125 7 -21 16 -84 20 -140 4 -57 12 -121 19 -143 7 -22 16 -76 20
-120 4 -44 13 -92 21 -106 7 -14 16 -68 20 -120 4 -52 13 -113 20 -135 8 -23
18 -79 23 -125 5 -46 14 -96 19 -111 6 -15 14 -62 18 -105 4 -43 13 -95 20
-115 7 -21 16 -66 19 -100 4 -35 13 -79 20 -98 7 -20 16 -62 20 -95 4 -33 14
-76 21 -96 7 -20 15 -63 19 -95 4 -33 13 -70 20 -84 7 -14 16 -56 20 -95 4
-38 13 -88 21 -110 7 -22 16 -60 20 -85 3 -25 13 -55 20 -68 8 -12 19 -53 23
-90 5 -37 16 -83 24 -102 8 -19 18 -64 22 -100 6 -66 21 -166 30 -207 7 -33
48 -30 70 3 15 23 16 45 11 171 -5 111 -3 150 8 171 9 19 15 92 20 247 3 121
10 274 15 340 6 66 10 603 10 1193 l1 1072 -45 0 -45 0 -2 -1222 c-2 -673 -2
-1310 -1 -1415 2 -180 -6 -237 -22 -160 -4 17 -16 46 -26 63 -10 17 -19 40
-19 51 0 10 -9 44 -20 76 -11 31 -20 81 -20 110 0 30 -7 74 -15 98 -9 24 -19
71 -22 104 -3 33 -12 72 -19 86 -7 15 -16 57 -20 95 -4 38 -13 81 -20 96 -8
14 -17 59 -20 100 -4 40 -13 85 -20 99 -7 15 -16 64 -20 110 -3 46 -12 107
-19 134 -7 28 -16 79 -20 115 -3 36 -12 85 -20 110 -8 25 -17 83 -21 130 -3
46 -12 101 -20 122 -7 20 -16 70 -19 110 -4 40 -13 93 -21 118 -7 25 -18 98
-23 162 -6 65 -14 126 -19 135 -5 10 -13 56 -16 103 -4 47 -14 110 -22 140 -8
30 -19 109 -25 175 -5 66 -10 128 -11 138 -2 13 -12 17 -46 17 l-45 0 8 -132z"/>
<path fill="none" stroke-linecap="round" stroke-linejoin="round" stroke-width="2.000000" d="M12647 13828 c-3 -139 -10 -336 -15 -438 -6 -102 -13 -504 -17 -895
-5 -565 -9 -734 -22 -829 -23 -170 -9 -386 22 -336 4 7 10 73 14 148 4 80 12
147 20 160 16 30 28 253 30 552 1 123 7 256 12 295 10 71 27 893 28 1348 l1
247 -34 0 -34 0 -5 -252z"/>
<path fill="none" stroke-linecap="round" stroke-linejoin="round" stroke-width="2.000000" d="M1585 10845 c-8 -14 -22 -36 -30 -50 -21 -34 -19 -38 18 -32 68 10
127 -53 127 -136 0 -26 8 -66 18 -89 11 -28 17 -70 17 -118 0 -55 -5 -81 -17
-100 -10 -13 -18 -31 -18 -40 0 -8 -9 -32 -20 -53 -24 -44 -25 -70 -5 -87 18
-15 75 22 75 48 0 9 9 32 20 50 11 18 20 39 20 47 0 9 9 40 19 70 19 53 19
115 1 140 -4 6 -11 33 -15 60 -3 28 -13 59 -20 71 -7 11 -16 42 -20 68 -5 30
-14 50 -26 57 -13 6 -19 21 -19 43 0 68 -92 105 -125 51z"/>
</g>
</svg>
