<?xml version="1.0" standalone="no"?>
<!DOCTYPE svg PUBLIC "-//W3C//DTD SVG 20010904//EN"
 "http://www.w3.org/TR/2001/REC-SVG-20010904/DTD/svg10.dtd">
<svg version="1.0" xmlns="http://www.w3.org/2000/svg"
 width="1076.000000pt" height="1316.000000pt" viewBox="0 0 1076.000000 1316.000000"
 preserveAspectRatio="xMidYMid meet">
<style>
  /* Country outline: light #a1a1aa, dark #52525b (match WorldMapChart) */
  path { fill: #a1a1aa; stroke: none; }
  @media (prefers-color-scheme: dark) { path { fill: #52525b; } }
</style>
<g transform="translate(0.000000,1316.000000) scale(0.100000,-0.100000)"
stroke="none">
<path d="M701 12633 c0 -473 16 -1491 25 -1633 19 -318 21 -306 -38 -270 -18
11 -41 20 -51 20 -11 0 -30 9 -44 20 -14 11 -37 20 -52 20 -14 1 -44 9 -66 20
-22 11 -51 20 -65 20 -14 0 -45 9 -69 20 -72 33 -110 27 -161 -25 l-45 -46 1
-167 c2 -152 4 -171 23 -202 11 -19 21 -47 21 -62 0 -15 4 -29 9 -32 5 -3 23
-31 40 -61 48 -84 249 -275 291 -275 5 0 14 -9 20 -20 6 -11 17 -20 24 -20 7
0 21 -9 31 -20 10 -11 26 -20 35 -20 9 0 27 -9 40 -20 13 -11 31 -20 41 -20
29 0 28 3 33 -461 2 -244 10 -525 16 -624 20 -309 18 -1140 -2 -1260 -9 -55
-20 -150 -23 -212 -3 -61 -11 -127 -16 -145 -6 -18 -14 -100 -20 -183 -5 -82
-14 -206 -20 -275 -16 -173 -24 -2506 -9 -2587 6 -32 15 -152 21 -268 5 -115
14 -232 20 -260 6 -27 16 -97 23 -155 7 -58 18 -116 25 -127 6 -12 14 -50 18
-85 3 -35 14 -85 24 -111 11 -26 19 -62 19 -80 0 -18 9 -50 20 -72 11 -22 20
-53 20 -70 0 -16 7 -43 16 -60 8 -16 19 -48 24 -70 5 -22 16 -62 26 -90 9 -27
24 -72 34 -100 36 -109 58 -182 64 -214 4 -19 12 -42 20 -50 7 -9 16 -33 19
-55 3 -21 13 -46 20 -55 8 -9 17 -32 21 -52 4 -21 13 -42 21 -49 8 -7 15 -21
15 -31 0 -20 42 -104 65 -129 8 -9 15 -23 15 -30 0 -13 86 -149 102 -160 4 -3
27 -35 51 -72 81 -121 401 -446 486 -493 10 -5 34 -23 52 -38 71 -60 152 -117
165 -117 7 0 19 -8 26 -17 15 -21 73 -63 86 -63 5 0 15 -7 22 -15 7 -8 25 -21
41 -30 16 -8 43 -22 59 -31 17 -8 30 -19 30 -23 0 -4 30 -22 68 -41 37 -19 73
-40 80 -47 7 -7 19 -13 26 -13 7 0 23 -9 36 -20 13 -11 29 -20 36 -20 7 0 19
-6 26 -13 7 -7 48 -30 90 -50 42 -21 80 -42 83 -47 3 -6 16 -10 29 -10 13 0
33 -9 46 -20 13 -11 31 -20 40 -20 9 0 27 -9 40 -20 13 -11 32 -20 44 -20 12
0 35 -9 52 -19 17 -10 45 -22 62 -25 17 -4 36 -14 43 -22 6 -8 23 -14 37 -14
13 0 43 -9 66 -19 60 -28 168 -61 199 -61 15 0 53 -9 84 -20 32 -11 69 -20 83
-20 14 0 54 -9 88 -20 35 -11 83 -20 107 -20 23 0 76 -7 117 -15 41 -9 158
-22 259 -30 101 -7 204 -18 229 -24 25 -5 127 -10 228 -10 101 -1 227 -6 281
-11 174 -16 645 -22 836 -10 99 6 288 15 421 20 132 4 259 13 281 19 22 6 111
15 199 21 87 5 194 16 237 25 43 8 103 15 133 15 30 0 71 7 91 15 20 9 68 20
107 26 38 5 75 14 82 20 6 5 36 12 65 16 30 3 71 14 91 24 21 11 49 19 63 19
14 0 42 9 62 20 21 11 46 20 56 20 10 0 35 9 57 20 22 11 46 20 55 20 9 0 33
8 53 19 20 10 60 29 87 41 28 13 57 27 65 31 8 5 26 14 40 19 14 6 32 15 40
20 8 6 25 15 38 20 55 25 69 32 107 55 22 13 47 27 55 30 48 21 68 31 122 67
15 10 34 18 41 18 8 0 20 7 27 16 8 8 27 22 44 30 17 7 45 23 61 34 17 11 43
27 60 36 16 9 35 23 43 30 7 8 17 14 22 14 14 0 84 50 93 66 4 8 14 14 21 14
7 0 21 9 31 20 10 11 22 20 28 20 5 0 22 10 37 22 15 13 37 30 50 38 46 31
145 112 153 126 4 8 12 14 18 14 5 0 30 19 56 43 57 52 96 88 148 136 23 21
58 60 78 88 21 29 41 53 45 55 11 5 117 139 132 167 7 14 17 30 22 35 15 17
50 77 79 133 14 29 31 58 37 65 26 32 210 418 227 478 4 14 14 34 21 45 8 11
14 28 14 38 0 10 8 34 19 55 10 20 21 58 25 84 4 25 14 52 21 58 8 7 15 29 15
49 0 20 8 52 19 71 10 19 21 58 25 87 3 28 13 68 21 87 8 19 15 50 15 68 1 18
8 51 16 73 9 22 20 67 25 100 5 33 16 78 23 100 8 22 17 78 20 125 2 47 10 99
17 115 34 82 37 3361 4 3560 -8 50 -19 162 -25 250 -5 88 -15 176 -22 195 -10
28 -13 269 -13 1194 l0 1160 55 44 c92 74 180 163 180 182 0 4 9 15 20 25 11
10 20 24 20 30 0 7 9 24 20 38 11 14 20 33 20 42 0 9 9 33 19 53 34 65 56 285
37 367 -4 17 -9 40 -12 52 -9 47 -117 76 -159 42 -6 -4 -33 -13 -60 -19 -27
-6 -58 -19 -68 -28 -28 -25 -52 -4 -50 44 1 22 5 551 9 1177 l7 1137 -50 0
-50 0 -7 -127 c-10 -190 -25 -1239 -26 -1795 l0 -488 -44 -20 c-25 -11 -51
-20 -58 -20 -7 0 -26 -9 -43 -20 -16 -11 -40 -20 -52 -20 -12 0 -25 -5 -28
-11 -4 -5 -14 -9 -22 -7 -17 3 -22 1935 -6 2341 l6 167 -42 0 -41 0 -1 -892
c0 -491 -4 -1012 -7 -1158 -4 -146 -4 -308 -1 -360 7 -108 -5 -138 -57 -154
-40 -12 -117 -43 -191 -78 -35 -16 -68 -26 -74 -22 -12 7 -8 264 12 859 5 154
12 623 16 1043 l6 762 -46 0 -47 0 0 -792 c0 -1048 -16 -1874 -37 -1907 -33
-52 -35 -11 -22 530 7 294 14 902 16 1352 l4 817 -41 0 -40 0 0 -727 c0 -676
-12 -1518 -28 -2003 -9 -250 4 -241 -194 -139 -20 10 -43 19 -51 19 -8 0 -44
13 -79 30 -67 30 -77 43 -78 100 0 14 -9 43 -20 65 -11 22 -19 58 -20 80 0 22
-7 50 -15 62 -8 11 -17 40 -21 64 -3 24 -13 54 -21 67 -8 13 -17 46 -20 75 -3
29 -12 63 -19 77 -7 14 -17 48 -23 75 -17 81 -50 197 -60 209 -5 6 -12 38 -16
70 -4 33 -15 76 -26 95 -10 20 -19 50 -19 69 0 30 -28 148 -52 217 -6 17 -16
64 -23 105 -8 41 -21 92 -29 112 -9 21 -16 59 -16 85 0 26 -7 61 -16 78 -8 16
-19 59 -24 95 -5 36 -16 90 -25 120 -8 30 -15 75 -15 101 0 26 -7 65 -15 89
-8 23 -19 90 -25 148 -6 59 -17 129 -25 156 -8 27 -15 86 -15 131 0 48 -6 100
-15 125 -8 23 -15 67 -15 96 l0 54 -41 0 -42 0 6 -47 c4 -27 11 -106 17 -178
6 -71 17 -152 25 -180 7 -27 16 -88 19 -135 3 -47 12 -105 20 -130 7 -25 17
-83 21 -130 4 -47 11 -90 16 -96 5 -6 13 -46 19 -90 6 -43 17 -95 24 -114 8
-20 17 -62 21 -95 4 -33 13 -71 20 -85 7 -14 16 -52 20 -85 4 -33 13 -71 20
-85 7 -14 16 -52 20 -85 4 -33 13 -68 21 -79 8 -11 14 -38 14 -59 0 -21 8 -57
19 -80 10 -23 22 -64 26 -92 4 -27 11 -55 16 -61 5 -6 14 -38 20 -70 6 -33 15
-64 20 -70 5 -7 14 -38 19 -70 5 -32 16 -72 24 -88 8 -17 17 -51 21 -76 4 -25
13 -56 20 -70 7 -14 16 -44 20 -68 4 -23 13 -55 20 -70 7 -15 16 -47 20 -72 4
-25 12 -50 17 -57 5 -7 16 -38 23 -70 7 -32 20 -76 29 -98 8 -22 15 -51 16
-65 0 -14 7 -33 15 -44 8 -10 17 -39 21 -65 3 -25 12 -53 19 -61 7 -8 16 -33
20 -55 3 -22 13 -47 20 -55 7 -8 16 -36 19 -62 4 -25 13 -51 20 -58 8 -6 17
-27 21 -47 3 -20 12 -45 20 -57 7 -12 16 -37 20 -56 4 -19 13 -42 20 -50 7 -8
17 -33 23 -55 14 -53 42 -130 64 -181 10 -22 18 -48 18 -57 0 -9 4 -19 10 -22
5 -3 14 -25 20 -48 6 -23 17 -55 25 -72 8 -16 19 -49 25 -72 6 -23 15 -45 20
-48 6 -3 10 -24 10 -46 0 -51 -22 -48 -31 3 -3 20 -13 43 -21 52 -9 8 -19 34
-23 56 -4 22 -11 40 -15 40 -5 0 -14 19 -21 43 -6 23 -17 49 -24 57 -7 8 -16
34 -20 57 -3 23 -13 47 -21 54 -8 6 -14 21 -14 33 0 12 -8 37 -19 56 -10 19
-22 51 -26 70 -4 19 -13 44 -20 55 -7 11 -16 36 -20 55 -4 19 -13 44 -20 55
-7 11 -16 36 -20 55 -3 19 -12 49 -19 65 -18 40 -45 122 -56 166 -5 19 -16 48
-24 64 -9 16 -18 50 -22 75 -4 25 -13 54 -20 65 -8 11 -14 30 -14 43 0 13 -9
44 -19 70 -11 26 -22 66 -25 90 -4 24 -13 53 -20 65 -8 12 -17 42 -21 67 -4
24 -13 54 -20 65 -7 11 -16 40 -19 65 -4 24 -11 49 -17 56 -5 6 -15 40 -21 75
-6 35 -16 73 -23 84 -7 11 -15 41 -19 68 -3 26 -12 57 -20 70 -7 12 -16 42
-19 67 -3 25 -13 59 -21 74 -8 16 -17 56 -21 90 -4 33 -11 66 -17 73 -5 6 -13
40 -19 75 -5 34 -16 77 -23 93 -8 17 -17 55 -21 85 -4 30 -13 64 -19 75 -7 11
-16 47 -19 81 -4 33 -13 73 -21 88 -8 16 -17 56 -21 90 -4 33 -12 70 -18 81
-5 10 -14 55 -18 98 -4 44 -14 94 -22 111 -8 17 -18 72 -22 121 -4 50 -12 98
-17 109 -6 10 -14 65 -19 123 -5 58 -14 113 -20 124 -5 11 -14 82 -19 158 -5
76 -14 151 -20 165 -5 15 -10 41 -10 57 0 27 -3 29 -36 29 l-35 0 6 -112 c7
-117 16 -184 34 -253 6 -22 11 -67 11 -100 0 -33 9 -93 20 -134 11 -41 20
-101 20 -133 0 -32 6 -74 14 -92 8 -19 17 -65 21 -103 4 -37 13 -86 21 -108 7
-22 17 -68 23 -102 5 -34 14 -70 19 -80 5 -10 15 -54 22 -98 7 -44 16 -88 21
-97 5 -10 14 -44 20 -75 6 -32 15 -63 20 -69 5 -6 13 -39 18 -75 5 -35 17 -84
25 -108 9 -24 16 -58 16 -75 1 -17 9 -49 20 -71 11 -22 20 -53 20 -70 0 -16 7
-43 15 -59 8 -16 19 -52 24 -80 5 -28 16 -71 25 -96 29 -86 56 -185 56 -205 1
-11 9 -38 20 -60 11 -22 20 -51 20 -65 0 -14 7 -38 16 -55 8 -16 20 -54 25
-82 6 -29 16 -65 24 -80 8 -16 15 -38 15 -51 0 -12 9 -40 20 -62 11 -22 20
-50 20 -62 1 -13 9 -41 20 -63 11 -22 19 -52 20 -68 0 -15 9 -44 20 -64 11
-21 20 -47 20 -58 1 -11 9 -38 20 -60 11 -22 19 -49 20 -60 0 -11 9 -37 20
-58 11 -20 20 -47 20 -59 0 -13 9 -36 20 -53 11 -16 20 -39 20 -50 0 -11 9
-38 20 -60 11 -22 19 -46 20 -52 0 -12 8 -30 59 -146 11 -26 21 -55 21 -64 0
-9 8 -34 19 -57 52 -115 61 -138 61 -154 0 -9 9 -30 20 -47 11 -16 20 -39 20
-50 0 -11 9 -33 20 -50 11 -16 20 -38 20 -48 0 -10 9 -35 20 -57 25 -49 25
-84 1 -124 -10 -17 -22 -49 -26 -71 -4 -21 -13 -52 -21 -67 -8 -15 -14 -39
-14 -53 0 -14 -8 -45 -19 -68 -10 -23 -21 -50 -24 -60 -10 -27 -24 -12 -31 34
-4 23 -13 51 -21 62 -8 12 -15 32 -15 45 0 12 -9 40 -20 62 -11 22 -20 53 -20
70 0 17 -9 48 -20 70 -11 22 -20 47 -20 57 -1 10 -9 36 -20 58 -11 22 -19 50
-20 63 0 12 -9 40 -20 62 -11 22 -20 54 -20 72 0 18 -9 47 -20 63 -11 17 -20
41 -20 55 0 14 -9 42 -20 63 -11 20 -20 52 -20 70 0 18 -9 49 -20 70 -11 20
-20 48 -20 62 0 14 -9 43 -20 65 -11 22 -20 47 -20 57 0 16 -18 76 -52 178 -6
17 -18 59 -28 95 -9 36 -22 75 -28 87 -7 12 -12 34 -12 50 0 15 -9 48 -20 72
-11 24 -20 54 -20 68 0 13 -8 43 -19 66 -10 23 -22 62 -26 87 -4 25 -14 54
-21 65 -8 11 -14 33 -14 50 0 17 -9 47 -20 68 -11 20 -20 49 -20 64 -1 16 -9
46 -20 68 -11 22 -19 49 -20 60 0 12 -9 46 -20 78 -11 31 -20 67 -20 79 0 13
-9 40 -20 61 -11 20 -20 47 -20 59 0 13 -8 50 -19 83 -19 59 -27 89 -58 210
-8 33 -21 74 -28 90 -7 17 -16 52 -20 80 -4 27 -13 62 -21 77 -8 15 -14 43
-14 62 0 19 -9 58 -20 86 -11 28 -20 61 -20 74 0 57 -57 155 -110 188 l-50 31
0 57 c0 31 -6 79 -14 106 -8 27 -17 85 -21 128 -4 44 -13 97 -21 119 -8 22
-14 72 -14 111 0 39 -7 100 -16 136 -8 36 -21 137 -29 225 -8 88 -19 183 -24
210 -6 28 -10 71 -10 98 l-1 47 -46 0 c-45 0 -46 -1 -40 -27 3 -16 11 -95 17
-178 5 -82 16 -172 24 -200 7 -27 16 -106 20 -174 4 -68 13 -138 20 -155 7
-17 16 -76 20 -131 4 -55 12 -109 18 -120 6 -11 17 -63 24 -114 7 -52 17 -99
23 -105 20 -20 11 -46 -15 -46 -13 0 -47 -9 -75 -20 -28 -11 -68 -20 -88 -20
-21 0 -63 -9 -95 -20 -31 -11 -75 -20 -97 -20 -22 0 -57 -7 -77 -15 -19 -8
-72 -19 -117 -24 -44 -5 -93 -14 -108 -20 -15 -5 -78 -15 -140 -20 -62 -5
-127 -15 -143 -21 -17 -7 -89 -16 -161 -21 -72 -5 -144 -13 -159 -19 -16 -6
-103 -15 -194 -20 -91 -4 -229 -16 -305 -25 -170 -20 -1670 -17 -1761 4 -27 6
-141 15 -251 21 -111 5 -214 14 -230 20 -16 6 -94 15 -174 20 -80 5 -167 16
-194 24 -27 9 -79 16 -116 16 -36 0 -100 8 -141 19 -41 10 -104 21 -141 24
-37 4 -81 13 -97 22 -17 8 -52 15 -79 15 -27 0 -68 7 -91 15 -23 8 -77 19
-120 24 -43 6 -94 17 -112 25 -19 8 -42 17 -53 20 -13 4 -16 11 -11 24 4 9 14
60 21 112 8 52 18 106 23 120 5 14 12 75 16 135 3 61 12 137 20 170 7 33 16
123 20 199 4 77 13 157 21 178 7 20 16 98 20 173 l7 135 -44 0 c-35 0 -45 -4
-46 -17 -1 -10 -6 -70 -12 -133 -6 -63 -11 -149 -11 -190 0 -41 -6 -95 -14
-120 -7 -25 -16 -99 -20 -165 -4 -66 -12 -137 -17 -159 -6 -21 -16 -98 -24
-170 -7 -72 -18 -149 -24 -171 -6 -22 -11 -57 -11 -78 0 -29 -5 -39 -22 -46
-67 -27 -138 -140 -138 -221 0 -21 -7 -54 -15 -73 -8 -20 -17 -62 -21 -94 -3
-32 -15 -91 -25 -132 -10 -41 -19 -87 -19 -101 0 -15 -7 -46 -15 -71 -8 -24
-19 -75 -24 -114 -5 -38 -17 -95 -25 -125 -9 -30 -16 -68 -16 -85 0 -17 -9
-56 -20 -88 -11 -31 -20 -77 -20 -102 0 -25 -7 -62 -16 -83 -8 -20 -18 -66
-20 -102 -3 -36 -14 -94 -24 -129 -11 -35 -20 -83 -20 -107 0 -24 -6 -61 -14
-81 -8 -21 -19 -75 -25 -121 -6 -45 -15 -91 -20 -100 -5 -10 -13 -47 -16 -82
-4 -36 -13 -85 -21 -110 -8 -25 -18 -80 -24 -123 -5 -43 -17 -99 -25 -123 -8
-25 -15 -62 -15 -83 0 -21 -7 -57 -15 -80 -8 -23 -19 -77 -24 -119 -6 -42 -17
-99 -25 -127 -9 -27 -16 -66 -16 -86 0 -20 -7 -53 -15 -72 -8 -20 -17 -69 -21
-109 -3 -40 -10 -86 -15 -103 -9 -26 -19 -76 -59 -304 -10 -57 -26 -86 -33
-60 -16 57 -31 113 -43 168 -8 35 -19 73 -25 84 -6 11 -15 43 -19 71 -5 28
-16 71 -25 96 -16 43 -16 47 3 85 30 62 53 135 62 195 4 30 15 72 24 92 9 21
16 51 16 68 0 17 7 44 15 60 8 16 19 57 24 92 5 35 17 83 25 107 9 24 16 60
16 80 0 20 6 46 14 57 8 11 17 42 21 69 4 28 15 76 26 108 10 31 19 67 19 80
0 12 9 55 20 96 11 41 20 92 20 113 0 22 9 67 19 101 23 73 39 135 51 197 5
25 14 70 20 100 6 30 17 88 25 128 8 40 17 78 22 85 7 11 32 130 54 262 6 33
19 92 30 130 10 39 19 81 19 95 0 14 7 50 15 80 9 30 20 87 25 127 5 40 16 93
24 118 9 25 16 66 16 90 0 25 6 62 14 82 8 21 20 79 26 128 6 50 17 113 25
140 8 28 17 79 21 115 3 36 12 83 19 105 7 22 15 78 19 124 4 46 12 93 18 104
6 12 14 76 19 144 4 67 12 131 18 141 5 10 15 88 20 173 6 85 14 180 17 212
l7 57 -35 0 -35 0 -7 -92 c-10 -131 -26 -137 -26 -10 l0 102 -39 0 c-45 0 -51
-14 -51 -129 -1 -36 -7 -102 -16 -146 -8 -44 -19 -137 -24 -207 -6 -70 -16
-146 -24 -170 -8 -24 -16 -86 -20 -138 -3 -52 -12 -115 -19 -140 -8 -25 -17
-81 -21 -124 -4 -44 -11 -87 -17 -97 -5 -10 -14 -64 -20 -121 -6 -57 -15 -108
-21 -115 -5 -6 -13 -49 -18 -95 -5 -45 -15 -96 -24 -113 -9 -16 -16 -53 -16
-81 0 -28 -9 -80 -20 -114 -11 -34 -20 -82 -20 -106 0 -24 -9 -70 -19 -101
-11 -32 -22 -85 -25 -118 -3 -34 -12 -77 -21 -98 -8 -20 -15 -51 -15 -69 0
-19 -7 -58 -15 -88 -9 -30 -20 -87 -25 -127 -6 -39 -17 -87 -25 -107 -8 -19
-15 -62 -15 -96 0 -64 -8 -73 -100 -118 -28 -13 -51 -27 -93 -54 -21 -14 -32
-16 -47 -8 -18 10 -19 22 -20 203 0 374 -21 1817 -30 2152 -5 187 -9 382 -9
433 l-1 92 -36 0 -36 0 7 -597 c9 -833 25 -1615 35 -1763 14 -216 12 -530 -3
-530 -16 0 -34 162 -41 365 -4 135 -36 1816 -43 2268 l-4 257 -40 0 -41 0 7
-117 c3 -65 10 -519 15 -1010 5 -491 11 -896 14 -901 6 -9 9 -79 22 -428 6
-190 2 -213 -34 -181 -9 9 -30 19 -47 23 -16 3 -37 12 -45 20 -8 7 -28 16 -45
20 -58 13 -55 -11 -55 504 0 262 -3 835 -7 1273 l-6 797 -39 0 -38 0 0 -842
c0 -783 8 -1195 29 -1528 4 -74 4 -139 0 -144 -9 -10 -79 8 -115 30 l-22 13
-1 842 c-1 463 -4 845 -6 849 -2 3 -5 157 -6 341 l-2 334 22 3 c24 4 61 55 61
85 0 15 -11 17 -100 17 l-100 0 1 -527z m1514 69 c-4 -33 -10 -50 -17 -46 -13
8 -5 235 9 256 10 17 17 -138 8 -210z m-35 -196 c0 -83 -8 -136 -21 -136 -10
0 -12 132 -3 179 11 55 24 33 24 -43z m-40 -260 c0 -74 -9 -126 -21 -126 -10
0 -12 112 -3 159 11 53 24 34 24 -33z m-40 -250 c0 -68 -6 -96 -21 -96 -10 0
-12 103 -3 138 12 43 24 21 24 -42z m-42 -262 c-3 -51 -10 -89 -19 -100 -8
-10 -16 -52 -20 -103 -4 -48 -14 -99 -23 -116 -9 -18 -16 -54 -16 -90 0 -37
-6 -72 -17 -90 -9 -16 -19 -63 -23 -103 -4 -40 -13 -78 -19 -85 -18 -16 -10
155 7 176 7 8 15 46 19 83 3 40 13 82 24 100 14 23 19 51 19 103 0 48 6 88 19
119 11 26 22 82 24 124 3 43 9 83 13 90 13 20 17 -15 12 -108z m449 64 c6 -5
42 -14 79 -19 37 -5 73 -14 79 -19 7 -6 43 -14 81 -19 38 -5 83 -16 99 -25 17
-9 54 -16 85 -16 30 0 91 -9 135 -20 44 -11 100 -20 125 -20 25 0 70 -7 100
-15 30 -9 111 -20 180 -25 69 -5 159 -16 200 -24 41 -8 140 -17 220 -20 80 -3
161 -10 180 -16 19 -6 150 -15 290 -20 140 -5 284 -15 320 -21 91 -17 999 -18
1095 -1 39 6 169 16 291 22 121 5 245 14 275 20 30 6 124 15 209 20 85 6 184
17 220 25 36 8 90 15 121 15 31 0 91 9 134 20 43 11 102 20 130 20 29 0 74 7
101 15 27 9 87 20 132 25 46 5 90 14 98 21 8 6 50 15 95 20 44 4 86 12 93 18
6 6 32 13 56 16 25 4 66 14 92 23 103 35 110 24 189 -290 6 -24 19 -70 30
-103 10 -33 19 -71 19 -85 1 -14 8 -43 16 -65 9 -22 20 -60 24 -85 5 -25 15
-65 23 -90 8 -25 19 -63 24 -85 6 -22 16 -62 23 -90 7 -27 21 -69 31 -93 10
-23 19 -53 19 -65 0 -12 9 -42 20 -66 11 -24 20 -57 20 -75 0 -17 9 -48 20
-69 11 -20 20 -49 20 -64 0 -16 9 -48 20 -72 11 -24 20 -53 20 -65 1 -11 8
-39 16 -61 9 -22 20 -62 26 -90 5 -27 15 -59 22 -70 7 -11 16 -41 19 -68 4
-26 13 -61 22 -77 8 -16 15 -39 15 -52 0 -13 9 -36 20 -53 11 -17 20 -47 20
-68 0 -21 9 -55 20 -77 11 -22 20 -50 20 -62 0 -13 9 -43 20 -67 11 -24 20
-55 20 -70 0 -14 9 -43 20 -64 11 -20 20 -48 20 -61 0 -13 9 -43 20 -67 11
-24 20 -55 20 -69 0 -14 9 -43 20 -65 11 -22 20 -48 20 -60 0 -20 27 -107 61
-200 11 -28 19 -59 19 -70 1 -11 9 -38 20 -60 11 -22 19 -50 20 -63 0 -12 9
-39 20 -59 11 -21 20 -48 20 -61 0 -12 9 -40 20 -62 11 -22 20 -46 20 -55 0
-8 9 -32 20 -52 11 -21 20 -47 20 -59 0 -12 9 -33 20 -47 38 -48 34 -54 -149
-227 -20 -19 -57 -48 -81 -64 -25 -17 -49 -35 -55 -40 -17 -19 -91 -66 -101
-66 -6 0 -19 -9 -29 -20 -10 -11 -25 -20 -32 -20 -8 0 -26 -9 -40 -20 -14 -11
-32 -20 -40 -20 -8 0 -26 -9 -40 -20 -14 -11 -33 -20 -42 -20 -9 0 -29 -9 -46
-20 -16 -11 -38 -20 -48 -20 -11 0 -30 -9 -44 -20 -14 -11 -35 -20 -45 -20
-11 0 -31 -9 -45 -20 -14 -11 -39 -20 -55 -20 -16 0 -46 -9 -68 -20 -22 -11
-48 -20 -60 -20 -11 0 -37 -9 -57 -20 -21 -11 -50 -20 -65 -20 -16 0 -45 -9
-65 -20 -21 -11 -53 -20 -71 -20 -18 0 -49 -7 -70 -16 -20 -9 -66 -20 -101
-25 -36 -5 -70 -14 -77 -20 -6 -5 -45 -13 -86 -18 -41 -5 -85 -14 -98 -21 -13
-7 -56 -15 -94 -17 -39 -3 -86 -11 -104 -19 -19 -8 -67 -17 -106 -20 -39 -3
-115 -14 -168 -25 -53 -10 -130 -19 -170 -19 -40 0 -102 -7 -138 -16 -36 -8
-148 -19 -250 -24 -102 -5 -212 -14 -245 -21 -98 -20 -1036 -17 -1245 4 -91 9
-230 18 -310 21 -80 3 -161 10 -180 16 -19 6 -94 15 -167 20 -72 6 -143 14
-157 20 -15 5 -73 14 -129 19 -57 6 -116 15 -132 21 -15 6 -62 13 -104 17 -42
3 -100 14 -130 25 -30 10 -73 18 -96 18 -23 0 -62 9 -86 19 -24 11 -71 23
-104 26 -33 4 -71 13 -85 20 -14 7 -49 15 -79 19 -29 4 -63 13 -75 20 -11 8
-41 17 -65 20 -24 4 -53 13 -64 21 -12 8 -33 15 -46 15 -14 0 -43 9 -65 19
-23 10 -57 22 -77 25 -21 4 -42 13 -48 20 -7 8 -27 17 -45 20 -19 4 -39 13
-45 20 -6 7 -29 16 -51 20 -22 3 -40 10 -40 15 0 5 -17 15 -37 22 -42 13 -177
82 -199 100 -15 13 -66 41 -101 58 -13 6 -23 15 -23 19 0 5 -27 26 -60 47 -33
21 -60 42 -60 46 0 5 -6 9 -12 9 -34 1 -181 165 -169 188 5 9 12 39 16 67 5
27 15 65 23 85 8 19 18 64 23 99 5 35 14 70 20 77 6 7 14 53 19 102 4 50 13
99 19 110 6 11 15 56 20 99 4 44 13 89 19 100 6 11 16 58 22 104 5 46 17 106
25 133 8 27 15 61 15 75 0 14 9 62 20 106 11 44 20 97 20 117 0 21 7 57 15 82
8 24 20 79 25 121 5 41 14 84 19 93 5 10 15 59 21 108 6 49 15 99 20 111 5 13
14 62 20 110 6 49 17 110 25 137 8 27 15 67 15 88 0 21 7 55 15 75 8 20 20 70
25 112 5 42 16 101 25 131 8 30 15 70 15 90 1 19 7 53 15 75 8 22 18 65 21 95
3 30 15 84 25 119 10 35 19 81 19 103 0 21 7 52 15 68 8 16 18 58 21 92 4 35
15 94 25 133 11 38 19 92 19 120 0 28 6 59 14 70 7 11 16 32 19 46 13 50 85
77 124 47z m-607 -842 c0 -60 -7 -89 -21 -80 -10 6 -12 77 -3 112 11 40 24 23
24 -32z m-40 -215 c0 -65 -7 -94 -21 -85 -10 6 -12 87 -3 122 12 42 24 22 24
-37z m-1482 -18 c2 -9 -10 -13 -42 -13 -43 0 -63 10 -49 24 12 11 86 2 91 -11z
m9987 2 c0 -12 -60 -19 -83 -10 -14 5 -14 7 -2 16 19 12 85 7 85 -6z m-9857
-42 c2 -9 -9 -13 -36 -13 -46 0 -72 8 -72 22 0 14 103 5 108 -9z m9727 2 c0
-5 -21 -11 -47 -13 -45 -3 -64 9 -35 22 20 8 82 2 82 -9z m-9935 -25 c8 -1 33
-9 55 -20 22 -11 50 -19 63 -20 12 0 39 -9 59 -20 21 -11 48 -20 61 -20 13 0
40 -9 60 -19 20 -10 53 -24 72 -31 82 -28 117 -41 145 -54 95 -43 123 -54 152
-60 17 -4 37 -14 44 -22 6 -8 21 -14 33 -14 11 -1 39 -9 61 -20 22 -11 50 -19
63 -20 12 0 45 -11 72 -25 l50 -25 0 -58 c0 -31 3 -120 5 -197 l5 -140 -30
-35 -31 -35 -97 1 c-80 0 -104 4 -137 22 -22 12 -47 22 -55 22 -8 0 -32 9 -53
20 -20 11 -43 20 -51 20 -7 0 -19 7 -26 16 -8 8 -27 22 -44 30 -17 8 -49 25
-71 39 -22 13 -49 28 -60 33 -12 6 -27 17 -34 26 -7 9 -18 16 -23 16 -37 0
-278 244 -278 282 0 7 -7 27 -16 43 -23 44 -62 225 -57 262 5 31 6 32 26 18
12 -8 28 -15 37 -15z m10118 -52 c2 -62 -1 -84 -18 -115 -11 -21 -20 -47 -20
-59 0 -29 -77 -176 -101 -194 -4 -3 -21 -22 -37 -43 -26 -32 -75 -75 -177
-152 -10 -8 -24 -15 -30 -15 -7 0 -20 -9 -30 -20 -10 -11 -25 -20 -32 -20 -8
0 -26 -9 -40 -20 -14 -11 -32 -20 -40 -20 -8 0 -26 -9 -40 -20 -14 -11 -32
-20 -40 -20 -8 0 -26 -9 -40 -20 -14 -11 -32 -20 -40 -20 -8 0 -31 -9 -51 -19
-20 -11 -62 -29 -92 -41 -30 -12 -72 -30 -92 -41 -45 -23 -113 -25 -122 -4 -3
8 -16 20 -28 26 -41 18 -74 77 -58 102 9 15 15 74 18 194 l5 172 26 18 c41 27
114 62 132 63 9 0 26 9 39 20 13 12 37 20 57 20 20 0 46 9 60 20 14 11 35 20
47 20 11 0 35 9 51 20 17 11 41 20 55 20 14 0 39 9 55 20 17 11 42 20 56 20
15 0 32 7 39 15 7 8 30 18 51 21 21 4 46 15 55 25 10 12 31 19 51 19 20 0 46
9 60 20 14 11 40 20 58 20 18 0 43 8 56 19 13 10 44 21 69 24 24 3 46 11 48
17 2 6 11 10 21 8 13 -3 17 -18 19 -80z m-9792 37 c3 -8 26 -17 52 -21 26 -3
52 -12 57 -18 6 -7 29 -15 53 -19 24 -3 51 -12 61 -21 10 -9 27 -16 38 -16 27
0 83 -20 83 -30 0 -5 18 -11 41 -15 23 -4 50 -16 60 -26 10 -10 32 -19 48 -19
16 0 34 -7 41 -15 7 -8 21 -15 32 -15 24 0 58 -18 58 -30 0 -18 -61 -10 -87
10 -14 11 -38 20 -53 20 -15 0 -33 7 -40 15 -7 8 -28 17 -49 21 -20 4 -47 15
-60 25 -13 11 -37 19 -53 19 -17 0 -41 9 -55 20 -14 11 -38 20 -53 20 -15 0
-37 9 -50 20 -13 11 -37 20 -56 20 -42 0 -64 9 -64 26 0 8 -16 14 -47 16 -26
2 -48 9 -51 16 -6 18 87 16 94 -3z m1194 -82 c0 -58 -9 -95 -21 -87 -10 6 -12
94 -3 118 12 31 24 15 24 -31z m-40 -207 c0 -58 -7 -86 -21 -86 -10 0 -12 100
-3 124 13 33 24 14 24 -38z m7600 15 c0 -11 -25 -21 -56 -21 -23 0 -31 10 -17
23 10 10 73 8 73 -2z m-7724 -116 c4 -9 1 -34 -6 -58 -6 -23 -18 -71 -25 -107
-6 -36 -19 -87 -29 -113 -9 -26 -16 -67 -16 -92 0 -48 -8 -75 -21 -75 -5 0 -9
58 -9 128 0 127 0 128 -31 170 -17 23 -37 42 -45 42 -21 0 -17 31 5 37 11 3
22 11 25 19 3 8 12 14 19 14 8 0 25 8 38 19 40 31 87 39 95 16z m7249 -15 c17
-11 37 -20 45 -20 8 0 33 -9 55 -20 22 -11 47 -20 55 -20 8 0 40 -12 70 -26
l55 -25 -41 -37 c-118 -107 -137 -168 -93 -309 35 -111 62 -160 106 -188 l32
-20 0 -110 c1 -108 -7 -144 -27 -131 -6 3 -13 25 -17 49 -4 23 -14 54 -21 69
-8 15 -14 35 -14 45 0 10 -11 41 -25 68 -13 28 -25 55 -25 60 0 6 -9 28 -20
50 -11 22 -20 50 -20 62 0 13 -4 31 -10 41 -16 29 -87 228 -101 286 -5 21 -16
51 -24 67 -8 15 -15 39 -15 52 0 14 -7 30 -15 37 -43 36 0 53 50 20z m-7165
-53 c0 -38 -6 -71 -14 -83 -8 -11 -18 -54 -21 -95 -4 -40 -13 -84 -21 -96 -7
-11 -17 -55 -23 -97 -5 -42 -14 -82 -19 -89 -5 -7 -13 -37 -17 -67 -4 -30 -13
-67 -21 -81 -7 -14 -16 -50 -20 -80 -4 -30 -12 -65 -19 -79 -7 -14 -16 -48
-20 -75 -4 -28 -15 -62 -26 -77 -12 -17 -19 -44 -19 -72 0 -25 -8 -67 -19 -93
-10 -26 -21 -69 -25 -94 -4 -29 -15 -54 -30 -68 l-23 -22 -7 47 c-10 74 -7
292 4 299 6 4 10 -6 11 -22 3 -72 9 -108 23 -121 22 -22 36 -5 36 43 0 25 6
62 14 82 8 21 17 69 20 107 3 38 12 76 20 85 7 9 17 39 21 67 3 28 13 63 20
77 7 14 16 55 20 91 4 36 13 70 20 76 8 6 17 41 20 78 4 37 13 77 20 88 8 12
17 50 20 85 4 35 14 74 21 86 8 13 17 44 20 70 13 113 34 131 34 30z m-313
-79 c18 -7 33 -15 33 -19 0 -4 8 -15 18 -25 24 -24 31 -230 9 -266 -8 -12 -18
-37 -22 -55 -7 -37 -29 -47 -80 -37 -44 8 -44 22 0 54 19 14 38 34 41 45 4 11
14 25 22 31 20 14 -6 86 -44 121 -16 15 -24 33 -24 55 0 18 -3 50 -6 71 -7 42
-1 45 53 25z m7796 -165 l-5 -108 48 -47 c26 -27 54 -48 61 -48 18 0 16 -27
-3 -34 -24 -9 -109 -7 -136 3 -49 19 -82 88 -82 174 l-1 79 53 49 c29 27 57
47 61 44 5 -2 6 -53 4 -112z m-7835 -73 c4 -52 -59 -104 -98 -80 -12 8 -10 15
17 42 17 18 34 43 38 56 11 36 39 24 43 -18z m8661 -370 c-6 -217 -13 -516
-17 -665 l-7 -270 -35 1 c-19 1 -51 5 -70 8 -19 3 -61 8 -92 12 -75 9 -76 12
-67 124 9 106 14 237 25 733 l7 339 91 45 c50 25 107 54 126 64 19 10 38 15
42 11 4 -4 2 -185 -3 -402z m-9075 254 c3 -7 6 -231 7 -496 1 -266 5 -511 8
-546 4 -40 3 -66 -4 -71 -19 -14 -97 -33 -105 -24 -11 12 -20 1159 -8 1171 12
12 95 -15 102 -34z m564 -23 c-2 -28 -7 -52 -13 -54 -11 -2 -19 87 -10 111 11
31 26 -5 23 -57z m8166 -27 c-3 -49 -14 -851 -14 -972 l0 -113 -37 6 c-21 4
-49 15 -63 25 -14 9 -40 21 -57 24 -17 4 -37 14 -44 22 -6 8 -16 14 -21 14 -5
0 -34 12 -65 26 l-56 27 8 376 c4 207 10 398 14 425 7 53 1 50 143 96 15 4 38
16 50 24 12 9 29 16 38 16 8 0 31 9 50 19 44 25 55 22 54 -15z m-8569 -4 c33
-10 73 -22 88 -29 16 -6 39 -11 53 -11 l24 0 1 -217 c0 -209 7 -328 29 -513
l10 -85 -51 -47 c-29 -27 -56 -48 -61 -48 -6 0 -21 -9 -35 -20 -14 -11 -33
-20 -42 -20 -9 0 -24 -9 -34 -20 -43 -51 -58 -20 -50 103 3 51 1 194 -5 318
-26 509 -27 623 -6 614 11 -4 46 -15 79 -25z m250 -80 c9 -14 -4 -110 -15
-110 -9 0 -23 97 -15 110 8 13 22 13 30 0z m114 -3 c11 -14 5 -105 -10 -128
-14 -23 -29 3 -36 59 -7 66 17 103 46 69z m7802 -189 c-1 -95 -8 -261 -16
-368 -8 -107 -15 -196 -15 -197 0 -2 -7 -3 -15 -3 -8 0 -19 17 -26 42 -6 23
-17 51 -25 62 -28 40 -18 82 22 97 l37 14 -2 258 c-2 191 1 262 10 273 25 31
31 -6 30 -178z m-7871 -694 c11 -25 24 -72 29 -106 6 -33 14 -65 19 -71 6 -7
13 -32 17 -57 4 -25 13 -54 20 -65 26 -42 45 -142 32 -167 -15 -30 -81 -117
-129 -171 -21 -23 -38 -47 -38 -53 0 -6 -9 -19 -20 -29 -11 -10 -20 -23 -20
-30 0 -7 -11 -24 -24 -38 -13 -14 -33 -47 -45 -74 -13 -26 -29 -60 -37 -75 -8
-14 -14 -34 -14 -45 0 -10 -9 -34 -19 -54 -12 -22 -21 -67 -25 -119 -10 -120
11 -1167 29 -1460 8 -135 14 -348 15 -475 0 -126 7 -302 15 -390 8 -88 19
-335 25 -550 6 -214 15 -419 21 -455 5 -36 14 -193 19 -350 5 -157 14 -316 20
-355 5 -38 14 -169 19 -290 6 -121 14 -235 20 -253 20 -67 26 -332 7 -332 -9
0 -16 6 -16 14 0 8 -17 36 -39 63 l-38 49 -6 169 c-4 94 -11 211 -17 260 -5
50 -14 223 -19 385 -5 162 -14 318 -20 345 -5 28 -15 231 -21 451 -6 221 -15
428 -20 460 -6 33 -13 237 -16 454 -3 217 -12 492 -20 610 -9 121 -19 490 -24
845 -5 347 -13 682 -19 745 -5 63 -12 326 -15 584 -7 534 -17 473 91 527 34
17 64 37 67 45 3 8 19 14 35 14 21 0 32 6 36 19 3 11 14 23 24 26 10 3 26 14
36 25 28 31 44 24 65 -26z m7874 -19 c17 -14 37 -30 44 -36 7 -6 27 -17 45
-25 17 -8 39 -18 47 -23 38 -23 99 -49 130 -56 19 -4 42 -13 50 -20 8 -7 26
-15 40 -17 l25 -3 -3 -180 c-2 -99 -7 -268 -12 -375 -5 -107 -9 -332 -10 -500
-2 -372 -17 -990 -29 -1160 -5 -69 -10 -233 -10 -365 -1 -215 -13 -589 -26
-780 -3 -38 -9 -227 -15 -420 -5 -192 -14 -381 -20 -420 -5 -38 -14 -241 -20
-450 -6 -209 -15 -406 -21 -438 -14 -77 -28 -440 -22 -557 l5 -95 -35 -17
c-23 -11 -45 -34 -64 -67 -52 -94 -57 -78 -49 181 4 128 13 285 21 348 7 63
16 230 20 370 3 140 10 284 15 320 5 36 14 250 20 475 6 226 15 444 20 485 6
41 15 289 20 550 6 261 15 567 20 680 32 699 36 1387 7 1445 -8 17 -18 53 -22
82 -4 29 -13 57 -21 64 -8 6 -14 22 -14 34 0 12 -8 33 -18 46 -10 13 -23 35
-30 49 -17 35 -76 129 -96 154 -9 12 -37 48 -62 81 -24 33 -51 69 -60 80 -43
56 -84 131 -78 145 4 8 10 34 15 57 5 24 15 53 22 65 8 13 18 43 21 68 4 24
12 50 18 57 6 7 15 35 19 61 24 125 54 154 113 107z m-8310 -181 c3 -9 6 -79
5 -157 0 -78 2 -194 6 -257 4 -63 11 -392 16 -730 5 -338 14 -718 19 -845 5
-126 14 -466 19 -755 6 -289 15 -568 21 -620 5 -52 15 -250 21 -440 12 -392
13 -426 23 -530 4 -41 11 -201 16 -355 5 -154 13 -294 18 -311 6 -18 13 -146
17 -285 3 -140 11 -289 16 -332 8 -74 7 -80 -16 -117 -24 -38 -25 -47 -25
-199 0 -152 -9 -219 -29 -207 -5 3 -12 27 -16 53 -7 55 -31 135 -51 176 -8 16
-19 58 -24 94 -6 36 -17 75 -25 87 -8 11 -15 37 -15 57 0 20 -9 56 -20 80 -11
24 -20 57 -20 72 0 15 -7 41 -15 56 -8 16 -19 55 -24 87 -6 33 -18 84 -26 114
-8 30 -15 70 -15 90 0 20 -9 61 -20 93 -13 37 -20 83 -20 134 -1 43 -7 110
-15 148 -50 242 -49 2990 1 3228 8 38 14 105 14 150 0 45 7 109 15 142 32 127
48 648 35 1105 l-5 175 30 6 c54 12 83 10 89 -7z m8911 -31 c55 -3 104 -9 110
-14 6 -6 9 -117 7 -297 -2 -218 1 -317 13 -412 9 -69 20 -186 25 -260 5 -74
14 -153 20 -175 11 -41 22 -265 40 -765 12 -335 11 -1975 -1 -2335 -15 -470
-27 -690 -39 -720 -7 -16 -15 -69 -20 -116 -5 -48 -15 -100 -24 -117 -9 -17
-16 -49 -16 -72 0 -22 -9 -58 -20 -80 -11 -22 -20 -59 -20 -82 0 -24 -9 -60
-20 -81 -11 -20 -20 -50 -20 -66 0 -16 -9 -48 -20 -72 -11 -24 -20 -58 -20
-74 0 -17 -9 -47 -20 -68 -11 -20 -20 -45 -20 -54 -1 -10 -9 -36 -20 -58 -11
-22 -19 -48 -20 -58 0 -9 -9 -34 -20 -54 -11 -21 -20 -47 -20 -59 0 -12 -6
-27 -14 -33 -8 -7 -17 -24 -21 -39 -6 -28 -39 -105 -56 -132 -5 -8 -25 -46
-44 -85 -19 -38 -39 -77 -44 -85 -5 -8 -14 -26 -21 -40 -37 -80 -151 -251
-219 -329 -106 -122 -332 -340 -379 -365 -9 -5 -24 -16 -34 -25 -18 -17 -32
-28 -123 -96 -33 -24 -67 -50 -75 -57 -16 -14 -30 -23 -81 -52 -19 -10 -36
-22 -39 -26 -3 -4 -16 -13 -29 -20 -14 -7 -30 -17 -35 -21 -21 -18 -87 -59
-94 -59 -4 0 -34 -18 -67 -40 -33 -22 -65 -40 -72 -40 -6 0 -18 -6 -25 -13
-22 -21 -105 -67 -122 -67 -9 0 -24 -9 -33 -20 -10 -11 -21 -20 -26 -20 -13 0
-135 -59 -141 -69 -3 -5 -21 -12 -40 -15 -19 -4 -39 -13 -46 -21 -7 -8 -19
-15 -28 -15 -15 0 -75 -25 -144 -61 -20 -10 -44 -19 -52 -19 -9 0 -35 -8 -58
-19 -53 -23 -130 -49 -181 -62 -21 -5 -48 -16 -60 -23 -31 -20 -103 -30 -112
-16 -4 6 20 37 58 73 35 34 67 69 71 77 4 8 18 33 31 55 40 66 64 131 79 216
5 27 14 40 39 53 80 43 93 50 105 63 7 7 18 13 23 13 6 0 37 18 71 41 83 55
91 42 39 -64 -22 -47 -41 -88 -41 -91 0 -4 -9 -19 -21 -35 -62 -84 20 -120
138 -60 35 18 66 36 69 41 3 4 16 8 28 8 13 0 35 9 49 20 14 11 31 20 39 20 7
1 36 14 63 30 28 17 68 39 90 50 57 29 167 92 195 113 14 9 28 17 32 17 5 0
31 16 58 35 27 19 53 35 56 35 6 0 147 91 254 163 14 9 50 33 80 54 30 20 63
44 72 52 10 9 28 24 40 33 166 122 413 356 442 419 9 19 36 66 61 104 42 66
56 90 91 160 8 17 19 37 24 45 78 131 96 251 51 336 -12 21 -21 52 -21 69 0
16 -9 50 -20 74 -11 24 -20 52 -20 62 0 10 -11 26 -26 35 -16 11 -23 22 -19
33 20 50 53 502 54 742 1 69 5 150 11 180 5 30 17 245 25 479 8 234 20 457 25
495 5 39 12 243 15 455 4 212 10 406 15 432 5 25 14 284 20 575 14 707 16 795
28 958 8 102 25 1215 22 1409 0 15 4 17 23 10 12 -4 67 -9 122 -11z m-8323
-410 c2 -111 2 -120 22 -223 9 -47 16 -110 16 -141 0 -30 6 -75 14 -100 8 -24
17 -87 19 -141 3 -53 10 -105 16 -117 6 -11 16 -71 22 -133 6 -62 17 -131 24
-153 8 -22 16 -86 19 -143 4 -57 12 -115 20 -130 7 -15 17 -70 21 -122 4 -52
13 -106 20 -120 7 -14 15 -69 19 -123 3 -54 13 -114 20 -135 8 -20 17 -79 20
-130 3 -51 12 -105 20 -120 7 -15 16 -67 20 -116 4 -49 13 -108 21 -130 7 -23
16 -75 20 -116 4 -41 14 -87 21 -102 8 -15 14 -58 14 -100 1 -41 8 -90 16
-113 9 -22 20 -76 25 -120 5 -44 15 -100 23 -125 8 -25 18 -76 21 -115 4 -38
13 -81 20 -95 7 -14 15 -61 18 -105 3 -44 12 -96 20 -115 8 -19 18 -66 22
-103 4 -38 13 -83 20 -100 7 -18 15 -65 19 -105 3 -41 12 -86 20 -100 7 -15
17 -61 21 -104 3 -42 13 -85 20 -95 8 -10 15 -38 15 -63 1 -25 8 -63 16 -85 9
-22 21 -79 28 -126 6 -48 16 -93 22 -100 7 -8 15 -45 19 -84 4 -38 13 -81 20
-95 7 -14 16 -52 20 -85 4 -33 13 -71 20 -85 7 -14 16 -50 20 -80 4 -30 13
-64 20 -75 7 -11 16 -49 20 -85 4 -35 13 -74 20 -85 7 -11 16 -42 20 -70 4
-27 13 -57 20 -65 7 -8 15 -43 19 -78 3 -34 12 -72 20 -85 7 -12 16 -44 20
-71 3 -27 13 -57 21 -66 8 -9 15 -32 15 -51 1 -19 8 -52 16 -74 9 -22 20 -67
26 -100 5 -33 16 -67 23 -75 7 -8 15 -34 19 -58 4 -24 13 -53 20 -65 8 -12 17
-43 20 -69 4 -25 13 -51 21 -58 7 -6 16 -33 20 -60 4 -27 13 -54 21 -61 8 -6
14 -25 14 -41 0 -17 9 -47 19 -67 11 -20 22 -52 26 -72 3 -21 12 -43 20 -49 9
-7 18 -30 21 -51 4 -21 13 -44 20 -50 8 -6 14 -20 14 -30 0 -10 11 -39 25 -65
14 -26 25 -53 25 -60 0 -8 15 -44 34 -81 19 -38 59 -121 90 -185 32 -65 61
-120 67 -123 5 -4 9 -17 9 -31 0 -27 -26 -27 -60 0 -8 7 -26 18 -40 25 -14 6
-43 23 -65 36 -22 14 -51 30 -65 37 -14 7 -43 27 -65 44 -22 17 -51 37 -64 44
-30 15 -46 28 -73 58 -12 12 -28 22 -36 22 -8 0 -25 10 -36 23 -12 12 -33 29
-45 37 -13 8 -48 34 -77 57 -29 24 -57 43 -61 43 -5 0 -27 17 -49 38 -21 21
-59 51 -84 67 -24 17 -68 53 -97 80 -29 28 -73 68 -98 90 -25 22 -76 68 -113
103 -36 35 -71 66 -76 70 -13 8 -90 93 -166 181 -30 36 -74 84 -97 107 -24 23
-43 45 -43 48 0 12 -93 135 -106 140 -8 3 -14 12 -14 19 0 8 -9 22 -20 32 -11
10 -20 23 -20 28 0 6 -8 19 -17 30 -24 26 -39 160 -53 467 -6 135 -15 297 -21
360 -22 241 -28 330 -29 480 -1 85 -6 178 -11 205 -5 28 -16 214 -24 415 -8
201 -19 427 -24 504 -6 76 -13 274 -16 440 -4 165 -13 360 -20 431 -9 78 -17
301 -20 560 -3 237 -13 549 -21 695 -20 369 -20 489 -2 526 9 16 18 50 22 76
4 26 11 50 16 53 5 3 14 25 21 48 6 23 17 49 24 57 7 8 17 27 20 43 4 15 11
27 15 27 5 0 23 26 41 58 18 31 38 62 44 67 12 11 74 105 94 143 22 41 31 23
33 -65z m7419 -68 c-11 -38 -23 -101 -26 -140 -4 -38 -13 -81 -20 -95 -7 -14
-16 -70 -20 -125 -4 -56 -13 -108 -21 -121 -9 -12 -17 -61 -20 -120 -3 -54
-12 -119 -19 -144 -8 -25 -17 -81 -20 -125 -4 -44 -13 -102 -20 -130 -8 -27
-17 -93 -21 -145 -4 -52 -12 -106 -19 -120 -7 -14 -16 -72 -20 -130 -4 -58
-13 -117 -21 -131 -7 -14 -16 -70 -20 -125 -3 -54 -12 -113 -19 -130 -7 -17
-16 -76 -20 -130 -4 -55 -13 -111 -20 -125 -8 -14 -16 -70 -20 -125 -4 -54
-13 -116 -21 -137 -8 -21 -17 -73 -21 -115 -3 -42 -12 -94 -19 -115 -7 -21
-16 -79 -20 -130 -4 -51 -13 -104 -20 -119 -8 -15 -17 -69 -20 -120 -4 -51
-12 -102 -17 -113 -6 -11 -17 -60 -23 -110 -7 -49 -20 -117 -28 -150 -9 -33
-16 -82 -16 -108 0 -26 -7 -61 -15 -77 -8 -16 -18 -61 -21 -102 -4 -40 -13
-88 -20 -106 -8 -19 -17 -70 -20 -115 -4 -47 -13 -93 -22 -107 -9 -15 -17 -57
-20 -105 -3 -44 -10 -89 -17 -100 -7 -11 -16 -51 -19 -89 -4 -38 -16 -95 -26
-127 -11 -32 -20 -80 -20 -106 0 -26 -7 -56 -15 -66 -7 -10 -17 -53 -20 -95
-4 -43 -14 -88 -21 -102 -8 -14 -18 -56 -23 -95 -5 -38 -16 -88 -25 -110 -8
-22 -15 -58 -16 -80 0 -23 -4 -45 -8 -50 -15 -17 -32 -91 -32 -135 0 -24 -7
-51 -15 -60 -8 -9 -17 -43 -21 -75 -3 -33 -13 -71 -21 -83 -8 -13 -17 -49 -20
-80 -4 -32 -12 -67 -20 -79 -8 -12 -17 -48 -20 -80 -3 -32 -14 -74 -25 -93
-10 -19 -18 -47 -18 -62 0 -16 -9 -45 -20 -65 -11 -21 -20 -54 -20 -74 0 -20
-6 -42 -14 -48 -8 -7 -17 -35 -21 -64 -4 -28 -13 -61 -20 -72 -7 -11 -18 -44
-25 -73 -7 -28 -16 -54 -20 -57 -5 -3 -12 -26 -16 -50 -3 -25 -15 -62 -25 -82
-11 -21 -19 -49 -19 -64 0 -15 -6 -32 -14 -38 -7 -6 -16 -30 -20 -52 -4 -23
-13 -51 -21 -62 -8 -12 -15 -28 -15 -37 0 -9 -9 -33 -19 -54 -11 -21 -23 -52
-26 -69 -4 -18 -13 -41 -19 -52 -7 -11 -16 -33 -20 -50 -7 -31 -24 -72 -57
-137 -11 -20 -19 -45 -19 -55 0 -53 -50 -78 -89 -44 -12 10 -55 27 -96 36 -80
19 -123 17 -725 -26 -74 -5 -211 -14 -305 -19 -93 -6 -280 -17 -415 -25 -281
-17 -514 -18 -785 -4 -104 5 -309 13 -455 18 -146 5 -294 14 -330 20 -36 6
-150 15 -255 21 -104 6 -232 18 -283 26 -62 11 -130 15 -205 12 -109 -4 -130
-9 -220 -54 -30 -15 -67 8 -67 42 0 9 -9 27 -20 41 -11 14 -20 33 -20 42 0 9
-9 30 -20 46 -11 17 -20 40 -20 51 0 12 -7 27 -15 34 -8 7 -15 18 -15 24 0 6
-12 34 -25 61 -14 28 -25 55 -25 61 0 6 -6 17 -14 23 -8 7 -17 30 -21 51 -4
21 -13 44 -20 50 -8 6 -17 26 -20 43 -4 18 -13 41 -20 52 -7 11 -16 35 -19 52
-4 17 -14 37 -21 43 -8 6 -17 33 -21 58 -3 26 -12 54 -19 62 -7 8 -16 35 -20
60 -4 25 -13 52 -20 60 -7 8 -15 32 -18 54 -3 21 -12 46 -20 55 -8 9 -17 38
-21 65 -3 27 -12 57 -20 65 -7 9 -16 36 -20 61 -4 24 -13 51 -20 60 -7 8 -16
37 -20 64 -3 27 -13 60 -20 72 -8 12 -18 49 -22 82 -3 34 -13 67 -20 73 -8 6
-14 28 -14 47 0 35 -39 177 -65 237 -8 17 -16 54 -20 84 -3 30 -12 66 -19 80
-7 14 -16 48 -20 75 -3 27 -13 60 -21 72 -8 13 -15 42 -15 64 0 23 -9 62 -19
88 -11 26 -22 73 -25 105 -4 32 -12 68 -20 80 -7 12 -16 52 -19 89 -4 37 -13
78 -21 90 -7 13 -17 54 -21 92 -4 39 -13 79 -20 90 -7 12 -15 51 -18 88 -4 37
-13 78 -20 90 -8 13 -18 56 -22 97 -3 41 -12 83 -20 95 -7 12 -15 53 -18 93
-3 39 -12 82 -20 95 -8 13 -17 59 -20 103 -4 44 -13 98 -21 120 -8 22 -17 72
-21 110 -4 39 -13 81 -20 95 -7 14 -15 65 -19 115 -3 49 -12 98 -20 110 -7 11
-16 56 -19 100 -3 44 -12 96 -20 115 -8 19 -18 68 -21 108 -4 40 -13 94 -21
120 -7 26 -16 81 -20 122 -4 41 -13 93 -20 115 -7 22 -16 76 -20 120 -4 44
-13 94 -20 111 -7 17 -16 73 -20 125 -4 52 -13 110 -20 129 -7 19 -16 73 -20
120 -3 47 -12 103 -19 125 -7 22 -16 80 -20 128 -4 48 -14 106 -22 129 -7 22
-14 73 -14 112 -1 40 -8 89 -17 111 -8 22 -19 90 -24 150 -5 61 -16 128 -24
150 -7 22 -17 85 -20 140 -4 55 -13 116 -20 135 -7 19 -16 75 -20 124 -3 49
-13 108 -21 130 -7 23 -16 70 -20 106 -3 36 -15 95 -26 131 -13 43 -18 76 -14
94 l7 28 77 -75 c42 -41 84 -80 92 -86 8 -7 40 -31 70 -55 30 -24 65 -47 78
-51 12 -4 22 -12 22 -17 0 -5 10 -14 23 -19 12 -5 40 -21 62 -35 22 -14 59
-34 81 -44 23 -11 45 -24 48 -30 4 -6 17 -11 30 -11 13 0 31 -9 41 -20 10 -11
26 -20 36 -20 10 0 39 -11 65 -25 26 -14 54 -25 63 -25 10 0 22 -5 28 -11 6
-6 30 -15 54 -20 24 -6 51 -16 59 -23 8 -7 32 -16 54 -19 21 -3 46 -13 56 -22
9 -8 32 -15 51 -15 19 0 52 -9 75 -19 23 -10 61 -22 85 -26 24 -4 56 -14 71
-21 15 -8 40 -14 55 -14 15 0 48 -9 72 -20 24 -11 63 -20 87 -20 24 0 65 -8
91 -19 26 -10 78 -21 115 -24 38 -4 77 -11 88 -17 11 -6 67 -15 125 -20 57 -6
117 -15 132 -21 16 -6 77 -15 136 -20 60 -5 132 -15 160 -23 29 -8 113 -17
187 -20 74 -4 153 -11 175 -16 41 -11 361 -25 780 -36 304 -7 1090 20 1185 41
36 8 106 15 157 15 56 0 124 8 175 20 46 11 110 20 143 20 33 0 93 9 134 20
41 11 97 20 125 20 28 0 70 7 94 15 24 9 77 20 118 26 40 5 86 17 101 24 16 8
47 15 71 15 24 0 56 7 71 14 15 8 52 18 82 22 30 3 64 12 75 20 12 7 46 16 75
20 30 3 68 15 85 25 17 11 44 19 59 19 15 0 41 6 58 14 18 8 48 19 67 25 64
19 139 47 152 58 7 6 25 14 41 18 15 4 44 16 64 26 21 10 43 19 51 19 8 0 25
9 39 20 14 11 33 20 42 21 9 0 39 14 66 30 28 16 61 34 75 41 14 6 33 18 43
27 20 17 51 35 92 55 32 15 229 189 280 247 l30 34 3 -40 c2 -22 -6 -71 -17
-110z m103 113 c39 -76 128 -208 138 -208 4 0 8 -6 8 -12 0 -7 18 -39 40 -70
22 -32 43 -70 46 -85 4 -16 15 -39 26 -52 10 -13 18 -34 18 -46 0 -12 6 -28
14 -34 7 -6 16 -37 20 -69 3 -31 14 -86 23 -122 14 -57 15 -87 5 -255 -7 -104
-16 -406 -22 -670 -5 -264 -17 -613 -25 -775 -8 -162 -18 -455 -21 -650 -3
-213 -11 -391 -19 -445 -8 -52 -16 -232 -20 -425 -3 -184 -11 -369 -16 -410
-6 -41 -16 -259 -24 -485 -8 -225 -20 -500 -26 -610 -14 -227 -2 -195 -131
-357 -43 -53 -78 -100 -78 -103 0 -4 -19 -26 -42 -50 -24 -23 -88 -93 -143
-155 -113 -128 -298 -315 -370 -375 -66 -55 -134 -115 -160 -142 -12 -13 -27
-23 -33 -23 -6 0 -15 -6 -19 -13 -4 -7 -19 -20 -33 -28 -14 -9 -39 -29 -56
-45 -17 -16 -51 -43 -75 -59 -24 -16 -73 -52 -109 -80 -36 -28 -77 -56 -92
-63 -16 -6 -28 -16 -28 -22 0 -5 -6 -10 -14 -10 -8 0 -21 -6 -28 -13 -21 -21
-154 -107 -166 -107 -6 0 -17 -6 -24 -14 -18 -17 -99 -59 -104 -53 -3 2 2 10
11 17 8 7 15 20 15 29 0 9 6 25 14 36 7 11 28 58 47 105 18 47 38 92 45 100 6
8 15 31 19 50 4 19 13 42 20 50 7 8 15 31 19 51 4 21 13 42 20 48 8 7 17 34
21 61 4 27 13 54 21 61 7 6 16 27 19 48 4 20 12 47 19 61 8 14 17 45 21 70 4
25 16 61 26 80 11 19 19 47 19 62 0 16 9 45 20 65 11 21 20 54 20 74 0 20 6
42 14 48 8 7 18 38 22 69 3 31 12 64 19 72 7 8 17 37 21 65 4 27 15 67 25 90
10 22 19 58 19 80 0 22 7 48 15 59 7 10 17 44 20 75 4 31 14 67 22 79 8 13 17
49 20 80 3 32 12 68 19 82 7 14 17 57 23 95 5 39 16 88 25 110 8 22 15 60 16
85 0 25 7 55 15 66 8 12 17 52 21 90 4 38 13 81 20 96 8 15 17 56 20 90 3 35
15 87 25 116 10 29 19 73 19 98 0 25 7 58 15 73 8 16 17 59 20 97 4 38 13 86
21 107 8 21 19 75 24 120 5 45 16 107 25 137 8 30 15 75 15 100 0 25 6 55 14
66 8 11 18 56 22 100 3 43 13 95 21 114 8 19 17 69 20 110 2 41 13 101 24 133
10 31 19 82 19 111 0 30 5 67 11 83 6 15 17 76 25 134 7 59 18 119 24 135 6
15 13 64 16 108 3 45 12 101 20 126 8 25 17 81 21 125 3 44 11 91 18 105 7 14
16 68 20 120 4 52 14 112 21 133 7 21 16 86 20 145 4 70 12 116 22 132 10 16
18 60 22 125 3 55 11 109 17 121 7 11 15 67 19 125 4 57 12 115 20 129 7 14
16 75 20 135 4 61 13 124 20 140 7 17 16 71 20 121 3 49 12 103 19 121 7 17
17 78 21 134 4 57 12 117 19 134 7 16 16 81 20 144 4 63 13 132 21 154 9 25
14 80 14 148 0 116 6 129 34 77z m402 -5505 c3 -16 10 -40 15 -54 6 -15 16
-53 24 -85 7 -33 19 -78 26 -101 12 -38 11 -46 -9 -86 -12 -24 -22 -49 -22
-54 0 -6 -6 -16 -14 -22 -8 -7 -17 -23 -20 -36 -4 -14 -30 -60 -59 -102 -29
-43 -58 -89 -65 -103 -53 -104 -122 -192 -208 -265 -32 -27 -82 -70 -110 -95
-29 -25 -89 -72 -134 -105 -45 -33 -89 -67 -98 -76 -9 -9 -40 -29 -67 -45 -28
-16 -69 -41 -90 -57 -74 -51 -177 -117 -183 -117 -4 0 -32 -17 -62 -38 -30
-20 -66 -43 -80 -50 -14 -7 -43 -23 -65 -37 -22 -13 -53 -32 -70 -40 -16 -9
-48 -27 -70 -40 -64 -37 -238 -123 -264 -130 -23 -7 -23 -6 -16 31 4 22 9 42
11 46 9 13 91 48 116 48 14 0 36 9 50 19 13 11 36 23 51 26 14 4 31 13 38 21
6 8 17 14 24 14 6 0 20 9 30 20 10 11 26 20 37 20 10 0 26 9 35 20 10 11 23
20 29 20 6 0 23 9 37 20 14 11 31 20 37 20 16 0 110 61 110 72 0 4 6 8 13 8 8
0 22 9 32 20 10 11 23 20 29 20 15 0 163 104 207 145 9 8 19 15 23 15 8 0 52
30 126 88 30 23 65 50 78 60 12 9 50 43 85 74 34 32 65 58 70 58 4 0 12 11 17
25 5 14 15 25 22 25 31 1 116 97 133 149 3 12 11 21 16 21 6 0 15 13 20 29 6
16 16 32 23 34 8 3 17 18 20 34 4 15 15 36 24 46 26 29 31 326 7 363 -18 28 0
80 42 122 7 7 13 18 13 23 0 22 30 6 36 -18z m-8219 -20 c57 -62 62 -77 62
-221 0 -90 5 -141 14 -165 20 -46 30 -112 22 -137 -8 -27 -32 -26 -41 3 -3 12
-12 29 -19 37 -7 8 -16 31 -20 50 -4 19 -16 51 -26 70 -11 19 -19 43 -19 53 0
10 -8 29 -17 43 -13 21 -14 30 -5 45 9 14 9 31 1 67 -7 37 -8 169 0 190 3 8
16 -2 48 -35z m8093 -277 c0 -138 -2 -156 -20 -179 -11 -14 -20 -37 -20 -51 0
-15 -6 -29 -14 -32 -8 -3 -17 -17 -21 -31 -6 -24 -15 -39 -63 -100 -58 -75
-71 -86 -87 -73 -8 7 -15 19 -15 26 0 8 -7 14 -15 14 -10 0 -15 -10 -15 -31 0
-40 -14 -64 -58 -103 -20 -17 -54 -48 -76 -68 -23 -21 -46 -38 -53 -38 -7 0
-17 -9 -23 -20 -6 -11 -17 -20 -24 -20 -7 0 -21 -9 -31 -20 -10 -11 -23 -20
-30 -20 -11 0 -41 -20 -74 -50 -39 -35 -147 -113 -213 -155 -9 -5 -37 -25 -63
-42 -25 -18 -50 -33 -54 -33 -5 0 -14 -7 -21 -16 -8 -8 -27 -22 -44 -30 -17
-8 -49 -25 -71 -39 -22 -13 -51 -29 -65 -35 -13 -6 -27 -16 -31 -21 -6 -10
-49 -36 -106 -64 -18 -8 -33 -19 -33 -24 0 -11 -75 -25 -89 -16 -20 12 2 36
80 87 43 29 79 56 79 60 0 4 5 8 10 8 14 0 144 86 160 105 7 8 18 15 25 15 6
0 23 9 36 20 13 11 74 58 134 105 61 46 118 91 128 99 9 9 22 16 27 16 6 0 18
8 28 18 19 17 31 26 90 63 17 12 32 25 32 30 0 5 6 9 13 9 8 0 22 9 32 20 10
11 23 20 28 20 6 0 17 7 26 15 34 32 79 65 90 65 5 0 15 9 21 20 6 11 16 20
23 20 8 0 26 14 42 30 18 18 43 33 65 36 33 5 38 11 60 65 12 32 26 59 31 59
4 0 12 12 18 28 6 15 18 38 25 52 24 44 39 113 40 185 1 83 9 111 44 148 40
42 42 37 42 -127z m-7913 30 c3 -12 5 -53 4 -93 -1 -44 4 -85 12 -106 8 -19
18 -52 22 -75 3 -22 13 -48 20 -59 8 -10 15 -29 15 -43 0 -14 7 -36 15 -50 8
-14 19 -37 26 -52 6 -16 14 -28 19 -28 4 0 13 -14 20 -30 7 -17 21 -35 31 -41
11 -5 19 -14 19 -18 0 -14 107 -119 152 -149 23 -15 48 -31 56 -37 8 -5 30
-24 49 -41 19 -17 64 -46 99 -64 35 -18 69 -39 75 -46 6 -8 18 -14 25 -14 8 0
14 -5 14 -10 0 -6 10 -15 23 -20 12 -6 42 -24 67 -40 25 -17 56 -36 70 -42 14
-7 70 -43 126 -80 55 -36 134 -83 175 -102 76 -37 95 -48 140 -78 15 -9 38
-20 52 -23 36 -9 107 -73 107 -95 0 -27 -18 -35 -38 -17 -9 8 -62 39 -117 67
-55 29 -107 58 -115 65 -8 7 -25 16 -38 20 -12 3 -45 21 -72 38 -27 18 -74 48
-105 67 -31 19 -68 43 -83 53 -15 9 -41 24 -58 32 -17 8 -95 57 -173 110 -79
52 -145 95 -147 95 -5 0 -191 149 -215 172 -8 8 -29 24 -47 37 -18 13 -80 81
-137 152 -98 123 -103 131 -98 168 6 47 -12 64 -36 32 -9 -12 -20 -19 -23 -15
-9 8 3 37 19 47 16 10 7 138 -13 179 -14 27 -20 179 -8 191 10 9 63 -34 71
-57z m7753 -140 c0 -36 -5 -60 -16 -70 -9 -9 -20 -32 -25 -51 -11 -39 -159
-195 -185 -195 -5 0 -15 -9 -22 -20 -7 -11 -17 -20 -23 -20 -9 0 -140 -99
-191 -145 -23 -19 -48 -19 -48 0 0 8 7 15 15 15 7 0 18 6 22 14 4 8 63 71 131
142 68 70 169 185 225 256 56 70 105 128 110 128 4 0 7 -24 7 -54z m-7605 -58
c28 -32 68 -80 90 -107 36 -46 220 -235 295 -304 37 -34 38 -47 5 -47 -14 0
-25 4 -25 8 0 5 -18 21 -41 38 -22 16 -52 38 -65 49 -13 11 -34 28 -47 37
-168 131 -277 240 -277 280 0 7 -9 30 -20 51 -20 37 -25 68 -14 80 9 9 43 -19
99 -85z m-317 -151 c2 -15 11 -31 21 -37 10 -5 21 -23 24 -40 4 -16 13 -30 20
-30 8 0 19 -11 25 -25 6 -14 16 -25 22 -25 5 0 10 -7 10 -15 0 -8 11 -25 25
-37 14 -12 25 -26 25 -30 0 -20 277 -280 360 -339 47 -33 132 -96 150 -112 24
-21 156 -107 164 -107 10 0 70 -43 79 -57 4 -7 13 -13 20 -13 7 0 37 -17 67
-38 30 -20 66 -43 80 -50 14 -6 32 -16 40 -22 40 -26 237 -136 260 -145 8 -3
33 -17 55 -30 22 -14 51 -29 65 -35 14 -5 32 -15 40 -20 8 -6 26 -15 40 -21
14 -6 42 -19 62 -30 49 -25 59 -24 93 11 25 26 27 33 17 48 -7 9 -31 54 -53
100 -23 45 -45 85 -50 88 -15 9 -10 54 5 54 8 0 18 -5 22 -11 3 -6 22 -17 40
-25 19 -8 34 -18 34 -23 0 -5 12 -14 28 -21 35 -14 84 -42 103 -58 7 -6 28
-23 44 -36 17 -13 38 -39 47 -58 82 -170 85 -174 122 -233 23 -35 124 -135
137 -135 5 0 9 -7 9 -15 0 -18 -70 -21 -87 -4 -6 6 -35 17 -65 25 -70 17 -153
48 -170 61 -7 6 -27 15 -43 19 -17 4 -43 16 -60 26 -16 10 -38 18 -47 18 -15
0 -74 23 -130 51 -36 18 -54 26 -103 49 -27 13 -57 27 -65 32 -15 8 -42 21
-70 33 -8 3 -33 17 -55 30 -22 14 -54 32 -72 40 -17 8 -34 19 -37 24 -4 5 -20
12 -37 16 -17 4 -33 13 -36 21 -2 7 -15 16 -26 20 -12 3 -29 12 -37 20 -9 7
-43 27 -75 45 -33 17 -62 34 -65 38 -10 12 -128 91 -146 98 -11 4 -37 22 -59
40 -35 29 -169 132 -234 180 -41 31 -284 280 -326 335 -22 28 -47 59 -55 68
-27 29 -60 79 -70 105 -5 14 -14 25 -20 25 -5 0 -10 7 -10 15 0 8 -9 23 -20
32 -11 10 -20 29 -20 44 0 18 -6 28 -20 32 -15 4 -20 14 -20 37 0 39 23 36 28
-3z m395 -130 c16 -12 55 -46 87 -75 67 -60 115 -97 148 -111 12 -6 22 -14 22
-19 0 -5 15 -16 33 -25 17 -10 46 -26 62 -37 17 -11 41 -26 55 -33 33 -16 83
-49 95 -63 6 -6 50 -37 99 -70 48 -32 98 -65 110 -73 11 -8 53 -35 91 -61 39
-25 84 -55 100 -66 89 -62 157 -104 165 -104 13 0 60 -52 60 -67 0 -17 -25
-16 -39 1 -7 8 -26 18 -42 21 -16 4 -31 11 -35 16 -3 5 -20 16 -37 24 -18 8
-50 26 -72 40 -22 13 -47 27 -55 31 -8 4 -28 18 -43 31 -16 13 -32 23 -37 23
-5 0 -35 17 -67 38 -32 20 -67 43 -78 50 -11 6 -31 18 -45 25 -14 6 -72 43
-130 82 -58 39 -117 76 -132 82 -16 7 -28 17 -28 23 0 5 -6 10 -14 10 -33 0
-295 228 -296 257 0 7 -9 20 -19 30 -11 10 -22 30 -26 45 -4 15 -13 29 -22 32
-8 3 -12 10 -8 15 3 5 20 -4 38 -20 17 -17 45 -40 60 -52z m2086 -947 c79 -6
151 -14 160 -19 9 -5 81 -12 161 -15 80 -4 197 -13 260 -21 324 -40 1753 -43
1970 -4 30 5 143 14 250 20 107 5 209 15 225 20 17 5 140 12 275 15 l245 6 45
-25 c44 -24 45 -26 48 -78 4 -85 -56 -215 -140 -303 -125 -130 -235 -176 -453
-191 -55 -4 -122 -11 -150 -17 -27 -5 -138 -16 -245 -24 -107 -7 -251 -19
-320 -25 -157 -14 -1256 -14 -1395 0 -55 6 -202 17 -327 25 -125 8 -231 17
-237 20 -5 3 -75 13 -155 21 -81 8 -154 18 -164 23 -9 5 -33 12 -52 16 -35 6
-121 58 -218 131 -56 42 -132 143 -132 175 0 25 18 26 27 3 8 -23 134 -142
150 -143 7 0 17 -9 23 -20 6 -11 17 -20 24 -20 7 0 24 -8 37 -18 36 -28 115
-53 199 -63 41 -5 113 -16 160 -25 47 -8 166 -19 265 -24 99 -6 196 -15 215
-20 19 -6 206 -15 415 -20 209 -6 388 -12 399 -14 33 -8 977 24 1015 33 20 6
113 15 206 21 94 6 202 17 240 24 39 8 96 17 128 20 32 4 71 12 85 20 15 7 41
16 59 19 45 9 135 74 181 132 38 49 56 78 86 142 9 17 20 34 26 38 5 3 10 22
10 40 0 85 -117 96 -623 58 -164 -13 -302 -25 -307 -28 -7 -4 -270 -20 -815
-47 -171 -8 -289 -8 -460 0 -126 6 -383 18 -570 26 -187 8 -358 20 -380 25
-22 6 -106 15 -186 21 -80 5 -170 14 -200 20 -30 6 -115 13 -189 17 -209 9
-248 -12 -235 -128 6 -50 5 -61 -6 -57 -8 3 -15 18 -17 35 -2 17 -12 39 -23
49 -57 52 -7 126 97 142 62 9 78 8 313 -8z m-74 -105 c61 -7 153 -16 205 -20
52 -3 111 -10 130 -15 19 -5 132 -14 250 -20 118 -6 243 -15 278 -21 189 -29
1502 -29 1634 0 26 6 143 15 259 21 117 6 229 14 248 19 20 5 90 12 156 15 66
3 166 9 221 12 121 8 214 -1 214 -21 0 -9 -21 -15 -67 -20 -38 -4 -86 -13
-108 -20 -22 -8 -83 -16 -135 -19 -52 -3 -111 -10 -130 -16 -19 -6 -118 -15
-220 -20 -102 -5 -207 -14 -235 -19 -174 -35 -1611 -40 -1925 -6 -80 8 -224
19 -320 25 -96 5 -188 14 -205 19 -16 6 -89 15 -162 20 -72 5 -140 14 -150 19
-10 5 -51 13 -90 17 -59 6 -73 10 -73 24 0 25 50 52 85 46 17 -3 80 -12 140
-20z m-129 -109 c11 -8 72 -19 139 -26 66 -7 131 -17 144 -22 13 -4 94 -13
180 -18 86 -6 176 -15 201 -21 25 -5 137 -14 250 -19 113 -5 329 -17 480 -25
293 -18 908 -15 1060 5 41 5 174 14 295 20 120 6 235 15 255 20 19 5 87 12
150 15 63 4 162 15 220 25 58 10 139 23 180 29 41 6 88 13 103 17 27 6 28 5
25 -22 -4 -35 -66 -62 -177 -75 -40 -5 -96 -15 -125 -23 -28 -8 -105 -17 -171
-20 -66 -4 -138 -11 -160 -16 -22 -6 -128 -15 -235 -20 -107 -5 -247 -15 -310
-21 -202 -20 -952 -23 -1220 -4 -129 8 -316 20 -415 25 -99 6 -211 15 -250 20
-38 6 -137 15 -218 20 -81 5 -156 14 -165 19 -9 5 -51 12 -92 15 -120 10 -200
53 -200 106 0 15 33 12 56 -4z m158 -160 c18 -7 71 -17 117 -20 46 -4 129 -13
184 -21 55 -7 154 -17 220 -20 66 -4 170 -13 230 -21 276 -35 1701 -38 1815
-3 19 5 123 14 230 20 107 5 231 15 275 23 44 8 109 17 145 21 35 3 80 13 98
21 38 15 112 19 112 5 0 -10 -86 -53 -155 -76 -27 -9 -104 -21 -170 -26 -66
-5 -136 -13 -155 -18 -19 -5 -118 -15 -220 -21 -102 -6 -218 -15 -258 -21
-183 -26 -1369 -26 -1566 0 -43 6 -135 13 -205 16 -69 4 -164 12 -211 20 -47
8 -134 17 -195 20 -60 4 -128 13 -150 20 -22 8 -61 16 -86 20 -31 4 -53 14
-67 30 -12 14 -27 25 -33 25 -5 0 -7 5 -4 10 8 13 9 13 49 -4z"/>
<path fill="none" stroke-linecap="round" stroke-linejoin="round" stroke-width="2.000000" d="M2534 11560 c-55 -39 -114 -113 -114 -142 -1 -13 -9 -41 -20 -63 -11
-22 -19 -55 -20 -73 0 -18 -9 -58 -20 -89 -11 -32 -20 -69 -20 -84 0 -15 -9
-55 -19 -90 -11 -35 -22 -91 -26 -124 -4 -33 -13 -67 -20 -75 -7 -8 -15 -48
-19 -88 -3 -41 -11 -83 -17 -93 -5 -11 -14 -58 -20 -106 -5 -48 -15 -93 -21
-100 -6 -7 -14 -49 -18 -92 -5 -43 -15 -98 -23 -122 -8 -24 -17 -80 -20 -124
-3 -44 -12 -93 -20 -110 -8 -16 -18 -63 -21 -103 -3 -41 -11 -83 -17 -94 -6
-11 -15 -68 -20 -126 -5 -58 -14 -111 -20 -118 -5 -7 -14 -53 -20 -104 -5 -50
-14 -101 -20 -112 -6 -11 -15 -66 -20 -121 -4 -55 -14 -116 -21 -136 -20 -57
-17 -332 4 -404 22 -76 66 -164 84 -171 8 -3 14 -10 14 -15 0 -12 99 -111 111
-111 5 0 31 -15 57 -34 27 -18 59 -37 73 -41 13 -4 33 -14 44 -21 11 -8 26
-14 35 -14 9 0 33 -9 55 -20 21 -11 55 -23 74 -26 20 -4 43 -12 51 -19 8 -7
38 -16 65 -20 28 -4 59 -13 71 -20 11 -7 47 -16 80 -20 32 -5 68 -14 79 -21
11 -7 45 -16 75 -20 30 -4 66 -12 80 -19 14 -7 52 -16 85 -20 33 -4 71 -13 85
-20 14 -7 59 -16 100 -20 41 -4 86 -13 100 -20 14 -7 59 -16 100 -20 41 -4 86
-13 100 -20 14 -7 72 -16 130 -20 58 -4 125 -13 149 -21 24 -8 100 -19 170
-24 69 -4 141 -13 160 -19 19 -6 96 -13 170 -16 75 -3 192 -14 261 -23 184
-25 1248 -25 1390 0 52 9 159 20 238 23 79 3 155 11 170 17 15 6 86 14 158 18
72 4 141 13 154 20 12 7 72 16 133 22 66 5 118 15 131 24 12 8 44 14 76 14 31
0 83 7 115 16 33 9 94 22 135 28 41 7 84 17 95 23 11 6 48 13 83 17 35 3 73
13 85 21 12 8 38 15 59 15 21 0 64 9 95 19 32 11 77 22 101 25 24 4 53 13 65
20 12 8 42 17 67 21 25 4 54 14 65 21 11 8 34 14 53 14 18 0 49 8 70 19 20 10
56 22 79 26 23 3 47 12 53 20 6 7 26 16 44 19 19 4 39 13 46 21 7 8 18 15 24
15 55 1 218 177 233 253 4 17 12 43 20 57 19 37 18 249 -2 297 -8 20 -18 61
-22 92 -3 31 -14 72 -25 91 -10 19 -18 49 -18 66 0 18 -9 51 -20 75 -11 24
-20 54 -20 65 0 12 -9 41 -20 65 -11 24 -20 56 -20 72 0 15 -9 44 -20 64 -11
21 -20 49 -20 62 0 14 -9 52 -19 85 -47 152 -61 202 -61 219 0 10 -7 31 -14
46 -8 15 -18 52 -22 82 -4 30 -15 72 -25 94 -10 22 -19 49 -19 60 0 11 -9 38
-20 60 -11 22 -19 52 -20 67 0 15 -9 50 -20 78 -11 28 -20 63 -20 78 0 15 -7
39 -15 55 -8 15 -18 51 -24 80 -5 28 -17 66 -25 82 -9 17 -16 44 -16 60 0 17
-7 44 -16 60 -8 17 -19 48 -24 70 -9 39 -21 81 -60 200 -11 33 -20 71 -20 85
0 14 -9 42 -20 63 -11 20 -20 49 -20 64 0 16 -9 42 -20 58 -11 17 -20 39 -20
50 -1 43 -96 165 -129 165 -10 0 -30 9 -44 20 -32 25 -200 29 -266 5 -23 -8
-76 -17 -119 -21 -42 -3 -90 -13 -107 -21 -16 -8 -78 -18 -137 -23 -59 -5
-115 -13 -125 -18 -10 -6 -82 -15 -160 -21 -78 -6 -154 -16 -167 -21 -14 -5
-117 -14 -228 -20 -112 -6 -223 -15 -248 -20 -25 -5 -137 -12 -250 -16 -175
-6 -211 -10 -243 -27 -41 -21 -77 -61 -77 -86 0 -9 -7 -26 -15 -39 -9 -12 -19
-45 -22 -74 -3 -29 -11 -64 -18 -78 -7 -14 -16 -49 -20 -79 -9 -65 -42 -116
-107 -166 -30 -22 -50 -46 -54 -63 -3 -15 -12 -40 -21 -55 -8 -16 -17 -55 -20
-88 -9 -93 -50 -119 -189 -119 l-102 0 -40 40 c-31 31 -41 50 -46 87 -4 27
-13 57 -21 67 -8 11 -15 31 -15 44 0 17 -16 40 -52 73 -81 74 -108 103 -108
115 0 6 -8 22 -19 35 -11 15 -21 50 -25 94 -4 39 -14 80 -22 92 -8 12 -14 40
-14 61 0 31 -8 47 -37 79 -68 74 -90 79 -333 87 -118 3 -235 11 -260 16 -25 5
-126 14 -225 20 -99 6 -211 18 -250 26 -38 7 -94 14 -123 14 -29 0 -97 9 -150
19 -53 11 -130 22 -170 26 -40 3 -92 13 -114 21 -22 8 -64 14 -92 14 -28 1
-69 8 -91 16 -25 10 -88 17 -170 19 l-130 5 -41 -30z m251 -61 c55 -6 115 -17
133 -25 18 -8 72 -17 120 -20 48 -4 95 -11 105 -16 10 -5 73 -14 140 -19 67
-6 138 -16 157 -24 19 -7 98 -16 175 -20 77 -4 167 -13 200 -20 33 -8 146 -16
250 -20 105 -4 218 -13 253 -21 35 -8 105 -14 155 -15 110 -1 118 -3 151 -52
21 -31 26 -50 26 -100 0 -43 6 -74 20 -100 11 -20 20 -47 20 -59 0 -13 7 -34
15 -48 8 -14 20 -36 27 -50 16 -32 72 -86 119 -116 34 -21 37 -28 44 -83 4
-37 12 -62 21 -65 8 -3 14 -18 14 -33 0 -29 46 -103 64 -103 6 0 16 -8 23 -19
18 -29 113 -39 259 -26 l90 8 37 50 c25 33 37 60 37 82 0 18 6 38 14 44 8 6
17 36 21 67 5 44 12 58 33 72 68 43 132 123 132 166 0 16 7 37 16 47 9 10 20
49 25 88 4 39 13 79 17 89 5 9 12 38 16 64 8 54 36 78 91 78 19 0 79 6 133 14
53 8 187 18 297 21 110 4 218 11 240 16 22 5 114 13 205 19 91 6 192 17 225
25 33 7 102 16 154 20 52 3 108 12 126 19 17 8 70 17 116 21 46 4 95 13 109
20 30 15 161 28 289 27 101 0 141 -22 157 -87 3 -13 12 -29 20 -36 7 -6 17
-27 20 -47 4 -20 15 -55 25 -77 10 -22 19 -54 19 -70 0 -17 7 -40 15 -52 8
-11 17 -40 21 -64 4 -24 13 -55 20 -69 13 -24 28 -77 59 -200 8 -30 21 -73 29
-95 8 -22 15 -51 16 -65 0 -14 6 -35 14 -46 8 -11 17 -42 22 -69 4 -27 15 -67
25 -90 10 -22 19 -52 19 -66 0 -15 9 -46 20 -70 11 -24 20 -57 20 -72 0 -15 7
-41 15 -56 8 -16 17 -48 21 -72 4 -24 12 -55 19 -69 7 -14 16 -48 20 -75 4
-28 13 -60 21 -72 7 -11 18 -49 23 -83 6 -34 15 -68 21 -75 5 -6 13 -34 17
-61 3 -27 12 -58 20 -70 7 -11 16 -43 19 -70 4 -27 12 -56 19 -64 7 -8 16 -37
20 -65 4 -27 12 -59 19 -70 6 -11 16 -42 22 -70 7 -27 19 -68 28 -90 8 -22 15
-53 16 -68 0 -15 7 -42 17 -60 19 -38 32 -234 22 -342 -11 -106 -90 -238 -157
-259 -11 -4 -26 -13 -32 -21 -7 -8 -20 -15 -30 -15 -9 0 -28 -8 -41 -18 -13
-11 -41 -22 -63 -25 -21 -3 -46 -13 -56 -22 -9 -8 -28 -15 -41 -15 -13 0 -41
-9 -62 -20 -20 -11 -49 -20 -64 -20 -16 -1 -46 -8 -68 -16 -22 -9 -64 -20 -93
-24 -30 -5 -62 -16 -71 -24 -10 -9 -36 -16 -62 -16 -24 0 -62 -9 -84 -19 -23
-10 -68 -21 -100 -25 -33 -4 -73 -14 -90 -21 -16 -7 -59 -16 -94 -20 -35 -3
-73 -12 -85 -20 -11 -7 -56 -16 -100 -19 -43 -4 -95 -13 -115 -21 -20 -7 -74
-16 -121 -20 -47 -4 -100 -13 -119 -21 -18 -8 -57 -14 -85 -15 -28 0 -89 -7
-136 -15 -47 -8 -146 -19 -220 -25 -74 -5 -160 -14 -190 -20 -70 -13 -612 -38
-840 -39 -234 -1 -897 26 -937 38 -17 6 -91 13 -165 17 -73 3 -153 13 -178 20
-25 8 -97 17 -160 21 -63 4 -129 13 -147 21 -19 7 -80 17 -138 22 -57 4 -110
13 -117 19 -8 6 -49 14 -93 18 -44 3 -91 13 -104 22 -14 8 -57 17 -95 20 -39
2 -81 11 -93 18 -13 8 -51 17 -85 20 -35 4 -74 13 -86 21 -13 8 -49 17 -80 20
-32 3 -66 11 -78 18 -11 7 -43 16 -70 20 -27 4 -60 13 -74 20 -14 8 -44 16
-65 20 -22 4 -47 13 -55 20 -8 7 -33 16 -55 20 -22 3 -47 12 -55 20 -8 7 -31
15 -52 19 -20 4 -38 13 -41 20 -3 7 -22 17 -42 20 -20 4 -39 14 -42 22 -3 7
-12 14 -20 14 -26 0 -163 155 -163 185 0 5 -8 17 -17 28 -26 28 -27 508 -1
577 9 25 19 77 23 115 3 39 12 88 20 110 8 22 14 65 15 95 0 31 9 87 19 125
11 39 22 106 26 150 4 44 13 91 20 105 7 14 15 58 19 98 3 41 11 83 18 95 6
12 15 59 19 104 5 46 15 96 23 111 8 15 18 66 21 112 4 47 14 94 21 105 8 11
14 38 14 61 0 22 9 76 20 119 11 43 20 96 20 117 0 21 7 55 16 76 9 20 20 68
25 105 5 37 15 78 24 90 8 12 15 42 15 67 0 26 8 61 20 83 11 20 20 49 20 64
0 16 9 42 20 58 11 17 20 37 20 46 0 21 52 69 76 69 10 0 26 5 34 10 8 6 26 8
40 5 14 -3 70 -10 125 -16z"/>
<path fill="none" stroke-linecap="round" stroke-linejoin="round" stroke-width="2.000000" d="M8024 3815 c-9 -24 22 -53 38 -37 9 9 10 17 2 29 -15 24 -33 27 -40
8z"/>
<path fill="none" stroke-linecap="round" stroke-linejoin="round" stroke-width="2.000000" d="M9900 13146 c0 -24 29 -46 60 -46 44 0 60 10 60 36 0 23 -3 24 -60
24 -45 0 -60 -3 -60 -14z"/>
</g>
</svg>
