<svg version="1.1" id="Layer_1" xmlns="http://www.w3.org/2000/svg" xmlns:xlink="http://www.w3.org/1999/xlink" x="0px" y="0px"
	 width="100%" viewBox="0 0 314 360" enable-background="new 0 0 314 360" xml:space="preserve">
<style>
  /* Country outline: light #a1a1aa, dark #52525b (match WorldMapChart) */
  path { stroke: #a1a1aa; stroke-linecap: round; stroke-linejoin: round; fill: none; }
  @media (prefers-color-scheme: dark) { path { stroke: #52525b; } }
</style>
<path fill="none" opacity="1.000000" stroke-linecap="round" stroke-linejoin="round" stroke-width="3.000000"
	d="
M196.000000,339.500000 
	C197.500000,330.000000 198.901093,320.482819 200.546936,311.008148 
	C201.239960,307.018555 201.349243,302.978180 201.835571,298.980011 
	C203.292938,286.998596 204.634964,274.988922 205.811844,262.981567 
	C206.706299,253.855438 207.266296,244.660629 208.028946,235.502411 
	C208.904175,224.992020 210.159225,214.512024 210.953629,203.996490 
	C211.695129,194.180725 212.049103,184.335663 212.610062,173.820969 
	C175.833328,179.967117 139.166672,180.206863 102.206093,173.595947 
	C107.279732,229.611740 110.392494,284.900299 119.308289,339.761475 
	C145.141174,343.515503 170.310852,343.228790 195.500000,340.000000 
"/>
<path fill="none" opacity="1.000000" stroke-linecap="round" stroke-linejoin="round" stroke-width="2.000000"
	d="
M248.500000,63.500000 
	C249.971420,73.200333 251.874313,82.870049 253.856110,92.426147 
	C255.794266,101.772011 257.490295,111.235939 259.872772,120.532600 
	C262.027100,128.938934 262.832336,137.679962 265.826141,145.914734 
	C249.608749,156.416107 231.914780,162.179459 213.496155,165.981339 
	C190.229034,170.784012 166.644653,171.871063 143.003494,170.913834 
	C117.650261,169.887268 92.787064,165.701248 69.034409,156.412018 
	C63.302940,154.170547 57.893421,151.015945 52.557480,147.901520 
	C50.675323,146.802963 47.906277,145.086792 50.500000,142.000000 
"/>
<path fill="none" opacity="1.000000" stroke-linecap="round" stroke-linejoin="round" stroke-width="3.000000"
	d="
M291.000000,107.500000 
	C292.371613,117.130867 291.933380,126.824226 291.997681,136.500015 
	C292.013184,138.833237 292.014038,141.166763 291.997864,143.499985 
	C291.834747,167.000015 291.165771,190.511185 291.690063,213.995758 
	C291.998749,227.821625 290.853333,241.719742 292.922699,255.511597 
	C293.159973,257.092651 292.502655,258.889862 291.968719,260.489563 
	C290.266113,265.590607 292.622101,270.874207 291.049469,276.015137 
	C289.490112,281.112640 287.740845,286.263153 287.118683,291.514069 
	C285.653442,303.879730 278.892670,312.685822 269.499786,319.999725 
	C266.501099,322.334717 263.417786,324.569794 260.523193,327.027313 
	C257.648987,329.467560 254.564346,331.377167 252.218109,334.807190 
	C249.247650,339.149719 243.627136,341.178284 239.027725,344.044495 
	C232.092987,348.366058 224.151840,350.181976 216.478546,350.643158 
	C208.750778,351.107635 201.226868,353.025604 193.452438,353.133392 
	C193.979965,348.997467 194.489975,344.998718 195.000000,341.000000 
"/>
<path fill="none" opacity="1.000000" stroke-linecap="round" stroke-linejoin="round" stroke-width="3.000000"
	d="
M42.000000,1.500000 
	C40.151108,26.166666 42.177990,50.833698 42.198788,75.499832 
	C42.208061,86.500824 42.286983,97.585396 41.591610,108.473923 
	C40.998146,117.766724 40.385509,126.811707 41.894310,136.017319 
	C42.215714,137.978302 42.640205,139.883087 43.564503,141.462250 
	C47.925739,148.913391 48.944317,157.168121 50.060711,165.491852 
	C51.294945,174.694168 52.997059,183.833817 54.500622,192.999893 
	C57.509140,211.340515 61.788250,229.426987 66.125832,247.469757 
	C70.924652,267.431122 76.046028,287.329681 81.925903,307.022125 
	C83.866364,313.520996 86.785812,319.707123 86.352089,327.020874 
	C86.155647,330.333405 88.120689,333.789368 85.499542,336.999969 
	C84.833336,337.000000 84.025314,337.243866 83.526306,336.954620 
	C81.988747,336.063385 79.520569,336.189362 79.494141,333.500061 
	C79.470337,331.078491 81.796776,331.445465 83.022972,330.530792 
	C83.905067,329.872772 85.000008,329.500031 86.000008,329.000031 
"/>
<path fill="none" opacity="1.000000" stroke-linecap="round" stroke-linejoin="round" stroke-width="3.000000"
	d="
M267.000000,155.000000 
	C264.666656,169.833328 262.712219,184.739105 259.894135,199.479767 
	C257.040833,214.404861 253.581711,229.227997 249.938248,243.984756 
	C245.190613,263.213715 240.040604,282.344055 234.981277,301.495056 
	C232.758835,309.907654 229.249039,317.937653 227.483429,326.496582 
	C226.581345,330.869568 227.413055,333.582153 231.301590,337.287384 
	C248.475677,326.580292 265.399506,315.461578 278.500000,299.500000 
"/>
<path fill="none" opacity="1.000000" stroke-linecap="round" stroke-linejoin="round" stroke-width="3.000000"
	d="
M99.000000,1.500000 
	C99.000000,7.500000 99.198982,13.509093 98.925354,19.496590 
	C98.761330,23.085773 99.936714,24.113964 103.500809,24.076166 
	C119.832306,23.902971 136.166672,24.000000 152.500000,24.000000 
	C172.000000,24.000000 191.501709,23.862570 210.998688,24.105162 
	C215.388428,24.159782 216.540375,22.899860 216.509644,18.499933 
	C216.470062,12.833542 216.500000,7.166667 216.500000,1.500000 
"/>
<path fill="none" opacity="1.000000" stroke-linecap="round" stroke-linejoin="round" stroke-width="3.000000"
	d="
M267.500000,153.000000 
	C272.359711,158.210022 274.903473,164.208939 275.075745,171.498215 
	C275.541107,191.187393 274.576813,210.853180 273.734894,230.488632 
	C273.335754,239.796997 273.653839,249.211136 272.101746,258.516968 
	C271.161469,264.154755 272.538086,269.327332 278.500000,272.000000 
"/>
<path fill="none" opacity="1.000000" stroke-linecap="round" stroke-linejoin="round" stroke-width="3.000000"
	d="
M240.500000,59.000000 
	C233.370132,61.445641 225.833496,61.335571 218.497803,62.485962 
	C190.635254,66.855392 162.539902,66.385513 134.502670,65.857819 
	C115.394272,65.498177 96.395889,62.985378 77.504494,59.971825 
	C76.802521,59.859848 76.166664,59.333332 75.500000,59.000000 
"/>
<path fill="none" opacity="1.000000" stroke-linecap="round" stroke-linejoin="round" stroke-width="3.000000"
	d="
M46.500000,154.000000 
	C42.052773,159.365387 39.841728,165.561478 40.021729,172.499435 
	C40.631447,196.000916 41.054070,219.513290 42.170994,242.991867 
	C42.503998,249.991821 42.914082,256.988220 43.000000,264.000000 
"/>
<path fill="none" opacity="1.000000" stroke-linecap="round" stroke-linejoin="round" stroke-width="2.000000"
	d="
M24.000002,109.000000 
	C23.833334,117.000000 23.307573,125.012375 23.582747,132.997147 
	C24.013632,145.500214 22.910934,157.989624 23.875853,170.509567 
	C24.527082,178.959381 24.003288,187.500000 23.999342,196.000000 
	C23.990126,215.845657 23.271332,235.672745 22.718302,255.506088 
	C22.595419,259.912994 22.750435,265.054810 26.007586,268.993713 
	C29.049620,272.672516 28.217493,278.188934 32.000000,281.500000 
"/>
<path fill="none" opacity="1.000000" stroke-linecap="round" stroke-linejoin="round" stroke-width="3.000000"
	d="
M251.000000,1.500000 
	C251.196991,16.741257 251.932861,32.038960 254.707031,46.961514 
	C259.049805,70.321617 263.181335,93.767815 270.242096,116.579834 
	C271.538818,120.769295 272.581085,125.414787 273.052582,129.994583 
	C273.231689,131.734161 274.017792,133.446289 276.002899,133.989380 
	C280.994110,135.354813 286.000000,136.666672 291.000000,138.000000 
"/>
<path fill="none" opacity="1.000000" stroke-linecap="round" stroke-linejoin="round" stroke-width="3.000000"
	d="
M24.500000,2.000000 
	C24.666666,2.000000 24.978115,1.986302 24.979593,2.001931 
	C25.656406,9.155255 26.562038,16.378363 25.266157,23.457191 
	C24.912214,25.390625 24.009644,27.389715 24.007832,29.500008 
	C23.993681,45.999996 23.984385,62.500034 24.021959,78.999947 
	C24.026134,80.833656 24.333334,82.666664 24.500000,84.500000 
"/>
<path fill="none" opacity="1.000000" stroke-linecap="round" stroke-linejoin="round" stroke-width="2.000000"
	d="
M65.500000,63.000000 
	C67.045464,69.726883 64.430580,76.104691 63.298702,82.464172 
	C60.402199,98.738251 56.491341,114.831467 53.007141,131.001541 
	C52.291187,134.324249 51.666664,137.666672 50.999996,141.000000 
"/>
<path fill="none" opacity="1.000000" stroke-linecap="round" stroke-linejoin="round" stroke-width="3.000000"
	d="
M65.000000,1.500000 
	C63.434193,10.265473 63.879166,19.179344 63.034767,28.003326 
	C61.306946,46.059082 57.714893,63.809509 53.847481,81.466591 
	C51.162338,93.725899 48.483768,106.037552 44.593670,118.030380 
	C43.632557,120.993416 43.833336,124.333336 43.500000,127.500000 
"/>
<path fill="none" opacity="1.000000" stroke-linecap="round" stroke-linejoin="round" stroke-width="3.000000"
	d="
M62.500000,333.000000 
	C65.157997,338.927307 71.075592,340.917145 76.032593,343.946686 
	C85.815674,349.925751 96.769600,351.542847 107.999344,351.432800 
	C112.284676,351.390808 116.375504,352.452881 120.477402,353.135773 
	C138.432190,356.124725 156.489517,354.734985 174.500870,354.911072 
	C180.662064,354.971283 186.833328,354.000000 193.000000,353.500000 
"/>
<path fill="none" opacity="1.000000" stroke-linecap="round" stroke-linejoin="round" stroke-width="2.000000"
	d="
M24.000000,268.000000 
	C22.944315,274.103180 25.173912,279.758270 26.553183,285.487183 
	C28.406015,293.183044 29.128521,301.386078 34.053490,307.959930 
	C41.570572,317.993683 51.191490,325.997101 62.154362,331.703461 
	C67.635162,334.556335 72.930603,337.818146 78.522629,340.451965 
	C86.034103,343.989777 94.178345,345.798950 102.001045,348.496979 
	C103.915291,349.157196 106.179092,349.039337 107.500000,351.000000 
"/>
<path fill="none" opacity="1.000000" stroke-linecap="round" stroke-linejoin="round" stroke-width="2.000000"
	d="
M226.000000,1.500000 
	C226.000000,7.833333 226.017960,14.166731 225.995407,20.499983 
	C225.967773,28.260483 220.595291,34.325672 213.003510,35.522282 
	C200.397736,37.509190 187.704437,37.521969 174.999985,37.506535 
	C154.833344,37.482033 134.666656,37.506020 114.500031,37.478657 
	C113.666779,37.477524 112.680908,37.928810 112.000000,37.000000 
"/>
<path fill="none" opacity="1.000000" stroke-linecap="round" stroke-linejoin="round" stroke-width="3.000000"
	d="
M80.500000,1.500000 
	C78.123589,4.551871 79.318108,8.283735 79.222687,11.506593 
	C78.925224,21.553713 77.328011,31.471243 76.899902,41.495724 
	C76.656631,47.192013 75.405457,52.845253 74.517792,59.160995 
	C69.486900,57.866543 65.815887,59.815170 62.942722,63.960300 
	C61.077702,66.650978 61.729622,69.763512 61.234226,72.541763 
	C58.077244,90.246475 53.471703,107.668007 50.943451,125.491982 
	C50.509872,128.548676 49.257385,131.481598 48.524441,134.505920 
	C47.955521,136.853424 47.149952,139.286911 49.000000,141.500000 
"/>
<path fill="none" opacity="1.000000" stroke-linecap="round" stroke-linejoin="round" stroke-width="3.000000"
	d="
M240.500000,1.500000 
	C240.434875,11.441651 242.087463,21.208620 242.810837,31.339037 
	C237.384979,34.008316 237.295563,34.391926 238.462250,41.506191 
	C239.167358,45.805889 239.755951,50.157219 239.916412,54.503086 
	C240.037720,57.788364 241.200211,59.044346 244.499756,59.058086 
	C249.908066,59.080601 252.442734,60.873497 252.876617,66.010422 
	C253.444031,72.728294 256.277191,78.919533 256.905518,85.509010 
	C257.877136,95.698509 261.061432,105.416832 262.705658,115.466354 
	C263.689301,121.478371 265.904907,127.335953 266.500000,133.500000 
"/>
<path fill="none" opacity="1.000000" stroke-linecap="round" stroke-linejoin="round" stroke-width="2.000000"
	d="
M289.500000,2.500000 
	C290.137054,8.356297 288.432129,14.586858 289.480164,19.905384 
	C290.884583,27.032572 290.449524,33.987637 291.021332,40.998260 
	C291.972504,52.658997 291.254425,64.334511 291.507385,75.999840 
	C291.543732,77.675362 291.198730,79.396797 292.000000,81.000000 
"/>
<path fill="none" opacity="1.000000" stroke-linecap="round" stroke-linejoin="round" stroke-width="2.000000"
	d="
M273.500000,1.500000 
	C273.500000,24.166666 273.500000,46.833332 273.500000,69.500000 
"/>
<path fill="none" opacity="1.000000" stroke-linecap="round" stroke-linejoin="round" stroke-width="2.000000"
	d="
M274.000000,134.500000 
	C272.988281,138.607208 271.896729,142.691650 269.993225,146.496613 
	C268.248505,149.984161 266.261047,152.858200 262.605774,155.167419 
	C248.059540,164.357086 232.112015,169.476959 215.488846,172.946533 
	C214.624802,173.126862 214.033249,173.399841 213.500000,174.000000 
"/>
<path fill="none" opacity="1.000000" stroke-linecap="round" stroke-linejoin="round" stroke-width="2.000000"
	d="
M37.500000,1.500000 
	C37.500000,24.833334 37.500000,48.166668 37.500000,71.500000 
"/>
<path fill="none" opacity="1.000000" stroke-linecap="round" stroke-linejoin="round" stroke-width="3.000000"
	d="
M49.500000,154.000000 
	C56.000000,157.333328 62.329414,161.071732 69.042587,163.898880 
	C77.700539,167.545029 86.714920,170.315643 96.007042,171.960220 
	C98.005112,172.313828 99.907440,172.671204 101.500000,174.000000 
"/>
<path fill="none" opacity="1.000000" stroke-linecap="round" stroke-linejoin="round" stroke-width="3.000000"
	d="
M89.000000,1.500000 
	C89.219154,7.665248 88.599770,13.841372 89.476128,20.003395 
	C90.806427,29.357256 93.191727,31.937439 102.505150,32.395233 
	C105.984604,32.566257 109.018341,33.463627 112.000000,35.000000 
"/>
<path fill="none" opacity="1.000000" stroke-linecap="round" stroke-linejoin="round" stroke-width="3.000000"
	d="
M118.500000,34.500000 
	C135.333328,34.666668 152.168472,35.061504 168.999435,34.928886 
	C182.837051,34.819851 196.704498,35.046658 210.500000,33.500000 
"/>
<path fill="none" opacity="1.000000" stroke-linecap="round" stroke-linejoin="round" stroke-width="2.000000"
	d="
M252.500000,332.500000 
	C250.729965,331.618195 249.290024,332.582672 248.018005,333.524323 
	C237.384583,341.396332 224.952164,344.967499 212.494629,348.480927 
	C211.632843,348.723999 211.097031,349.097015 211.000000,350.000000 
"/>
<path fill="none" opacity="1.000000" stroke-linecap="round" stroke-linejoin="round" stroke-width="2.000000"
	d="
M69.500000,17.500000 
	C69.798172,29.553602 68.969200,41.554546 67.372910,53.482990 
	C67.111374,55.437260 67.511192,57.166668 67.500000,59.000000 
"/>
<path fill="none" opacity="1.000000" stroke-linecap="round" stroke-linejoin="round" stroke-width="2.000000"
	d="
M15.500000,78.500000 
	C13.308253,78.659370 11.456520,77.073753 8.956181,77.860794 
	C6.128373,78.750908 5.796226,79.856216 6.429782,82.516724 
	C8.154273,89.758438 11.782698,95.789352 16.987858,101.012100 
	C22.266151,106.308250 28.837694,109.463997 35.500000,112.500000 
"/>
<path fill="none" opacity="1.000000" stroke-linecap="round" stroke-linejoin="round" stroke-width="3.000000"
	d="
M278.000000,1.500000 
	C276.808868,6.000000 277.735077,10.505358 278.018250,14.998851 
	C278.555023,23.517860 276.047241,31.968246 277.500000,40.500000 
"/>
<path fill="none" opacity="1.000000" stroke-linecap="round" stroke-linejoin="round" stroke-width="2.000000"
	d="
M259.000000,281.500000 
	C261.955688,287.052368 256.343109,287.666260 253.908920,289.900787 
	C252.798599,290.919983 250.689301,290.924377 249.061920,291.281860 
	C244.591568,292.263855 242.385483,296.882233 241.237167,300.573761 
	C238.544662,309.229370 234.167694,317.101135 230.812698,325.424500 
	C230.087006,327.224854 231.134705,330.331055 228.000000,331.000000 
"/>
<path fill="none" opacity="1.000000" stroke-linecap="round" stroke-linejoin="round" stroke-width="3.000000"
	d="
M44.500004,301.500000 
	C44.135036,303.327911 43.770065,305.155792 43.307217,307.473938 
	C54.630562,316.774780 65.413605,327.015106 79.000000,333.500000 
"/>
<path fill="none" opacity="1.000000" stroke-linecap="round" stroke-linejoin="round" stroke-width="3.000000"
	d="
M279.000000,281.500000 
	C271.732208,286.824402 267.482788,295.633942 258.515289,299.040283 
	C254.326126,300.631561 250.300522,302.653503 245.584045,304.755066 
	C245.456009,300.030487 248.613098,296.543732 247.500000,292.500000 
"/>
<path fill="none" opacity="1.000000" stroke-linecap="round" stroke-linejoin="round" stroke-width="3.000000"
	d="
M37.500000,281.500000 
	C45.207363,290.289978 52.924110,299.038055 64.479889,303.057831 
	C66.206192,303.658356 67.825668,303.409973 69.500000,303.500000 
"/>
<path fill="none" opacity="1.000000" stroke-linecap="round" stroke-linejoin="round" stroke-width="3.000000"
	d="
M267.500000,299.500000 
	C256.452240,305.000366 247.079773,312.807220 238.017578,321.019379 
	C235.258987,323.519226 235.555725,325.811951 239.092224,327.617737 
	C248.715637,317.949341 261.422272,312.227173 271.016693,302.242310 
	C271.124878,300.648895 269.917938,299.749084 268.500000,299.000000 
"/>
<path fill="none" opacity="1.000000" stroke-linecap="round" stroke-linejoin="round" stroke-width="2.000000"
	d="
M69.000000,294.000000 
	C73.714294,296.384064 73.874161,301.583099 75.900444,305.550842 
	C79.151482,311.916718 80.544945,319.171570 85.000000,325.000000 
"/>
<path fill="none" opacity="1.000000" stroke-linecap="round" stroke-linejoin="round" stroke-width="3.000000"
	d="
M236.000000,1.500000 
	C235.936874,11.880417 236.205505,22.239429 238.000000,32.500000 
"/>
<path fill="none" opacity="1.000000" stroke-linecap="round" stroke-linejoin="round" stroke-width="2.000000"
	d="
M88.500000,331.500000 
	C97.533264,335.829407 107.363121,337.324371 117.008621,339.461090 
	C117.608917,339.594055 118.333336,339.166687 119.000008,339.000031 
"/>
<path fill="none" opacity="1.000000" stroke-linecap="round" stroke-linejoin="round" stroke-width="2.000000"
	d="
M225.500000,332.000000 
	C215.947433,336.344574 205.590469,337.672607 195.500000,340.000000 
"/>
<path fill="none" opacity="1.000000" stroke-linecap="round" stroke-linejoin="round" stroke-width="2.000000"
	d="
M309.000000,79.500000 
	C309.227997,86.082275 305.997070,91.452881 302.422577,96.444557 
	C296.990204,104.030678 288.487396,107.918343 280.968018,112.952202 
	C280.891907,113.003143 280.333344,112.333336 280.000000,112.000000 
"/>
<path fill="none" opacity="1.000000" stroke-linecap="round" stroke-linejoin="round" stroke-width="3.000000"
	d="
M44.500000,269.500000 
	C38.410885,268.999695 34.509830,272.131012 34.612904,277.998016 
	C34.652237,280.236908 33.387375,281.421631 32.472969,282.749237 
	C33.130531,286.702789 36.973511,287.164276 39.089947,289.415436 
	C45.605331,296.345551 51.954971,303.775879 61.062965,307.339050 
	C65.111382,308.922882 67.853905,311.564056 70.426903,314.562714 
	C72.145805,316.565948 73.077286,319.166656 70.500000,321.500000 
"/>
<path fill="none" opacity="1.000000" stroke-linecap="round" stroke-linejoin="round" stroke-width="2.000000"
	d="
M245.500000,25.500000 
	C245.272736,34.566219 246.735138,43.510326 247.603745,52.489964 
	C247.797897,54.497147 247.846054,56.498940 248.000000,58.500000 
"/>
<path fill="none" opacity="1.000000" stroke-linecap="round" stroke-linejoin="round" stroke-width="3.000000"
	d="
M35.000000,287.500000 
	C33.386494,291.434326 35.737923,294.639984 37.052807,297.979218 
	C37.755230,299.763031 39.499237,301.228546 39.876522,303.025909 
	C40.373695,305.394379 41.698181,305.735260 43.494907,305.466003 
	C46.342968,305.039185 48.409409,306.362244 50.514660,307.980927 
	C58.812214,314.360809 67.166664,320.666687 75.499992,327.000000 
"/>
<path fill="none" opacity="1.000000" stroke-linecap="round" stroke-linejoin="round" stroke-width="2.000000"
	d="
M279.500000,266.500000 
	C276.000000,264.343262 272.880585,263.874176 268.901550,266.341187 
	C264.163269,269.278900 259.583984,272.176514 255.978271,276.481812 
	C254.939545,277.722076 253.867630,278.800232 255.000000,280.500000 
"/>
<path fill="none" opacity="1.000000" stroke-linecap="round" stroke-linejoin="round" stroke-width="3.000000"
	d="
M20.500000,84.500000 
	C25.588207,85.819778 31.096544,84.534760 36.000000,87.266037 
	C36.000000,93.166664 36.033936,99.333656 35.975426,105.499763 
	C35.961330,106.985268 35.219227,107.940697 33.500000,107.500000 
"/>
<path fill="none" opacity="1.000000" stroke-linecap="round" stroke-linejoin="round" stroke-width="2.000000"
	d="
M20.500000,1.500000 
	C20.108416,7.903721 21.428873,14.172282 22.000000,20.500000 
"/>
<path fill="none" opacity="1.000000" stroke-linecap="round" stroke-linejoin="round" stroke-width="3.000000"
	d="
M294.500000,1.500000 
	C293.761688,7.647344 294.817383,13.940147 293.000000,20.000000 
"/>
<path fill="none" opacity="1.000000" stroke-linecap="round" stroke-linejoin="round" stroke-width="2.000000"
	d="
M271.500000,269.500000 
	C271.000000,269.500000 270.361969,269.297882 270.020996,269.530731 
	C265.802673,272.411224 262.216888,276.068298 258.319244,279.280701 
	C255.299728,281.769318 252.032684,283.905853 249.455933,286.962860 
	C248.360733,288.262207 248.333038,289.541595 248.500000,291.000000 
"/>
<path fill="none" opacity="1.000000" stroke-linecap="round" stroke-linejoin="round" stroke-width="2.000000"
	d="
M94.500000,33.500000 
	C98.838737,35.225677 103.515221,35.461384 107.979881,36.580276 
	C111.080666,37.357365 112.528244,33.397583 115.500000,34.500000 
"/>
<path fill="none" opacity="1.000000" stroke-linecap="round" stroke-linejoin="round" stroke-width="2.000000"
	d="
M290.000000,267.500000 
	C286.224640,276.857147 280.686737,285.490387 278.500000,295.500000 
"/>
<path fill="none" opacity="1.000000" stroke-linecap="round" stroke-linejoin="round" stroke-width="2.000000"
	d="
M41.000000,133.500000 
	C35.666668,135.000000 30.333334,136.500000 25.000000,138.000000 
"/>
<path fill="none" opacity="1.000000" stroke-linecap="round" stroke-linejoin="round" stroke-width="3.000000"
	d="
M57.000000,281.500000 
	C54.689072,283.333344 55.025818,285.271759 57.021404,286.974915 
	C59.888844,289.422180 63.068150,291.330048 67.000000,291.500000 
"/>
<path fill="none" opacity="1.000000" stroke-linecap="round" stroke-linejoin="round" stroke-width="2.000000"
	d="
M279.500000,90.500000 
	C279.742584,96.853653 278.761353,103.303932 281.000000,109.500000 
"/>
<path fill="none" opacity="1.000000" stroke-linecap="round" stroke-linejoin="round" stroke-width="3.000000"
	d="
M73.500000,17.500000 
	C71.692184,21.770212 73.471848,26.170567 73.107719,30.509041 
	C73.001991,31.768768 74.260666,33.053867 76.000000,33.000000 
"/>
<path fill="none" opacity="1.000000" stroke-linecap="round" stroke-linejoin="round" stroke-width="3.000000"
	d="
M120.500000,340.500000 
	C119.310913,344.711151 122.546852,348.369141 122.000000,352.500000 
"/>
<path fill="none" opacity="1.000000" stroke-linecap="round" stroke-linejoin="round" stroke-width="3.000000"
	d="
M273.000000,77.500000 
	C272.160583,85.023415 275.662140,92.053543 275.500000,99.500000 
"/>
<path fill="none" opacity="1.000000" stroke-linecap="round" stroke-linejoin="round" stroke-width="3.000000"
	d="
M59.000000,282.000000 
	C61.397278,285.239441 67.194580,284.893311 67.355026,290.990662 
	C67.411018,293.118347 68.133423,296.049042 68.814438,298.550507 
	C69.751945,301.994080 70.608757,305.044617 72.759399,308.165802 
	C75.003876,311.423126 75.333336,316.000000 76.500008,320.000000 
"/>
<path fill="none" opacity="1.000000" stroke-linecap="round" stroke-linejoin="round" stroke-width="2.000000"
	d="
M52.500004,269.500000 
	C50.333336,268.666656 47.983471,268.133575 46.034042,266.944214 
	C39.963589,263.240509 38.838799,263.425934 35.500000,269.500000 
"/>
<path fill="none" opacity="1.000000" stroke-linecap="round" stroke-linejoin="round" stroke-width="4.000000"
	d="
M276.499969,77.500000 
	C276.333313,80.666664 276.166656,83.833336 275.999969,87.000000 
"/>
<path fill="none" opacity="1.000000" stroke-linecap="round" stroke-linejoin="round" stroke-width="2.000000"
	d="
M291.500000,85.500000 
	C288.404846,85.429115 285.881714,88.790291 282.500000,87.000000 
"/>
<path fill="none" opacity="1.000000" stroke-linecap="round" stroke-linejoin="round" stroke-width="2.000000"
	d="
M9.000000,78.500000 
	C11.279823,81.009544 14.065317,82.444534 17.500000,82.500000 
"/>
<path fill="none" opacity="1.000000" stroke-linecap="round" stroke-linejoin="round" stroke-width="2.000000"
	d="
M294.500000,81.000008 
	C290.666656,82.333336 286.833344,83.666672 283.000000,85.000008 
"/>
<path fill="none" opacity="1.000000" stroke-linecap="round" stroke-linejoin="round" stroke-width="3.000000"
	d="
M281.500000,275.500000 
	C279.557343,278.166656 279.777039,280.833344 281.500000,283.500000 
"/>
<path fill="none" opacity="1.000000" stroke-linecap="round" stroke-linejoin="round" stroke-width="2.000000"
	d="
M51.500000,86.000000 
	C48.161777,85.990219 46.752090,89.837517 43.500000,90.000000 
"/>
<path fill="none" opacity="1.000000" stroke-linecap="round" stroke-linejoin="round" stroke-width="3.000000"
	d="
M263.500000,85.000000 
	C265.782684,85.160347 266.377686,87.502113 268.008209,88.486389 
	C269.852417,89.599648 271.855530,90.033539 274.000000,89.500000 
"/>
<path fill="none" opacity="1.000000" stroke-linecap="round" stroke-linejoin="round" stroke-width="2.000000"
	d="
M51.500000,274.500000 
	C53.564461,276.435547 56.595573,277.404419 57.500000,280.500000 
"/>
<path fill="none" opacity="1.000000" stroke-linecap="round" stroke-linejoin="round" stroke-width="2.000000"
	d="
M307.500000,79.000008 
	C305.500000,79.833344 303.500000,80.666679 301.500000,81.500008 
"/>
<path fill="none" opacity="1.000000" stroke-linecap="round" stroke-linejoin="round" stroke-width="2.000000"
	d="
M23.500000,81.500000 
	C22.284048,82.629036 21.379248,81.990341 20.494217,81.005196 
	C19.700882,80.122124 18.950321,79.099358 17.500000,79.500000 
"/>
<path fill="none" opacity="1.000000" stroke-linecap="round" stroke-linejoin="round" stroke-width="3.000000"
	d="
M281.500000,86.500008 
	C279.666656,87.333344 277.833344,88.166672 276.000000,89.000008 
"/>
<path fill="none" opacity="1.000000" stroke-linecap="round" stroke-linejoin="round" stroke-width="2.000000"
	d="
M74.000000,1.500000 
	C74.899551,6.204746 74.832664,10.874976 73.500000,15.500000 
"/>
<path fill="none" opacity="1.000000" stroke-linecap="round" stroke-linejoin="round" stroke-width="2.000000"
	d="
M72.500000,319.000000 
	C75.689857,319.631897 78.092384,321.444763 80.210342,325.268463 
	C79.740852,325.568420 78.620430,326.284210 77.500000,327.000000 
"/>
<path fill="none" opacity="1.000000" stroke-linecap="round" stroke-linejoin="round" stroke-width="2.000000"
	d="
M278.000000,296.500000 
	C277.484283,297.908813 274.241943,297.954315 276.000000,300.500000 
"/>
<path fill="none" opacity="1.000000" stroke-linecap="round" stroke-linejoin="round" stroke-width="2.000000"
	d="
M275.500000,72.500000 
	C275.768219,73.820641 274.941986,75.278084 276.000000,76.500000 
"/>
<path fill="none" opacity="1.000000" stroke-linecap="round" stroke-linejoin="round" stroke-width="2.000000"
	d="
M62.500000,278.500000 
	C62.320107,280.669983 64.578140,282.230469 64.000000,284.500000 
"/>
<path fill="none" opacity="1.000000" stroke-linecap="round" stroke-linejoin="round" stroke-width="1.000000"
	d="
M292.000000,20.999996 
	C291.666656,21.499996 291.333313,21.999996 291.000000,22.499996 
"/>
<path fill="none" opacity="1.000000" stroke-linecap="round" stroke-linejoin="round" stroke-width="1.000000"
	d="
M266.000000,147.500000 
	C266.333344,148.000000 266.666656,148.500000 267.000000,149.000000 
"/>
</svg>