<?xml version="1.0" standalone="no"?>
<!DOCTYPE svg PUBLIC "-//W3C//DTD SVG 20010904//EN"
 "http://www.w3.org/TR/2001/REC-SVG-20010904/DTD/svg10.dtd">
<svg version="1.0" xmlns="http://www.w3.org/2000/svg"
 width="234.000000pt" height="166.000000pt" viewBox="0 0 234.000000 166.000000"
 preserveAspectRatio="xMidYMid meet">
<style>
  /* Country outline: light #a1a1aa, dark #52525b (match WorldMapChart) */
  path { fill: #a1a1aa; stroke: none; }
  @media (prefers-color-scheme: dark) { path { fill: #52525b; } }
</style>
<g transform="translate(0.000000,166.000000) scale(0.100000,-0.100000)"
stroke="none">
<path d="M700 1580 c-126 -11 -139 -14 -174 -41 -54 -42 -206 -294 -206 -340
l0 -24 20 25 c11 14 19 30 18 35 -2 11 8 29 89 164 73 124 96 139 218 151 182
18 572 23 805 11 262 -14 297 -20 328 -58 13 -15 34 -41 48 -58 13 -16 24 -35
24 -41 0 -6 6 -17 14 -23 8 -7 22 -28 32 -49 25 -54 85 -144 91 -138 16 16
-171 313 -220 350 -15 11 -53 24 -85 28 -81 12 -876 18 -1002 8z"/>
<path d="M730 1529 c-85 -5 -165 -13 -177 -18 -26 -12 -99 -122 -159 -243 -25
-48 -48 -88 -52 -89 -46 -5 -51 -5 -43 5 13 18 -8 75 -34 92 -19 12 -31 13
-61 5 -83 -23 -154 -102 -118 -131 14 -13 131 -30 139 -22 14 14 1 22 -34 22
-47 0 -91 15 -91 31 0 22 68 68 114 79 46 10 59 -1 62 -54 2 -36 0 -44 -12
-39 -9 3 -14 -1 -14 -13 -1 -11 -22 -35 -48 -56 -26 -20 -74 -70 -106 -112
-86 -112 -86 -121 -46 -716 17 -251 8 -240 190 -240 69 0 130 4 136 8 19 13
32 46 39 105 l7 57 738 0 737 0 7 -62 c4 -35 14 -73 22 -86 15 -23 18 -23 154
-20 114 2 142 6 156 20 13 13 20 54 31 185 17 206 28 576 19 637 -9 57 -88
160 -185 239 -18 15 -30 31 -27 35 4 3 11 1 15 -6 10 -17 83 -18 121 -2 52 21
37 74 -33 114 -55 31 -92 39 -120 25 -30 -16 -37 -28 -37 -68 0 -27 2 -31 14
-22 8 7 12 20 9 30 -8 32 21 50 64 40 21 -5 42 -9 46 -9 10 0 67 -62 67 -72 0
-24 -136 -34 -170 -13 -23 15 -50 16 -50 3 0 -17 -49 32 -55 56 -9 33 -67 144
-85 164 -9 10 -15 23 -13 29 2 6 -7 19 -21 29 -14 9 -26 22 -26 28 0 6 -12 19
-27 28 -56 33 -652 48 -1043 27z m835 -19 c93 -6 177 -12 186 -15 21 -7 71
-80 132 -195 70 -132 71 -127 -15 -119 -40 4 -210 13 -378 20 -288 11 -687 4
-1032 -18 l-87 -5 46 88 c93 179 137 233 191 235 20 1 84 5 142 9 163 11 627
11 815 0z m210 -344 c22 -2 39 -6 39 -10 -1 -4 -27 -42 -57 -84 -30 -42 -68
-101 -83 -130 l-29 -52 -330 5 c-181 3 -397 2 -480 -3 -171 -10 -156 -16 -213
86 -40 70 -121 176 -129 168 -3 -3 10 -25 29 -48 57 -71 119 -178 125 -215 5
-28 2 -37 -16 -49 -12 -9 -32 -31 -44 -51 l-22 -35 -86 -3 c-63 -3 -92 0 -105
10 -24 17 -14 21 79 30 58 6 74 12 117 46 27 21 54 39 60 39 5 0 10 3 10 8 0
8 -256 57 -383 72 -102 13 -113 16 -121 37 -8 19 51 77 122 121 l51 31 25 -46
c14 -25 26 -48 26 -50 0 -11 62 -93 70 -93 11 0 -51 118 -87 168 -13 17 -23
33 -21 34 2 1 102 7 223 13 195 11 1104 12 1230 1z m212 -19 c3 -4 -2 -16 -10
-25 -23 -27 -100 -172 -94 -179 6 -5 81 106 111 165 15 28 20 32 33 21 8 -7
23 -18 33 -24 62 -37 101 -69 114 -92 8 -16 28 -41 45 -58 17 -16 36 -45 41
-65 21 -81 4 -569 -21 -578 -5 -2 -7 -13 -4 -25 3 -12 -1 -31 -9 -42 -14 -20
-28 -20 -993 -23 -538 -2 -1015 0 -1060 3 -71 6 -82 9 -87 28 -12 49 -3 51
211 48 195 -3 253 5 253 32 0 5 17 7 40 4 22 -3 43 -1 46 4 3 5 -5 9 -18 9
-13 0 -29 4 -37 9 -15 9 -54 111 -43 111 4 0 -13 10 -38 21 -71 33 -380 65
-380 39 0 -5 7 -7 15 -4 8 4 15 1 15 -5 0 -6 -7 -11 -15 -11 -11 0 -14 -9 -12
-34 2 -36 17 -40 17 -4 0 12 8 22 20 25 16 4 18 8 9 19 -6 8 -8 14 -3 14 25
-1 45 -40 20 -40 -12 0 -13 -7 -5 -32 11 -40 11 -39 -2 -36 -6 2 -13 -2 -16
-9 -4 -10 65 -14 330 -17 26 -1 47 -4 47 -8 0 -11 -12 -11 -212 -8 -123 2
-178 -1 -178 -8 0 -6 7 -9 15 -6 10 4 15 0 15 -12 0 -15 2 -16 9 -5 11 17 254
9 276 -9 8 -7 15 -8 15 -3 0 5 14 14 30 20 24 9 30 9 30 -2 0 -24 -37 -41 -87
-39 -26 0 -106 3 -176 5 -71 2 -131 7 -134 12 -2 4 -20 -1 -38 -12 l-33 -19
-7 96 c-13 185 -12 206 8 210 16 3 17 -9 17 -137 0 -78 3 -141 8 -141 26 1 35
61 17 120 -9 26 -13 117 -8 136 6 17 310 -37 381 -67 24 -11 56 -19 70 -20 24
0 25 -1 7 -9 -18 -7 -18 -9 -3 -15 9 -3 25 -2 36 4 11 6 23 7 27 3 5 -4 4 -1
0 7 -6 11 -4 13 8 8 12 -5 17 -1 17 13 0 10 5 22 12 26 7 5 8 3 3 -7 -7 -11
-6 -12 6 -2 19 15 127 13 133 -3 11 -28 -12 -37 -79 -30 -52 5 -66 4 -63 -6 4
-10 37 -12 141 -10 l137 2 0 -59 c0 -53 2 -59 23 -64 34 -9 532 -11 545 -3 5
3 25 1 45 -4 20 -4 39 -4 42 1 3 4 12 6 20 2 11 -4 23 11 41 51 14 31 23 60
20 65 -4 5 15 8 44 7 29 -1 50 3 50 9 1 12 68 44 118 56 31 7 180 34 295 54
27 4 27 4 27 -48 -1 -45 -2 -50 -14 -34 -24 31 -239 20 -386 -21 -19 -6 -32
-10 -28 -11 4 -1 -3 -29 -16 -63 -21 -58 -26 -63 -55 -66 -17 -2 -29 -8 -26
-13 9 -14 83 -11 115 6 40 21 39 39 -1 31 -22 -4 -29 -2 -27 6 4 10 88 20 88
10 0 -1 -5 -12 -12 -25 -6 -12 -14 -29 -18 -37 -4 -9 -17 -14 -30 -12 -14 2
-20 0 -16 -7 8 -12 320 -16 400 -5 l46 7 0 148 c0 126 2 149 15 149 8 0 15 5
15 11 0 5 -4 8 -9 5 -4 -3 -13 6 -20 20 -15 33 -14 33 9 27 28 -7 25 6 -3 16
-20 8 -25 21 -35 78 -6 37 -14 98 -18 135 -4 45 -9 65 -17 63 -7 -3 -68 -11
-137 -20 -158 -19 -182 -23 -250 -40 -85 -21 -116 -22 -112 -5 2 8 40 70 85
138 l82 122 73 -2 c41 -1 76 -6 79 -11z m-1852 -249 c-9 -85 -9 -89 -25 -147
-12 -45 -18 -81 -19 -114 -1 -14 -5 -16 -19 -8 -16 9 -18 24 -17 134 0 120 2
126 29 166 45 65 59 56 51 -31z m140 27 c108 -12 305 -48 305 -56 0 -5 -17
-20 -37 -34 -32 -21 -49 -25 -114 -25 -61 0 -78 -3 -83 -16 -3 -9 -4 -20 -1
-24 3 -5 -8 -5 -25 0 -17 5 -62 10 -100 12 -39 1 -70 7 -71 13 -2 26 3 112 7
128 4 14 13 16 37 13 18 -3 55 -8 82 -11z m1895 -71 l0 -74 -70 -2 c-38 -1
-82 -2 -97 -2 -19 -1 -28 4 -28 14 0 12 -18 16 -85 20 -68 4 -92 10 -118 28
-30 22 -42 42 -24 42 4 0 48 7 97 16 118 21 297 42 313 36 8 -3 12 -28 12 -78z
m-787 19 c237 -6 257 -8 257 -24 0 -10 -5 -21 -11 -25 -14 -8 -695 -7 -844 1
-57 3 -102 10 -106 17 -4 7 -13 -1 -23 -20 -9 -17 -27 -42 -40 -56 -14 -13
-22 -27 -19 -30 10 -10 11 -96 1 -90 -5 3 -7 13 -4 21 3 8 1 11 -4 8 -6 -3
-10 5 -10 19 0 14 -5 28 -10 31 -6 4 -5 12 4 21 13 12 84 100 93 113 1 2 60 6
130 8 70 3 130 7 132 9 6 6 165 5 454 -3z m292 -53 c7 -22 6 -23 -9 -11 -9 7
-16 25 -16 40 1 29 11 17 25 -29z m45 36 c6 -8 33 -29 59 -45 40 -26 58 -31
109 -31 50 0 62 -3 62 -16 0 -13 -13 -15 -77 -14 -43 1 -88 -1 -100 -5 -16 -5
-23 -2 -27 12 -3 10 -22 35 -41 56 -19 21 -35 42 -35 48 0 14 36 11 50 -5z
m-1025 -45 c8 -14 901 -14 927 0 13 7 18 7 14 1 -3 -6 4 -12 16 -14 12 -2 23
-9 26 -15 3 -10 -104 -13 -512 -13 -284 0 -516 2 -516 5 0 10 25 45 32 45 4 0
9 -4 13 -9z m1041 -65 c12 -14 13 -20 4 -26 -6 -4 -11 -11 -10 -16 1 -5 -3
-10 -9 -12 -6 -2 -8 10 -4 32 4 24 2 36 -6 36 -11 0 -15 -29 -11 -84 1 -24 -1
-28 -17 -22 -22 9 -142 11 -150 2 -4 -3 27 -6 69 -6 70 0 75 -1 86 -25 14 -31
15 -46 2 -25 -6 10 -28 15 -70 16 -116 3 -113 2 -108 27 l4 22 -425 -3 c-234
-1 -435 0 -447 3 -18 4 -21 12 -20 47 l1 43 145 2 c80 2 322 3 538 3 l393 0
-6 23 c-6 22 -6 22 10 2 8 -11 22 -28 31 -39z m-1424 -6 c54 -6 129 -10 168
-10 81 0 76 7 111 -128 12 -47 25 -79 29 -72 5 8 9 7 13 -4 6 -15 -5 -21 -28
-16 -5 1 -49 13 -96 26 -85 23 -258 57 -353 69 l-49 7 7 65 c4 37 9 70 12 74
3 5 24 6 47 4 23 -3 86 -10 139 -15z m1887 -37 c18 -90 18 -90 -41 -98 -191
-23 -468 -93 -468 -117 0 -4 -7 -5 -15 -2 -11 5 -15 -1 -15 -19 0 -14 -5 -29
-10 -32 -6 -4 -8 -10 -6 -14 3 -4 -4 -20 -15 -37 -13 -21 -19 -24 -19 -11 0 9
5 17 11 17 5 0 7 5 4 10 -9 14 4 52 16 45 5 -4 9 1 9 10 0 12 -4 14 -19 5 -12
-6 -23 -27 -28 -53 -5 -23 -12 -41 -16 -39 -4 1 -21 2 -38 2 -29 0 -30 2 -29
38 3 57 -2 63 -9 9 l-6 -49 -63 -1 -62 -2 0 57 0 57 131 0 c105 0 134 3 148
15 10 9 20 14 23 11 14 -14 34 40 61 165 l12 55 125 7 c69 4 157 12 195 16
120 16 111 19 124 -45z m-476 -55 c-8 -46 -13 -48 -13 -5 0 21 4 37 10 37 5 0
7 -14 3 -32z m-991 2 c70 0 79 -2 76 -17 -2 -10 -11 -18 -21 -17 -9 0 -50 1
-90 2 -66 2 -73 4 -73 22 0 13 5 19 14 15 7 -3 50 -5 94 -5z m756 -82 l3 -68
-331 0 -330 0 0 70 0 70 328 -2 327 -3 3 -67z m-861 8 c1 -36 -13 -21 -22 23
-6 30 -5 33 6 20 8 -8 15 -27 16 -43z m181 -3 c-3 -16 -13 -18 -78 -15 -48 2
-80 9 -90 18 -12 12 -2 14 79 14 83 0 92 -2 89 -17z m870 5 c-3 -9 -29 -13
-83 -13 -54 0 -80 4 -82 13 -4 9 17 12 82 12 65 0 86 -3 83 -12z m18 -45 c-3
-19 -19 -21 -21 -2 -2 9 3 16 10 16 7 0 12 -6 11 -14z m-36 0 c-1 -23 -21 -32
-78 -34 -67 -3 -78 1 -69 26 5 11 23 15 77 15 38 0 70 -3 70 -7z m535 -118 c4
-42 6 -78 4 -80 -2 -2 -16 -6 -32 -10 -22 -6 -27 -4 -27 12 0 44 -34 50 -193
37 -128 -11 -86 -24 53 -18 128 7 130 7 130 -15 0 -20 -5 -21 -97 -22 -54 0
-117 -2 -140 -4 -48 -4 -47 -5 -32 48 l10 37 122 2 c67 1 132 2 145 2 12 0 22
4 22 8 0 4 -7 8 -16 8 -13 0 -15 7 -9 40 4 26 3 40 -4 40 -6 0 -11 -15 -11
-34 0 -33 -1 -33 -52 -40 -29 -3 -83 -6 -120 -6 l-67 0 13 38 13 37 114 10
c157 15 165 10 174 -90z m-1828 89 c45 -6 52 -9 56 -33 2 -14 6 -32 8 -40 3
-11 -13 -13 -81 -12 -47 1 -100 4 -118 8 -28 5 -32 8 -28 32 2 14 5 32 5 39 1
13 71 16 158 6z m141 -40 c12 -8 22 -23 22 -34 0 -16 -7 -20 -34 -20 -43 0
-64 27 -57 73 1 10 38 0 69 -19z m1375 20 c4 -4 -10 -63 -16 -64 -1 -1 -19 -3
-40 -6 -36 -5 -38 -4 -35 18 4 28 74 68 91 52z m-802 -34 c1 -16 1 -42 2 -57
1 -27 0 -27 -58 -24 -33 1 -61 4 -63 5 -1 2 -5 26 -9 55 l-6 51 67 0 66 0 1
-30z m140 8 c1 -13 1 -38 0 -57 -2 -22 1 -31 8 -27 6 4 11 29 11 57 l0 49 65
0 65 0 -2 -60 -3 -59 -132 2 -133 2 -1 25 c0 14 -2 40 -3 58 l-2 32 63 0 c58
0 63 -2 64 -22z m566 -104 c-3 -3 -12 -4 -19 -1 -8 3 -5 6 6 6 11 1 17 -2 13
-5z m-1537 -154 l145 -5 -4 -44 c-6 -93 -3 -91 -155 -91 -90 0 -137 4 -142 11
-4 7 -9 43 -12 82 -4 58 -3 68 9 61 8 -5 79 -11 159 -14z m1987 -50 c-3 -39
-9 -75 -12 -80 -4 -6 -62 -10 -141 -10 -152 0 -149 -2 -155 91 l-4 44 142 5
c78 3 145 8 149 13 21 20 27 3 21 -63z"/>
<path d="M478 763 c7 -3 16 -2 19 1 4 3 -2 6 -13 5 -11 0 -14 -3 -6 -6z"/>
<path d="M2207 898 c3 -18 10 -38 15 -45 5 -6 10 -43 11 -82 1 -50 5 -65 11
-52 10 24 -2 151 -15 151 -5 0 -9 14 -9 30 0 17 -4 30 -10 30 -5 0 -7 -14 -3
-32z"/>
<path d="M2212 820 c0 -19 2 -27 5 -17 2 9 2 25 0 35 -3 9 -5 1 -5 -18z"/>
<path d="M713 513 c9 -2 23 -2 30 0 6 3 -1 5 -18 5 -16 0 -22 -2 -12 -5z"/>
<path d="M640 473 c0 -26 24 -82 45 -105 22 -26 43 -39 32 -20 -7 10 75 8 92
-2 10 -7 12 -5 6 3 -5 10 7 12 49 10 31 -1 59 0 63 4 3 4 -19 7 -50 7 -52 0
-57 2 -57 23 0 31 -11 67 -20 67 -4 0 -4 -20 0 -45 l7 -46 -53 2 c-29 1 -51 6
-48 11 11 17 -6 75 -21 75 -11 0 -12 -4 -4 -14 6 -7 8 -13 5 -13 -4 0 -2 -9 4
-20 6 -11 7 -20 3 -20 -9 0 -33 48 -33 66 0 7 -4 16 -10 19 -5 3 -10 3 -10 -2z"/>
<path d="M730 453 c8 -3 18 -10 21 -15 3 -5 12 -2 19 7 11 13 8 15 -21 14 -19
0 -27 -3 -19 -6z"/>
<path d="M720 431 c0 -6 4 -13 10 -16 6 -3 7 1 4 9 -7 18 -14 21 -14 7z"/>
<path d="M885 419 c-4 -6 -5 -12 -2 -15 2 -3 7 2 10 11 7 17 1 20 -8 4z"/>
<path d="M758 408 c5 -5 16 -8 23 -6 8 3 3 7 -10 11 -17 4 -21 3 -13 -5z"/>
<path d="M640 325 c-9 -8 -41 -24 -73 -35 -61 -21 -211 -26 -384 -12 -81 7
-106 0 -60 -17 27 -10 149 -16 282 -14 55 1 366 2 690 2 335 0 603 5 620 10
25 8 20 9 -38 10 -59 1 -68 3 -65 18 4 24 34 28 72 10 107 -51 153 -58 321
-51 157 7 207 14 212 30 2 7 -19 8 -69 2 -104 -13 -374 -6 -390 10 -6 6 -19
12 -29 12 -9 0 -28 9 -43 21 -14 11 -30 18 -36 14 -5 -3 -190 -7 -410 -7 -303
-2 -400 -5 -400 -14 0 -8 18 -12 52 -11 43 2 53 -1 56 -16 3 -15 -5 -17 -57
-17 -58 0 -61 1 -61 24 0 14 -4 28 -10 31 -5 3 -10 2 -10 -3 0 -6 -14 -7 -35
-2 -54 12 -70 7 -70 -24 1 -26 0 -26 -70 -25 -38 1 -61 3 -50 6 11 2 34 11 52
19 17 8 36 14 43 14 16 0 7 24 -11 28 -8 1 -21 -4 -29 -13z m172 -39 c8 -14 2
-16 -40 -16 -53 0 -63 5 -55 26 7 19 83 12 95 -10z m276 0 c3 -13 -7 -16 -57
-16 -56 0 -79 9 -68 28 3 4 31 6 64 5 44 -1 59 -5 61 -17z m132 4 c0 -18 -7
-20 -60 -20 -53 0 -60 2 -60 20 0 18 7 20 60 20 53 0 60 -2 60 -20z m133 8 c4
-9 8 -10 14 -2 12 15 115 17 126 2 7 -10 10 -10 14 0 3 7 23 12 49 12 37 0 44
-3 44 -19 0 -18 -10 -19 -185 -20 -178 0 -185 0 -185 19 0 18 7 20 59 20 38 0
61 -4 64 -12z"/>
<path d="M583 233 c9 -2 25 -2 35 0 9 3 1 5 -18 5 -19 0 -27 -2 -17 -5z"/>
<path d="M1753 233 c9 -2 23 -2 30 0 6 3 -1 5 -18 5 -16 0 -22 -2 -12 -5z"/>
<path d="M103 912 c-6 -20 -14 -55 -18 -77 -3 -22 -8 -49 -10 -61 -3 -13 1
-21 9 -21 8 0 11 8 8 19 -2 10 4 52 13 93 19 79 18 110 -2 47z"/>
<path d="M648 708 c11 -10 118 -16 133 -8 7 5 -21 10 -64 12 -42 1 -73 0 -69
-4z"/>
<path d="M1018 683 c7 -3 16 -2 19 1 4 3 -2 6 -13 5 -11 0 -14 -3 -6 -6z"/>
<path d="M1108 683 c34 -2 90 -2 125 0 34 2 6 3 -63 3 -69 0 -97 -1 -62 -3z"/>
<path d="M1323 683 c9 -2 23 -2 30 0 6 3 -1 5 -18 5 -16 0 -22 -2 -12 -5z"/>
<path d="M1416 462 c-3 -5 1 -9 9 -9 8 0 12 4 9 9 -3 4 -7 8 -9 8 -2 0 -6 -4
-9 -8z"/>
<path d="M1552 440 c-14 -22 -8 -41 11 -39 9 0 9 2 0 6 -14 5 -18 25 -5 21 4
-2 8 1 9 7 1 5 10 12 20 16 17 7 16 8 -2 8 -11 1 -26 -8 -33 -19z"/>
<path d="M1040 456 c0 -2 7 -7 16 -10 8 -3 12 -2 9 4 -6 10 -25 14 -25 6z"/>
<path d="M1128 453 c7 -3 16 -2 19 1 4 3 -2 6 -13 5 -11 0 -14 -3 -6 -6z"/>
<path d="M155 1196 c-18 -13 -16 -14 15 -11 19 2 37 4 40 5 3 1 12 2 22 1 9
-1 19 3 23 9 10 16 -78 12 -100 -4z"/>
<path d="M2060 1201 c0 -5 17 -11 38 -15 20 -3 47 -9 60 -12 30 -9 28 10 -3
24 -30 14 -95 16 -95 3z"/>
</g>
</svg>
