<svg version="1.1" id="Layer_1" xmlns="http://www.w3.org/2000/svg" xmlns:xlink="http://www.w3.org/1999/xlink" x="0px" y="0px"
	 width="100%" viewBox="0 0 314 532" enable-background="new 0 0 314 532" xml:space="preserve">
<style>
  /* Country outline: light #a1a1aa, dark #52525b (match WorldMapChart) */
  path { stroke: #a1a1aa; stroke-linecap: round; stroke-linejoin: round; fill: none; }
  @media (prefers-color-scheme: dark) {
    path { stroke: #52525b; }
  }
</style>
<path opacity="1.000000" stroke-width="3.000000"
	d="
M99.000000,87.500000 
	C98.494270,92.333336 98.286972,97.126945 98.884438,102.014130 
	C99.275085,105.209587 100.606354,106.034103 103.500038,106.030388 
	C139.666656,105.983986 175.833374,105.975723 211.999924,106.040680 
	C215.312149,106.046631 216.562317,104.867371 216.548920,101.499809 
	C216.456161,78.166840 216.532333,54.833241 216.466583,31.500093 
	C216.456223,27.823357 216.001938,24.147869 215.745193,20.357817 
	C211.034256,19.408575 206.505157,20.004629 202.000000,20.003677 
	C169.500000,19.996815 137.000000,19.998968 104.500000,20.001001 
	C99.000000,20.001345 99.000000,20.007439 99.000000,25.500000 
	C99.000000,38.000000 99.029900,50.500107 98.985619,62.999950 
	C98.967316,68.166924 97.897469,73.333336 99.000000,78.500000 
"/>
<path opacity="1.000000" stroke-width="2.000000"
	d="
M248.500000,235.500000 
	C250.009827,245.193710 251.848145,254.871124 253.828064,264.432068 
	C255.798126,273.945496 257.584473,283.552307 259.933533,293.016510 
	C261.987640,301.292267 262.817993,309.853363 265.843811,317.906647 
	C249.602646,328.400238 231.923950,334.180573 213.498688,337.993652 
	C190.225647,342.810028 166.643692,343.797180 143.002914,342.921295 
	C118.006470,341.995239 93.532578,337.691742 70.040291,328.892426 
	C63.939236,326.607208 58.095932,323.374329 52.578964,319.875488 
	C48.538097,317.312775 47.053608,312.444458 48.159412,308.040009 
	C50.368595,299.240784 52.254879,290.377014 53.916508,281.484406 
	C56.385204,268.272583 59.288021,255.155121 61.837761,241.968628 
	C62.570988,238.176575 62.819138,234.594315 66.000000,232.000000 
"/>
<path opacity="1.000000" stroke-width="3.000000"
	d="
M196.000015,511.500000 
	C197.500015,502.000000 198.856873,492.474091 200.569885,483.012634 
	C201.263214,479.183105 201.351288,475.297882 201.794693,471.476166 
	C203.223923,459.157562 204.830887,446.833160 205.826553,434.486023 
	C206.942657,420.645630 208.263870,406.827667 209.441193,392.994995 
	C210.758224,377.520782 211.621780,362.008026 212.731445,345.799774 
	C175.833328,351.968872 139.166672,352.207794 102.204712,345.594757 
	C107.282982,401.611389 110.410507,456.898376 119.314491,511.762390 
	C145.141174,515.515503 170.310852,515.228760 195.500000,512.000000 
"/>
<path opacity="1.000000" stroke-width="2.000000"
	d="
M86.500000,1.500000 
	C81.424210,77.776962 83.200157,154.412964 75.054977,231.000000 
	C72.358139,231.000000 70.179070,231.000000 68.000000,231.000000 
"/>
<path opacity="1.000000" stroke-width="3.000000"
	d="
M229.000000,1.500000 
	C228.911835,21.221996 231.250015,40.829025 231.836792,60.504868 
	C232.145050,70.841255 232.845383,81.156998 233.078079,91.498245 
	C233.678192,118.170151 234.488663,144.840652 235.585648,171.496475 
	C236.038803,182.507401 235.893341,193.596466 238.000000,204.500000 
"/>
<path opacity="1.000000" stroke-width="3.000000"
	d="
M291.000000,279.500000 
	C292.496002,289.126587 291.873871,298.826324 291.995636,308.500061 
	C292.025024,310.833038 292.013245,313.166748 291.997986,315.500000 
	C291.834595,340.500000 291.196198,365.509552 291.704071,390.495850 
	C291.947662,402.481232 290.718292,414.573761 292.988251,426.502228 
	C293.080078,426.984772 293.110931,427.530609 292.982788,427.995239 
	C291.716888,432.584656 290.967377,437.187561 291.459686,442.004120 
	C292.153595,448.793182 288.865479,454.937225 287.956879,461.494019 
	C285.897430,476.356079 277.108093,486.885864 265.499573,495.499420 
	C260.551178,499.171173 255.603485,502.656433 251.317108,507.332336 
	C245.546371,513.627502 237.677658,517.316284 229.500580,520.001770 
	C217.801437,523.843933 205.358994,522.318115 193.383286,525.675598 
	C193.979965,520.997437 194.489975,516.998718 195.000000,513.000000 
"/>
<path opacity="1.000000" stroke-width="2.000000"
	d="
M267.000000,327.000000 
	C264.666656,341.166656 262.471313,355.357788 259.965881,369.493958 
	C256.661346,388.138885 252.476913,406.609985 247.933716,424.983612 
	C243.916870,441.228516 239.452499,457.366608 234.951767,473.486542 
	C232.557327,482.062531 229.688736,490.507080 226.972198,498.991089 
	C226.631165,500.056274 226.416840,501.000000 227.000000,502.000000 
"/>
<path opacity="1.000000" stroke-width="3.000000"
	d="
M51.500000,258.000000 
	C42.170067,263.212189 40.520763,261.210785 41.999866,273.000031 
	C42.676903,278.396332 41.348045,283.682648 40.843388,288.985107 
	C40.487080,292.728790 40.788219,296.352478 40.736416,299.996246 
	C40.604813,309.253082 45.640385,316.680450 48.130234,324.960846 
	C49.386303,329.138123 49.259560,333.353088 49.878551,337.518036 
	C52.495529,355.126770 55.558994,372.643555 59.522060,389.994965 
	C62.915546,404.852631 66.401947,419.690704 70.032555,434.492004 
	C72.699867,445.366089 75.553253,456.197998 78.536476,466.989929 
	C80.854012,475.373688 84.479301,483.532715 85.644135,492.048676 
	C86.379524,497.424927 89.488846,503.445740 85.684868,509.000000 
	C84.833336,509.000000 84.025330,509.243835 83.526321,508.954590 
	C81.988747,508.063385 79.520569,508.189362 79.494141,505.500061 
	C79.470337,503.078491 81.796791,503.445496 83.022957,502.530762 
	C83.905060,501.872711 84.999985,501.499969 85.999985,500.999969 
"/>
<path opacity="1.000000" stroke-width="3.000000"
	d="
M23.500000,3.500000 
	C22.398642,7.292695 22.030319,11.152042 23.031782,14.991711 
	C24.056490,18.920507 22.282545,22.617594 22.431387,26.502628 
	C23.070871,43.194412 23.535463,59.873409 25.333075,76.518028 
	C26.149603,84.078506 25.064844,91.832771 25.022163,99.500122 
	C24.944233,113.499687 24.933191,127.500519 25.042259,141.499664 
	C25.073439,145.501816 23.499777,149.500000 25.000000,153.500000 
"/>
<path opacity="1.000000" stroke-width="3.000000"
	d="
M90.000000,110.000000 
	C110.000000,110.000000 130.000259,109.935364 149.999924,110.017174 
	C172.500229,110.109207 195.000046,110.328362 217.499939,110.507095 
	C219.956284,110.526604 222.378769,110.489799 224.500000,109.000000 
"/>
<path opacity="1.000000" stroke-width="3.000000"
	d="
M223.500000,11.500000 
	C226.479004,16.076883 224.758331,21.208557 224.858688,26.002958 
	C225.340042,48.996368 225.358002,71.999855 225.494049,95.000038 
	C225.684311,127.166557 225.845764,159.333267 225.991974,191.500031 
	C226.032608,200.439468 220.808044,206.328079 212.000946,207.507065 
	C201.541214,208.907272 191.087326,210.333771 180.500000,209.000000 
"/>
<path opacity="1.000000" stroke-width="3.000000"
	d="
M267.500000,325.000000 
	C272.359711,330.210022 274.902100,336.209076 275.076324,343.498169 
	C275.539062,362.854462 274.519897,382.181671 273.766510,401.490875 
	C273.403198,410.802002 273.803314,420.234406 272.085876,429.515900 
	C271.673920,431.742157 272.333344,434.166656 272.500000,436.500000 
"/>
<path opacity="1.000000" stroke-width="3.000000"
	d="
M240.500000,231.000000 
	C233.370132,233.445633 225.833496,233.335571 218.497803,234.485947 
	C190.635254,238.855392 162.539902,238.385513 134.502670,237.857819 
	C115.394272,237.498169 96.395889,234.985382 77.504494,231.971832 
	C76.802521,231.859848 76.166664,231.333328 75.500000,231.000000 
"/>
<path opacity="1.000000" stroke-width="3.000000"
	d="
M46.500000,326.000000 
	C42.110088,331.197174 40.108334,337.267242 40.011147,344.000153 
	C39.951015,348.165955 39.802933,352.344269 40.033028,356.498169 
	C41.232738,378.156281 40.942921,399.878296 42.935276,421.505951 
	C43.376778,426.298645 43.000000,431.166656 43.000000,436.000000 
"/>
<path opacity="1.000000" stroke-width="3.000000"
	d="
M255.000000,1.500000 
	C252.849075,10.541398 253.109207,19.881956 251.552689,29.008986 
	C250.144409,37.266769 251.087204,45.673748 250.725067,54.009777 
	C250.268677,64.515747 248.780151,75.003120 249.119522,85.496132 
	C249.534790,98.335945 248.814407,111.200539 249.636993,123.991188 
	C250.613052,139.168396 249.392822,154.340286 250.442612,169.503967 
	C251.586197,186.022232 251.641327,202.705338 254.684143,218.965546 
	C259.054993,242.322693 263.237823,265.755463 270.254730,288.575409 
	C271.616943,293.005493 272.538269,297.826508 273.454590,302.508881 
	C273.728607,303.908997 273.627716,305.072510 275.486206,305.553314 
	C280.692474,306.900269 285.833344,308.500000 291.000000,310.000000 
"/>
<path opacity="1.000000" stroke-width="2.000000"
	d="
M24.000000,281.000000 
	C23.833334,287.333344 23.342979,293.678070 23.565825,299.997681 
	C24.065409,314.165375 23.458145,328.326996 23.810183,342.504700 
	C24.360146,364.653564 23.856207,386.837219 23.402571,408.998016 
	C23.231733,417.343658 22.694830,425.666229 23.491676,434.000793 
	C23.554834,434.661407 23.229338,435.520569 23.541237,435.971466 
	C27.280762,441.377777 27.993742,448.236359 32.000000,453.500000 
"/>
<path opacity="1.000000" stroke-width="3.000000"
	d="
M292.500000,2.500000 
	C292.578033,10.510637 293.078369,18.524202 293.255066,26.505423 
	C293.523987,38.651379 292.537170,50.869045 291.369049,62.987377 
	C290.597260,70.993835 289.907349,78.968460 290.015472,86.999794 
	C290.224182,102.502045 289.591156,118.003960 290.875244,133.510330 
	C291.574341,141.952438 291.005432,150.500000 290.995911,159.000000 
	C290.993744,160.921295 291.050720,162.649155 289.090759,164.120865 
	C287.808594,165.083649 288.238373,167.396637 288.560120,168.987839 
	C290.041809,176.315765 290.759308,183.620056 289.019684,191.004639 
	C288.870911,191.636261 288.872131,192.362930 289.018646,192.995682 
	C293.075195,210.514603 290.807526,228.326599 291.514435,245.999420 
	C291.607849,248.334686 291.021912,250.724625 292.000000,253.000000 
"/>
<path opacity="1.000000" stroke-width="2.000000"
	d="
M269.000000,37.500000 
	C270.584198,44.759411 269.969025,52.173679 270.395020,59.506100 
	C271.187622,73.149223 271.215576,86.843491 271.753571,100.490005 
	C272.140869,110.314194 272.556549,120.167435 272.922211,130.002899 
	C273.262543,139.156021 274.507385,148.333328 273.000000,157.500000 
"/>
<path opacity="1.000000" stroke-width="3.000000"
	d="
M92.500000,10.500000 
	C89.540031,13.563181 90.461922,17.293716 90.422432,20.999174 
	C90.317612,30.834942 89.768356,40.664993 89.515060,50.500389 
	C89.124519,65.665581 88.321861,80.842987 88.607849,95.997963 
	C89.180328,126.333931 88.802361,156.666901 89.041451,186.999680 
	C89.066437,190.168777 89.388939,193.394165 90.066078,196.485519 
	C91.044617,200.952881 95.712158,204.156372 102.003830,204.401718 
	C105.624580,204.542908 108.910347,205.191940 112.000000,207.000000 
"/>
<path opacity="1.000000" stroke-width="3.000000"
	d="
M26.000000,164.500000 
	C27.185316,165.216003 27.266319,166.422302 26.967739,167.490982 
	C24.982803,174.595337 25.353134,181.769180 25.906799,189.007126 
	C26.070023,191.140930 26.719749,193.419327 24.678139,195.662155 
	C23.524042,196.929977 24.027283,199.832993 24.022125,202.000046 
	C23.982056,218.833282 24.002878,235.666672 23.979174,252.499969 
	C23.978704,252.833603 23.666971,253.166824 23.500132,253.500504 
	C21.622829,255.342010 20.891756,252.599640 19.500000,252.500000 
"/>
<path opacity="1.000000" stroke-width="3.000000"
	d="
M287.500000,2.000000 
	C281.071655,3.322452 276.989777,8.596839 271.665863,10.985245 
	C272.468933,21.656105 273.535919,31.816099 273.939819,42.002384 
	C274.904297,66.325279 276.018219,90.642288 276.162262,114.999039 
	C276.204468,122.136436 277.775787,129.281754 277.000000,136.500000 
"/>
<path opacity="1.000000" stroke-width="2.000000"
	d="
M69.500000,189.500000 
	C69.861778,201.557129 68.674492,213.526291 67.510155,225.500992 
	C65.468056,246.503113 60.454685,266.940948 56.159939,287.533356 
	C54.393768,296.001770 52.250324,304.418365 51.000000,313.000000 
"/>
<path opacity="1.000000" stroke-width="2.000000"
	d="
M44.000000,12.500000 
	C41.833008,18.504469 42.398235,24.842356 42.109715,31.005136 
	C40.986740,54.991825 39.310261,78.960426 39.441315,103.000320 
	C39.483097,110.664940 38.928967,118.338898 38.483448,125.999039 
	C36.554836,159.158905 37.655762,192.328934 37.841263,225.500885 
	C37.874638,231.469223 37.773529,237.502975 37.500000,243.500000 
"/>
<path opacity="1.000000" stroke-width="2.000000"
	d="
M242.500000,1.500000 
	C244.751221,3.262539 243.796555,6.024010 243.816589,8.001857 
	C243.997528,25.877146 246.456573,43.621078 246.658752,61.498203 
	C246.714752,66.450111 246.223907,71.627609 248.000000,76.500000 
"/>
<path opacity="1.000000" stroke-width="3.000000"
	d="
M72.000000,1.500000 
	C71.000000,17.666666 69.828377,33.825508 69.090935,50.004147 
	C68.824577,55.847851 68.645905,61.682667 68.023056,67.502464 
	C67.839981,69.213120 68.261238,71.018913 67.000000,72.500000 
"/>
<path opacity="1.000000" stroke-width="2.000000"
	d="
M24.000000,440.000000 
	C22.480400,444.154419 24.528769,448.058533 25.147434,451.976715 
	C26.082579,457.899261 28.045876,463.655334 29.487429,469.503082 
	C31.011225,475.684479 33.743500,481.131226 38.489403,485.511475 
	C45.568150,492.044830 52.401756,499.344147 61.117508,503.236908 
	C72.692207,508.406525 83.134331,516.095825 95.950974,518.737854 
	C99.777397,519.526611 104.384140,519.666443 107.500000,523.000000 
"/>
<path opacity="1.000000" stroke-width="3.000000"
	d="
M62.500000,505.000000 
	C64.852562,511.007568 70.798515,512.963684 75.586639,515.856628 
	C85.287842,521.717834 96.263123,523.312317 107.498520,523.565674 
	C112.007500,523.667297 116.550781,524.225830 120.991043,525.048401 
	C138.577271,528.306091 156.323959,526.700378 174.001083,526.907898 
	C180.327667,526.982117 186.666672,526.000000 193.000000,525.500000 
"/>
<path opacity="1.000000" stroke-width="3.000000"
	d="
M43.500000,299.500000 
	C44.191399,286.739594 48.954689,274.854797 51.690796,262.542389 
	C55.566715,245.100861 59.302963,227.641861 61.871021,209.981247 
	C63.407223,199.416779 63.890617,188.678177 64.439644,177.996902 
	C65.038620,166.343887 65.873825,154.631104 65.289268,143.010605 
	C64.766922,132.626862 65.711563,122.337006 65.573349,111.999016 
	C65.419662,100.503304 66.678307,88.930588 65.741035,77.521271 
	C64.946281,67.846886 66.012405,58.078465 64.038948,48.491982 
	C63.765823,47.165215 64.100540,46.040024 62.588631,44.884075 
	C60.095417,42.977848 58.044331,40.433250 56.034203,37.972065 
	C53.999611,35.480927 51.670700,35.854420 48.987656,36.443806 
	C45.963810,37.108059 46.067841,39.158298 45.963215,41.498356 
	C45.553185,50.669044 45.008541,59.833809 44.498169,68.999901 
	C43.524132,86.493248 43.702595,104.035995 42.092468,121.508522 
	C41.728676,125.456268 41.299145,129.613953 43.000000,133.500000 
"/>
<path opacity="1.000000" stroke-width="2.000000"
	d="
M178.500000,209.000000 
	C176.573547,210.049225 174.494965,209.463669 172.499908,209.469269 
	C154.000061,209.521286 135.499939,209.520584 117.000107,209.464767 
	C115.342987,209.459778 113.577461,210.058701 112.000000,209.000000 
"/>
<path opacity="1.000000" stroke-width="3.000000"
	d="
M234.000000,1.500000 
	C235.625427,10.269629 234.597809,19.175920 235.419632,28.007479 
	C236.935059,44.292160 236.130280,60.689716 237.128906,76.992104 
	C237.845001,88.682053 237.953583,100.308235 237.685608,112.004250 
	C237.553223,117.782234 239.840515,123.551559 239.500000,129.500000 
"/>
<path opacity="1.000000" stroke-width="3.000000"
	d="
M94.500000,205.500000 
	C98.838737,207.225677 103.469223,207.631119 107.995819,208.521240 
	C111.335266,209.177933 113.498009,206.195755 117.006203,206.310806 
	C134.659363,206.889725 152.335281,206.737259 169.998016,207.097290 
	C172.845474,207.155319 175.666672,205.549103 178.500000,207.000000 
"/>
<path opacity="1.000000" stroke-width="2.000000"
	d="
M274.000000,306.500000 
	C272.988281,310.607208 271.896729,314.691650 269.993225,318.496613 
	C268.248505,321.984161 266.278076,324.873047 262.602875,327.164948 
	C248.023727,336.256622 232.171997,341.633942 215.489578,344.947571 
	C214.619843,345.120270 214.033249,345.399841 213.500000,346.000000 
"/>
<path opacity="1.000000" stroke-width="3.000000"
	d="
M49.500000,326.000000 
	C50.333019,326.168213 51.126709,325.864960 52.028923,326.455841 
	C65.038048,334.975250 79.208443,340.621246 94.490768,343.548187 
	C96.899925,344.009583 99.529999,344.149353 101.500000,346.000000 
"/>
<path opacity="1.000000" stroke-width="2.000000"
	d="
M251.000000,145.500000 
	C259.212799,148.566818 265.918823,154.087845 273.006805,158.990158 
	C274.143555,159.776382 274.067505,160.866623 273.999878,162.000000 
	C272.876984,180.824875 273.782562,199.667496 273.517792,218.500244 
	C273.410034,226.165405 273.500000,233.833328 273.500000,241.500000 
"/>
<path opacity="1.000000" stroke-width="2.000000"
	d="
M77.500000,80.500000 
	C77.500000,92.000000 77.416969,103.500854 77.535774,114.999634 
	C77.593338,120.571289 76.638000,126.012543 76.000000,131.500000 
"/>
<path opacity="1.000000" stroke-width="3.000000"
	d="
M240.500000,133.000000 
	C239.522095,138.140503 240.144394,143.332550 239.981659,148.499420 
	C239.465622,164.884628 240.814560,181.189056 242.048218,197.496353 
	C242.189011,199.357422 242.993347,201.168304 243.495010,203.001236 
	C237.384979,206.008316 237.295578,206.391922 238.462265,213.506195 
	C239.167358,217.805878 239.755951,222.157227 239.916412,226.503082 
	C240.037720,229.788361 241.193726,231.196396 244.501282,231.024704 
	C249.340317,230.773514 252.067841,232.877670 252.550293,237.995255 
	C253.361649,246.601685 257.388489,254.594650 257.276520,263.503479 
	C257.249573,265.646210 258.867737,268.484558 259.422485,271.016968 
	C261.933075,282.478149 264.166656,294.000000 266.500000,305.500000 
"/>
<path opacity="1.000000" stroke-width="2.000000"
	d="
M271.500000,441.500000 
	C270.816833,441.600677 270.201874,441.527252 269.468689,441.945068 
	C263.302155,445.459076 258.896301,451.105194 253.125366,455.177643 
	C247.597519,459.078552 243.855713,465.416962 241.780777,471.594299 
	C238.399719,481.660065 232.396484,490.608795 230.016556,501.003784 
	C229.690613,502.427429 228.546310,502.599548 227.500000,503.000000 
"/>
<path opacity="1.000000" stroke-width="3.000000"
	d="
M278.500000,471.500000 
	C265.598846,487.466125 248.618729,498.319916 231.591553,509.197021 
	C228.901489,508.345490 227.843536,506.457611 227.502930,503.999603 
	C227.480270,503.836090 227.554352,503.641479 227.490799,503.504272 
	C227.177704,502.828247 226.833328,502.833344 226.500000,503.500000 
"/>
<path opacity="1.000000" stroke-width="2.000000"
	d="
M252.500000,504.500000 
	C249.495239,503.453339 247.500305,505.675262 245.554794,507.076111 
	C237.657013,512.762695 228.486557,515.371033 219.519745,518.555603 
	C216.646301,519.576050 213.255432,519.429871 211.000000,522.000000 
"/>
<path opacity="1.000000" stroke-width="2.000000"
	d="
M15.500000,250.500000 
	C13.308253,250.659378 11.456520,249.073761 8.956179,249.860779 
	C6.128373,250.750900 5.796229,251.856216 6.429782,254.516724 
	C8.154273,261.758423 11.782709,267.789337 16.987864,273.012085 
	C22.266157,278.308258 28.837694,281.463989 35.500000,284.500000 
"/>
<path opacity="1.000000" stroke-width="3.000000"
	d="
M47.500000,471.000000 
	C43.158825,472.162750 44.414818,476.124084 43.300522,479.261047 
	C53.849400,489.095734 65.403297,497.647095 77.518593,505.471222 
	C77.871422,505.699097 78.500000,505.500000 79.000000,505.500000 
"/>
<path opacity="1.000000" stroke-width="3.000000"
	d="
M44.500000,441.500000 
	C38.186256,440.981232 34.474144,444.392914 34.380245,449.997986 
	C34.330269,452.981018 36.955414,453.080292 38.163944,454.343109 
	C44.445923,460.907043 49.968895,468.529449 58.544052,472.402466 
	C61.956848,473.943848 65.277504,476.538055 69.500000,475.500000 
"/>
<path opacity="1.000000" stroke-width="3.000000"
	d="
M41.500000,147.500000 
	C42.489727,151.801682 42.039547,156.169754 41.963272,160.499359 
	C41.731289,173.667816 40.521248,186.875443 41.201397,199.989548 
	C42.092110,217.163528 41.329937,234.352570 42.494041,251.500412 
	C42.731358,254.996201 40.946747,258.589844 43.000000,262.000000 
"/>
<path opacity="1.000000" stroke-width="3.000000"
	d="
M59.500000,2.000000 
	C62.248158,4.854627 61.694305,8.491467 62.055782,11.994244 
	C63.103004,22.141884 64.057533,32.286678 63.978840,42.499836 
	C63.972412,43.334404 63.666668,44.166668 63.500004,45.000000 
"/>
<path opacity="1.000000" stroke-width="3.000000"
	d="
M279.000000,453.500000 
	C271.689178,458.773987 267.547241,467.701019 258.517151,471.046265 
	C254.317078,472.602234 250.300537,474.653503 245.051056,476.992584 
	C247.047958,470.408356 246.608765,464.358887 253.908249,461.743866 
	C256.616150,460.773773 261.955688,459.052368 259.000000,453.500000 
"/>
<path opacity="1.000000" stroke-width="3.000000"
	d="
M267.500000,471.500000 
	C256.603638,477.208099 247.012650,484.714111 238.014236,493.015442 
	C235.277008,495.540619 235.555725,497.811951 239.092224,499.617737 
	C248.715637,489.949341 261.422272,484.227173 271.016693,474.242310 
	C271.124878,472.648895 269.917938,471.749084 268.500000,471.000000 
"/>
<path opacity="1.000000" stroke-width="3.000000"
	d="
M78.500000,28.500000 
	C79.564178,34.500000 78.773476,40.496296 78.520020,46.500847 
	C78.112122,56.164364 77.833328,65.833336 77.500000,75.500000 
"/>
<path opacity="1.000000" stroke-width="2.000000"
	d="
M210.500000,205.500000 
	C202.871201,206.704422 195.180649,206.460266 187.500137,206.517639 
	C184.698608,206.538559 181.678024,205.878799 179.500000,208.500000 
"/>
<path opacity="1.000000" stroke-width="3.000000"
	d="
M51.500000,446.500000 
	C55.433659,450.124603 59.459991,453.633087 63.998940,456.501678 
	C64.506783,456.822601 65.355072,457.089050 65.447403,457.511475 
	C67.175476,465.417603 73.727646,470.734344 76.281319,478.406372 
	C78.405518,484.788116 80.602600,491.513153 85.000000,497.000000 
"/>
<path opacity="1.000000" stroke-width="3.000000"
	d="
M64.000000,129.500000 
	C58.714581,130.140762 53.630943,131.663162 48.494194,132.977310 
	C42.009544,134.636322 41.973690,134.565125 42.011986,140.999924 
	C42.021954,142.674774 41.698730,144.396790 42.500000,146.000000 
"/>
<path opacity="1.000000" stroke-width="3.000000"
	d="
M268.500000,20.500000 
	C268.446198,26.003420 270.147125,31.560013 268.555359,37.431679 
	C263.990082,35.126945 260.907562,35.683178 257.849274,39.375141 
	C256.001953,41.605183 255.020721,44.775532 252.000000,46.000000 
"/>
<path opacity="1.000000" stroke-width="2.000000"
	d="
M88.500000,503.500000 
	C97.508789,507.916595 107.409027,509.159882 117.009605,511.459900 
	C117.602310,511.601898 118.333328,511.166626 118.999992,510.999969 
"/>
<path opacity="1.000000" stroke-width="3.000000"
	d="
M278.500000,153.000000 
	C276.445709,154.807983 277.138519,157.548462 277.186615,159.495392 
	C277.540863,173.837250 278.757874,188.154221 277.080780,202.509445 
	C276.698822,205.778671 277.333313,209.166672 277.500000,212.500000 
"/>
<path opacity="1.000000" stroke-width="2.000000"
	d="
M36.500000,149.000000 
	C33.127743,149.495758 30.376492,151.452103 27.533949,153.060013 
	C24.138052,154.980927 23.351408,158.761703 25.033592,163.086365 
	C21.498756,165.847977 20.470110,169.584656 20.426104,173.999268 
	C20.363913,180.238068 21.460875,186.336502 22.000000,192.500000 
"/>
<path opacity="1.000000" stroke-width="2.000000"
	d="
M225.500000,504.000000 
	C215.947433,508.344574 205.590469,509.672607 195.500000,512.000000 
"/>
<path opacity="1.000000" stroke-width="2.000000"
	d="
M220.500000,14.500000 
	C217.249435,8.493924 211.477570,8.694646 206.008728,9.113871 
	C201.493301,9.460008 197.000809,9.355151 192.500000,9.500000 
"/>
<path opacity="1.000000" stroke-width="2.000000"
	d="
M92.500000,77.500000 
	C92.500000,87.166664 92.500000,96.833336 92.500000,106.500000 
"/>
<path opacity="1.000000" stroke-width="2.000000"
	d="
M309.000000,251.500000 
	C308.935364,258.514740 305.747620,264.239288 301.492950,269.494293 
	C295.987976,276.293610 288.457916,280.353607 281.000000,284.500000 
"/>
<path opacity="1.000000" stroke-width="4.000000"
	d="
M291.500000,17.500006 
	C291.000000,17.333340 290.479492,17.210489 290.005402,16.988453 
	C289.462769,16.734299 288.961334,16.392044 287.923920,15.784808 
	C284.816254,20.666666 289.559479,25.215950 288.684448,30.033503 
	C287.834595,34.712471 288.500000,39.666668 288.500000,44.500000 
"/>
<path opacity="1.000000" stroke-width="3.000000"
	d="
M34.500000,452.500000 
	C30.678350,454.973450 33.453369,457.994659 35.098579,458.798157 
	C40.417747,461.395905 43.634739,466.010559 47.472065,470.026703 
	C52.137924,474.909943 57.877686,478.085754 64.031250,480.417542 
	C69.156273,482.359558 72.766121,489.016693 70.500000,493.500000 
"/>
<path opacity="1.000000" stroke-width="3.000000"
	d="
M24.000000,17.000000 
	C24.999804,16.666079 25.999609,16.332157 26.995422,15.999778 
	C29.280293,17.867134 28.537964,20.211517 27.994171,22.498613 
	C26.328909,29.502424 26.495703,36.500000 28.000000,43.500000 
"/>
<path opacity="1.000000" stroke-width="2.000000"
	d="
M245.500000,200.500000 
	C246.333328,210.500000 247.166672,220.500000 248.000000,230.500000 
"/>
<path opacity="1.000000" stroke-width="3.000000"
	d="
M35.000000,459.500000 
	C33.386494,463.434326 35.737934,466.639984 37.052803,469.979218 
	C37.755226,471.763031 39.499233,473.228546 39.876526,475.025909 
	C40.373692,477.394379 41.688431,477.691193 43.496975,477.474731 
	C46.004005,477.174683 48.002041,477.848297 50.038559,479.451019 
	C58.446560,486.067902 66.999985,492.500000 75.499985,499.000000 
"/>
<path opacity="1.000000" stroke-width="2.000000"
	d="
M44.000000,1.500000 
	C43.700100,4.503193 43.400196,7.506386 43.087231,10.640358 
	C49.692837,16.485619 52.550053,25.148708 58.009304,31.992577 
	C59.554447,33.929604 60.007553,36.871922 63.000000,37.500000 
"/>
<path opacity="1.000000" stroke-width="2.000000"
	d="
M267.000000,1.500000 
	C268.243103,5.065333 266.801453,8.901856 268.325378,12.572492 
	C268.901123,13.959221 267.928955,16.454395 266.925690,17.950167 
	C262.599487,24.400059 258.011993,30.675306 253.467712,36.976719 
	C253.217575,37.323570 252.500000,37.333328 252.000000,37.499996 
"/>
<path opacity="1.000000" stroke-width="2.000000"
	d="
M251.000000,136.500000 
	C258.166656,139.833328 265.333344,143.166672 272.500000,146.500000 
"/>
<path opacity="1.000000" stroke-width="2.000000"
	d="
M64.500000,145.500000 
	C57.794727,147.307434 52.703697,151.950455 47.042667,155.566788 
	C45.713108,156.416138 44.663792,157.695404 43.000000,158.000000 
"/>
<path opacity="1.000000" stroke-width="2.000000"
	d="
M251.000000,129.000000 
	C258.000000,130.666672 265.000000,132.333328 272.000000,134.000000 
"/>
<path opacity="1.000000" stroke-width="2.000000"
	d="
M64.000000,137.500000 
	C55.180759,139.477325 47.529682,144.179962 39.492264,147.983658 
	C39.219921,148.112534 38.833332,148.000000 38.500000,148.000000 
"/>
<path opacity="1.000000" stroke-width="2.000000"
	d="
M119.500000,9.500000 
	C112.638512,9.615179 105.711533,8.835432 99.000000,11.000000 
"/>
<path opacity="1.000000" stroke-width="2.000000"
	d="
M271.000000,437.500000 
	C265.365326,440.301208 259.877808,443.275391 255.967819,448.475800 
	C255.002838,449.759369 253.867630,450.800232 255.000000,452.500000 
"/>
<path opacity="1.000000" stroke-width="2.000000"
	d="
M291.000000,164.500000 
	C293.938873,166.810806 294.763397,170.053284 294.450073,173.495453 
	C293.889008,179.658936 294.817383,185.940140 293.000000,192.000000 
"/>
<path opacity="1.000000" stroke-width="2.000000"
	d="
M81.500000,9.500000 
	C81.126808,15.831236 80.024055,22.124073 80.500000,28.500000 
"/>
<path opacity="1.000000" stroke-width="2.000000"
	d="
M42.500000,9.500000 
	C39.054947,8.873257 36.862759,6.083194 34.091858,4.352900 
	C31.097786,2.483247 28.279190,1.230742 25.041906,2.599140 
	C23.431858,3.279706 22.676281,2.099362 21.500000,2.000000 
"/>
<path opacity="1.000000" stroke-width="3.000000"
	d="
M23.500000,257.500000 
	C27.922834,257.584900 32.489784,256.733063 36.474304,259.628235 
	C35.642773,264.979065 36.124432,270.498718 36.000225,276.000000 
	C35.961052,277.734894 36.423084,279.826019 33.500000,279.500000 
"/>
<path opacity="1.000000" stroke-width="2.000000"
	d="
M239.500000,44.500000 
	C239.833328,53.500000 240.166672,62.500000 240.500000,71.500000 
"/>
<path opacity="1.000000" stroke-width="2.000000"
	d="
M77.500000,6.500000 
	C77.166664,12.166666 76.833328,17.833334 76.500000,23.500000 
"/>
<path opacity="1.000000" stroke-width="3.000000"
	d="
M76.500000,151.500000 
	C74.571793,156.331802 74.142326,161.212814 74.260353,166.505341 
	C74.415451,173.460358 75.586975,180.583511 73.500000,187.500000 
"/>
<path opacity="1.000000" stroke-width="2.000000"
	d="
M47.000000,20.500000 
	C47.053528,26.000000 44.646881,31.500000 47.000000,37.000000 
"/>
<path opacity="1.000000" stroke-width="2.000000"
	d="
M290.000000,439.500000 
	C286.527069,445.090118 286.130676,452.198944 281.078033,457.080750 
	C279.655304,458.455444 281.069550,460.904541 280.250458,463.093719 
	C279.070129,466.248444 277.361877,468.858246 275.500000,471.500000 
"/>
<path opacity="1.000000" stroke-width="3.000000"
	d="
M68.500000,466.500000 
	C69.014954,471.328339 69.368820,475.878326 72.729797,480.209656 
	C74.882545,482.984039 75.197632,487.464264 76.770203,491.099426 
	C77.622841,493.070343 78.301628,494.752350 80.553146,497.049500 
	C79.740883,497.568451 78.620461,498.284241 77.500031,499.000031 
"/>
<path opacity="1.000000" stroke-width="2.000000"
	d="
M40.500000,305.500000 
	C35.333332,307.000000 30.166666,308.500000 25.000000,310.000000 
"/>
<path opacity="1.000000" stroke-width="3.000000"
	d="
M57.000000,453.500000 
	C54.573711,455.333344 55.312725,457.517426 57.063648,458.920593 
	C59.933804,461.220734 63.001549,463.478027 67.000000,463.500000 
"/>
<path opacity="1.000000" stroke-width="3.000000"
	d="
M274.500000,147.500000 
	C280.198517,148.655685 284.934113,151.943497 290.000000,154.500000 
"/>
<path opacity="1.000000" stroke-width="3.000000"
	d="
M275.500000,244.500000 
	C275.238007,248.351974 277.557709,252.046295 276.070526,256.026337 
	C275.658569,257.128906 275.377594,258.188812 274.500000,259.000000 
"/>
<path opacity="1.000000" stroke-width="2.000000"
	d="
M279.500000,262.500000 
	C279.742584,268.853668 278.761353,275.303925 281.000000,281.500000 
"/>
<path opacity="1.000000" stroke-width="3.000000"
	d="
M73.500000,189.500000 
	C71.692184,193.770218 73.471855,198.170563 73.107719,202.509048 
	C73.001991,203.768768 74.260666,205.053864 76.000000,205.000000 
"/>
<path opacity="1.000000" stroke-width="3.000000"
	d="
M120.500000,512.500000 
	C119.310913,516.711121 122.546852,520.369141 122.000000,524.500000 
"/>
<path opacity="1.000000" stroke-width="2.000000"
	d="
M49.500000,1.500000 
	C46.931515,4.924163 49.032242,9.566382 46.500000,13.000000 
"/>
<path opacity="1.000000" stroke-width="2.000000"
	d="
M75.000000,136.500000 
	C73.545120,140.108109 73.855232,143.796448 74.500000,147.500000 
"/>
<path opacity="1.000000" stroke-width="2.000000"
	d="
M9.000000,250.500000 
	C11.740152,253.762344 15.729559,254.401260 19.500000,255.500000 
"/>
<path opacity="1.000000" stroke-width="2.000000"
	d="
M76.000000,136.500000 
	C77.071640,139.788086 76.240852,143.171295 76.500000,146.500000 
"/>
<path opacity="1.000000" stroke-width="3.000000"
	d="
M281.500000,445.500000 
	C281.681244,448.833344 278.069946,452.166656 281.500000,455.500000 
"/>
<path opacity="1.000000" stroke-width="2.000000"
	d="
M52.500000,441.500000 
	C50.333332,440.500000 48.039242,439.706024 46.024689,438.460083 
	C40.703510,435.169037 38.595505,435.707092 35.500000,441.500000 
"/>
<path opacity="1.000000" stroke-width="3.000000"
	d="
M273.000000,249.500000 
	C272.485260,256.986511 275.585144,264.062286 275.500000,271.500000 
"/>
<path opacity="1.000000" stroke-width="2.000000"
	d="
M270.500000,1.500000 
	C272.585388,3.999513 271.141724,7.329397 272.500000,10.000000 
"/>
<path opacity="1.000000" stroke-width="2.000000"
	d="
M291.500000,257.500000 
	C288.404846,257.429108 285.881714,260.790283 282.500000,259.000000 
"/>
<path opacity="1.000000" stroke-width="2.000000"
	d="
M294.500000,252.999985 
	C290.666656,254.333313 286.833313,255.666656 283.000000,256.999969 
"/>
<path opacity="1.000000" stroke-width="2.000000"
	d="
M275.500000,288.500000 
	C275.500000,292.000000 275.515839,295.500122 275.491364,298.999939 
	C275.482849,300.218994 275.926392,301.713196 274.000000,302.000000 
"/>
<path opacity="1.000000" stroke-width="3.000000"
	d="
M263.500000,257.000000 
	C265.782684,257.160339 266.377686,259.502136 268.008209,260.486389 
	C269.852417,261.599670 271.855530,262.033539 274.000000,261.500000 
"/>
<path opacity="1.000000" stroke-width="2.000000"
	d="
M274.500000,441.500000 
	C273.500031,440.166656 272.500031,438.833313 271.310089,437.246704 
	C274.709106,435.996887 277.508331,436.133392 279.500000,439.500000 
"/>
<path opacity="1.000000" stroke-width="2.000000"
	d="
M304.000000,252.000000 
	C301.000000,248.957352 298.000000,251.627350 295.000000,252.000000 
"/>
<path opacity="1.000000" stroke-width="3.000000"
	d="
M281.500000,258.499969 
	C279.666656,259.333313 277.833313,260.166656 276.000000,260.999969 
"/>
<path opacity="1.000000" stroke-width="2.000000"
	d="
M76.500000,492.500000 
	C75.166664,492.000000 73.833328,491.500000 72.500000,491.000000 
"/>
<path opacity="1.000000" stroke-width="2.000000"
	d="
M62.500004,450.500000 
	C62.333336,451.666656 62.166668,452.833344 62.000004,454.000000 
"/>
<path opacity="1.000000" stroke-width="2.000000"
	d="
M307.500000,251.000000 
	C305.274658,251.292496 303.870056,253.554825 301.500000,253.500000 
"/>
<path opacity="1.000000" stroke-width="2.000000"
	d="
M240.000000,130.500000 
	C241.418518,132.605560 239.931198,132.531738 238.500000,132.500000 
"/>
<path opacity="1.000000" stroke-width="1.000000"
	d="
M23.999996,254.500000 
	C24.333330,255.000000 24.666664,255.500000 24.999996,256.000000 
"/>
<path opacity="1.000000" stroke-width="1.000000"
	d="
M266.000000,319.500000 
	C266.333313,320.000000 266.666656,320.500000 267.000000,321.000000 
"/>
<path opacity="1.000000" stroke-width="1.000000"
	d="
M292.000000,193.000000 
	C291.666687,193.500000 291.333344,194.000000 291.000000,194.500000 
"/>
<path opacity="1.000000" stroke-width="3.000000"
	d="
M101.500000,116.000000 
	C98.946365,117.051376 98.980034,119.227852 98.982750,121.500023 
	C99.010811,144.999985 99.049423,168.500229 98.940613,191.999725 
	C98.926186,195.115051 99.892838,196.064835 103.000137,196.057205 
	C139.333252,195.967957 175.666794,195.954010 211.999847,196.056107 
	C216.730927,196.069397 216.501328,193.130493 216.500992,190.000000 
	C216.499023,171.000000 216.500000,152.000000 216.500000,133.000000 
	C216.500000,129.166672 216.367767,125.327454 216.537918,121.501686 
	C216.701599,117.821510 215.151169,116.602005 211.503525,116.426567 
	C191.670670,115.472672 171.833084,116.196434 151.999756,116.028938 
	C135.334274,115.888184 118.666664,116.000000 102.000000,116.000000 
"/>
</svg>